%
M48
M72
T01C0.0120
T02C0.0200
T03C0.0276
T04C0.0354
T05C0.0400
%
T01
X7485Y4780
X6375Y5230
X8625Y6000
X10518Y6727
X11195Y5760
X12265Y5120
X13199Y5134
X14275Y5770
X13705Y6500
X13366Y6803
X12265Y7210
X11815Y7220
X11145Y8390
X9665Y8730
X8705Y9080
X8795Y9630
X8511Y10057
X7685Y10630
X4895Y10620
X4895Y9640
X4895Y8840
X4895Y7740
X7225Y8690
X13035Y8260
X13475Y8030
X13775Y7957
X13775Y8257
X14235Y8020
X14235Y7720
X14235Y8610
X14235Y9576
X15995Y8410
X16825Y8110
X15975Y7450
X15905Y7114
X16325Y6540
X16625Y6540
X16705Y7040
X18270Y7305
X18395Y8120
X19005Y8790
X19055Y9240
X18705Y9560
X18335Y9280
X16575Y9160
X19355Y7510
X19395Y6880
X19044Y6100
X19268Y5840
X18306Y6150
X18265Y5400
X17025Y5260
X13475Y4650
X20670Y5025
X21555Y5221
X22518Y4940
X22508Y6331
X22725Y6580
X20798Y6172
X22565Y8860
X22555Y9490
X20675Y9480
X25395Y9640
X25395Y8840
X25395Y7740
X27725Y8690
X29205Y9080
X29295Y9630
X29011Y10057
X28185Y10630
X25395Y10620
X30165Y8730
X31645Y8390
X32315Y7220
X32765Y7210
X33866Y6803
X34205Y6500
X34775Y5770
X33699Y5134
X33975Y4650
X32765Y5120
X31695Y5760
X31018Y6727
X29125Y6000
X27985Y4780
X26875Y5230
X33535Y8260
X33975Y8030
X34275Y7957
X34275Y8257
X34735Y8020
X34735Y7720
X34735Y8610
X34735Y9576
X36495Y8410
X37325Y8110
X36475Y7450
X36405Y7114
X36825Y6540
X37125Y6540
X37205Y7040
X38770Y7305
X38895Y8120
X39505Y8790
X39555Y9240
X39205Y9560
X38835Y9280
X37075Y9160
X39855Y7510
X39895Y6880
X39544Y6100
X39768Y5840
X38806Y6150
X38765Y5400
X37525Y5260
X41170Y5025
X42055Y5221
X43018Y4940
X43008Y6331
X43225Y6580
X41298Y6172
X43065Y8860
X43055Y9490
X41175Y9480
X45895Y9640
X45895Y8840
X45895Y7740
X48225Y8690
X49705Y9080
X49795Y9630
X49511Y10057
X48685Y10630
X45895Y10620
X50665Y8730
X52145Y8390
X52815Y7220
X53265Y7210
X54366Y6803
X54705Y6500
X55275Y5770
X54199Y5134
X54475Y4650
X53265Y5120
X52195Y5760
X51518Y6727
X49625Y6000
X48485Y4780
X47375Y5230
X54035Y8260
X54475Y8030
X54775Y7957
X54775Y8257
X55235Y8020
X55235Y7720
X55235Y8610
X55235Y9576
X56995Y8410
X57825Y8110
X56975Y7450
X56905Y7114
X57325Y6540
X57625Y6540
X57705Y7040
X59270Y7305
X59395Y8120
X60005Y8790
X60055Y9240
X59705Y9560
X59335Y9280
X57575Y9160
X60355Y7510
X60395Y6880
X60044Y6100
X60268Y5840
X59306Y6150
X59265Y5400
X58025Y5260
X61670Y5025
X62555Y5221
X63518Y4940
X63508Y6331
X63725Y6580
X61798Y6172
X63565Y8860
X63555Y9490
X61675Y9480
X54475Y13850
X54199Y14334
X53265Y14320
X52195Y14960
X51518Y15927
X52815Y16420
X53265Y16410
X54366Y16003
X54705Y15700
X55275Y14970
X56905Y16314
X56975Y16650
X57705Y16240
X57625Y15740
X57325Y15740
X59306Y15350
X60044Y15300
X60268Y15040
X59265Y14600
X58025Y14460
X60395Y16080
X60355Y16710
X59270Y16505
X59395Y17320
X60005Y17990
X60055Y18440
X59705Y18760
X59335Y18480
X57575Y18360
X56995Y17610
X57825Y17310
X55235Y17220
X55235Y16920
X54775Y17157
X54775Y17457
X54475Y17230
X54035Y17460
X55235Y17810
X55235Y18776
X52145Y17590
X50665Y17930
X49705Y18280
X49795Y18830
X49511Y19257
X48685Y19830
X45895Y19820
X45895Y18840
X45895Y18040
X45895Y16940
X48225Y17890
X49625Y15200
X48485Y13980
X47375Y14430
X43225Y15780
X43008Y15531
X42055Y14421
X43018Y14140
X41170Y14225
X39768Y15040
X39544Y15300
X38806Y15350
X38765Y14600
X37525Y14460
X37125Y15740
X36825Y15740
X37205Y16240
X36405Y16314
X36475Y16650
X37325Y17310
X36495Y17610
X37075Y18360
X38835Y18480
X39205Y18760
X39555Y18440
X39505Y17990
X38895Y17320
X38770Y16505
X39855Y16710
X39895Y16080
X41298Y15372
X43065Y18060
X43055Y18690
X41175Y18680
X34735Y18776
X34735Y17810
X34275Y17457
X34275Y17157
X33975Y17230
X33535Y17460
X34735Y17220
X34735Y16920
X33866Y16003
X34205Y15700
X34775Y14970
X33699Y14334
X33975Y13850
X32765Y14320
X31695Y14960
X31018Y15927
X32315Y16420
X32765Y16410
X31645Y17590
X30165Y17930
X29205Y18280
X29295Y18830
X29011Y19257
X28185Y19830
X25395Y19820
X25395Y18840
X25395Y18040
X25395Y16940
X27725Y17890
X29125Y15200
X27985Y13980
X26875Y14430
X22725Y15780
X22508Y15531
X21555Y14421
X20670Y14225
X19268Y15040
X19044Y15300
X18306Y15350
X18265Y14600
X17025Y14460
X16625Y15740
X16325Y15740
X16705Y16240
X15905Y16314
X15975Y16650
X15995Y17610
X16825Y17310
X18270Y16505
X18395Y17320
X19355Y16710
X19395Y16080
X20798Y15372
X22518Y14140
X22565Y18060
X22555Y18690
X20675Y18680
X19055Y18440
X19005Y17990
X18335Y18480
X18705Y18760
X16575Y18360
X14235Y18776
X14235Y17810
X13775Y17457
X13775Y17157
X13475Y17230
X13035Y17460
X14235Y17220
X14235Y16920
X12265Y16410
X11815Y16420
X10518Y15927
X11195Y14960
X12265Y14320
X13199Y14334
X13475Y13850
X14275Y14970
X13705Y15700
X13366Y16003
X11145Y17590
X9665Y17930
X8705Y18280
X8795Y18830
X8511Y19257
X7685Y19830
X7225Y17890
X4895Y18040
X4895Y18840
X4895Y19820
X4895Y16940
X8625Y15200
X7485Y13980
X6375Y14430
X7485Y23180
X6375Y23630
X8625Y24400
X10518Y25127
X11195Y24160
X12265Y23520
X13199Y23534
X13475Y23050
X14275Y24170
X13705Y24900
X13366Y25203
X12265Y25610
X11815Y25620
X13475Y26430
X13775Y26357
X13775Y26657
X14235Y26420
X14235Y26120
X14235Y27010
X13035Y26660
X14235Y27976
X15995Y26810
X16825Y26510
X15975Y25850
X15905Y25514
X16705Y25440
X16625Y24940
X16325Y24940
X18306Y24550
X19044Y24500
X19268Y24240
X19395Y25280
X19355Y25910
X18395Y26520
X18270Y25705
X19005Y27190
X19055Y27640
X18705Y27960
X18335Y27680
X16575Y27560
X20675Y27880
X22555Y27890
X22565Y27260
X25395Y27240
X25395Y28040
X25395Y29020
X28185Y29030
X29011Y28457
X29295Y28030
X29205Y27480
X30165Y27130
X31645Y26790
X33535Y26660
X33975Y26430
X34275Y26357
X34275Y26657
X34735Y26420
X34735Y26120
X34735Y27010
X36495Y26810
X37325Y26510
X36475Y25850
X36405Y25514
X37205Y25440
X37125Y24940
X36825Y24940
X38806Y24550
X39544Y24500
X39768Y24240
X39895Y25280
X39855Y25910
X38770Y25705
X38895Y26520
X39505Y27190
X39555Y27640
X39205Y27960
X38835Y27680
X37075Y27560
X34735Y27976
X32765Y25610
X32315Y25620
X31018Y25127
X31695Y24160
X32765Y23520
X33699Y23534
X33975Y23050
X34775Y24170
X34205Y24900
X33866Y25203
X37525Y23660
X38765Y23800
X41170Y23425
X42055Y23621
X43018Y23340
X43008Y24731
X43225Y24980
X41298Y24572
X43065Y27260
X43055Y27890
X41175Y27880
X45895Y28040
X45895Y27240
X45895Y26140
X48225Y27090
X49705Y27480
X50665Y27130
X49795Y28030
X49511Y28457
X48685Y29030
X45895Y29020
X48485Y32380
X47375Y32830
X49625Y33600
X51518Y34327
X52815Y34820
X53265Y34810
X54366Y34403
X54705Y34100
X55275Y33370
X54199Y32734
X54475Y32250
X53265Y32720
X52195Y33360
X55235Y35320
X55235Y35620
X54775Y35557
X54775Y35857
X54475Y35630
X54035Y35860
X55235Y36210
X55235Y37176
X56995Y36010
X57825Y35710
X56975Y35050
X56905Y34714
X57705Y34640
X57625Y34140
X57325Y34140
X59306Y33750
X60044Y33700
X60268Y33440
X60395Y34480
X60355Y35110
X59270Y34905
X59395Y35720
X60005Y36390
X60055Y36840
X59705Y37160
X59335Y36880
X57575Y36760
X61675Y37080
X63555Y37090
X63565Y36460
X63725Y34180
X63508Y33931
X61798Y33772
X61670Y32625
X62555Y32821
X63518Y32540
X59265Y33000
X58025Y32860
X52145Y35990
X50665Y36330
X49705Y36680
X49795Y37230
X49511Y37657
X48685Y38230
X45895Y38220
X45895Y37240
X45895Y36440
X45895Y35340
X48225Y36290
X43065Y36460
X43055Y37090
X41175Y37080
X39555Y36840
X39505Y36390
X39205Y37160
X38835Y36880
X37075Y36760
X36495Y36010
X37325Y35710
X36475Y35050
X36405Y34714
X37205Y34640
X37125Y34140
X36825Y34140
X38806Y33750
X39544Y33700
X39768Y33440
X39895Y34480
X39855Y35110
X38770Y34905
X38895Y35720
X41298Y33772
X41170Y32625
X42055Y32821
X43018Y32540
X43008Y33931
X43225Y34180
X38765Y33000
X37525Y32860
X34775Y33370
X33699Y32734
X33975Y32250
X32765Y32720
X31695Y33360
X31018Y34327
X32315Y34820
X32765Y34810
X33866Y34403
X34205Y34100
X34735Y35320
X34735Y35620
X34275Y35557
X34275Y35857
X33975Y35630
X33535Y35860
X34735Y36210
X34735Y37176
X31645Y35990
X30165Y36330
X29205Y36680
X29295Y37230
X29011Y37657
X28185Y38230
X25395Y38220
X25395Y37240
X25395Y36440
X25395Y35340
X27725Y36290
X29125Y33600
X27985Y32380
X26875Y32830
X22725Y34180
X22508Y33931
X20798Y33772
X20670Y32625
X21555Y32821
X22518Y32540
X19268Y33440
X19044Y33700
X18306Y33750
X18265Y33000
X17025Y32860
X16625Y34140
X16325Y34140
X16705Y34640
X15905Y34714
X15975Y35050
X16825Y35710
X15995Y36010
X16575Y36760
X18335Y36880
X18705Y37160
X19055Y36840
X19005Y36390
X18395Y35720
X19355Y35110
X19395Y34480
X18270Y34905
X20675Y37080
X22555Y37090
X22565Y36460
X14235Y36210
X13775Y35857
X13775Y35557
X13475Y35630
X13035Y35860
X14235Y35620
X14235Y35320
X13366Y34403
X13705Y34100
X14275Y33370
X13199Y32734
X13475Y32250
X12265Y32720
X11195Y33360
X10518Y34327
X11815Y34820
X12265Y34810
X11145Y35990
X9665Y36330
X8705Y36680
X8795Y37230
X8511Y37657
X7685Y38230
X4895Y38220
X4895Y37240
X4895Y36440
X4895Y35340
X7225Y36290
X8625Y33600
X7485Y32380
X6375Y32830
X7685Y29030
X8511Y28457
X8795Y28030
X8705Y27480
X9665Y27130
X11145Y26790
X7225Y27090
X4895Y27240
X4895Y28040
X4895Y29020
X4895Y26140
X17025Y23660
X18265Y23800
X20670Y23425
X21555Y23621
X22518Y23340
X22508Y24731
X22725Y24980
X20798Y24572
X25395Y26140
X27725Y27090
X29125Y24400
X27985Y23180
X26875Y23630
X47375Y23630
X48485Y23180
X49625Y24400
X51518Y25127
X52195Y24160
X53265Y23520
X54199Y23534
X54475Y23050
X55275Y24170
X54705Y24900
X54366Y25203
X53265Y25610
X52815Y25620
X54475Y26430
X54775Y26357
X54775Y26657
X55235Y26420
X55235Y26120
X55235Y27010
X54035Y26660
X52145Y26790
X55235Y27976
X56995Y26810
X57825Y26510
X56975Y25850
X56905Y25514
X57705Y25440
X57625Y24940
X57325Y24940
X59306Y24550
X60044Y24500
X60268Y24240
X60395Y25280
X60355Y25910
X59270Y25705
X59395Y26520
X60005Y27190
X60055Y27640
X59705Y27960
X59335Y27680
X57575Y27560
X61675Y27880
X63555Y27890
X63565Y27260
X63725Y24980
X63508Y24731
X61798Y24572
X61670Y23425
X62555Y23621
X63518Y23340
X59265Y23800
X58025Y23660
X61675Y18680
X63555Y18690
X63565Y18060
X63725Y15780
X63508Y15531
X62555Y14421
X63518Y14140
X61670Y14225
X61798Y15372
X14235Y37176
T02
X19925Y35950
X20425Y35950
X20425Y35450
X19925Y35450
X19925Y34950
X20425Y34950
X20425Y34450
X19925Y34450
X19925Y33950
X20425Y33950
X20425Y26750
X19925Y26750
X19925Y26250
X20425Y26250
X20425Y25750
X19925Y25750
X19925Y25250
X20425Y25250
X20425Y24750
X19925Y24750
X19925Y17550
X20425Y17550
X20425Y17050
X19925Y17050
X19925Y16550
X20425Y16550
X20425Y16050
X19925Y16050
X19925Y15550
X20425Y15550
X20425Y8350
X19925Y8350
X19925Y7850
X20425Y7850
X20425Y7350
X19925Y7350
X19925Y6850
X20425Y6850
X20425Y6350
X19925Y6350
X40425Y6350
X40425Y6850
X40425Y7350
X40425Y7850
X40425Y8350
X40925Y8350
X40925Y7850
X40925Y7350
X40925Y6850
X40925Y6350
X40925Y15550
X40925Y16050
X40425Y16050
X40425Y15550
X40425Y16550
X40425Y17050
X40425Y17550
X40925Y17550
X40925Y17050
X40925Y16550
X40925Y24750
X40925Y25250
X40925Y25750
X40425Y25750
X40425Y25250
X40425Y24750
X40425Y26250
X40425Y26750
X40925Y26750
X40925Y26250
X40925Y33950
X40925Y34450
X40925Y34950
X40925Y35450
X40925Y35950
X40425Y35950
X40425Y35450
X40425Y34950
X40425Y34450
X40425Y33950
X60925Y33950
X60925Y34450
X60925Y34950
X60925Y35450
X60925Y35950
X61425Y35950
X61425Y35450
X61425Y34950
X61425Y34450
X61425Y33950
X61425Y26750
X61425Y26250
X60925Y26250
X60925Y26750
X60925Y25750
X60925Y25250
X60925Y24750
X61425Y24750
X61425Y25250
X61425Y25750
X61425Y17550
X61425Y17050
X61425Y16550
X60925Y16550
X60925Y17050
X60925Y17550
X60925Y16050
X60925Y15550
X61425Y15550
X61425Y16050
X61425Y8350
X61425Y7850
X61425Y7350
X61425Y6850
X61425Y6350
X60925Y6350
X60925Y6850
X60925Y7350
X60925Y7850
X60925Y8350
T03
X50675Y9896
X50675Y10604
X50675Y13296
X50675Y14004
X50675Y19096
X50675Y19804
X50675Y22496
X50675Y23204
X50675Y28296
X50675Y29004
X50675Y31696
X50675Y32404
X50675Y37496
X50675Y38204
X30175Y38204
X30175Y37496
X30175Y32404
X30175Y31696
X30175Y29004
X30175Y28296
X30175Y23204
X30175Y22496
X30175Y19804
X30175Y19096
X30175Y14004
X30175Y13296
X30175Y10604
X30175Y9896
X30175Y4804
X30175Y4096
X9675Y4096
X9675Y4804
X9675Y9896
X9675Y10604
X9675Y13296
X9675Y14004
X9675Y19096
X9675Y19804
X9675Y22496
X9675Y23204
X9675Y28296
X9675Y29004
X9675Y31696
X9675Y32404
X9675Y37496
X9675Y38204
X50675Y4804
X50675Y4096
T04
X50675Y6759
X50675Y7941
X50675Y15959
X50675Y17141
X50675Y25159
X50675Y26341
X50675Y34359
X50675Y35541
X30175Y35541
X30175Y34359
X30175Y26341
X30175Y25159
X30175Y17141
X30175Y15959
X30175Y7941
X30175Y6759
X9675Y6759
X9675Y7941
X9675Y15959
X9675Y17141
X9675Y25159
X9675Y26341
X9675Y34359
X9675Y35541
T05
X11675Y37950
X12675Y37950
X13675Y37950
X14675Y37950
X15675Y37950
X16675Y37950
X17675Y37950
X18675Y37950
X19675Y37950
X20675Y37950
X21675Y37950
X22675Y37950
X22675Y38950
X21675Y38950
X20675Y38950
X19675Y38950
X18675Y38950
X17675Y38950
X16675Y38950
X15675Y38950
X14675Y38950
X13675Y38950
X12675Y38950
X11675Y38950
X5175Y33700
X5175Y32700
X11675Y31950
X12675Y31950
X12675Y30950
X11675Y30950
X11675Y29750
X12675Y29750
X13675Y29750
X14675Y29750
X15675Y29750
X16675Y29750
X17675Y29750
X18675Y29750
X19675Y29750
X20675Y29750
X21675Y29750
X22675Y29750
X22675Y28750
X21675Y28750
X20675Y28750
X19675Y28750
X18675Y28750
X17675Y28750
X16675Y28750
X15675Y28750
X14675Y28750
X13675Y28750
X12675Y28750
X11675Y28750
X16675Y30950
X16675Y31950
X17675Y31950
X18675Y31950
X19675Y31950
X19675Y30950
X18675Y30950
X17675Y30950
X20675Y30950
X21675Y30950
X22675Y30950
X22675Y31950
X21675Y31950
X20675Y31950
X22025Y34450
X22025Y35450
X25675Y33700
X25675Y32700
X32175Y31950
X33175Y31950
X33175Y30950
X32175Y30950
X32175Y29750
X33175Y29750
X34175Y29750
X35175Y29750
X36175Y29750
X37175Y29750
X38175Y29750
X39175Y29750
X40175Y29750
X41175Y29750
X42175Y29750
X43175Y29750
X43175Y28750
X42175Y28750
X41175Y28750
X40175Y28750
X39175Y28750
X38175Y28750
X37175Y28750
X36175Y28750
X35175Y28750
X34175Y28750
X33175Y28750
X32175Y28750
X37175Y30950
X37175Y31950
X38175Y31950
X39175Y31950
X40175Y31950
X41175Y31950
X41175Y30950
X40175Y30950
X39175Y30950
X38175Y30950
X42175Y30950
X43175Y30950
X43175Y31950
X42175Y31950
X46175Y32700
X46175Y33700
X42525Y34450
X42525Y35450
X42175Y37950
X43175Y37950
X43175Y38950
X42175Y38950
X41175Y38950
X40175Y38950
X39175Y38950
X38175Y38950
X37175Y38950
X36175Y38950
X35175Y38950
X34175Y38950
X33175Y38950
X32175Y38950
X32175Y37950
X33175Y37950
X34175Y37950
X35175Y37950
X36175Y37950
X37175Y37950
X38175Y37950
X39175Y37950
X40175Y37950
X41175Y37950
X52675Y37950
X53675Y37950
X54675Y37950
X55675Y37950
X56675Y37950
X57675Y37950
X58675Y37950
X59675Y37950
X60675Y37950
X61675Y37950
X62675Y37950
X63675Y37950
X63675Y38950
X62675Y38950
X61675Y38950
X60675Y38950
X59675Y38950
X58675Y38950
X57675Y38950
X56675Y38950
X55675Y38950
X54675Y38950
X53675Y38950
X52675Y38950
X63025Y35450
X63025Y34450
X62675Y31950
X63675Y31950
X63675Y30950
X62675Y30950
X61675Y30950
X60675Y30950
X59675Y30950
X59675Y31950
X60675Y31950
X61675Y31950
X58675Y31950
X57675Y31950
X57675Y30950
X58675Y30950
X58675Y29750
X57675Y29750
X56675Y29750
X55675Y29750
X54675Y29750
X53675Y29750
X52675Y29750
X52675Y28750
X53675Y28750
X54675Y28750
X55675Y28750
X56675Y28750
X57675Y28750
X58675Y28750
X59675Y28750
X60675Y28750
X61675Y28750
X62675Y28750
X63675Y28750
X63675Y29750
X62675Y29750
X61675Y29750
X60675Y29750
X59675Y29750
X63025Y26250
X63025Y25250
X62675Y22750
X63675Y22750
X63675Y21750
X62675Y21750
X61675Y21750
X60675Y21750
X59675Y21750
X59675Y22750
X60675Y22750
X61675Y22750
X58675Y22750
X57675Y22750
X57675Y21750
X58675Y21750
X58675Y20550
X57675Y20550
X56675Y20550
X56675Y19550
X57675Y19550
X58675Y19550
X59675Y19550
X60675Y19550
X61675Y19550
X61675Y20550
X60675Y20550
X59675Y20550
X62675Y20550
X63675Y20550
X63675Y19550
X62675Y19550
X63025Y17050
X63025Y16050
X62675Y13550
X63675Y13550
X63675Y12550
X62675Y12550
X61675Y12550
X60675Y12550
X59675Y12550
X58675Y12550
X57675Y12550
X57675Y13550
X58675Y13550
X59675Y13550
X60675Y13550
X61675Y13550
X61675Y11350
X60675Y11350
X59675Y11350
X59675Y10350
X60675Y10350
X61675Y10350
X62675Y10350
X63675Y10350
X63675Y11350
X62675Y11350
X58675Y11350
X57675Y11350
X56675Y11350
X56675Y10350
X57675Y10350
X58675Y10350
X55675Y10350
X54675Y10350
X53675Y10350
X52675Y10350
X52675Y11350
X53675Y11350
X54675Y11350
X55675Y11350
X53675Y12550
X52675Y12550
X52675Y13550
X53675Y13550
X46175Y14300
X46175Y15300
X43175Y13550
X42175Y13550
X41175Y13550
X40175Y13550
X39175Y13550
X38175Y13550
X37175Y13550
X37175Y12550
X38175Y12550
X39175Y12550
X40175Y12550
X41175Y12550
X42175Y12550
X43175Y12550
X43175Y11350
X42175Y11350
X42175Y10350
X43175Y10350
X41175Y10350
X40175Y10350
X39175Y10350
X38175Y10350
X38175Y11350
X39175Y11350
X40175Y11350
X41175Y11350
X37175Y11350
X36175Y11350
X35175Y11350
X35175Y10350
X36175Y10350
X37175Y10350
X34175Y10350
X33175Y10350
X32175Y10350
X32175Y11350
X33175Y11350
X34175Y11350
X33175Y12550
X32175Y12550
X32175Y13550
X33175Y13550
X25675Y14300
X25675Y15300
X22675Y13550
X21675Y13550
X20675Y13550
X19675Y13550
X18675Y13550
X17675Y13550
X16675Y13550
X16675Y12550
X17675Y12550
X18675Y12550
X19675Y12550
X20675Y12550
X21675Y12550
X22675Y12550
X22675Y11350
X21675Y11350
X20675Y11350
X20675Y10350
X21675Y10350
X22675Y10350
X19675Y10350
X18675Y10350
X17675Y10350
X17675Y11350
X18675Y11350
X19675Y11350
X16675Y11350
X15675Y11350
X14675Y11350
X14675Y10350
X15675Y10350
X16675Y10350
X13675Y10350
X12675Y10350
X11675Y10350
X11675Y11350
X12675Y11350
X13675Y11350
X12675Y12550
X11675Y12550
X11675Y13550
X12675Y13550
X5175Y14300
X5175Y15300
X11675Y19550
X12675Y19550
X13675Y19550
X13675Y20550
X12675Y20550
X11675Y20550
X11675Y21750
X12675Y21750
X12675Y22750
X11675Y22750
X14675Y20550
X15675Y20550
X16675Y20550
X16675Y19550
X15675Y19550
X14675Y19550
X17675Y19550
X18675Y19550
X19675Y19550
X19675Y20550
X18675Y20550
X17675Y20550
X17675Y21750
X18675Y21750
X19675Y21750
X19675Y22750
X18675Y22750
X17675Y22750
X16675Y22750
X16675Y21750
X20675Y21750
X21675Y21750
X22675Y21750
X22675Y22750
X21675Y22750
X20675Y22750
X20675Y20550
X21675Y20550
X22675Y20550
X22675Y19550
X21675Y19550
X20675Y19550
X22025Y17050
X22025Y16050
X32175Y19550
X33175Y19550
X34175Y19550
X34175Y20550
X33175Y20550
X32175Y20550
X32175Y21750
X33175Y21750
X33175Y22750
X32175Y22750
X35175Y20550
X36175Y20550
X37175Y20550
X37175Y19550
X36175Y19550
X35175Y19550
X38175Y19550
X39175Y19550
X40175Y19550
X41175Y19550
X41175Y20550
X40175Y20550
X39175Y20550
X38175Y20550
X38175Y21750
X39175Y21750
X40175Y21750
X41175Y21750
X41175Y22750
X40175Y22750
X39175Y22750
X38175Y22750
X37175Y22750
X37175Y21750
X42175Y21750
X43175Y21750
X43175Y22750
X42175Y22750
X42175Y20550
X43175Y20550
X43175Y19550
X42175Y19550
X42525Y17050
X42525Y16050
X52675Y19550
X53675Y19550
X54675Y19550
X55675Y19550
X55675Y20550
X54675Y20550
X53675Y20550
X52675Y20550
X52675Y21750
X53675Y21750
X53675Y22750
X52675Y22750
X46175Y23500
X46175Y24500
X42525Y25250
X42525Y26250
X52675Y30950
X53675Y30950
X53675Y31950
X52675Y31950
X25675Y24500
X25675Y23500
X22025Y25250
X22025Y26250
X5175Y24500
X5175Y23500
X22025Y7850
X22025Y6850
X25675Y6100
X25675Y5100
X22675Y4350
X21675Y4350
X20675Y4350
X19675Y4350
X18675Y4350
X17675Y4350
X16675Y4350
X16675Y3350
X17675Y3350
X18675Y3350
X19675Y3350
X20675Y3350
X21675Y3350
X22675Y3350
X32175Y3350
X33175Y3350
X33175Y4350
X32175Y4350
X37175Y4350
X38175Y4350
X39175Y4350
X40175Y4350
X41175Y4350
X42175Y4350
X43175Y4350
X43175Y3350
X42175Y3350
X41175Y3350
X40175Y3350
X39175Y3350
X38175Y3350
X37175Y3350
X42525Y6850
X42525Y7850
X46175Y6100
X46175Y5100
X52675Y4350
X53675Y4350
X53675Y3350
X52675Y3350
X57675Y3350
X58675Y3350
X59675Y3350
X60675Y3350
X61675Y3350
X62675Y3350
X63675Y3350
X63675Y4350
X62675Y4350
X61675Y4350
X60675Y4350
X59675Y4350
X58675Y4350
X57675Y4350
X63025Y6850
X63025Y7850
X12675Y4350
X11675Y4350
X11675Y3350
X12675Y3350
X5175Y5100
X5175Y6100
M30
