G75*
%MOIN*%
%OFA0B0*%
%FSLAX25Y25*%
%IPPOS*%
%LPD*%
%AMOC8*
5,1,8,0,0,1.08239X$1,22.5*
%
%ADD10R,0.05131X0.04737*%
%ADD11C,0.01990*%
%ADD12R,0.07690X0.02375*%
%ADD13R,0.06548X0.08674*%
%ADD14R,0.10643X0.06410*%
%ADD15C,0.00400*%
%ADD16R,0.07887X0.04737*%
%ADD17R,0.04737X0.05131*%
%ADD18R,0.02375X0.03162*%
%ADD19R,0.03162X0.02375*%
%ADD20C,0.08200*%
%ADD21C,0.03556*%
%ADD22R,0.05131X0.08674*%
%ADD23R,0.05524X0.08674*%
%ADD24R,0.03162X0.06115*%
%ADD25R,0.18910X0.04737*%
%ADD26R,0.14186X0.07099*%
%ADD27R,0.02965X0.05524*%
%ADD28R,0.03280X0.04068*%
%ADD29R,0.05524X0.02965*%
%ADD30C,0.04737*%
%ADD31R,0.06706X0.03556*%
%ADD32R,0.03162X0.04737*%
%ADD33R,0.03950X0.04737*%
%ADD34C,0.04343*%
%ADD35C,0.03300*%
%ADD36C,0.05000*%
%ADD37C,0.06706*%
D10*
X0115904Y0055000D03*
X0115904Y0061000D03*
X0122596Y0061000D03*
X0122596Y0055000D03*
X0128904Y0055000D03*
X0128904Y0061000D03*
X0135596Y0061000D03*
X0135596Y0055000D03*
X0148404Y0067500D03*
X0155096Y0067500D03*
X0172404Y0070000D03*
X0172404Y0064000D03*
X0179096Y0064000D03*
X0179096Y0070000D03*
X0179096Y0080500D03*
X0172404Y0080500D03*
X0155096Y0093500D03*
X0148404Y0093500D03*
X0135596Y0090500D03*
X0128904Y0090500D03*
X0122596Y0090500D03*
X0115904Y0090500D03*
X0115904Y0084500D03*
X0122596Y0084500D03*
X0082596Y0090500D03*
X0082596Y0096300D03*
X0075904Y0096300D03*
X0075904Y0090500D03*
X0115904Y0147000D03*
X0122596Y0147000D03*
X0128904Y0147000D03*
X0135596Y0147000D03*
X0135596Y0153000D03*
X0128904Y0153000D03*
X0122596Y0153000D03*
X0115904Y0153000D03*
X0148404Y0159500D03*
X0155096Y0159500D03*
X0172404Y0162000D03*
X0179096Y0162000D03*
X0179096Y0156000D03*
X0179096Y0150000D03*
X0172404Y0150000D03*
X0172404Y0156000D03*
X0172404Y0172500D03*
X0179096Y0172500D03*
X0155096Y0185500D03*
X0148404Y0185500D03*
X0135596Y0182500D03*
X0128904Y0182500D03*
X0122596Y0182500D03*
X0115904Y0182500D03*
X0115904Y0176500D03*
X0122596Y0176500D03*
X0082596Y0182500D03*
X0082596Y0188300D03*
X0075904Y0188300D03*
X0075904Y0182500D03*
X0115904Y0239000D03*
X0115904Y0245000D03*
X0122596Y0245000D03*
X0122596Y0239000D03*
X0128904Y0239000D03*
X0128904Y0245000D03*
X0135596Y0245000D03*
X0135596Y0239000D03*
X0148404Y0251500D03*
X0155096Y0251500D03*
X0172404Y0254000D03*
X0179096Y0254000D03*
X0179096Y0248000D03*
X0179096Y0242000D03*
X0172404Y0242000D03*
X0172404Y0248000D03*
X0172404Y0264500D03*
X0179096Y0264500D03*
X0155096Y0277500D03*
X0148404Y0277500D03*
X0135596Y0274500D03*
X0128904Y0274500D03*
X0122596Y0274500D03*
X0122596Y0268500D03*
X0115904Y0268500D03*
X0115904Y0274500D03*
X0082596Y0274500D03*
X0075904Y0274500D03*
X0075904Y0280300D03*
X0082596Y0280300D03*
X0115904Y0331000D03*
X0115904Y0337000D03*
X0122596Y0337000D03*
X0122596Y0331000D03*
X0128904Y0331000D03*
X0128904Y0337000D03*
X0135596Y0337000D03*
X0135596Y0331000D03*
X0148404Y0343500D03*
X0155096Y0343500D03*
X0172404Y0346000D03*
X0172404Y0340000D03*
X0179096Y0340000D03*
X0179096Y0346000D03*
X0179096Y0356500D03*
X0172404Y0356500D03*
X0155096Y0369500D03*
X0148404Y0369500D03*
X0135596Y0366500D03*
X0128904Y0366500D03*
X0122596Y0366500D03*
X0122596Y0360500D03*
X0115904Y0360500D03*
X0115904Y0366500D03*
X0082596Y0366500D03*
X0075904Y0366500D03*
X0075904Y0372300D03*
X0082596Y0372300D03*
X0172404Y0334000D03*
X0179096Y0334000D03*
X0280904Y0366500D03*
X0287596Y0366500D03*
X0287596Y0372300D03*
X0280904Y0372300D03*
X0320904Y0366500D03*
X0320904Y0360500D03*
X0327596Y0360500D03*
X0327596Y0366500D03*
X0333904Y0366500D03*
X0340596Y0366500D03*
X0353404Y0369500D03*
X0360096Y0369500D03*
X0377404Y0356500D03*
X0384096Y0356500D03*
X0384096Y0346000D03*
X0384096Y0340000D03*
X0377404Y0340000D03*
X0377404Y0346000D03*
X0360096Y0343500D03*
X0353404Y0343500D03*
X0340596Y0337000D03*
X0340596Y0331000D03*
X0333904Y0331000D03*
X0333904Y0337000D03*
X0327596Y0337000D03*
X0327596Y0331000D03*
X0320904Y0331000D03*
X0320904Y0337000D03*
X0377404Y0334000D03*
X0384096Y0334000D03*
X0360096Y0277500D03*
X0353404Y0277500D03*
X0340596Y0274500D03*
X0333904Y0274500D03*
X0327596Y0274500D03*
X0327596Y0268500D03*
X0320904Y0268500D03*
X0320904Y0274500D03*
X0287596Y0274500D03*
X0280904Y0274500D03*
X0280904Y0280300D03*
X0287596Y0280300D03*
X0320904Y0245000D03*
X0320904Y0239000D03*
X0327596Y0239000D03*
X0327596Y0245000D03*
X0333904Y0245000D03*
X0333904Y0239000D03*
X0340596Y0239000D03*
X0340596Y0245000D03*
X0353404Y0251500D03*
X0360096Y0251500D03*
X0377404Y0254000D03*
X0384096Y0254000D03*
X0384096Y0248000D03*
X0384096Y0242000D03*
X0377404Y0242000D03*
X0377404Y0248000D03*
X0377404Y0264500D03*
X0384096Y0264500D03*
X0485904Y0274500D03*
X0492596Y0274500D03*
X0492596Y0280300D03*
X0485904Y0280300D03*
X0525904Y0274500D03*
X0525904Y0268500D03*
X0532596Y0268500D03*
X0532596Y0274500D03*
X0538904Y0274500D03*
X0545596Y0274500D03*
X0558404Y0277500D03*
X0565096Y0277500D03*
X0582404Y0264500D03*
X0589096Y0264500D03*
X0589096Y0254000D03*
X0582404Y0254000D03*
X0582404Y0248000D03*
X0582404Y0242000D03*
X0589096Y0242000D03*
X0589096Y0248000D03*
X0565096Y0251500D03*
X0558404Y0251500D03*
X0545596Y0245000D03*
X0545596Y0239000D03*
X0538904Y0239000D03*
X0538904Y0245000D03*
X0532596Y0245000D03*
X0532596Y0239000D03*
X0525904Y0239000D03*
X0525904Y0245000D03*
X0492596Y0188300D03*
X0492596Y0182500D03*
X0485904Y0182500D03*
X0485904Y0188300D03*
X0525904Y0182500D03*
X0532596Y0182500D03*
X0538904Y0182500D03*
X0545596Y0182500D03*
X0558404Y0185500D03*
X0565096Y0185500D03*
X0582404Y0172500D03*
X0589096Y0172500D03*
X0589096Y0162000D03*
X0582404Y0162000D03*
X0582404Y0156000D03*
X0582404Y0150000D03*
X0589096Y0150000D03*
X0589096Y0156000D03*
X0565096Y0159500D03*
X0558404Y0159500D03*
X0545596Y0153000D03*
X0538904Y0153000D03*
X0532596Y0153000D03*
X0525904Y0153000D03*
X0525904Y0147000D03*
X0532596Y0147000D03*
X0538904Y0147000D03*
X0545596Y0147000D03*
X0532596Y0176500D03*
X0525904Y0176500D03*
X0384096Y0172500D03*
X0377404Y0172500D03*
X0377404Y0162000D03*
X0384096Y0162000D03*
X0384096Y0156000D03*
X0384096Y0150000D03*
X0377404Y0150000D03*
X0377404Y0156000D03*
X0360096Y0159500D03*
X0353404Y0159500D03*
X0340596Y0153000D03*
X0333904Y0153000D03*
X0327596Y0153000D03*
X0320904Y0153000D03*
X0320904Y0147000D03*
X0327596Y0147000D03*
X0333904Y0147000D03*
X0340596Y0147000D03*
X0327596Y0176500D03*
X0320904Y0176500D03*
X0320904Y0182500D03*
X0327596Y0182500D03*
X0333904Y0182500D03*
X0340596Y0182500D03*
X0353404Y0185500D03*
X0360096Y0185500D03*
X0287596Y0188300D03*
X0287596Y0182500D03*
X0280904Y0182500D03*
X0280904Y0188300D03*
X0280904Y0096300D03*
X0280904Y0090500D03*
X0287596Y0090500D03*
X0287596Y0096300D03*
X0320904Y0090500D03*
X0327596Y0090500D03*
X0333904Y0090500D03*
X0340596Y0090500D03*
X0353404Y0093500D03*
X0360096Y0093500D03*
X0377404Y0080500D03*
X0384096Y0080500D03*
X0384096Y0070000D03*
X0384096Y0064000D03*
X0377404Y0064000D03*
X0377404Y0070000D03*
X0360096Y0067500D03*
X0353404Y0067500D03*
X0340596Y0061000D03*
X0340596Y0055000D03*
X0333904Y0055000D03*
X0333904Y0061000D03*
X0327596Y0061000D03*
X0327596Y0055000D03*
X0320904Y0055000D03*
X0320904Y0061000D03*
X0320904Y0084500D03*
X0327596Y0084500D03*
X0377404Y0058000D03*
X0384096Y0058000D03*
X0485904Y0090500D03*
X0485904Y0096300D03*
X0492596Y0096300D03*
X0492596Y0090500D03*
X0525904Y0090500D03*
X0532596Y0090500D03*
X0538904Y0090500D03*
X0545596Y0090500D03*
X0558404Y0093500D03*
X0565096Y0093500D03*
X0582404Y0080500D03*
X0589096Y0080500D03*
X0589096Y0070000D03*
X0589096Y0064000D03*
X0582404Y0064000D03*
X0582404Y0070000D03*
X0565096Y0067500D03*
X0558404Y0067500D03*
X0545596Y0061000D03*
X0545596Y0055000D03*
X0538904Y0055000D03*
X0538904Y0061000D03*
X0532596Y0061000D03*
X0532596Y0055000D03*
X0525904Y0055000D03*
X0525904Y0061000D03*
X0525904Y0084500D03*
X0532596Y0084500D03*
X0582404Y0058000D03*
X0589096Y0058000D03*
X0179096Y0058000D03*
X0172404Y0058000D03*
X0525904Y0331000D03*
X0525904Y0337000D03*
X0532596Y0337000D03*
X0532596Y0331000D03*
X0538904Y0331000D03*
X0538904Y0337000D03*
X0545596Y0337000D03*
X0545596Y0331000D03*
X0558404Y0343500D03*
X0565096Y0343500D03*
X0582404Y0346000D03*
X0582404Y0340000D03*
X0589096Y0340000D03*
X0589096Y0346000D03*
X0589096Y0356500D03*
X0582404Y0356500D03*
X0565096Y0369500D03*
X0558404Y0369500D03*
X0545596Y0366500D03*
X0538904Y0366500D03*
X0532596Y0366500D03*
X0532596Y0360500D03*
X0525904Y0360500D03*
X0525904Y0366500D03*
X0492596Y0366500D03*
X0485904Y0366500D03*
X0485904Y0372300D03*
X0492596Y0372300D03*
X0582404Y0334000D03*
X0589096Y0334000D03*
D11*
X0563830Y0348127D02*
X0563830Y0350873D01*
X0566576Y0350873D01*
X0566576Y0348127D01*
X0563830Y0348127D01*
X0563830Y0350017D02*
X0566576Y0350017D01*
X0556924Y0350873D02*
X0556924Y0348127D01*
X0556924Y0350873D02*
X0559670Y0350873D01*
X0559670Y0348127D01*
X0556924Y0348127D01*
X0556924Y0350017D02*
X0559670Y0350017D01*
X0488830Y0378127D02*
X0488830Y0380873D01*
X0491576Y0380873D01*
X0491576Y0378127D01*
X0488830Y0378127D01*
X0488830Y0380017D02*
X0491576Y0380017D01*
X0481924Y0380873D02*
X0481924Y0378127D01*
X0481924Y0380873D02*
X0484670Y0380873D01*
X0484670Y0378127D01*
X0481924Y0378127D01*
X0481924Y0380017D02*
X0484670Y0380017D01*
X0485377Y0360326D02*
X0488123Y0360326D01*
X0488123Y0357580D01*
X0485377Y0357580D01*
X0485377Y0360326D01*
X0485377Y0359470D02*
X0488123Y0359470D01*
X0488123Y0353420D02*
X0485377Y0353420D01*
X0488123Y0353420D02*
X0488123Y0350674D01*
X0485377Y0350674D01*
X0485377Y0353420D01*
X0485377Y0352564D02*
X0488123Y0352564D01*
X0488830Y0288873D02*
X0488830Y0286127D01*
X0488830Y0288873D02*
X0491576Y0288873D01*
X0491576Y0286127D01*
X0488830Y0286127D01*
X0488830Y0288017D02*
X0491576Y0288017D01*
X0481924Y0288873D02*
X0481924Y0286127D01*
X0481924Y0288873D02*
X0484670Y0288873D01*
X0484670Y0286127D01*
X0481924Y0286127D01*
X0481924Y0288017D02*
X0484670Y0288017D01*
X0485377Y0268326D02*
X0488123Y0268326D01*
X0488123Y0265580D01*
X0485377Y0265580D01*
X0485377Y0268326D01*
X0485377Y0267470D02*
X0488123Y0267470D01*
X0488123Y0261420D02*
X0485377Y0261420D01*
X0488123Y0261420D02*
X0488123Y0258674D01*
X0485377Y0258674D01*
X0485377Y0261420D01*
X0485377Y0260564D02*
X0488123Y0260564D01*
X0556924Y0258873D02*
X0556924Y0256127D01*
X0556924Y0258873D02*
X0559670Y0258873D01*
X0559670Y0256127D01*
X0556924Y0256127D01*
X0556924Y0258017D02*
X0559670Y0258017D01*
X0563830Y0258873D02*
X0563830Y0256127D01*
X0563830Y0258873D02*
X0566576Y0258873D01*
X0566576Y0256127D01*
X0563830Y0256127D01*
X0563830Y0258017D02*
X0566576Y0258017D01*
X0488830Y0196873D02*
X0488830Y0194127D01*
X0488830Y0196873D02*
X0491576Y0196873D01*
X0491576Y0194127D01*
X0488830Y0194127D01*
X0488830Y0196017D02*
X0491576Y0196017D01*
X0481924Y0196873D02*
X0481924Y0194127D01*
X0481924Y0196873D02*
X0484670Y0196873D01*
X0484670Y0194127D01*
X0481924Y0194127D01*
X0481924Y0196017D02*
X0484670Y0196017D01*
X0485377Y0176326D02*
X0488123Y0176326D01*
X0488123Y0173580D01*
X0485377Y0173580D01*
X0485377Y0176326D01*
X0485377Y0175470D02*
X0488123Y0175470D01*
X0488123Y0169420D02*
X0485377Y0169420D01*
X0488123Y0169420D02*
X0488123Y0166674D01*
X0485377Y0166674D01*
X0485377Y0169420D01*
X0485377Y0168564D02*
X0488123Y0168564D01*
X0556924Y0166873D02*
X0556924Y0164127D01*
X0556924Y0166873D02*
X0559670Y0166873D01*
X0559670Y0164127D01*
X0556924Y0164127D01*
X0556924Y0166017D02*
X0559670Y0166017D01*
X0563830Y0166873D02*
X0563830Y0164127D01*
X0563830Y0166873D02*
X0566576Y0166873D01*
X0566576Y0164127D01*
X0563830Y0164127D01*
X0563830Y0166017D02*
X0566576Y0166017D01*
X0488830Y0104873D02*
X0488830Y0102127D01*
X0488830Y0104873D02*
X0491576Y0104873D01*
X0491576Y0102127D01*
X0488830Y0102127D01*
X0488830Y0104017D02*
X0491576Y0104017D01*
X0481924Y0104873D02*
X0481924Y0102127D01*
X0481924Y0104873D02*
X0484670Y0104873D01*
X0484670Y0102127D01*
X0481924Y0102127D01*
X0481924Y0104017D02*
X0484670Y0104017D01*
X0485377Y0084326D02*
X0488123Y0084326D01*
X0488123Y0081580D01*
X0485377Y0081580D01*
X0485377Y0084326D01*
X0485377Y0083470D02*
X0488123Y0083470D01*
X0488123Y0077420D02*
X0485377Y0077420D01*
X0488123Y0077420D02*
X0488123Y0074674D01*
X0485377Y0074674D01*
X0485377Y0077420D01*
X0485377Y0076564D02*
X0488123Y0076564D01*
X0556924Y0074873D02*
X0556924Y0072127D01*
X0556924Y0074873D02*
X0559670Y0074873D01*
X0559670Y0072127D01*
X0556924Y0072127D01*
X0556924Y0074017D02*
X0559670Y0074017D01*
X0563830Y0074873D02*
X0563830Y0072127D01*
X0563830Y0074873D02*
X0566576Y0074873D01*
X0566576Y0072127D01*
X0563830Y0072127D01*
X0563830Y0074017D02*
X0566576Y0074017D01*
X0358830Y0074873D02*
X0358830Y0072127D01*
X0358830Y0074873D02*
X0361576Y0074873D01*
X0361576Y0072127D01*
X0358830Y0072127D01*
X0358830Y0074017D02*
X0361576Y0074017D01*
X0351924Y0074873D02*
X0351924Y0072127D01*
X0351924Y0074873D02*
X0354670Y0074873D01*
X0354670Y0072127D01*
X0351924Y0072127D01*
X0351924Y0074017D02*
X0354670Y0074017D01*
X0283830Y0102127D02*
X0283830Y0104873D01*
X0286576Y0104873D01*
X0286576Y0102127D01*
X0283830Y0102127D01*
X0283830Y0104017D02*
X0286576Y0104017D01*
X0276924Y0104873D02*
X0276924Y0102127D01*
X0276924Y0104873D02*
X0279670Y0104873D01*
X0279670Y0102127D01*
X0276924Y0102127D01*
X0276924Y0104017D02*
X0279670Y0104017D01*
X0280377Y0084326D02*
X0283123Y0084326D01*
X0283123Y0081580D01*
X0280377Y0081580D01*
X0280377Y0084326D01*
X0280377Y0083470D02*
X0283123Y0083470D01*
X0283123Y0077420D02*
X0280377Y0077420D01*
X0283123Y0077420D02*
X0283123Y0074674D01*
X0280377Y0074674D01*
X0280377Y0077420D01*
X0280377Y0076564D02*
X0283123Y0076564D01*
X0153830Y0074873D02*
X0153830Y0072127D01*
X0153830Y0074873D02*
X0156576Y0074873D01*
X0156576Y0072127D01*
X0153830Y0072127D01*
X0153830Y0074017D02*
X0156576Y0074017D01*
X0146924Y0074873D02*
X0146924Y0072127D01*
X0146924Y0074873D02*
X0149670Y0074873D01*
X0149670Y0072127D01*
X0146924Y0072127D01*
X0146924Y0074017D02*
X0149670Y0074017D01*
X0078123Y0077420D02*
X0075377Y0077420D01*
X0078123Y0077420D02*
X0078123Y0074674D01*
X0075377Y0074674D01*
X0075377Y0077420D01*
X0075377Y0076564D02*
X0078123Y0076564D01*
X0078123Y0084326D02*
X0075377Y0084326D01*
X0078123Y0084326D02*
X0078123Y0081580D01*
X0075377Y0081580D01*
X0075377Y0084326D01*
X0075377Y0083470D02*
X0078123Y0083470D01*
X0078830Y0102127D02*
X0078830Y0104873D01*
X0081576Y0104873D01*
X0081576Y0102127D01*
X0078830Y0102127D01*
X0078830Y0104017D02*
X0081576Y0104017D01*
X0071924Y0104873D02*
X0071924Y0102127D01*
X0071924Y0104873D02*
X0074670Y0104873D01*
X0074670Y0102127D01*
X0071924Y0102127D01*
X0071924Y0104017D02*
X0074670Y0104017D01*
X0075377Y0169420D02*
X0078123Y0169420D01*
X0078123Y0166674D01*
X0075377Y0166674D01*
X0075377Y0169420D01*
X0075377Y0168564D02*
X0078123Y0168564D01*
X0078123Y0176326D02*
X0075377Y0176326D01*
X0078123Y0176326D02*
X0078123Y0173580D01*
X0075377Y0173580D01*
X0075377Y0176326D01*
X0075377Y0175470D02*
X0078123Y0175470D01*
X0078830Y0194127D02*
X0078830Y0196873D01*
X0081576Y0196873D01*
X0081576Y0194127D01*
X0078830Y0194127D01*
X0078830Y0196017D02*
X0081576Y0196017D01*
X0071924Y0196873D02*
X0071924Y0194127D01*
X0071924Y0196873D02*
X0074670Y0196873D01*
X0074670Y0194127D01*
X0071924Y0194127D01*
X0071924Y0196017D02*
X0074670Y0196017D01*
X0146924Y0166873D02*
X0146924Y0164127D01*
X0146924Y0166873D02*
X0149670Y0166873D01*
X0149670Y0164127D01*
X0146924Y0164127D01*
X0146924Y0166017D02*
X0149670Y0166017D01*
X0153830Y0166873D02*
X0153830Y0164127D01*
X0153830Y0166873D02*
X0156576Y0166873D01*
X0156576Y0164127D01*
X0153830Y0164127D01*
X0153830Y0166017D02*
X0156576Y0166017D01*
X0280377Y0169420D02*
X0283123Y0169420D01*
X0283123Y0166674D01*
X0280377Y0166674D01*
X0280377Y0169420D01*
X0280377Y0168564D02*
X0283123Y0168564D01*
X0283123Y0176326D02*
X0280377Y0176326D01*
X0283123Y0176326D02*
X0283123Y0173580D01*
X0280377Y0173580D01*
X0280377Y0176326D01*
X0280377Y0175470D02*
X0283123Y0175470D01*
X0283830Y0194127D02*
X0283830Y0196873D01*
X0286576Y0196873D01*
X0286576Y0194127D01*
X0283830Y0194127D01*
X0283830Y0196017D02*
X0286576Y0196017D01*
X0276924Y0196873D02*
X0276924Y0194127D01*
X0276924Y0196873D02*
X0279670Y0196873D01*
X0279670Y0194127D01*
X0276924Y0194127D01*
X0276924Y0196017D02*
X0279670Y0196017D01*
X0351924Y0166873D02*
X0351924Y0164127D01*
X0351924Y0166873D02*
X0354670Y0166873D01*
X0354670Y0164127D01*
X0351924Y0164127D01*
X0351924Y0166017D02*
X0354670Y0166017D01*
X0358830Y0166873D02*
X0358830Y0164127D01*
X0358830Y0166873D02*
X0361576Y0166873D01*
X0361576Y0164127D01*
X0358830Y0164127D01*
X0358830Y0166017D02*
X0361576Y0166017D01*
X0358830Y0256127D02*
X0358830Y0258873D01*
X0361576Y0258873D01*
X0361576Y0256127D01*
X0358830Y0256127D01*
X0358830Y0258017D02*
X0361576Y0258017D01*
X0351924Y0258873D02*
X0351924Y0256127D01*
X0351924Y0258873D02*
X0354670Y0258873D01*
X0354670Y0256127D01*
X0351924Y0256127D01*
X0351924Y0258017D02*
X0354670Y0258017D01*
X0283830Y0286127D02*
X0283830Y0288873D01*
X0286576Y0288873D01*
X0286576Y0286127D01*
X0283830Y0286127D01*
X0283830Y0288017D02*
X0286576Y0288017D01*
X0276924Y0288873D02*
X0276924Y0286127D01*
X0276924Y0288873D02*
X0279670Y0288873D01*
X0279670Y0286127D01*
X0276924Y0286127D01*
X0276924Y0288017D02*
X0279670Y0288017D01*
X0280377Y0268326D02*
X0283123Y0268326D01*
X0283123Y0265580D01*
X0280377Y0265580D01*
X0280377Y0268326D01*
X0280377Y0267470D02*
X0283123Y0267470D01*
X0283123Y0261420D02*
X0280377Y0261420D01*
X0283123Y0261420D02*
X0283123Y0258674D01*
X0280377Y0258674D01*
X0280377Y0261420D01*
X0280377Y0260564D02*
X0283123Y0260564D01*
X0153830Y0258873D02*
X0153830Y0256127D01*
X0153830Y0258873D02*
X0156576Y0258873D01*
X0156576Y0256127D01*
X0153830Y0256127D01*
X0153830Y0258017D02*
X0156576Y0258017D01*
X0146924Y0258873D02*
X0146924Y0256127D01*
X0146924Y0258873D02*
X0149670Y0258873D01*
X0149670Y0256127D01*
X0146924Y0256127D01*
X0146924Y0258017D02*
X0149670Y0258017D01*
X0078123Y0261420D02*
X0075377Y0261420D01*
X0078123Y0261420D02*
X0078123Y0258674D01*
X0075377Y0258674D01*
X0075377Y0261420D01*
X0075377Y0260564D02*
X0078123Y0260564D01*
X0078123Y0268326D02*
X0075377Y0268326D01*
X0078123Y0268326D02*
X0078123Y0265580D01*
X0075377Y0265580D01*
X0075377Y0268326D01*
X0075377Y0267470D02*
X0078123Y0267470D01*
X0078830Y0286127D02*
X0078830Y0288873D01*
X0081576Y0288873D01*
X0081576Y0286127D01*
X0078830Y0286127D01*
X0078830Y0288017D02*
X0081576Y0288017D01*
X0071924Y0288873D02*
X0071924Y0286127D01*
X0071924Y0288873D02*
X0074670Y0288873D01*
X0074670Y0286127D01*
X0071924Y0286127D01*
X0071924Y0288017D02*
X0074670Y0288017D01*
X0146924Y0348127D02*
X0146924Y0350873D01*
X0149670Y0350873D01*
X0149670Y0348127D01*
X0146924Y0348127D01*
X0146924Y0350017D02*
X0149670Y0350017D01*
X0153830Y0350873D02*
X0153830Y0348127D01*
X0153830Y0350873D02*
X0156576Y0350873D01*
X0156576Y0348127D01*
X0153830Y0348127D01*
X0153830Y0350017D02*
X0156576Y0350017D01*
X0078123Y0353420D02*
X0075377Y0353420D01*
X0078123Y0353420D02*
X0078123Y0350674D01*
X0075377Y0350674D01*
X0075377Y0353420D01*
X0075377Y0352564D02*
X0078123Y0352564D01*
X0078123Y0360326D02*
X0075377Y0360326D01*
X0078123Y0360326D02*
X0078123Y0357580D01*
X0075377Y0357580D01*
X0075377Y0360326D01*
X0075377Y0359470D02*
X0078123Y0359470D01*
X0078830Y0378127D02*
X0078830Y0380873D01*
X0081576Y0380873D01*
X0081576Y0378127D01*
X0078830Y0378127D01*
X0078830Y0380017D02*
X0081576Y0380017D01*
X0071924Y0380873D02*
X0071924Y0378127D01*
X0071924Y0380873D02*
X0074670Y0380873D01*
X0074670Y0378127D01*
X0071924Y0378127D01*
X0071924Y0380017D02*
X0074670Y0380017D01*
X0276924Y0380873D02*
X0276924Y0378127D01*
X0276924Y0380873D02*
X0279670Y0380873D01*
X0279670Y0378127D01*
X0276924Y0378127D01*
X0276924Y0380017D02*
X0279670Y0380017D01*
X0283830Y0380873D02*
X0283830Y0378127D01*
X0283830Y0380873D02*
X0286576Y0380873D01*
X0286576Y0378127D01*
X0283830Y0378127D01*
X0283830Y0380017D02*
X0286576Y0380017D01*
X0283123Y0360326D02*
X0280377Y0360326D01*
X0283123Y0360326D02*
X0283123Y0357580D01*
X0280377Y0357580D01*
X0280377Y0360326D01*
X0280377Y0359470D02*
X0283123Y0359470D01*
X0283123Y0353420D02*
X0280377Y0353420D01*
X0283123Y0353420D02*
X0283123Y0350674D01*
X0280377Y0350674D01*
X0280377Y0353420D01*
X0280377Y0352564D02*
X0283123Y0352564D01*
X0351924Y0350873D02*
X0351924Y0348127D01*
X0351924Y0350873D02*
X0354670Y0350873D01*
X0354670Y0348127D01*
X0351924Y0348127D01*
X0351924Y0350017D02*
X0354670Y0350017D01*
X0358830Y0350873D02*
X0358830Y0348127D01*
X0358830Y0350873D02*
X0361576Y0350873D01*
X0361576Y0348127D01*
X0358830Y0348127D01*
X0358830Y0350017D02*
X0361576Y0350017D01*
D12*
X0271250Y0362982D03*
X0271250Y0365541D03*
X0271250Y0368100D03*
X0271250Y0370659D03*
X0271250Y0373218D03*
X0271250Y0281218D03*
X0271250Y0278659D03*
X0271250Y0276100D03*
X0271250Y0273541D03*
X0271250Y0270982D03*
X0271250Y0189218D03*
X0271250Y0186659D03*
X0271250Y0184100D03*
X0271250Y0181541D03*
X0271250Y0178982D03*
X0271250Y0097218D03*
X0271250Y0094659D03*
X0271250Y0092100D03*
X0271250Y0089541D03*
X0271250Y0086982D03*
X0066250Y0086982D03*
X0066250Y0089541D03*
X0066250Y0092100D03*
X0066250Y0094659D03*
X0066250Y0097218D03*
X0066250Y0178982D03*
X0066250Y0181541D03*
X0066250Y0184100D03*
X0066250Y0186659D03*
X0066250Y0189218D03*
X0066250Y0270982D03*
X0066250Y0273541D03*
X0066250Y0276100D03*
X0066250Y0278659D03*
X0066250Y0281218D03*
X0066250Y0362982D03*
X0066250Y0365541D03*
X0066250Y0368100D03*
X0066250Y0370659D03*
X0066250Y0373218D03*
X0476250Y0373218D03*
X0476250Y0370659D03*
X0476250Y0368100D03*
X0476250Y0365541D03*
X0476250Y0362982D03*
X0476250Y0281218D03*
X0476250Y0278659D03*
X0476250Y0276100D03*
X0476250Y0273541D03*
X0476250Y0270982D03*
X0476250Y0189218D03*
X0476250Y0186659D03*
X0476250Y0184100D03*
X0476250Y0181541D03*
X0476250Y0178982D03*
X0476250Y0097218D03*
X0476250Y0094659D03*
X0476250Y0092100D03*
X0476250Y0089541D03*
X0476250Y0086982D03*
D13*
X0477333Y0080683D03*
X0477333Y0103517D03*
X0477333Y0172683D03*
X0477333Y0195517D03*
X0477333Y0264683D03*
X0477333Y0287517D03*
X0477333Y0356683D03*
X0477333Y0379517D03*
X0272333Y0379517D03*
X0272333Y0356683D03*
X0272333Y0287517D03*
X0272333Y0264683D03*
X0272333Y0195517D03*
X0272333Y0172683D03*
X0272333Y0103517D03*
X0272333Y0080683D03*
X0067333Y0080683D03*
X0067333Y0103517D03*
X0067333Y0172683D03*
X0067333Y0195517D03*
X0067333Y0264683D03*
X0067333Y0287517D03*
X0067333Y0356683D03*
X0067333Y0379517D03*
D14*
X0055719Y0371889D03*
X0055719Y0364311D03*
X0055719Y0279889D03*
X0055719Y0272311D03*
X0055719Y0187889D03*
X0055719Y0180311D03*
X0055719Y0095889D03*
X0055719Y0088311D03*
X0260719Y0088311D03*
X0260719Y0095889D03*
X0260719Y0180311D03*
X0260719Y0187889D03*
X0260719Y0272311D03*
X0260719Y0279889D03*
X0260719Y0364311D03*
X0260719Y0371889D03*
X0465719Y0371889D03*
X0465719Y0364311D03*
X0465719Y0279889D03*
X0465719Y0272311D03*
X0465719Y0187889D03*
X0465719Y0180311D03*
X0465719Y0095889D03*
X0465719Y0088311D03*
D15*
X0463159Y0084226D02*
X0473789Y0084226D01*
X0473789Y0077139D01*
X0470640Y0077139D01*
X0470640Y0078320D01*
X0463159Y0078320D01*
X0462858Y0078399D01*
X0462581Y0078542D01*
X0462343Y0078744D01*
X0462156Y0078993D01*
X0462029Y0079278D01*
X0461969Y0079584D01*
X0461978Y0079895D01*
X0461978Y0083045D01*
X0462008Y0083308D01*
X0462095Y0083557D01*
X0462236Y0083781D01*
X0462423Y0083968D01*
X0462647Y0084109D01*
X0462897Y0084196D01*
X0463159Y0084226D01*
X0462348Y0083893D02*
X0473789Y0083893D01*
X0473789Y0083495D02*
X0462073Y0083495D01*
X0461984Y0083096D02*
X0473789Y0083096D01*
X0473789Y0082698D02*
X0461978Y0082698D01*
X0461978Y0082299D02*
X0473789Y0082299D01*
X0473789Y0081901D02*
X0461978Y0081901D01*
X0461978Y0081502D02*
X0473789Y0081502D01*
X0473789Y0081103D02*
X0461978Y0081103D01*
X0461978Y0080705D02*
X0473789Y0080705D01*
X0473789Y0080306D02*
X0461978Y0080306D01*
X0461978Y0079908D02*
X0473789Y0079908D01*
X0473789Y0079509D02*
X0461984Y0079509D01*
X0462104Y0079111D02*
X0473789Y0079111D01*
X0473789Y0078712D02*
X0462380Y0078712D01*
X0470640Y0078314D02*
X0473789Y0078314D01*
X0473789Y0077915D02*
X0470640Y0077915D01*
X0470640Y0077517D02*
X0473789Y0077517D01*
X0473789Y0099974D02*
X0463553Y0099974D01*
X0463242Y0099965D01*
X0462936Y0100025D01*
X0462651Y0100152D01*
X0462402Y0100339D01*
X0462200Y0100577D01*
X0462057Y0100853D01*
X0461978Y0101155D01*
X0461978Y0103911D01*
X0462018Y0104261D01*
X0462134Y0104594D01*
X0462322Y0104893D01*
X0462571Y0105142D01*
X0462870Y0105330D01*
X0463203Y0105446D01*
X0463553Y0105486D01*
X0470640Y0105486D01*
X0470640Y0107061D01*
X0473789Y0107061D01*
X0473789Y0099974D01*
X0473789Y0100232D02*
X0462544Y0100232D01*
X0462172Y0100631D02*
X0473789Y0100631D01*
X0473789Y0101029D02*
X0462011Y0101029D01*
X0461978Y0101428D02*
X0473789Y0101428D01*
X0473789Y0101826D02*
X0461978Y0101826D01*
X0461978Y0102225D02*
X0473789Y0102225D01*
X0473789Y0102623D02*
X0461978Y0102623D01*
X0461978Y0103022D02*
X0473789Y0103022D01*
X0473789Y0103420D02*
X0461978Y0103420D01*
X0461978Y0103819D02*
X0473789Y0103819D01*
X0473789Y0104217D02*
X0462013Y0104217D01*
X0462148Y0104616D02*
X0473789Y0104616D01*
X0473789Y0105014D02*
X0462443Y0105014D01*
X0463107Y0105413D02*
X0473789Y0105413D01*
X0473789Y0105811D02*
X0470640Y0105811D01*
X0470640Y0106210D02*
X0473789Y0106210D01*
X0473789Y0106608D02*
X0470640Y0106608D01*
X0470640Y0107007D02*
X0473789Y0107007D01*
X0473789Y0169139D02*
X0470640Y0169139D01*
X0470640Y0170320D01*
X0463159Y0170320D01*
X0462858Y0170399D01*
X0462581Y0170542D01*
X0462343Y0170744D01*
X0462156Y0170993D01*
X0462029Y0171278D01*
X0461969Y0171584D01*
X0461978Y0171895D01*
X0461978Y0175045D01*
X0462008Y0175308D01*
X0462095Y0175557D01*
X0462236Y0175781D01*
X0462423Y0175968D01*
X0462647Y0176109D01*
X0462897Y0176196D01*
X0463159Y0176226D01*
X0473789Y0176226D01*
X0473789Y0169139D01*
X0473789Y0169174D02*
X0470640Y0169174D01*
X0470640Y0169573D02*
X0473789Y0169573D01*
X0473789Y0169972D02*
X0470640Y0169972D01*
X0473789Y0170370D02*
X0462969Y0170370D01*
X0462325Y0170769D02*
X0473789Y0170769D01*
X0473789Y0171167D02*
X0462079Y0171167D01*
X0461973Y0171566D02*
X0473789Y0171566D01*
X0473789Y0171964D02*
X0461978Y0171964D01*
X0461978Y0172363D02*
X0473789Y0172363D01*
X0473789Y0172761D02*
X0461978Y0172761D01*
X0461978Y0173160D02*
X0473789Y0173160D01*
X0473789Y0173558D02*
X0461978Y0173558D01*
X0461978Y0173957D02*
X0473789Y0173957D01*
X0473789Y0174355D02*
X0461978Y0174355D01*
X0461978Y0174754D02*
X0473789Y0174754D01*
X0473789Y0175152D02*
X0461990Y0175152D01*
X0462093Y0175551D02*
X0473789Y0175551D01*
X0473789Y0175949D02*
X0462404Y0175949D01*
X0463242Y0191965D02*
X0462936Y0192025D01*
X0462651Y0192152D01*
X0462402Y0192339D01*
X0462200Y0192577D01*
X0462057Y0192853D01*
X0461978Y0193155D01*
X0461978Y0195911D01*
X0462018Y0196261D01*
X0462134Y0196594D01*
X0462322Y0196893D01*
X0462571Y0197142D01*
X0462870Y0197330D01*
X0463203Y0197446D01*
X0463553Y0197486D01*
X0470640Y0197486D01*
X0470640Y0199061D01*
X0473789Y0199061D01*
X0473789Y0191974D01*
X0463553Y0191974D01*
X0463242Y0191965D01*
X0462469Y0192288D02*
X0473789Y0192288D01*
X0473789Y0192687D02*
X0462143Y0192687D01*
X0461997Y0193085D02*
X0473789Y0193085D01*
X0473789Y0193484D02*
X0461978Y0193484D01*
X0461978Y0193882D02*
X0473789Y0193882D01*
X0473789Y0194281D02*
X0461978Y0194281D01*
X0461978Y0194679D02*
X0473789Y0194679D01*
X0473789Y0195078D02*
X0461978Y0195078D01*
X0461978Y0195476D02*
X0473789Y0195476D01*
X0473789Y0195875D02*
X0461978Y0195875D01*
X0462022Y0196273D02*
X0473789Y0196273D01*
X0473789Y0196672D02*
X0462183Y0196672D01*
X0462499Y0197070D02*
X0473789Y0197070D01*
X0473789Y0197469D02*
X0463402Y0197469D01*
X0470640Y0197867D02*
X0473789Y0197867D01*
X0473789Y0198266D02*
X0470640Y0198266D01*
X0470640Y0198664D02*
X0473789Y0198664D01*
X0473789Y0261139D02*
X0470640Y0261139D01*
X0470640Y0262320D01*
X0463159Y0262320D01*
X0462858Y0262399D01*
X0462581Y0262542D01*
X0462343Y0262744D01*
X0462156Y0262993D01*
X0462029Y0263278D01*
X0461969Y0263584D01*
X0461978Y0263895D01*
X0461978Y0267045D01*
X0462008Y0267308D01*
X0462095Y0267557D01*
X0462236Y0267781D01*
X0462423Y0267968D01*
X0462647Y0268109D01*
X0462897Y0268196D01*
X0463159Y0268226D01*
X0473789Y0268226D01*
X0473789Y0261139D01*
X0473789Y0261231D02*
X0470640Y0261231D01*
X0470640Y0261629D02*
X0473789Y0261629D01*
X0473789Y0262028D02*
X0470640Y0262028D01*
X0473789Y0262426D02*
X0462805Y0262426D01*
X0462283Y0262825D02*
X0473789Y0262825D01*
X0473789Y0263223D02*
X0462054Y0263223D01*
X0461970Y0263622D02*
X0473789Y0263622D01*
X0473789Y0264020D02*
X0461978Y0264020D01*
X0461978Y0264419D02*
X0473789Y0264419D01*
X0473789Y0264817D02*
X0461978Y0264817D01*
X0461978Y0265216D02*
X0473789Y0265216D01*
X0473789Y0265614D02*
X0461978Y0265614D01*
X0461978Y0266013D02*
X0473789Y0266013D01*
X0473789Y0266411D02*
X0461978Y0266411D01*
X0461978Y0266810D02*
X0473789Y0266810D01*
X0473789Y0267208D02*
X0461997Y0267208D01*
X0462126Y0267607D02*
X0473789Y0267607D01*
X0473789Y0268005D02*
X0462482Y0268005D01*
X0463242Y0283965D02*
X0462936Y0284025D01*
X0462651Y0284152D01*
X0462402Y0284339D01*
X0462200Y0284577D01*
X0462057Y0284853D01*
X0461978Y0285155D01*
X0461978Y0287911D01*
X0462018Y0288261D01*
X0462134Y0288594D01*
X0462322Y0288893D01*
X0462571Y0289142D01*
X0462870Y0289330D01*
X0463203Y0289446D01*
X0463553Y0289486D01*
X0470640Y0289486D01*
X0470640Y0291061D01*
X0473789Y0291061D01*
X0473789Y0283974D01*
X0463553Y0283974D01*
X0463242Y0283965D01*
X0462397Y0284344D02*
X0473789Y0284344D01*
X0473789Y0284743D02*
X0462114Y0284743D01*
X0461982Y0285141D02*
X0473789Y0285141D01*
X0473789Y0285540D02*
X0461978Y0285540D01*
X0461978Y0285938D02*
X0473789Y0285938D01*
X0473789Y0286337D02*
X0461978Y0286337D01*
X0461978Y0286735D02*
X0473789Y0286735D01*
X0473789Y0287134D02*
X0461978Y0287134D01*
X0461978Y0287532D02*
X0473789Y0287532D01*
X0473789Y0287931D02*
X0461981Y0287931D01*
X0462042Y0288329D02*
X0473789Y0288329D01*
X0473789Y0288728D02*
X0462218Y0288728D01*
X0462555Y0289126D02*
X0473789Y0289126D01*
X0473789Y0289525D02*
X0470640Y0289525D01*
X0470640Y0289923D02*
X0473789Y0289923D01*
X0473789Y0290322D02*
X0470640Y0290322D01*
X0470640Y0290720D02*
X0473789Y0290720D01*
X0473789Y0353139D02*
X0470640Y0353139D01*
X0470640Y0354320D01*
X0463159Y0354320D01*
X0462858Y0354399D01*
X0462581Y0354542D01*
X0462343Y0354744D01*
X0462156Y0354993D01*
X0462029Y0355278D01*
X0461969Y0355584D01*
X0461978Y0355895D01*
X0461978Y0359045D01*
X0462008Y0359308D01*
X0462095Y0359557D01*
X0462236Y0359781D01*
X0462423Y0359968D01*
X0462647Y0360109D01*
X0462897Y0360196D01*
X0463159Y0360226D01*
X0473789Y0360226D01*
X0473789Y0353139D01*
X0473789Y0353287D02*
X0470640Y0353287D01*
X0470640Y0353685D02*
X0473789Y0353685D01*
X0473789Y0354084D02*
X0470640Y0354084D01*
X0473789Y0354482D02*
X0462697Y0354482D01*
X0462241Y0354881D02*
X0473789Y0354881D01*
X0473789Y0355279D02*
X0462029Y0355279D01*
X0461972Y0355678D02*
X0473789Y0355678D01*
X0473789Y0356076D02*
X0461978Y0356076D01*
X0461978Y0356475D02*
X0473789Y0356475D01*
X0473789Y0356873D02*
X0461978Y0356873D01*
X0461978Y0357272D02*
X0473789Y0357272D01*
X0473789Y0357670D02*
X0461978Y0357670D01*
X0461978Y0358069D02*
X0473789Y0358069D01*
X0473789Y0358467D02*
X0461978Y0358467D01*
X0461978Y0358866D02*
X0473789Y0358866D01*
X0473789Y0359264D02*
X0462003Y0359264D01*
X0462162Y0359663D02*
X0473789Y0359663D01*
X0473789Y0360061D02*
X0462571Y0360061D01*
X0463242Y0375965D02*
X0462936Y0376025D01*
X0462651Y0376152D01*
X0462402Y0376339D01*
X0462200Y0376577D01*
X0462057Y0376853D01*
X0461978Y0377155D01*
X0461978Y0379911D01*
X0462018Y0380261D01*
X0462134Y0380594D01*
X0462322Y0380893D01*
X0462571Y0381142D01*
X0462870Y0381330D01*
X0463203Y0381446D01*
X0463553Y0381486D01*
X0470640Y0381486D01*
X0470640Y0383061D01*
X0473789Y0383061D01*
X0473789Y0375974D01*
X0463553Y0375974D01*
X0463242Y0375965D01*
X0463053Y0376002D02*
X0473789Y0376002D01*
X0473789Y0376400D02*
X0462350Y0376400D01*
X0462085Y0376799D02*
X0473789Y0376799D01*
X0473789Y0377197D02*
X0461978Y0377197D01*
X0461978Y0377596D02*
X0473789Y0377596D01*
X0473789Y0377994D02*
X0461978Y0377994D01*
X0461978Y0378393D02*
X0473789Y0378393D01*
X0473789Y0378791D02*
X0461978Y0378791D01*
X0461978Y0379190D02*
X0473789Y0379190D01*
X0473789Y0379588D02*
X0461978Y0379588D01*
X0461987Y0379987D02*
X0473789Y0379987D01*
X0473789Y0380385D02*
X0462061Y0380385D01*
X0462253Y0380784D02*
X0473789Y0380784D01*
X0473789Y0381183D02*
X0462635Y0381183D01*
X0470640Y0381581D02*
X0473789Y0381581D01*
X0473789Y0381980D02*
X0470640Y0381980D01*
X0470640Y0382378D02*
X0473789Y0382378D01*
X0473789Y0382777D02*
X0470640Y0382777D01*
X0268789Y0382777D02*
X0265640Y0382777D01*
X0265640Y0383061D02*
X0268789Y0383061D01*
X0268789Y0375974D01*
X0258553Y0375974D01*
X0258242Y0375965D01*
X0257936Y0376025D01*
X0257651Y0376152D01*
X0257402Y0376339D01*
X0257200Y0376577D01*
X0257057Y0376853D01*
X0256978Y0377155D01*
X0256978Y0379911D01*
X0257018Y0380261D01*
X0257134Y0380594D01*
X0257322Y0380893D01*
X0257571Y0381142D01*
X0257870Y0381330D01*
X0258203Y0381446D01*
X0258553Y0381486D01*
X0265640Y0381486D01*
X0265640Y0383061D01*
X0265640Y0382378D02*
X0268789Y0382378D01*
X0268789Y0381980D02*
X0265640Y0381980D01*
X0265640Y0381581D02*
X0268789Y0381581D01*
X0268789Y0381183D02*
X0257635Y0381183D01*
X0257253Y0380784D02*
X0268789Y0380784D01*
X0268789Y0380385D02*
X0257061Y0380385D01*
X0256987Y0379987D02*
X0268789Y0379987D01*
X0268789Y0379588D02*
X0256978Y0379588D01*
X0256978Y0379190D02*
X0268789Y0379190D01*
X0268789Y0378791D02*
X0256978Y0378791D01*
X0256978Y0378393D02*
X0268789Y0378393D01*
X0268789Y0377994D02*
X0256978Y0377994D01*
X0256978Y0377596D02*
X0268789Y0377596D01*
X0268789Y0377197D02*
X0256978Y0377197D01*
X0257085Y0376799D02*
X0268789Y0376799D01*
X0268789Y0376400D02*
X0257350Y0376400D01*
X0258053Y0376002D02*
X0268789Y0376002D01*
X0268789Y0360226D02*
X0258159Y0360226D01*
X0257897Y0360196D01*
X0257647Y0360109D01*
X0257423Y0359968D01*
X0257236Y0359781D01*
X0257095Y0359557D01*
X0257008Y0359308D01*
X0256978Y0359045D01*
X0256978Y0355895D01*
X0256969Y0355584D01*
X0257029Y0355278D01*
X0257156Y0354993D01*
X0257343Y0354744D01*
X0257581Y0354542D01*
X0257858Y0354399D01*
X0258159Y0354320D01*
X0265640Y0354320D01*
X0265640Y0353139D01*
X0268789Y0353139D01*
X0268789Y0360226D01*
X0268789Y0360061D02*
X0257571Y0360061D01*
X0257162Y0359663D02*
X0268789Y0359663D01*
X0268789Y0359264D02*
X0257003Y0359264D01*
X0256978Y0358866D02*
X0268789Y0358866D01*
X0268789Y0358467D02*
X0256978Y0358467D01*
X0256978Y0358069D02*
X0268789Y0358069D01*
X0268789Y0357670D02*
X0256978Y0357670D01*
X0256978Y0357272D02*
X0268789Y0357272D01*
X0268789Y0356873D02*
X0256978Y0356873D01*
X0256978Y0356475D02*
X0268789Y0356475D01*
X0268789Y0356076D02*
X0256978Y0356076D01*
X0256972Y0355678D02*
X0268789Y0355678D01*
X0268789Y0355279D02*
X0257029Y0355279D01*
X0257241Y0354881D02*
X0268789Y0354881D01*
X0268789Y0354482D02*
X0257697Y0354482D01*
X0265640Y0354084D02*
X0268789Y0354084D01*
X0268789Y0353685D02*
X0265640Y0353685D01*
X0265640Y0353287D02*
X0268789Y0353287D01*
X0268789Y0291061D02*
X0265640Y0291061D01*
X0265640Y0289486D01*
X0258553Y0289486D01*
X0258203Y0289446D01*
X0257870Y0289330D01*
X0257571Y0289142D01*
X0257322Y0288893D01*
X0257134Y0288594D01*
X0257018Y0288261D01*
X0256978Y0287911D01*
X0256978Y0285155D01*
X0257057Y0284853D01*
X0257200Y0284577D01*
X0257402Y0284339D01*
X0257651Y0284152D01*
X0257936Y0284025D01*
X0258242Y0283965D01*
X0258553Y0283974D01*
X0268789Y0283974D01*
X0268789Y0291061D01*
X0268789Y0290720D02*
X0265640Y0290720D01*
X0265640Y0290322D02*
X0268789Y0290322D01*
X0268789Y0289923D02*
X0265640Y0289923D01*
X0265640Y0289525D02*
X0268789Y0289525D01*
X0268789Y0289126D02*
X0257555Y0289126D01*
X0257218Y0288728D02*
X0268789Y0288728D01*
X0268789Y0288329D02*
X0257042Y0288329D01*
X0256981Y0287931D02*
X0268789Y0287931D01*
X0268789Y0287532D02*
X0256978Y0287532D01*
X0256978Y0287134D02*
X0268789Y0287134D01*
X0268789Y0286735D02*
X0256978Y0286735D01*
X0256978Y0286337D02*
X0268789Y0286337D01*
X0268789Y0285938D02*
X0256978Y0285938D01*
X0256978Y0285540D02*
X0268789Y0285540D01*
X0268789Y0285141D02*
X0256982Y0285141D01*
X0257114Y0284743D02*
X0268789Y0284743D01*
X0268789Y0284344D02*
X0257397Y0284344D01*
X0258159Y0268226D02*
X0268789Y0268226D01*
X0268789Y0261139D01*
X0265640Y0261139D01*
X0265640Y0262320D01*
X0258159Y0262320D01*
X0257858Y0262399D01*
X0257581Y0262542D01*
X0257343Y0262744D01*
X0257156Y0262993D01*
X0257029Y0263278D01*
X0256969Y0263584D01*
X0256978Y0263895D01*
X0256978Y0267045D01*
X0257008Y0267308D01*
X0257095Y0267557D01*
X0257236Y0267781D01*
X0257423Y0267968D01*
X0257647Y0268109D01*
X0257897Y0268196D01*
X0258159Y0268226D01*
X0257482Y0268005D02*
X0268789Y0268005D01*
X0268789Y0267607D02*
X0257126Y0267607D01*
X0256997Y0267208D02*
X0268789Y0267208D01*
X0268789Y0266810D02*
X0256978Y0266810D01*
X0256978Y0266411D02*
X0268789Y0266411D01*
X0268789Y0266013D02*
X0256978Y0266013D01*
X0256978Y0265614D02*
X0268789Y0265614D01*
X0268789Y0265216D02*
X0256978Y0265216D01*
X0256978Y0264817D02*
X0268789Y0264817D01*
X0268789Y0264419D02*
X0256978Y0264419D01*
X0256978Y0264020D02*
X0268789Y0264020D01*
X0268789Y0263622D02*
X0256970Y0263622D01*
X0257054Y0263223D02*
X0268789Y0263223D01*
X0268789Y0262825D02*
X0257283Y0262825D01*
X0257805Y0262426D02*
X0268789Y0262426D01*
X0268789Y0262028D02*
X0265640Y0262028D01*
X0265640Y0261629D02*
X0268789Y0261629D01*
X0268789Y0261231D02*
X0265640Y0261231D01*
X0265640Y0199061D02*
X0268789Y0199061D01*
X0268789Y0191974D01*
X0258553Y0191974D01*
X0258242Y0191965D01*
X0257936Y0192025D01*
X0257651Y0192152D01*
X0257402Y0192339D01*
X0257200Y0192577D01*
X0257057Y0192853D01*
X0256978Y0193155D01*
X0256978Y0195911D01*
X0257018Y0196261D01*
X0257134Y0196594D01*
X0257322Y0196893D01*
X0257571Y0197142D01*
X0257870Y0197330D01*
X0258203Y0197446D01*
X0258553Y0197486D01*
X0265640Y0197486D01*
X0265640Y0199061D01*
X0265640Y0198664D02*
X0268789Y0198664D01*
X0268789Y0198266D02*
X0265640Y0198266D01*
X0265640Y0197867D02*
X0268789Y0197867D01*
X0268789Y0197469D02*
X0258402Y0197469D01*
X0257499Y0197070D02*
X0268789Y0197070D01*
X0268789Y0196672D02*
X0257183Y0196672D01*
X0257022Y0196273D02*
X0268789Y0196273D01*
X0268789Y0195875D02*
X0256978Y0195875D01*
X0256978Y0195476D02*
X0268789Y0195476D01*
X0268789Y0195078D02*
X0256978Y0195078D01*
X0256978Y0194679D02*
X0268789Y0194679D01*
X0268789Y0194281D02*
X0256978Y0194281D01*
X0256978Y0193882D02*
X0268789Y0193882D01*
X0268789Y0193484D02*
X0256978Y0193484D01*
X0256997Y0193085D02*
X0268789Y0193085D01*
X0268789Y0192687D02*
X0257143Y0192687D01*
X0257469Y0192288D02*
X0268789Y0192288D01*
X0268789Y0176226D02*
X0258159Y0176226D01*
X0257897Y0176196D01*
X0257647Y0176109D01*
X0257423Y0175968D01*
X0257236Y0175781D01*
X0257095Y0175557D01*
X0257008Y0175308D01*
X0256978Y0175045D01*
X0256978Y0171895D01*
X0256969Y0171584D01*
X0257029Y0171278D01*
X0257156Y0170993D01*
X0257343Y0170744D01*
X0257581Y0170542D01*
X0257858Y0170399D01*
X0258159Y0170320D01*
X0265640Y0170320D01*
X0265640Y0169139D01*
X0268789Y0169139D01*
X0268789Y0176226D01*
X0268789Y0175949D02*
X0257404Y0175949D01*
X0257093Y0175551D02*
X0268789Y0175551D01*
X0268789Y0175152D02*
X0256990Y0175152D01*
X0256978Y0174754D02*
X0268789Y0174754D01*
X0268789Y0174355D02*
X0256978Y0174355D01*
X0256978Y0173957D02*
X0268789Y0173957D01*
X0268789Y0173558D02*
X0256978Y0173558D01*
X0256978Y0173160D02*
X0268789Y0173160D01*
X0268789Y0172761D02*
X0256978Y0172761D01*
X0256978Y0172363D02*
X0268789Y0172363D01*
X0268789Y0171964D02*
X0256978Y0171964D01*
X0256973Y0171566D02*
X0268789Y0171566D01*
X0268789Y0171167D02*
X0257079Y0171167D01*
X0257325Y0170769D02*
X0268789Y0170769D01*
X0268789Y0170370D02*
X0257969Y0170370D01*
X0265640Y0169972D02*
X0268789Y0169972D01*
X0268789Y0169573D02*
X0265640Y0169573D01*
X0265640Y0169174D02*
X0268789Y0169174D01*
X0268789Y0107061D02*
X0265640Y0107061D01*
X0265640Y0105486D01*
X0258553Y0105486D01*
X0258203Y0105446D01*
X0257870Y0105330D01*
X0257571Y0105142D01*
X0257322Y0104893D01*
X0257134Y0104594D01*
X0257018Y0104261D01*
X0256978Y0103911D01*
X0256978Y0101155D01*
X0257057Y0100853D01*
X0257200Y0100577D01*
X0257402Y0100339D01*
X0257651Y0100152D01*
X0257936Y0100025D01*
X0258242Y0099965D01*
X0258553Y0099974D01*
X0268789Y0099974D01*
X0268789Y0107061D01*
X0268789Y0107007D02*
X0265640Y0107007D01*
X0265640Y0106608D02*
X0268789Y0106608D01*
X0268789Y0106210D02*
X0265640Y0106210D01*
X0265640Y0105811D02*
X0268789Y0105811D01*
X0268789Y0105413D02*
X0258107Y0105413D01*
X0257443Y0105014D02*
X0268789Y0105014D01*
X0268789Y0104616D02*
X0257148Y0104616D01*
X0257013Y0104217D02*
X0268789Y0104217D01*
X0268789Y0103819D02*
X0256978Y0103819D01*
X0256978Y0103420D02*
X0268789Y0103420D01*
X0268789Y0103022D02*
X0256978Y0103022D01*
X0256978Y0102623D02*
X0268789Y0102623D01*
X0268789Y0102225D02*
X0256978Y0102225D01*
X0256978Y0101826D02*
X0268789Y0101826D01*
X0268789Y0101428D02*
X0256978Y0101428D01*
X0257011Y0101029D02*
X0268789Y0101029D01*
X0268789Y0100631D02*
X0257172Y0100631D01*
X0257544Y0100232D02*
X0268789Y0100232D01*
X0268789Y0084226D02*
X0258159Y0084226D01*
X0257897Y0084196D01*
X0257647Y0084109D01*
X0257423Y0083968D01*
X0257236Y0083781D01*
X0257095Y0083557D01*
X0257008Y0083308D01*
X0256978Y0083045D01*
X0256978Y0079895D01*
X0256969Y0079584D01*
X0257029Y0079278D01*
X0257156Y0078993D01*
X0257343Y0078744D01*
X0257581Y0078542D01*
X0257858Y0078399D01*
X0258159Y0078320D01*
X0265640Y0078320D01*
X0265640Y0077139D01*
X0268789Y0077139D01*
X0268789Y0084226D01*
X0268789Y0083893D02*
X0257348Y0083893D01*
X0257073Y0083495D02*
X0268789Y0083495D01*
X0268789Y0083096D02*
X0256984Y0083096D01*
X0256978Y0082698D02*
X0268789Y0082698D01*
X0268789Y0082299D02*
X0256978Y0082299D01*
X0256978Y0081901D02*
X0268789Y0081901D01*
X0268789Y0081502D02*
X0256978Y0081502D01*
X0256978Y0081103D02*
X0268789Y0081103D01*
X0268789Y0080705D02*
X0256978Y0080705D01*
X0256978Y0080306D02*
X0268789Y0080306D01*
X0268789Y0079908D02*
X0256978Y0079908D01*
X0256984Y0079509D02*
X0268789Y0079509D01*
X0268789Y0079111D02*
X0257104Y0079111D01*
X0257380Y0078712D02*
X0268789Y0078712D01*
X0268789Y0078314D02*
X0265640Y0078314D01*
X0265640Y0077915D02*
X0268789Y0077915D01*
X0268789Y0077517D02*
X0265640Y0077517D01*
X0063789Y0077517D02*
X0060640Y0077517D01*
X0060640Y0077139D02*
X0060640Y0078320D01*
X0053159Y0078320D01*
X0052858Y0078399D01*
X0052581Y0078542D01*
X0052343Y0078744D01*
X0052156Y0078993D01*
X0052029Y0079278D01*
X0051969Y0079584D01*
X0051978Y0079895D01*
X0051978Y0083045D01*
X0052008Y0083308D01*
X0052095Y0083557D01*
X0052236Y0083781D01*
X0052423Y0083968D01*
X0052647Y0084109D01*
X0052897Y0084196D01*
X0053159Y0084226D01*
X0063789Y0084226D01*
X0063789Y0077139D01*
X0060640Y0077139D01*
X0060640Y0077915D02*
X0063789Y0077915D01*
X0063789Y0078314D02*
X0060640Y0078314D01*
X0063789Y0078712D02*
X0052380Y0078712D01*
X0052104Y0079111D02*
X0063789Y0079111D01*
X0063789Y0079509D02*
X0051984Y0079509D01*
X0051978Y0079908D02*
X0063789Y0079908D01*
X0063789Y0080306D02*
X0051978Y0080306D01*
X0051978Y0080705D02*
X0063789Y0080705D01*
X0063789Y0081103D02*
X0051978Y0081103D01*
X0051978Y0081502D02*
X0063789Y0081502D01*
X0063789Y0081901D02*
X0051978Y0081901D01*
X0051978Y0082299D02*
X0063789Y0082299D01*
X0063789Y0082698D02*
X0051978Y0082698D01*
X0051984Y0083096D02*
X0063789Y0083096D01*
X0063789Y0083495D02*
X0052073Y0083495D01*
X0052348Y0083893D02*
X0063789Y0083893D01*
X0063789Y0099974D02*
X0053553Y0099974D01*
X0053242Y0099965D01*
X0052936Y0100025D01*
X0052651Y0100152D01*
X0052402Y0100339D01*
X0052200Y0100577D01*
X0052057Y0100853D01*
X0051978Y0101155D01*
X0051978Y0103911D01*
X0052018Y0104261D01*
X0052134Y0104594D01*
X0052322Y0104893D01*
X0052571Y0105142D01*
X0052870Y0105330D01*
X0053203Y0105446D01*
X0053553Y0105486D01*
X0060640Y0105486D01*
X0060640Y0107061D01*
X0063789Y0107061D01*
X0063789Y0099974D01*
X0063789Y0100232D02*
X0052544Y0100232D01*
X0052172Y0100631D02*
X0063789Y0100631D01*
X0063789Y0101029D02*
X0052011Y0101029D01*
X0051978Y0101428D02*
X0063789Y0101428D01*
X0063789Y0101826D02*
X0051978Y0101826D01*
X0051978Y0102225D02*
X0063789Y0102225D01*
X0063789Y0102623D02*
X0051978Y0102623D01*
X0051978Y0103022D02*
X0063789Y0103022D01*
X0063789Y0103420D02*
X0051978Y0103420D01*
X0051978Y0103819D02*
X0063789Y0103819D01*
X0063789Y0104217D02*
X0052013Y0104217D01*
X0052148Y0104616D02*
X0063789Y0104616D01*
X0063789Y0105014D02*
X0052443Y0105014D01*
X0053107Y0105413D02*
X0063789Y0105413D01*
X0063789Y0105811D02*
X0060640Y0105811D01*
X0060640Y0106210D02*
X0063789Y0106210D01*
X0063789Y0106608D02*
X0060640Y0106608D01*
X0060640Y0107007D02*
X0063789Y0107007D01*
X0063789Y0169139D02*
X0060640Y0169139D01*
X0060640Y0170320D01*
X0053159Y0170320D01*
X0052858Y0170399D01*
X0052581Y0170542D01*
X0052343Y0170744D01*
X0052156Y0170993D01*
X0052029Y0171278D01*
X0051969Y0171584D01*
X0051978Y0171895D01*
X0051978Y0175045D01*
X0052008Y0175308D01*
X0052095Y0175557D01*
X0052236Y0175781D01*
X0052423Y0175968D01*
X0052647Y0176109D01*
X0052897Y0176196D01*
X0053159Y0176226D01*
X0063789Y0176226D01*
X0063789Y0169139D01*
X0063789Y0169174D02*
X0060640Y0169174D01*
X0060640Y0169573D02*
X0063789Y0169573D01*
X0063789Y0169972D02*
X0060640Y0169972D01*
X0063789Y0170370D02*
X0052969Y0170370D01*
X0052325Y0170769D02*
X0063789Y0170769D01*
X0063789Y0171167D02*
X0052079Y0171167D01*
X0051973Y0171566D02*
X0063789Y0171566D01*
X0063789Y0171964D02*
X0051978Y0171964D01*
X0051978Y0172363D02*
X0063789Y0172363D01*
X0063789Y0172761D02*
X0051978Y0172761D01*
X0051978Y0173160D02*
X0063789Y0173160D01*
X0063789Y0173558D02*
X0051978Y0173558D01*
X0051978Y0173957D02*
X0063789Y0173957D01*
X0063789Y0174355D02*
X0051978Y0174355D01*
X0051978Y0174754D02*
X0063789Y0174754D01*
X0063789Y0175152D02*
X0051990Y0175152D01*
X0052093Y0175551D02*
X0063789Y0175551D01*
X0063789Y0175949D02*
X0052404Y0175949D01*
X0053242Y0191965D02*
X0052936Y0192025D01*
X0052651Y0192152D01*
X0052402Y0192339D01*
X0052200Y0192577D01*
X0052057Y0192853D01*
X0051978Y0193155D01*
X0051978Y0195911D01*
X0052018Y0196261D01*
X0052134Y0196594D01*
X0052322Y0196893D01*
X0052571Y0197142D01*
X0052870Y0197330D01*
X0053203Y0197446D01*
X0053553Y0197486D01*
X0060640Y0197486D01*
X0060640Y0199061D01*
X0063789Y0199061D01*
X0063789Y0191974D01*
X0053553Y0191974D01*
X0053242Y0191965D01*
X0052469Y0192288D02*
X0063789Y0192288D01*
X0063789Y0192687D02*
X0052143Y0192687D01*
X0051997Y0193085D02*
X0063789Y0193085D01*
X0063789Y0193484D02*
X0051978Y0193484D01*
X0051978Y0193882D02*
X0063789Y0193882D01*
X0063789Y0194281D02*
X0051978Y0194281D01*
X0051978Y0194679D02*
X0063789Y0194679D01*
X0063789Y0195078D02*
X0051978Y0195078D01*
X0051978Y0195476D02*
X0063789Y0195476D01*
X0063789Y0195875D02*
X0051978Y0195875D01*
X0052022Y0196273D02*
X0063789Y0196273D01*
X0063789Y0196672D02*
X0052183Y0196672D01*
X0052499Y0197070D02*
X0063789Y0197070D01*
X0063789Y0197469D02*
X0053402Y0197469D01*
X0060640Y0197867D02*
X0063789Y0197867D01*
X0063789Y0198266D02*
X0060640Y0198266D01*
X0060640Y0198664D02*
X0063789Y0198664D01*
X0063789Y0261139D02*
X0060640Y0261139D01*
X0060640Y0262320D01*
X0053159Y0262320D01*
X0052858Y0262399D01*
X0052581Y0262542D01*
X0052343Y0262744D01*
X0052156Y0262993D01*
X0052029Y0263278D01*
X0051969Y0263584D01*
X0051978Y0263895D01*
X0051978Y0267045D01*
X0052008Y0267308D01*
X0052095Y0267557D01*
X0052236Y0267781D01*
X0052423Y0267968D01*
X0052647Y0268109D01*
X0052897Y0268196D01*
X0053159Y0268226D01*
X0063789Y0268226D01*
X0063789Y0261139D01*
X0063789Y0261231D02*
X0060640Y0261231D01*
X0060640Y0261629D02*
X0063789Y0261629D01*
X0063789Y0262028D02*
X0060640Y0262028D01*
X0063789Y0262426D02*
X0052805Y0262426D01*
X0052283Y0262825D02*
X0063789Y0262825D01*
X0063789Y0263223D02*
X0052054Y0263223D01*
X0051970Y0263622D02*
X0063789Y0263622D01*
X0063789Y0264020D02*
X0051978Y0264020D01*
X0051978Y0264419D02*
X0063789Y0264419D01*
X0063789Y0264817D02*
X0051978Y0264817D01*
X0051978Y0265216D02*
X0063789Y0265216D01*
X0063789Y0265614D02*
X0051978Y0265614D01*
X0051978Y0266013D02*
X0063789Y0266013D01*
X0063789Y0266411D02*
X0051978Y0266411D01*
X0051978Y0266810D02*
X0063789Y0266810D01*
X0063789Y0267208D02*
X0051997Y0267208D01*
X0052126Y0267607D02*
X0063789Y0267607D01*
X0063789Y0268005D02*
X0052482Y0268005D01*
X0053242Y0283965D02*
X0052936Y0284025D01*
X0052651Y0284152D01*
X0052402Y0284339D01*
X0052200Y0284577D01*
X0052057Y0284853D01*
X0051978Y0285155D01*
X0051978Y0287911D01*
X0052018Y0288261D01*
X0052134Y0288594D01*
X0052322Y0288893D01*
X0052571Y0289142D01*
X0052870Y0289330D01*
X0053203Y0289446D01*
X0053553Y0289486D01*
X0060640Y0289486D01*
X0060640Y0291061D01*
X0063789Y0291061D01*
X0063789Y0283974D01*
X0053553Y0283974D01*
X0053242Y0283965D01*
X0052397Y0284344D02*
X0063789Y0284344D01*
X0063789Y0284743D02*
X0052114Y0284743D01*
X0051982Y0285141D02*
X0063789Y0285141D01*
X0063789Y0285540D02*
X0051978Y0285540D01*
X0051978Y0285938D02*
X0063789Y0285938D01*
X0063789Y0286337D02*
X0051978Y0286337D01*
X0051978Y0286735D02*
X0063789Y0286735D01*
X0063789Y0287134D02*
X0051978Y0287134D01*
X0051978Y0287532D02*
X0063789Y0287532D01*
X0063789Y0287931D02*
X0051981Y0287931D01*
X0052042Y0288329D02*
X0063789Y0288329D01*
X0063789Y0288728D02*
X0052218Y0288728D01*
X0052555Y0289126D02*
X0063789Y0289126D01*
X0063789Y0289525D02*
X0060640Y0289525D01*
X0060640Y0289923D02*
X0063789Y0289923D01*
X0063789Y0290322D02*
X0060640Y0290322D01*
X0060640Y0290720D02*
X0063789Y0290720D01*
X0063789Y0353139D02*
X0060640Y0353139D01*
X0060640Y0354320D01*
X0053159Y0354320D01*
X0052858Y0354399D01*
X0052581Y0354542D01*
X0052343Y0354744D01*
X0052156Y0354993D01*
X0052029Y0355278D01*
X0051969Y0355584D01*
X0051978Y0355895D01*
X0051978Y0359045D01*
X0052008Y0359308D01*
X0052095Y0359557D01*
X0052236Y0359781D01*
X0052423Y0359968D01*
X0052647Y0360109D01*
X0052897Y0360196D01*
X0053159Y0360226D01*
X0063789Y0360226D01*
X0063789Y0353139D01*
X0063789Y0353287D02*
X0060640Y0353287D01*
X0060640Y0353685D02*
X0063789Y0353685D01*
X0063789Y0354084D02*
X0060640Y0354084D01*
X0063789Y0354482D02*
X0052697Y0354482D01*
X0052241Y0354881D02*
X0063789Y0354881D01*
X0063789Y0355279D02*
X0052029Y0355279D01*
X0051972Y0355678D02*
X0063789Y0355678D01*
X0063789Y0356076D02*
X0051978Y0356076D01*
X0051978Y0356475D02*
X0063789Y0356475D01*
X0063789Y0356873D02*
X0051978Y0356873D01*
X0051978Y0357272D02*
X0063789Y0357272D01*
X0063789Y0357670D02*
X0051978Y0357670D01*
X0051978Y0358069D02*
X0063789Y0358069D01*
X0063789Y0358467D02*
X0051978Y0358467D01*
X0051978Y0358866D02*
X0063789Y0358866D01*
X0063789Y0359264D02*
X0052003Y0359264D01*
X0052162Y0359663D02*
X0063789Y0359663D01*
X0063789Y0360061D02*
X0052571Y0360061D01*
X0053242Y0375965D02*
X0052936Y0376025D01*
X0052651Y0376152D01*
X0052402Y0376339D01*
X0052200Y0376577D01*
X0052057Y0376853D01*
X0051978Y0377155D01*
X0051978Y0379911D01*
X0052018Y0380261D01*
X0052134Y0380594D01*
X0052322Y0380893D01*
X0052571Y0381142D01*
X0052870Y0381330D01*
X0053203Y0381446D01*
X0053553Y0381486D01*
X0060640Y0381486D01*
X0060640Y0383061D01*
X0063789Y0383061D01*
X0063789Y0375974D01*
X0053553Y0375974D01*
X0053242Y0375965D01*
X0053053Y0376002D02*
X0063789Y0376002D01*
X0063789Y0376400D02*
X0052350Y0376400D01*
X0052085Y0376799D02*
X0063789Y0376799D01*
X0063789Y0377197D02*
X0051978Y0377197D01*
X0051978Y0377596D02*
X0063789Y0377596D01*
X0063789Y0377994D02*
X0051978Y0377994D01*
X0051978Y0378393D02*
X0063789Y0378393D01*
X0063789Y0378791D02*
X0051978Y0378791D01*
X0051978Y0379190D02*
X0063789Y0379190D01*
X0063789Y0379588D02*
X0051978Y0379588D01*
X0051987Y0379987D02*
X0063789Y0379987D01*
X0063789Y0380385D02*
X0052061Y0380385D01*
X0052253Y0380784D02*
X0063789Y0380784D01*
X0063789Y0381183D02*
X0052635Y0381183D01*
X0060640Y0381581D02*
X0063789Y0381581D01*
X0063789Y0381980D02*
X0060640Y0381980D01*
X0060640Y0382378D02*
X0063789Y0382378D01*
X0063789Y0382777D02*
X0060640Y0382777D01*
D16*
X0177750Y0371921D03*
X0177750Y0362079D03*
X0177750Y0279921D03*
X0177750Y0270079D03*
X0177750Y0187921D03*
X0177750Y0178079D03*
X0177750Y0095921D03*
X0177750Y0086079D03*
X0382750Y0086079D03*
X0382750Y0095921D03*
X0382750Y0178079D03*
X0382750Y0187921D03*
X0382750Y0270079D03*
X0382750Y0279921D03*
X0382750Y0362079D03*
X0382750Y0371921D03*
X0587750Y0371921D03*
X0587750Y0362079D03*
X0587750Y0279921D03*
X0587750Y0270079D03*
X0587750Y0187921D03*
X0587750Y0178079D03*
X0587750Y0095921D03*
X0587750Y0086079D03*
D17*
X0579750Y0087654D03*
X0573750Y0086746D03*
X0573750Y0080054D03*
X0579750Y0094346D03*
X0576250Y0061346D03*
X0570250Y0061346D03*
X0570250Y0054654D03*
X0576250Y0054654D03*
X0576250Y0146654D03*
X0570250Y0146654D03*
X0570250Y0153346D03*
X0576250Y0153346D03*
X0573750Y0172054D03*
X0573750Y0178746D03*
X0579750Y0179654D03*
X0579750Y0186346D03*
X0576250Y0238654D03*
X0570250Y0238654D03*
X0570250Y0245346D03*
X0576250Y0245346D03*
X0573750Y0264054D03*
X0573750Y0270746D03*
X0579750Y0271654D03*
X0579750Y0278346D03*
X0576250Y0330654D03*
X0570250Y0330654D03*
X0570250Y0337346D03*
X0576250Y0337346D03*
X0573750Y0356054D03*
X0573750Y0362746D03*
X0579750Y0363654D03*
X0579750Y0370346D03*
X0374750Y0370346D03*
X0374750Y0363654D03*
X0368750Y0362746D03*
X0368750Y0356054D03*
X0371250Y0337346D03*
X0365250Y0337346D03*
X0365250Y0330654D03*
X0371250Y0330654D03*
X0374750Y0278346D03*
X0374750Y0271654D03*
X0368750Y0270746D03*
X0368750Y0264054D03*
X0371250Y0245346D03*
X0365250Y0245346D03*
X0365250Y0238654D03*
X0371250Y0238654D03*
X0374750Y0186346D03*
X0374750Y0179654D03*
X0368750Y0178746D03*
X0368750Y0172054D03*
X0371250Y0153346D03*
X0365250Y0153346D03*
X0365250Y0146654D03*
X0371250Y0146654D03*
X0374750Y0094346D03*
X0374750Y0087654D03*
X0368750Y0086746D03*
X0368750Y0080054D03*
X0371250Y0061346D03*
X0365250Y0061346D03*
X0365250Y0054654D03*
X0371250Y0054654D03*
X0169750Y0087654D03*
X0163750Y0086746D03*
X0163750Y0080054D03*
X0169750Y0094346D03*
X0166250Y0061346D03*
X0160250Y0061346D03*
X0160250Y0054654D03*
X0166250Y0054654D03*
X0166250Y0146654D03*
X0160250Y0146654D03*
X0160250Y0153346D03*
X0166250Y0153346D03*
X0163750Y0172054D03*
X0163750Y0178746D03*
X0169750Y0179654D03*
X0169750Y0186346D03*
X0166250Y0238654D03*
X0160250Y0238654D03*
X0160250Y0245346D03*
X0166250Y0245346D03*
X0163750Y0264054D03*
X0163750Y0270746D03*
X0169750Y0271654D03*
X0169750Y0278346D03*
X0166250Y0330654D03*
X0160250Y0330654D03*
X0160250Y0337346D03*
X0166250Y0337346D03*
X0163750Y0356054D03*
X0163750Y0362746D03*
X0169750Y0363654D03*
X0169750Y0370346D03*
D18*
X0200393Y0367807D03*
X0203542Y0367807D03*
X0206692Y0367807D03*
X0209841Y0367807D03*
X0212991Y0367807D03*
X0216141Y0367807D03*
X0214566Y0364264D03*
X0211416Y0364264D03*
X0208267Y0364264D03*
X0205117Y0364264D03*
X0201967Y0364264D03*
X0222440Y0367807D03*
X0225589Y0367807D03*
X0229920Y0367807D03*
X0227164Y0334736D03*
X0224015Y0334736D03*
X0220865Y0334736D03*
X0217715Y0334736D03*
X0214566Y0334736D03*
X0211416Y0334736D03*
X0208267Y0334736D03*
X0205117Y0334736D03*
X0201967Y0334736D03*
X0198818Y0334736D03*
X0195668Y0334736D03*
X0194093Y0331193D03*
X0190944Y0331193D03*
X0197243Y0331193D03*
X0200393Y0331193D03*
X0203542Y0331193D03*
X0209841Y0331193D03*
X0212991Y0331193D03*
X0216141Y0331193D03*
X0222440Y0331193D03*
X0225589Y0331193D03*
X0229920Y0331193D03*
X0229920Y0275807D03*
X0225589Y0275807D03*
X0222440Y0275807D03*
X0216141Y0275807D03*
X0212991Y0275807D03*
X0209841Y0275807D03*
X0206692Y0275807D03*
X0203542Y0275807D03*
X0200393Y0275807D03*
X0201967Y0272264D03*
X0205117Y0272264D03*
X0208267Y0272264D03*
X0211416Y0272264D03*
X0214566Y0272264D03*
X0214566Y0242736D03*
X0217715Y0242736D03*
X0220865Y0242736D03*
X0224015Y0242736D03*
X0227164Y0242736D03*
X0225589Y0239193D03*
X0222440Y0239193D03*
X0216141Y0239193D03*
X0212991Y0239193D03*
X0209841Y0239193D03*
X0208267Y0242736D03*
X0211416Y0242736D03*
X0205117Y0242736D03*
X0201967Y0242736D03*
X0198818Y0242736D03*
X0195668Y0242736D03*
X0194093Y0239193D03*
X0190944Y0239193D03*
X0197243Y0239193D03*
X0200393Y0239193D03*
X0203542Y0239193D03*
X0229920Y0239193D03*
X0229920Y0183807D03*
X0225589Y0183807D03*
X0222440Y0183807D03*
X0216141Y0183807D03*
X0212991Y0183807D03*
X0209841Y0183807D03*
X0206692Y0183807D03*
X0203542Y0183807D03*
X0200393Y0183807D03*
X0201967Y0180264D03*
X0205117Y0180264D03*
X0208267Y0180264D03*
X0211416Y0180264D03*
X0214566Y0180264D03*
X0214566Y0150736D03*
X0217715Y0150736D03*
X0220865Y0150736D03*
X0224015Y0150736D03*
X0227164Y0150736D03*
X0225589Y0147193D03*
X0222440Y0147193D03*
X0216141Y0147193D03*
X0212991Y0147193D03*
X0209841Y0147193D03*
X0208267Y0150736D03*
X0211416Y0150736D03*
X0205117Y0150736D03*
X0201967Y0150736D03*
X0198818Y0150736D03*
X0195668Y0150736D03*
X0194093Y0147193D03*
X0190944Y0147193D03*
X0197243Y0147193D03*
X0200393Y0147193D03*
X0203542Y0147193D03*
X0229920Y0147193D03*
X0229920Y0091807D03*
X0225589Y0091807D03*
X0222440Y0091807D03*
X0216141Y0091807D03*
X0212991Y0091807D03*
X0209841Y0091807D03*
X0206692Y0091807D03*
X0203542Y0091807D03*
X0200393Y0091807D03*
X0201967Y0088264D03*
X0205117Y0088264D03*
X0208267Y0088264D03*
X0211416Y0088264D03*
X0214566Y0088264D03*
X0214566Y0058736D03*
X0217715Y0058736D03*
X0220865Y0058736D03*
X0224015Y0058736D03*
X0227164Y0058736D03*
X0225589Y0055193D03*
X0222440Y0055193D03*
X0216141Y0055193D03*
X0212991Y0055193D03*
X0209841Y0055193D03*
X0208267Y0058736D03*
X0211416Y0058736D03*
X0205117Y0058736D03*
X0201967Y0058736D03*
X0198818Y0058736D03*
X0195668Y0058736D03*
X0194093Y0055193D03*
X0190944Y0055193D03*
X0197243Y0055193D03*
X0200393Y0055193D03*
X0203542Y0055193D03*
X0229920Y0055193D03*
X0395944Y0055193D03*
X0399093Y0055193D03*
X0402243Y0055193D03*
X0405393Y0055193D03*
X0408542Y0055193D03*
X0406967Y0058736D03*
X0403818Y0058736D03*
X0400668Y0058736D03*
X0410117Y0058736D03*
X0413267Y0058736D03*
X0416416Y0058736D03*
X0419566Y0058736D03*
X0422715Y0058736D03*
X0425865Y0058736D03*
X0429015Y0058736D03*
X0432164Y0058736D03*
X0430589Y0055193D03*
X0427440Y0055193D03*
X0421141Y0055193D03*
X0417991Y0055193D03*
X0414841Y0055193D03*
X0434920Y0055193D03*
X0419566Y0088264D03*
X0416416Y0088264D03*
X0413267Y0088264D03*
X0410117Y0088264D03*
X0406967Y0088264D03*
X0405393Y0091807D03*
X0408542Y0091807D03*
X0411692Y0091807D03*
X0414841Y0091807D03*
X0417991Y0091807D03*
X0421141Y0091807D03*
X0427440Y0091807D03*
X0430589Y0091807D03*
X0434920Y0091807D03*
X0434920Y0147193D03*
X0430589Y0147193D03*
X0427440Y0147193D03*
X0429015Y0150736D03*
X0432164Y0150736D03*
X0425865Y0150736D03*
X0422715Y0150736D03*
X0419566Y0150736D03*
X0416416Y0150736D03*
X0413267Y0150736D03*
X0410117Y0150736D03*
X0406967Y0150736D03*
X0403818Y0150736D03*
X0400668Y0150736D03*
X0399093Y0147193D03*
X0395944Y0147193D03*
X0402243Y0147193D03*
X0405393Y0147193D03*
X0408542Y0147193D03*
X0414841Y0147193D03*
X0417991Y0147193D03*
X0421141Y0147193D03*
X0419566Y0180264D03*
X0416416Y0180264D03*
X0413267Y0180264D03*
X0410117Y0180264D03*
X0406967Y0180264D03*
X0405393Y0183807D03*
X0408542Y0183807D03*
X0411692Y0183807D03*
X0414841Y0183807D03*
X0417991Y0183807D03*
X0421141Y0183807D03*
X0427440Y0183807D03*
X0430589Y0183807D03*
X0434920Y0183807D03*
X0434920Y0239193D03*
X0430589Y0239193D03*
X0427440Y0239193D03*
X0429015Y0242736D03*
X0432164Y0242736D03*
X0425865Y0242736D03*
X0422715Y0242736D03*
X0419566Y0242736D03*
X0416416Y0242736D03*
X0413267Y0242736D03*
X0410117Y0242736D03*
X0406967Y0242736D03*
X0403818Y0242736D03*
X0400668Y0242736D03*
X0399093Y0239193D03*
X0395944Y0239193D03*
X0402243Y0239193D03*
X0405393Y0239193D03*
X0408542Y0239193D03*
X0414841Y0239193D03*
X0417991Y0239193D03*
X0421141Y0239193D03*
X0419566Y0272264D03*
X0416416Y0272264D03*
X0413267Y0272264D03*
X0410117Y0272264D03*
X0406967Y0272264D03*
X0405393Y0275807D03*
X0408542Y0275807D03*
X0411692Y0275807D03*
X0414841Y0275807D03*
X0417991Y0275807D03*
X0421141Y0275807D03*
X0427440Y0275807D03*
X0430589Y0275807D03*
X0434920Y0275807D03*
X0434920Y0331193D03*
X0430589Y0331193D03*
X0427440Y0331193D03*
X0429015Y0334736D03*
X0432164Y0334736D03*
X0425865Y0334736D03*
X0422715Y0334736D03*
X0419566Y0334736D03*
X0416416Y0334736D03*
X0413267Y0334736D03*
X0410117Y0334736D03*
X0406967Y0334736D03*
X0403818Y0334736D03*
X0400668Y0334736D03*
X0399093Y0331193D03*
X0395944Y0331193D03*
X0402243Y0331193D03*
X0405393Y0331193D03*
X0408542Y0331193D03*
X0414841Y0331193D03*
X0417991Y0331193D03*
X0421141Y0331193D03*
X0419566Y0364264D03*
X0416416Y0364264D03*
X0413267Y0364264D03*
X0410117Y0364264D03*
X0406967Y0364264D03*
X0405393Y0367807D03*
X0408542Y0367807D03*
X0411692Y0367807D03*
X0414841Y0367807D03*
X0417991Y0367807D03*
X0421141Y0367807D03*
X0427440Y0367807D03*
X0430589Y0367807D03*
X0434920Y0367807D03*
X0600944Y0331193D03*
X0604093Y0331193D03*
X0607243Y0331193D03*
X0610393Y0331193D03*
X0613542Y0331193D03*
X0611967Y0334736D03*
X0608818Y0334736D03*
X0605668Y0334736D03*
X0615117Y0334736D03*
X0618267Y0334736D03*
X0621416Y0334736D03*
X0624566Y0334736D03*
X0627715Y0334736D03*
X0630865Y0334736D03*
X0634015Y0334736D03*
X0637164Y0334736D03*
X0635589Y0331193D03*
X0632440Y0331193D03*
X0626141Y0331193D03*
X0622991Y0331193D03*
X0619841Y0331193D03*
X0639920Y0331193D03*
X0624566Y0364264D03*
X0621416Y0364264D03*
X0618267Y0364264D03*
X0615117Y0364264D03*
X0611967Y0364264D03*
X0610393Y0367807D03*
X0613542Y0367807D03*
X0616692Y0367807D03*
X0619841Y0367807D03*
X0622991Y0367807D03*
X0626141Y0367807D03*
X0632440Y0367807D03*
X0635589Y0367807D03*
X0639920Y0367807D03*
X0639920Y0275807D03*
X0635589Y0275807D03*
X0632440Y0275807D03*
X0626141Y0275807D03*
X0622991Y0275807D03*
X0619841Y0275807D03*
X0616692Y0275807D03*
X0613542Y0275807D03*
X0610393Y0275807D03*
X0611967Y0272264D03*
X0615117Y0272264D03*
X0618267Y0272264D03*
X0621416Y0272264D03*
X0624566Y0272264D03*
X0624566Y0242736D03*
X0627715Y0242736D03*
X0630865Y0242736D03*
X0634015Y0242736D03*
X0637164Y0242736D03*
X0635589Y0239193D03*
X0632440Y0239193D03*
X0626141Y0239193D03*
X0622991Y0239193D03*
X0619841Y0239193D03*
X0618267Y0242736D03*
X0621416Y0242736D03*
X0615117Y0242736D03*
X0611967Y0242736D03*
X0608818Y0242736D03*
X0605668Y0242736D03*
X0604093Y0239193D03*
X0600944Y0239193D03*
X0607243Y0239193D03*
X0610393Y0239193D03*
X0613542Y0239193D03*
X0639920Y0239193D03*
X0639920Y0183807D03*
X0635589Y0183807D03*
X0632440Y0183807D03*
X0626141Y0183807D03*
X0622991Y0183807D03*
X0619841Y0183807D03*
X0616692Y0183807D03*
X0613542Y0183807D03*
X0610393Y0183807D03*
X0611967Y0180264D03*
X0615117Y0180264D03*
X0618267Y0180264D03*
X0621416Y0180264D03*
X0624566Y0180264D03*
X0624566Y0150736D03*
X0627715Y0150736D03*
X0630865Y0150736D03*
X0634015Y0150736D03*
X0637164Y0150736D03*
X0635589Y0147193D03*
X0632440Y0147193D03*
X0626141Y0147193D03*
X0622991Y0147193D03*
X0619841Y0147193D03*
X0618267Y0150736D03*
X0621416Y0150736D03*
X0615117Y0150736D03*
X0611967Y0150736D03*
X0608818Y0150736D03*
X0605668Y0150736D03*
X0604093Y0147193D03*
X0600944Y0147193D03*
X0607243Y0147193D03*
X0610393Y0147193D03*
X0613542Y0147193D03*
X0639920Y0147193D03*
X0639920Y0091807D03*
X0635589Y0091807D03*
X0632440Y0091807D03*
X0626141Y0091807D03*
X0622991Y0091807D03*
X0619841Y0091807D03*
X0616692Y0091807D03*
X0613542Y0091807D03*
X0610393Y0091807D03*
X0611967Y0088264D03*
X0615117Y0088264D03*
X0618267Y0088264D03*
X0621416Y0088264D03*
X0624566Y0088264D03*
X0624566Y0058736D03*
X0627715Y0058736D03*
X0630865Y0058736D03*
X0634015Y0058736D03*
X0637164Y0058736D03*
X0635589Y0055193D03*
X0632440Y0055193D03*
X0626141Y0055193D03*
X0622991Y0055193D03*
X0619841Y0055193D03*
X0618267Y0058736D03*
X0621416Y0058736D03*
X0615117Y0058736D03*
X0611967Y0058736D03*
X0608818Y0058736D03*
X0605668Y0058736D03*
X0604093Y0055193D03*
X0600944Y0055193D03*
X0607243Y0055193D03*
X0610393Y0055193D03*
X0613542Y0055193D03*
X0639920Y0055193D03*
D19*
X0622991Y0065626D03*
X0622991Y0068776D03*
X0622991Y0071925D03*
X0622991Y0075075D03*
X0622991Y0078224D03*
X0622991Y0081374D03*
X0600550Y0081374D03*
X0600550Y0078224D03*
X0600550Y0075075D03*
X0600550Y0071925D03*
X0600550Y0068776D03*
X0600550Y0065626D03*
X0597007Y0064051D03*
X0597007Y0060902D03*
X0597007Y0057752D03*
X0597007Y0054602D03*
X0597007Y0067201D03*
X0597007Y0070350D03*
X0597007Y0073500D03*
X0597007Y0076650D03*
X0597007Y0079799D03*
X0597007Y0082949D03*
X0597007Y0086098D03*
X0597007Y0089248D03*
X0597007Y0092398D03*
X0597007Y0146602D03*
X0597007Y0149752D03*
X0597007Y0152902D03*
X0597007Y0156051D03*
X0597007Y0159201D03*
X0597007Y0162350D03*
X0597007Y0165500D03*
X0597007Y0168650D03*
X0597007Y0171799D03*
X0597007Y0174949D03*
X0597007Y0178098D03*
X0597007Y0181248D03*
X0597007Y0184398D03*
X0600550Y0173374D03*
X0600550Y0170224D03*
X0600550Y0167075D03*
X0600550Y0163925D03*
X0600550Y0160776D03*
X0600550Y0157626D03*
X0622991Y0157626D03*
X0622991Y0160776D03*
X0622991Y0163925D03*
X0622991Y0167075D03*
X0622991Y0170224D03*
X0622991Y0173374D03*
X0597007Y0238602D03*
X0597007Y0241752D03*
X0597007Y0244902D03*
X0597007Y0248051D03*
X0597007Y0251201D03*
X0597007Y0254350D03*
X0597007Y0257500D03*
X0597007Y0260650D03*
X0597007Y0263799D03*
X0597007Y0266949D03*
X0597007Y0270098D03*
X0597007Y0273248D03*
X0597007Y0276398D03*
X0600550Y0265374D03*
X0600550Y0262224D03*
X0600550Y0259075D03*
X0600550Y0255925D03*
X0600550Y0252776D03*
X0600550Y0249626D03*
X0622991Y0249626D03*
X0622991Y0252776D03*
X0622991Y0255925D03*
X0622991Y0259075D03*
X0622991Y0262224D03*
X0622991Y0265374D03*
X0597007Y0330602D03*
X0597007Y0333752D03*
X0597007Y0336902D03*
X0597007Y0340051D03*
X0597007Y0343201D03*
X0597007Y0346350D03*
X0597007Y0349500D03*
X0597007Y0352650D03*
X0597007Y0355799D03*
X0597007Y0358949D03*
X0597007Y0362098D03*
X0597007Y0365248D03*
X0597007Y0368398D03*
X0600550Y0357374D03*
X0600550Y0354224D03*
X0600550Y0351075D03*
X0600550Y0347925D03*
X0600550Y0344776D03*
X0600550Y0341626D03*
X0622991Y0341626D03*
X0622991Y0344776D03*
X0622991Y0347925D03*
X0622991Y0351075D03*
X0622991Y0354224D03*
X0622991Y0357374D03*
X0417991Y0357374D03*
X0417991Y0354224D03*
X0417991Y0351075D03*
X0417991Y0347925D03*
X0417991Y0344776D03*
X0417991Y0341626D03*
X0395550Y0341626D03*
X0395550Y0344776D03*
X0395550Y0347925D03*
X0395550Y0351075D03*
X0395550Y0354224D03*
X0395550Y0357374D03*
X0392007Y0355799D03*
X0392007Y0352650D03*
X0392007Y0349500D03*
X0392007Y0346350D03*
X0392007Y0343201D03*
X0392007Y0340051D03*
X0392007Y0336902D03*
X0392007Y0333752D03*
X0392007Y0330602D03*
X0392007Y0358949D03*
X0392007Y0362098D03*
X0392007Y0365248D03*
X0392007Y0368398D03*
X0392007Y0276398D03*
X0392007Y0273248D03*
X0392007Y0270098D03*
X0392007Y0266949D03*
X0392007Y0263799D03*
X0392007Y0260650D03*
X0392007Y0257500D03*
X0392007Y0254350D03*
X0392007Y0251201D03*
X0392007Y0248051D03*
X0392007Y0244902D03*
X0392007Y0241752D03*
X0392007Y0238602D03*
X0395550Y0249626D03*
X0395550Y0252776D03*
X0395550Y0255925D03*
X0395550Y0259075D03*
X0395550Y0262224D03*
X0395550Y0265374D03*
X0417991Y0265374D03*
X0417991Y0262224D03*
X0417991Y0259075D03*
X0417991Y0255925D03*
X0417991Y0252776D03*
X0417991Y0249626D03*
X0392007Y0184398D03*
X0392007Y0181248D03*
X0392007Y0178098D03*
X0392007Y0174949D03*
X0392007Y0171799D03*
X0392007Y0168650D03*
X0392007Y0165500D03*
X0392007Y0162350D03*
X0392007Y0159201D03*
X0392007Y0156051D03*
X0392007Y0152902D03*
X0392007Y0149752D03*
X0392007Y0146602D03*
X0395550Y0157626D03*
X0395550Y0160776D03*
X0395550Y0163925D03*
X0395550Y0167075D03*
X0395550Y0170224D03*
X0395550Y0173374D03*
X0417991Y0173374D03*
X0417991Y0170224D03*
X0417991Y0167075D03*
X0417991Y0163925D03*
X0417991Y0160776D03*
X0417991Y0157626D03*
X0392007Y0092398D03*
X0392007Y0089248D03*
X0392007Y0086098D03*
X0392007Y0082949D03*
X0392007Y0079799D03*
X0392007Y0076650D03*
X0392007Y0073500D03*
X0392007Y0070350D03*
X0392007Y0067201D03*
X0392007Y0064051D03*
X0392007Y0060902D03*
X0392007Y0057752D03*
X0392007Y0054602D03*
X0395550Y0065626D03*
X0395550Y0068776D03*
X0395550Y0071925D03*
X0395550Y0075075D03*
X0395550Y0078224D03*
X0395550Y0081374D03*
X0417991Y0081374D03*
X0417991Y0078224D03*
X0417991Y0075075D03*
X0417991Y0071925D03*
X0417991Y0068776D03*
X0417991Y0065626D03*
X0212991Y0065626D03*
X0212991Y0068776D03*
X0212991Y0071925D03*
X0212991Y0075075D03*
X0212991Y0078224D03*
X0212991Y0081374D03*
X0190550Y0081374D03*
X0190550Y0078224D03*
X0190550Y0075075D03*
X0190550Y0071925D03*
X0190550Y0068776D03*
X0190550Y0065626D03*
X0187007Y0064051D03*
X0187007Y0060902D03*
X0187007Y0057752D03*
X0187007Y0054602D03*
X0187007Y0067201D03*
X0187007Y0070350D03*
X0187007Y0073500D03*
X0187007Y0076650D03*
X0187007Y0079799D03*
X0187007Y0082949D03*
X0187007Y0086098D03*
X0187007Y0089248D03*
X0187007Y0092398D03*
X0187007Y0146602D03*
X0187007Y0149752D03*
X0187007Y0152902D03*
X0187007Y0156051D03*
X0187007Y0159201D03*
X0187007Y0162350D03*
X0187007Y0165500D03*
X0187007Y0168650D03*
X0187007Y0171799D03*
X0187007Y0174949D03*
X0187007Y0178098D03*
X0187007Y0181248D03*
X0187007Y0184398D03*
X0190550Y0173374D03*
X0190550Y0170224D03*
X0190550Y0167075D03*
X0190550Y0163925D03*
X0190550Y0160776D03*
X0190550Y0157626D03*
X0212991Y0157626D03*
X0212991Y0160776D03*
X0212991Y0163925D03*
X0212991Y0167075D03*
X0212991Y0170224D03*
X0212991Y0173374D03*
X0187007Y0238602D03*
X0187007Y0241752D03*
X0187007Y0244902D03*
X0187007Y0248051D03*
X0187007Y0251201D03*
X0187007Y0254350D03*
X0187007Y0257500D03*
X0187007Y0260650D03*
X0187007Y0263799D03*
X0187007Y0266949D03*
X0187007Y0270098D03*
X0187007Y0273248D03*
X0187007Y0276398D03*
X0190550Y0265374D03*
X0190550Y0262224D03*
X0190550Y0259075D03*
X0190550Y0255925D03*
X0190550Y0252776D03*
X0190550Y0249626D03*
X0212991Y0249626D03*
X0212991Y0252776D03*
X0212991Y0255925D03*
X0212991Y0259075D03*
X0212991Y0262224D03*
X0212991Y0265374D03*
X0187007Y0330602D03*
X0187007Y0333752D03*
X0187007Y0336902D03*
X0187007Y0340051D03*
X0187007Y0343201D03*
X0187007Y0346350D03*
X0187007Y0349500D03*
X0187007Y0352650D03*
X0187007Y0355799D03*
X0187007Y0358949D03*
X0187007Y0362098D03*
X0187007Y0365248D03*
X0187007Y0368398D03*
X0190550Y0357374D03*
X0190550Y0354224D03*
X0190550Y0351075D03*
X0190550Y0347925D03*
X0190550Y0344776D03*
X0190550Y0341626D03*
X0212991Y0341626D03*
X0212991Y0344776D03*
X0212991Y0347925D03*
X0212991Y0351075D03*
X0212991Y0354224D03*
X0212991Y0357374D03*
D20*
X0220250Y0354500D03*
X0220250Y0344500D03*
X0256750Y0337000D03*
X0256750Y0327000D03*
X0226750Y0319500D03*
X0216750Y0319500D03*
X0206750Y0319500D03*
X0206750Y0309500D03*
X0216750Y0309500D03*
X0226750Y0309500D03*
X0226750Y0297500D03*
X0216750Y0297500D03*
X0206750Y0297500D03*
X0196750Y0297500D03*
X0186750Y0297500D03*
X0176750Y0297500D03*
X0166750Y0297500D03*
X0156750Y0297500D03*
X0146750Y0297500D03*
X0136750Y0297500D03*
X0126750Y0297500D03*
X0116750Y0297500D03*
X0116750Y0287500D03*
X0126750Y0287500D03*
X0136750Y0287500D03*
X0146750Y0287500D03*
X0156750Y0287500D03*
X0166750Y0287500D03*
X0176750Y0287500D03*
X0186750Y0287500D03*
X0196750Y0287500D03*
X0206750Y0287500D03*
X0216750Y0287500D03*
X0226750Y0287500D03*
X0220250Y0262500D03*
X0220250Y0252500D03*
X0256750Y0245000D03*
X0256750Y0235000D03*
X0226750Y0227500D03*
X0216750Y0227500D03*
X0206750Y0227500D03*
X0206750Y0217500D03*
X0216750Y0217500D03*
X0226750Y0217500D03*
X0226750Y0205500D03*
X0216750Y0205500D03*
X0206750Y0205500D03*
X0206750Y0195500D03*
X0216750Y0195500D03*
X0226750Y0195500D03*
X0196750Y0195500D03*
X0186750Y0195500D03*
X0176750Y0195500D03*
X0176750Y0205500D03*
X0186750Y0205500D03*
X0196750Y0205500D03*
X0196750Y0217500D03*
X0186750Y0217500D03*
X0176750Y0217500D03*
X0176750Y0227500D03*
X0186750Y0227500D03*
X0196750Y0227500D03*
X0166750Y0227500D03*
X0166750Y0217500D03*
X0166750Y0205500D03*
X0156750Y0205500D03*
X0146750Y0205500D03*
X0146750Y0195500D03*
X0156750Y0195500D03*
X0166750Y0195500D03*
X0136750Y0195500D03*
X0126750Y0195500D03*
X0116750Y0195500D03*
X0116750Y0205500D03*
X0126750Y0205500D03*
X0136750Y0205500D03*
X0126750Y0217500D03*
X0116750Y0217500D03*
X0116750Y0227500D03*
X0126750Y0227500D03*
X0051750Y0235000D03*
X0051750Y0245000D03*
X0116750Y0309500D03*
X0126750Y0309500D03*
X0126750Y0319500D03*
X0116750Y0319500D03*
X0166750Y0319500D03*
X0166750Y0309500D03*
X0176750Y0309500D03*
X0186750Y0309500D03*
X0196750Y0309500D03*
X0196750Y0319500D03*
X0186750Y0319500D03*
X0176750Y0319500D03*
X0176750Y0379500D03*
X0186750Y0379500D03*
X0196750Y0379500D03*
X0206750Y0379500D03*
X0216750Y0379500D03*
X0226750Y0379500D03*
X0226750Y0389500D03*
X0216750Y0389500D03*
X0206750Y0389500D03*
X0196750Y0389500D03*
X0186750Y0389500D03*
X0176750Y0389500D03*
X0166750Y0389500D03*
X0156750Y0389500D03*
X0146750Y0389500D03*
X0136750Y0389500D03*
X0126750Y0389500D03*
X0116750Y0389500D03*
X0116750Y0379500D03*
X0126750Y0379500D03*
X0136750Y0379500D03*
X0146750Y0379500D03*
X0156750Y0379500D03*
X0166750Y0379500D03*
X0051750Y0337000D03*
X0051750Y0327000D03*
X0321750Y0319500D03*
X0331750Y0319500D03*
X0331750Y0309500D03*
X0321750Y0309500D03*
X0321750Y0297500D03*
X0331750Y0297500D03*
X0341750Y0297500D03*
X0351750Y0297500D03*
X0361750Y0297500D03*
X0371750Y0297500D03*
X0381750Y0297500D03*
X0391750Y0297500D03*
X0401750Y0297500D03*
X0411750Y0297500D03*
X0421750Y0297500D03*
X0431750Y0297500D03*
X0431750Y0287500D03*
X0421750Y0287500D03*
X0411750Y0287500D03*
X0401750Y0287500D03*
X0391750Y0287500D03*
X0381750Y0287500D03*
X0371750Y0287500D03*
X0361750Y0287500D03*
X0351750Y0287500D03*
X0341750Y0287500D03*
X0331750Y0287500D03*
X0321750Y0287500D03*
X0371750Y0309500D03*
X0371750Y0319500D03*
X0381750Y0319500D03*
X0391750Y0319500D03*
X0401750Y0319500D03*
X0411750Y0319500D03*
X0411750Y0309500D03*
X0401750Y0309500D03*
X0391750Y0309500D03*
X0381750Y0309500D03*
X0421750Y0309500D03*
X0431750Y0309500D03*
X0431750Y0319500D03*
X0421750Y0319500D03*
X0461750Y0327000D03*
X0461750Y0337000D03*
X0425250Y0344500D03*
X0425250Y0354500D03*
X0421750Y0379500D03*
X0431750Y0379500D03*
X0431750Y0389500D03*
X0421750Y0389500D03*
X0411750Y0389500D03*
X0401750Y0389500D03*
X0391750Y0389500D03*
X0381750Y0389500D03*
X0371750Y0389500D03*
X0361750Y0389500D03*
X0351750Y0389500D03*
X0341750Y0389500D03*
X0331750Y0389500D03*
X0321750Y0389500D03*
X0321750Y0379500D03*
X0331750Y0379500D03*
X0341750Y0379500D03*
X0351750Y0379500D03*
X0361750Y0379500D03*
X0371750Y0379500D03*
X0381750Y0379500D03*
X0391750Y0379500D03*
X0401750Y0379500D03*
X0411750Y0379500D03*
X0526750Y0379500D03*
X0536750Y0379500D03*
X0546750Y0379500D03*
X0556750Y0379500D03*
X0566750Y0379500D03*
X0576750Y0379500D03*
X0586750Y0379500D03*
X0596750Y0379500D03*
X0606750Y0379500D03*
X0616750Y0379500D03*
X0626750Y0379500D03*
X0636750Y0379500D03*
X0636750Y0389500D03*
X0626750Y0389500D03*
X0616750Y0389500D03*
X0606750Y0389500D03*
X0596750Y0389500D03*
X0586750Y0389500D03*
X0576750Y0389500D03*
X0566750Y0389500D03*
X0556750Y0389500D03*
X0546750Y0389500D03*
X0536750Y0389500D03*
X0526750Y0389500D03*
X0630250Y0354500D03*
X0630250Y0344500D03*
X0626750Y0319500D03*
X0636750Y0319500D03*
X0636750Y0309500D03*
X0626750Y0309500D03*
X0616750Y0309500D03*
X0606750Y0309500D03*
X0596750Y0309500D03*
X0596750Y0319500D03*
X0606750Y0319500D03*
X0616750Y0319500D03*
X0586750Y0319500D03*
X0576750Y0319500D03*
X0576750Y0309500D03*
X0586750Y0309500D03*
X0586750Y0297500D03*
X0576750Y0297500D03*
X0566750Y0297500D03*
X0556750Y0297500D03*
X0546750Y0297500D03*
X0536750Y0297500D03*
X0526750Y0297500D03*
X0526750Y0287500D03*
X0536750Y0287500D03*
X0546750Y0287500D03*
X0556750Y0287500D03*
X0566750Y0287500D03*
X0576750Y0287500D03*
X0586750Y0287500D03*
X0596750Y0287500D03*
X0606750Y0287500D03*
X0616750Y0287500D03*
X0626750Y0287500D03*
X0636750Y0287500D03*
X0636750Y0297500D03*
X0626750Y0297500D03*
X0616750Y0297500D03*
X0606750Y0297500D03*
X0596750Y0297500D03*
X0630250Y0262500D03*
X0630250Y0252500D03*
X0626750Y0227500D03*
X0636750Y0227500D03*
X0636750Y0217500D03*
X0626750Y0217500D03*
X0616750Y0217500D03*
X0606750Y0217500D03*
X0596750Y0217500D03*
X0596750Y0227500D03*
X0606750Y0227500D03*
X0616750Y0227500D03*
X0586750Y0227500D03*
X0576750Y0227500D03*
X0576750Y0217500D03*
X0586750Y0217500D03*
X0586750Y0205500D03*
X0576750Y0205500D03*
X0566750Y0205500D03*
X0566750Y0195500D03*
X0576750Y0195500D03*
X0586750Y0195500D03*
X0596750Y0195500D03*
X0606750Y0195500D03*
X0616750Y0195500D03*
X0616750Y0205500D03*
X0606750Y0205500D03*
X0596750Y0205500D03*
X0626750Y0205500D03*
X0636750Y0205500D03*
X0636750Y0195500D03*
X0626750Y0195500D03*
X0630250Y0170500D03*
X0630250Y0160500D03*
X0626750Y0135500D03*
X0636750Y0135500D03*
X0636750Y0125500D03*
X0626750Y0125500D03*
X0616750Y0125500D03*
X0606750Y0125500D03*
X0596750Y0125500D03*
X0586750Y0125500D03*
X0576750Y0125500D03*
X0576750Y0135500D03*
X0586750Y0135500D03*
X0596750Y0135500D03*
X0606750Y0135500D03*
X0616750Y0135500D03*
X0616750Y0113500D03*
X0606750Y0113500D03*
X0596750Y0113500D03*
X0596750Y0103500D03*
X0606750Y0103500D03*
X0616750Y0103500D03*
X0626750Y0103500D03*
X0636750Y0103500D03*
X0636750Y0113500D03*
X0626750Y0113500D03*
X0586750Y0113500D03*
X0576750Y0113500D03*
X0566750Y0113500D03*
X0566750Y0103500D03*
X0576750Y0103500D03*
X0586750Y0103500D03*
X0556750Y0103500D03*
X0546750Y0103500D03*
X0536750Y0103500D03*
X0526750Y0103500D03*
X0526750Y0113500D03*
X0536750Y0113500D03*
X0546750Y0113500D03*
X0556750Y0113500D03*
X0536750Y0125500D03*
X0526750Y0125500D03*
X0526750Y0135500D03*
X0536750Y0135500D03*
X0461750Y0143000D03*
X0461750Y0153000D03*
X0431750Y0135500D03*
X0421750Y0135500D03*
X0411750Y0135500D03*
X0401750Y0135500D03*
X0391750Y0135500D03*
X0381750Y0135500D03*
X0371750Y0135500D03*
X0371750Y0125500D03*
X0381750Y0125500D03*
X0391750Y0125500D03*
X0401750Y0125500D03*
X0411750Y0125500D03*
X0421750Y0125500D03*
X0431750Y0125500D03*
X0431750Y0113500D03*
X0421750Y0113500D03*
X0421750Y0103500D03*
X0431750Y0103500D03*
X0411750Y0103500D03*
X0401750Y0103500D03*
X0391750Y0103500D03*
X0381750Y0103500D03*
X0381750Y0113500D03*
X0391750Y0113500D03*
X0401750Y0113500D03*
X0411750Y0113500D03*
X0371750Y0113500D03*
X0361750Y0113500D03*
X0351750Y0113500D03*
X0351750Y0103500D03*
X0361750Y0103500D03*
X0371750Y0103500D03*
X0341750Y0103500D03*
X0331750Y0103500D03*
X0321750Y0103500D03*
X0321750Y0113500D03*
X0331750Y0113500D03*
X0341750Y0113500D03*
X0331750Y0125500D03*
X0321750Y0125500D03*
X0321750Y0135500D03*
X0331750Y0135500D03*
X0256750Y0143000D03*
X0256750Y0153000D03*
X0226750Y0135500D03*
X0216750Y0135500D03*
X0206750Y0135500D03*
X0196750Y0135500D03*
X0186750Y0135500D03*
X0176750Y0135500D03*
X0166750Y0135500D03*
X0166750Y0125500D03*
X0176750Y0125500D03*
X0186750Y0125500D03*
X0196750Y0125500D03*
X0206750Y0125500D03*
X0216750Y0125500D03*
X0226750Y0125500D03*
X0226750Y0113500D03*
X0216750Y0113500D03*
X0206750Y0113500D03*
X0206750Y0103500D03*
X0216750Y0103500D03*
X0226750Y0103500D03*
X0196750Y0103500D03*
X0186750Y0103500D03*
X0176750Y0103500D03*
X0176750Y0113500D03*
X0186750Y0113500D03*
X0196750Y0113500D03*
X0166750Y0113500D03*
X0156750Y0113500D03*
X0146750Y0113500D03*
X0146750Y0103500D03*
X0156750Y0103500D03*
X0166750Y0103500D03*
X0136750Y0103500D03*
X0126750Y0103500D03*
X0116750Y0103500D03*
X0116750Y0113500D03*
X0126750Y0113500D03*
X0136750Y0113500D03*
X0126750Y0125500D03*
X0116750Y0125500D03*
X0116750Y0135500D03*
X0126750Y0135500D03*
X0051750Y0143000D03*
X0051750Y0153000D03*
X0051750Y0061000D03*
X0051750Y0051000D03*
X0116750Y0043500D03*
X0126750Y0043500D03*
X0126750Y0033500D03*
X0116750Y0033500D03*
X0166750Y0033500D03*
X0176750Y0033500D03*
X0186750Y0033500D03*
X0196750Y0033500D03*
X0206750Y0033500D03*
X0216750Y0033500D03*
X0226750Y0033500D03*
X0226750Y0043500D03*
X0216750Y0043500D03*
X0206750Y0043500D03*
X0196750Y0043500D03*
X0186750Y0043500D03*
X0176750Y0043500D03*
X0166750Y0043500D03*
X0220250Y0068500D03*
X0220250Y0078500D03*
X0256750Y0061000D03*
X0256750Y0051000D03*
X0321750Y0043500D03*
X0331750Y0043500D03*
X0331750Y0033500D03*
X0321750Y0033500D03*
X0371750Y0033500D03*
X0381750Y0033500D03*
X0391750Y0033500D03*
X0401750Y0033500D03*
X0411750Y0033500D03*
X0421750Y0033500D03*
X0431750Y0033500D03*
X0431750Y0043500D03*
X0421750Y0043500D03*
X0411750Y0043500D03*
X0401750Y0043500D03*
X0391750Y0043500D03*
X0381750Y0043500D03*
X0371750Y0043500D03*
X0425250Y0068500D03*
X0425250Y0078500D03*
X0461750Y0061000D03*
X0461750Y0051000D03*
X0526750Y0043500D03*
X0536750Y0043500D03*
X0536750Y0033500D03*
X0526750Y0033500D03*
X0576750Y0033500D03*
X0586750Y0033500D03*
X0596750Y0033500D03*
X0606750Y0033500D03*
X0616750Y0033500D03*
X0626750Y0033500D03*
X0636750Y0033500D03*
X0636750Y0043500D03*
X0626750Y0043500D03*
X0616750Y0043500D03*
X0606750Y0043500D03*
X0596750Y0043500D03*
X0586750Y0043500D03*
X0576750Y0043500D03*
X0630250Y0068500D03*
X0630250Y0078500D03*
X0425250Y0160500D03*
X0425250Y0170500D03*
X0421750Y0195500D03*
X0431750Y0195500D03*
X0431750Y0205500D03*
X0421750Y0205500D03*
X0411750Y0205500D03*
X0401750Y0205500D03*
X0391750Y0205500D03*
X0381750Y0205500D03*
X0381750Y0195500D03*
X0391750Y0195500D03*
X0401750Y0195500D03*
X0411750Y0195500D03*
X0411750Y0217500D03*
X0401750Y0217500D03*
X0391750Y0217500D03*
X0381750Y0217500D03*
X0381750Y0227500D03*
X0391750Y0227500D03*
X0401750Y0227500D03*
X0411750Y0227500D03*
X0421750Y0227500D03*
X0431750Y0227500D03*
X0431750Y0217500D03*
X0421750Y0217500D03*
X0461750Y0235000D03*
X0461750Y0245000D03*
X0425250Y0252500D03*
X0425250Y0262500D03*
X0371750Y0227500D03*
X0371750Y0217500D03*
X0371750Y0205500D03*
X0361750Y0205500D03*
X0351750Y0205500D03*
X0351750Y0195500D03*
X0361750Y0195500D03*
X0371750Y0195500D03*
X0341750Y0195500D03*
X0331750Y0195500D03*
X0321750Y0195500D03*
X0321750Y0205500D03*
X0331750Y0205500D03*
X0341750Y0205500D03*
X0331750Y0217500D03*
X0321750Y0217500D03*
X0321750Y0227500D03*
X0331750Y0227500D03*
X0220250Y0170500D03*
X0220250Y0160500D03*
X0526750Y0195500D03*
X0536750Y0195500D03*
X0546750Y0195500D03*
X0556750Y0195500D03*
X0556750Y0205500D03*
X0546750Y0205500D03*
X0536750Y0205500D03*
X0526750Y0205500D03*
X0526750Y0217500D03*
X0536750Y0217500D03*
X0536750Y0227500D03*
X0526750Y0227500D03*
X0526750Y0309500D03*
X0536750Y0309500D03*
X0536750Y0319500D03*
X0526750Y0319500D03*
D21*
X0506750Y0316957D03*
X0506750Y0324043D03*
X0506750Y0290043D03*
X0506750Y0282957D03*
X0506750Y0232043D03*
X0506750Y0224957D03*
X0506750Y0198043D03*
X0506750Y0190957D03*
X0506750Y0140043D03*
X0506750Y0132957D03*
X0506750Y0106043D03*
X0506750Y0098957D03*
X0506750Y0048043D03*
X0506750Y0040957D03*
X0301750Y0040957D03*
X0301750Y0048043D03*
X0301750Y0098957D03*
X0301750Y0106043D03*
X0301750Y0132957D03*
X0301750Y0140043D03*
X0301750Y0190957D03*
X0301750Y0198043D03*
X0301750Y0224957D03*
X0301750Y0232043D03*
X0301750Y0282957D03*
X0301750Y0290043D03*
X0301750Y0316957D03*
X0301750Y0324043D03*
X0301750Y0374957D03*
X0301750Y0382043D03*
X0096750Y0382043D03*
X0096750Y0374957D03*
X0096750Y0324043D03*
X0096750Y0316957D03*
X0096750Y0290043D03*
X0096750Y0282957D03*
X0096750Y0232043D03*
X0096750Y0224957D03*
X0096750Y0198043D03*
X0096750Y0190957D03*
X0096750Y0140043D03*
X0096750Y0132957D03*
X0096750Y0106043D03*
X0096750Y0098957D03*
X0096750Y0048043D03*
X0096750Y0040957D03*
X0506750Y0374957D03*
X0506750Y0382043D03*
D22*
X0499073Y0378500D03*
X0514427Y0378500D03*
X0514427Y0320500D03*
X0499073Y0320500D03*
X0499073Y0286500D03*
X0514427Y0286500D03*
X0514427Y0228500D03*
X0499073Y0228500D03*
X0499073Y0194500D03*
X0514427Y0194500D03*
X0514427Y0136500D03*
X0499073Y0136500D03*
X0499073Y0102500D03*
X0514427Y0102500D03*
X0514427Y0044500D03*
X0499073Y0044500D03*
X0309427Y0044500D03*
X0294073Y0044500D03*
X0294073Y0102500D03*
X0309427Y0102500D03*
X0309427Y0136500D03*
X0294073Y0136500D03*
X0294073Y0194500D03*
X0309427Y0194500D03*
X0309427Y0228500D03*
X0294073Y0228500D03*
X0294073Y0286500D03*
X0309427Y0286500D03*
X0309427Y0320500D03*
X0294073Y0320500D03*
X0294073Y0378500D03*
X0309427Y0378500D03*
X0104427Y0378500D03*
X0089073Y0378500D03*
X0089073Y0320500D03*
X0104427Y0320500D03*
X0104427Y0286500D03*
X0089073Y0286500D03*
X0089073Y0228500D03*
X0104427Y0228500D03*
X0104427Y0194500D03*
X0089073Y0194500D03*
X0089073Y0136500D03*
X0104427Y0136500D03*
X0104427Y0102500D03*
X0089073Y0102500D03*
X0089073Y0044500D03*
X0104427Y0044500D03*
D23*
X0135726Y0033531D03*
X0157774Y0033531D03*
X0157774Y0125531D03*
X0135726Y0125531D03*
X0135726Y0217531D03*
X0157774Y0217531D03*
X0157774Y0309531D03*
X0135726Y0309531D03*
X0340726Y0309531D03*
X0362774Y0309531D03*
X0362774Y0217531D03*
X0340726Y0217531D03*
X0340726Y0125531D03*
X0362774Y0125531D03*
X0362774Y0033531D03*
X0340726Y0033531D03*
X0545726Y0033531D03*
X0567774Y0033531D03*
X0567774Y0125531D03*
X0545726Y0125531D03*
X0545726Y0217531D03*
X0567774Y0217531D03*
X0567774Y0309531D03*
X0545726Y0309531D03*
D24*
X0550844Y0324000D03*
X0554781Y0324000D03*
X0558719Y0324000D03*
X0562656Y0324000D03*
X0562656Y0232000D03*
X0558719Y0232000D03*
X0554781Y0232000D03*
X0550844Y0232000D03*
X0550844Y0140000D03*
X0554781Y0140000D03*
X0558719Y0140000D03*
X0562656Y0140000D03*
X0562656Y0048000D03*
X0558719Y0048000D03*
X0554781Y0048000D03*
X0550844Y0048000D03*
X0357656Y0048000D03*
X0353719Y0048000D03*
X0349781Y0048000D03*
X0345844Y0048000D03*
X0345844Y0140000D03*
X0349781Y0140000D03*
X0353719Y0140000D03*
X0357656Y0140000D03*
X0357656Y0232000D03*
X0353719Y0232000D03*
X0349781Y0232000D03*
X0345844Y0232000D03*
X0345844Y0324000D03*
X0349781Y0324000D03*
X0353719Y0324000D03*
X0357656Y0324000D03*
X0152656Y0324000D03*
X0148719Y0324000D03*
X0144781Y0324000D03*
X0140844Y0324000D03*
X0140844Y0232000D03*
X0144781Y0232000D03*
X0148719Y0232000D03*
X0152656Y0232000D03*
X0152656Y0140000D03*
X0148719Y0140000D03*
X0144781Y0140000D03*
X0140844Y0140000D03*
X0140844Y0048000D03*
X0144781Y0048000D03*
X0148719Y0048000D03*
X0152656Y0048000D03*
D25*
X0074917Y0052163D03*
X0074917Y0060037D03*
X0074917Y0144163D03*
X0074917Y0152037D03*
X0074917Y0236163D03*
X0074917Y0244037D03*
X0074917Y0328163D03*
X0074917Y0336037D03*
X0279917Y0336037D03*
X0279917Y0328163D03*
X0279917Y0244037D03*
X0279917Y0236163D03*
X0279917Y0152037D03*
X0279917Y0144163D03*
X0279917Y0060037D03*
X0279917Y0052163D03*
X0484917Y0052163D03*
X0484917Y0060037D03*
X0484917Y0144163D03*
X0484917Y0152037D03*
X0484917Y0236163D03*
X0484917Y0244037D03*
X0484917Y0328163D03*
X0484917Y0336037D03*
D26*
X0054444Y0042714D03*
X0054444Y0069486D03*
X0054444Y0134714D03*
X0054444Y0161486D03*
X0054444Y0226714D03*
X0054444Y0253486D03*
X0054444Y0318714D03*
X0054444Y0345486D03*
X0259444Y0345486D03*
X0259444Y0318714D03*
X0259444Y0253486D03*
X0259444Y0226714D03*
X0259444Y0161486D03*
X0259444Y0134714D03*
X0259444Y0069486D03*
X0259444Y0042714D03*
X0464444Y0042714D03*
X0464444Y0069486D03*
X0464444Y0134714D03*
X0464444Y0161486D03*
X0464444Y0226714D03*
X0464444Y0253486D03*
X0464444Y0318714D03*
X0464444Y0345486D03*
D27*
X0525610Y0343781D03*
X0529350Y0343781D03*
X0533090Y0343781D03*
X0533090Y0354019D03*
X0525610Y0354019D03*
X0525610Y0262019D03*
X0533090Y0262019D03*
X0533090Y0251781D03*
X0529350Y0251781D03*
X0525610Y0251781D03*
X0525610Y0170019D03*
X0533090Y0170019D03*
X0533090Y0159781D03*
X0529350Y0159781D03*
X0525610Y0159781D03*
X0525610Y0078019D03*
X0533090Y0078019D03*
X0533090Y0067781D03*
X0529350Y0067781D03*
X0525610Y0067781D03*
X0328090Y0067781D03*
X0324350Y0067781D03*
X0320610Y0067781D03*
X0320610Y0078019D03*
X0328090Y0078019D03*
X0328090Y0159781D03*
X0324350Y0159781D03*
X0320610Y0159781D03*
X0320610Y0170019D03*
X0328090Y0170019D03*
X0328090Y0251781D03*
X0324350Y0251781D03*
X0320610Y0251781D03*
X0320610Y0262019D03*
X0328090Y0262019D03*
X0328090Y0343781D03*
X0324350Y0343781D03*
X0320610Y0343781D03*
X0320610Y0354019D03*
X0328090Y0354019D03*
X0123090Y0354019D03*
X0115610Y0354019D03*
X0115610Y0343781D03*
X0119350Y0343781D03*
X0123090Y0343781D03*
X0123090Y0262019D03*
X0115610Y0262019D03*
X0115610Y0251781D03*
X0119350Y0251781D03*
X0123090Y0251781D03*
X0123090Y0170019D03*
X0115610Y0170019D03*
X0115610Y0159781D03*
X0119350Y0159781D03*
X0123090Y0159781D03*
X0123090Y0078019D03*
X0115610Y0078019D03*
X0115610Y0067781D03*
X0119350Y0067781D03*
X0123090Y0067781D03*
D28*
X0127722Y0068500D03*
X0127722Y0076000D03*
X0136778Y0076000D03*
X0136778Y0068500D03*
X0136778Y0160500D03*
X0127722Y0160500D03*
X0127722Y0168000D03*
X0136778Y0168000D03*
X0136778Y0252500D03*
X0127722Y0252500D03*
X0127722Y0260000D03*
X0136778Y0260000D03*
X0136778Y0344500D03*
X0127722Y0344500D03*
X0127722Y0352000D03*
X0136778Y0352000D03*
X0332722Y0352000D03*
X0341778Y0352000D03*
X0341778Y0344500D03*
X0332722Y0344500D03*
X0332722Y0260000D03*
X0341778Y0260000D03*
X0341778Y0252500D03*
X0332722Y0252500D03*
X0332722Y0168000D03*
X0341778Y0168000D03*
X0341778Y0160500D03*
X0332722Y0160500D03*
X0332722Y0076000D03*
X0332722Y0068500D03*
X0341778Y0068500D03*
X0341778Y0076000D03*
X0537722Y0076000D03*
X0537722Y0068500D03*
X0546778Y0068500D03*
X0546778Y0076000D03*
X0546778Y0160500D03*
X0537722Y0160500D03*
X0537722Y0168000D03*
X0546778Y0168000D03*
X0546778Y0252500D03*
X0537722Y0252500D03*
X0537722Y0260000D03*
X0546778Y0260000D03*
X0546778Y0344500D03*
X0537722Y0344500D03*
X0537722Y0352000D03*
X0546778Y0352000D03*
D29*
X0556631Y0355760D03*
X0556631Y0359500D03*
X0556631Y0363240D03*
X0566869Y0363240D03*
X0566869Y0355760D03*
X0566869Y0271240D03*
X0566869Y0263760D03*
X0556631Y0263760D03*
X0556631Y0267500D03*
X0556631Y0271240D03*
X0556631Y0179240D03*
X0556631Y0175500D03*
X0556631Y0171760D03*
X0566869Y0171760D03*
X0566869Y0179240D03*
X0566869Y0087240D03*
X0566869Y0079760D03*
X0556631Y0079760D03*
X0556631Y0083500D03*
X0556631Y0087240D03*
X0361869Y0087240D03*
X0351631Y0087240D03*
X0351631Y0083500D03*
X0351631Y0079760D03*
X0361869Y0079760D03*
X0361869Y0171760D03*
X0351631Y0171760D03*
X0351631Y0175500D03*
X0351631Y0179240D03*
X0361869Y0179240D03*
X0361869Y0263760D03*
X0351631Y0263760D03*
X0351631Y0267500D03*
X0351631Y0271240D03*
X0361869Y0271240D03*
X0361869Y0355760D03*
X0361869Y0363240D03*
X0351631Y0363240D03*
X0351631Y0359500D03*
X0351631Y0355760D03*
X0156869Y0355760D03*
X0156869Y0363240D03*
X0146631Y0363240D03*
X0146631Y0359500D03*
X0146631Y0355760D03*
X0146631Y0271240D03*
X0146631Y0267500D03*
X0146631Y0263760D03*
X0156869Y0263760D03*
X0156869Y0271240D03*
X0156869Y0179240D03*
X0146631Y0179240D03*
X0146631Y0175500D03*
X0146631Y0171760D03*
X0156869Y0171760D03*
X0156869Y0087240D03*
X0146631Y0087240D03*
X0146631Y0083500D03*
X0146631Y0079760D03*
X0156869Y0079760D03*
D30*
X0199250Y0078500D03*
X0204250Y0078500D03*
X0204250Y0073500D03*
X0199250Y0073500D03*
X0199250Y0068500D03*
X0204250Y0068500D03*
X0204250Y0063500D03*
X0199250Y0063500D03*
X0199250Y0083500D03*
X0204250Y0083500D03*
X0204250Y0155500D03*
X0199250Y0155500D03*
X0199250Y0160500D03*
X0204250Y0160500D03*
X0204250Y0165500D03*
X0199250Y0165500D03*
X0199250Y0170500D03*
X0204250Y0170500D03*
X0204250Y0175500D03*
X0199250Y0175500D03*
X0199250Y0247500D03*
X0204250Y0247500D03*
X0204250Y0252500D03*
X0199250Y0252500D03*
X0199250Y0257500D03*
X0204250Y0257500D03*
X0204250Y0262500D03*
X0199250Y0262500D03*
X0199250Y0267500D03*
X0204250Y0267500D03*
X0204250Y0339500D03*
X0199250Y0339500D03*
X0199250Y0344500D03*
X0204250Y0344500D03*
X0204250Y0349500D03*
X0199250Y0349500D03*
X0199250Y0354500D03*
X0204250Y0354500D03*
X0204250Y0359500D03*
X0199250Y0359500D03*
X0091750Y0402750D03*
X0404250Y0359500D03*
X0404250Y0354500D03*
X0404250Y0349500D03*
X0404250Y0344500D03*
X0404250Y0339500D03*
X0409250Y0339500D03*
X0409250Y0344500D03*
X0409250Y0349500D03*
X0409250Y0354500D03*
X0409250Y0359500D03*
X0409250Y0267500D03*
X0409250Y0262500D03*
X0404250Y0262500D03*
X0404250Y0267500D03*
X0404250Y0257500D03*
X0404250Y0252500D03*
X0404250Y0247500D03*
X0409250Y0247500D03*
X0409250Y0252500D03*
X0409250Y0257500D03*
X0409250Y0175500D03*
X0409250Y0170500D03*
X0409250Y0165500D03*
X0404250Y0165500D03*
X0404250Y0170500D03*
X0404250Y0175500D03*
X0404250Y0160500D03*
X0404250Y0155500D03*
X0409250Y0155500D03*
X0409250Y0160500D03*
X0409250Y0083500D03*
X0409250Y0078500D03*
X0409250Y0073500D03*
X0409250Y0068500D03*
X0409250Y0063500D03*
X0404250Y0063500D03*
X0404250Y0068500D03*
X0404250Y0073500D03*
X0404250Y0078500D03*
X0404250Y0083500D03*
X0609250Y0083500D03*
X0609250Y0078500D03*
X0609250Y0073500D03*
X0609250Y0068500D03*
X0609250Y0063500D03*
X0614250Y0063500D03*
X0614250Y0068500D03*
X0614250Y0073500D03*
X0614250Y0078500D03*
X0614250Y0083500D03*
X0614250Y0155500D03*
X0614250Y0160500D03*
X0609250Y0160500D03*
X0609250Y0155500D03*
X0609250Y0165500D03*
X0609250Y0170500D03*
X0609250Y0175500D03*
X0614250Y0175500D03*
X0614250Y0170500D03*
X0614250Y0165500D03*
X0614250Y0247500D03*
X0614250Y0252500D03*
X0614250Y0257500D03*
X0609250Y0257500D03*
X0609250Y0252500D03*
X0609250Y0247500D03*
X0609250Y0262500D03*
X0609250Y0267500D03*
X0614250Y0267500D03*
X0614250Y0262500D03*
X0614250Y0339500D03*
X0614250Y0344500D03*
X0614250Y0349500D03*
X0614250Y0354500D03*
X0614250Y0359500D03*
X0609250Y0359500D03*
X0609250Y0354500D03*
X0609250Y0349500D03*
X0609250Y0344500D03*
X0609250Y0339500D03*
X0596750Y0402750D03*
D31*
X0499860Y0358358D03*
X0499860Y0352453D03*
X0499860Y0340642D03*
X0499860Y0266358D03*
X0499860Y0260453D03*
X0499860Y0248642D03*
X0499860Y0174358D03*
X0499860Y0168453D03*
X0499860Y0156642D03*
X0499860Y0082358D03*
X0499860Y0076453D03*
X0499860Y0064642D03*
X0294860Y0064642D03*
X0294860Y0076453D03*
X0294860Y0082358D03*
X0294860Y0156642D03*
X0294860Y0168453D03*
X0294860Y0174358D03*
X0294860Y0248642D03*
X0294860Y0260453D03*
X0294860Y0266358D03*
X0294860Y0340642D03*
X0294860Y0352453D03*
X0294860Y0358358D03*
X0089860Y0358358D03*
X0089860Y0352453D03*
X0089860Y0340642D03*
X0089860Y0266358D03*
X0089860Y0260453D03*
X0089860Y0248642D03*
X0089860Y0174358D03*
X0089860Y0168453D03*
X0089860Y0156642D03*
X0089860Y0082358D03*
X0089860Y0076453D03*
X0089860Y0064642D03*
D32*
X0100687Y0059130D03*
X0100687Y0087870D03*
X0100687Y0151130D03*
X0100687Y0179870D03*
X0100687Y0243130D03*
X0100687Y0271870D03*
X0100687Y0335130D03*
X0100687Y0363870D03*
X0305687Y0363870D03*
X0305687Y0335130D03*
X0305687Y0271870D03*
X0305687Y0243130D03*
X0305687Y0179870D03*
X0305687Y0151130D03*
X0305687Y0087870D03*
X0305687Y0059130D03*
X0510687Y0059130D03*
X0510687Y0087870D03*
X0510687Y0151130D03*
X0510687Y0179870D03*
X0510687Y0243130D03*
X0510687Y0271870D03*
X0510687Y0335130D03*
X0510687Y0363870D03*
D33*
X0502419Y0363870D03*
X0502419Y0335130D03*
X0502419Y0271870D03*
X0502419Y0243130D03*
X0502419Y0179870D03*
X0502419Y0151130D03*
X0502419Y0087870D03*
X0502419Y0059130D03*
X0297419Y0059130D03*
X0297419Y0087870D03*
X0297419Y0151130D03*
X0297419Y0179870D03*
X0297419Y0243130D03*
X0297419Y0271870D03*
X0297419Y0335130D03*
X0297419Y0363870D03*
X0092419Y0363870D03*
X0092419Y0335130D03*
X0092419Y0271870D03*
X0092419Y0243130D03*
X0092419Y0179870D03*
X0092419Y0151130D03*
X0092419Y0087870D03*
X0092419Y0059130D03*
D34*
X0096750Y0067594D03*
X0096750Y0079406D03*
X0096750Y0159594D03*
X0096750Y0171406D03*
X0096750Y0251594D03*
X0096750Y0263406D03*
X0096750Y0343594D03*
X0096750Y0355406D03*
X0301750Y0355406D03*
X0301750Y0343594D03*
X0301750Y0263406D03*
X0301750Y0251594D03*
X0301750Y0171406D03*
X0301750Y0159594D03*
X0301750Y0079406D03*
X0301750Y0067594D03*
X0506750Y0067594D03*
X0506750Y0079406D03*
X0506750Y0159594D03*
X0506750Y0171406D03*
X0506750Y0251594D03*
X0506750Y0263406D03*
X0506750Y0343594D03*
X0506750Y0355406D03*
D35*
X0520250Y0383000D03*
X0434250Y0314500D03*
X0520250Y0291000D03*
X0639250Y0314500D03*
X0639250Y0222500D03*
X0520250Y0199000D03*
X0434250Y0222500D03*
X0315250Y0199000D03*
X0229250Y0222500D03*
X0315250Y0291000D03*
X0229250Y0314500D03*
X0315250Y0383000D03*
X0110250Y0383000D03*
X0110250Y0291000D03*
X0110250Y0199000D03*
X0229250Y0130500D03*
X0315250Y0107000D03*
X0434250Y0130500D03*
X0520250Y0107000D03*
X0639250Y0130500D03*
X0639250Y0038500D03*
X0434250Y0038500D03*
X0229250Y0038500D03*
X0110250Y0107000D03*
D36*
X0088185Y0020250D02*
X0088187Y0020369D01*
X0088193Y0020488D01*
X0088203Y0020607D01*
X0088217Y0020725D01*
X0088235Y0020843D01*
X0088256Y0020960D01*
X0088282Y0021076D01*
X0088312Y0021192D01*
X0088345Y0021306D01*
X0088382Y0021419D01*
X0088423Y0021531D01*
X0088468Y0021642D01*
X0088516Y0021751D01*
X0088568Y0021858D01*
X0088624Y0021963D01*
X0088683Y0022067D01*
X0088745Y0022168D01*
X0088811Y0022268D01*
X0088880Y0022365D01*
X0088952Y0022459D01*
X0089028Y0022552D01*
X0089106Y0022641D01*
X0089187Y0022728D01*
X0089272Y0022813D01*
X0089359Y0022894D01*
X0089448Y0022972D01*
X0089541Y0023048D01*
X0089635Y0023120D01*
X0089732Y0023189D01*
X0089832Y0023255D01*
X0089933Y0023317D01*
X0090037Y0023376D01*
X0090142Y0023432D01*
X0090249Y0023484D01*
X0090358Y0023532D01*
X0090469Y0023577D01*
X0090581Y0023618D01*
X0090694Y0023655D01*
X0090808Y0023688D01*
X0090924Y0023718D01*
X0091040Y0023744D01*
X0091157Y0023765D01*
X0091275Y0023783D01*
X0091393Y0023797D01*
X0091512Y0023807D01*
X0091631Y0023813D01*
X0091750Y0023815D01*
X0091869Y0023813D01*
X0091988Y0023807D01*
X0092107Y0023797D01*
X0092225Y0023783D01*
X0092343Y0023765D01*
X0092460Y0023744D01*
X0092576Y0023718D01*
X0092692Y0023688D01*
X0092806Y0023655D01*
X0092919Y0023618D01*
X0093031Y0023577D01*
X0093142Y0023532D01*
X0093251Y0023484D01*
X0093358Y0023432D01*
X0093463Y0023376D01*
X0093567Y0023317D01*
X0093668Y0023255D01*
X0093768Y0023189D01*
X0093865Y0023120D01*
X0093959Y0023048D01*
X0094052Y0022972D01*
X0094141Y0022894D01*
X0094228Y0022813D01*
X0094313Y0022728D01*
X0094394Y0022641D01*
X0094472Y0022552D01*
X0094548Y0022459D01*
X0094620Y0022365D01*
X0094689Y0022268D01*
X0094755Y0022168D01*
X0094817Y0022067D01*
X0094876Y0021963D01*
X0094932Y0021858D01*
X0094984Y0021751D01*
X0095032Y0021642D01*
X0095077Y0021531D01*
X0095118Y0021419D01*
X0095155Y0021306D01*
X0095188Y0021192D01*
X0095218Y0021076D01*
X0095244Y0020960D01*
X0095265Y0020843D01*
X0095283Y0020725D01*
X0095297Y0020607D01*
X0095307Y0020488D01*
X0095313Y0020369D01*
X0095315Y0020250D01*
X0095313Y0020131D01*
X0095307Y0020012D01*
X0095297Y0019893D01*
X0095283Y0019775D01*
X0095265Y0019657D01*
X0095244Y0019540D01*
X0095218Y0019424D01*
X0095188Y0019308D01*
X0095155Y0019194D01*
X0095118Y0019081D01*
X0095077Y0018969D01*
X0095032Y0018858D01*
X0094984Y0018749D01*
X0094932Y0018642D01*
X0094876Y0018537D01*
X0094817Y0018433D01*
X0094755Y0018332D01*
X0094689Y0018232D01*
X0094620Y0018135D01*
X0094548Y0018041D01*
X0094472Y0017948D01*
X0094394Y0017859D01*
X0094313Y0017772D01*
X0094228Y0017687D01*
X0094141Y0017606D01*
X0094052Y0017528D01*
X0093959Y0017452D01*
X0093865Y0017380D01*
X0093768Y0017311D01*
X0093668Y0017245D01*
X0093567Y0017183D01*
X0093463Y0017124D01*
X0093358Y0017068D01*
X0093251Y0017016D01*
X0093142Y0016968D01*
X0093031Y0016923D01*
X0092919Y0016882D01*
X0092806Y0016845D01*
X0092692Y0016812D01*
X0092576Y0016782D01*
X0092460Y0016756D01*
X0092343Y0016735D01*
X0092225Y0016717D01*
X0092107Y0016703D01*
X0091988Y0016693D01*
X0091869Y0016687D01*
X0091750Y0016685D01*
X0091631Y0016687D01*
X0091512Y0016693D01*
X0091393Y0016703D01*
X0091275Y0016717D01*
X0091157Y0016735D01*
X0091040Y0016756D01*
X0090924Y0016782D01*
X0090808Y0016812D01*
X0090694Y0016845D01*
X0090581Y0016882D01*
X0090469Y0016923D01*
X0090358Y0016968D01*
X0090249Y0017016D01*
X0090142Y0017068D01*
X0090037Y0017124D01*
X0089933Y0017183D01*
X0089832Y0017245D01*
X0089732Y0017311D01*
X0089635Y0017380D01*
X0089541Y0017452D01*
X0089448Y0017528D01*
X0089359Y0017606D01*
X0089272Y0017687D01*
X0089187Y0017772D01*
X0089106Y0017859D01*
X0089028Y0017948D01*
X0088952Y0018041D01*
X0088880Y0018135D01*
X0088811Y0018232D01*
X0088745Y0018332D01*
X0088683Y0018433D01*
X0088624Y0018537D01*
X0088568Y0018642D01*
X0088516Y0018749D01*
X0088468Y0018858D01*
X0088423Y0018969D01*
X0088382Y0019081D01*
X0088345Y0019194D01*
X0088312Y0019308D01*
X0088282Y0019424D01*
X0088256Y0019540D01*
X0088235Y0019657D01*
X0088217Y0019775D01*
X0088203Y0019893D01*
X0088193Y0020012D01*
X0088187Y0020131D01*
X0088185Y0020250D01*
D37*
X0091750Y0020250D03*
M02*
