G75*
%MOIN*%
%OFA0B0*%
%FSLAX25Y25*%
%IPPOS*%
%LPD*%
%AMOC8*
5,1,8,0,0,1.08239X$1,22.5*
%
%ADD10C,0.08200*%
%ADD11C,0.03556*%
%ADD12R,0.04737X0.05131*%
%ADD13C,0.04737*%
%ADD14C,0.04343*%
%ADD15C,0.03300*%
%ADD16C,0.05000*%
%ADD17C,0.06706*%
D10*
X0051750Y0051000D03*
X0051750Y0061000D03*
X0116750Y0043500D03*
X0126750Y0043500D03*
X0126750Y0033500D03*
X0116750Y0033500D03*
X0166750Y0033500D03*
X0176750Y0033500D03*
X0186750Y0033500D03*
X0196750Y0033500D03*
X0206750Y0033500D03*
X0216750Y0033500D03*
X0226750Y0033500D03*
X0226750Y0043500D03*
X0216750Y0043500D03*
X0206750Y0043500D03*
X0196750Y0043500D03*
X0186750Y0043500D03*
X0176750Y0043500D03*
X0166750Y0043500D03*
X0220250Y0068500D03*
X0220250Y0078500D03*
X0256750Y0061000D03*
X0256750Y0051000D03*
X0321750Y0043500D03*
X0331750Y0043500D03*
X0331750Y0033500D03*
X0321750Y0033500D03*
X0371750Y0033500D03*
X0381750Y0033500D03*
X0391750Y0033500D03*
X0401750Y0033500D03*
X0411750Y0033500D03*
X0421750Y0033500D03*
X0431750Y0033500D03*
X0431750Y0043500D03*
X0421750Y0043500D03*
X0411750Y0043500D03*
X0401750Y0043500D03*
X0391750Y0043500D03*
X0381750Y0043500D03*
X0371750Y0043500D03*
X0425250Y0068500D03*
X0425250Y0078500D03*
X0461750Y0061000D03*
X0461750Y0051000D03*
X0526750Y0043500D03*
X0536750Y0043500D03*
X0536750Y0033500D03*
X0526750Y0033500D03*
X0576750Y0033500D03*
X0586750Y0033500D03*
X0596750Y0033500D03*
X0606750Y0033500D03*
X0616750Y0033500D03*
X0626750Y0033500D03*
X0636750Y0033500D03*
X0636750Y0043500D03*
X0626750Y0043500D03*
X0616750Y0043500D03*
X0606750Y0043500D03*
X0596750Y0043500D03*
X0586750Y0043500D03*
X0576750Y0043500D03*
X0630250Y0068500D03*
X0630250Y0078500D03*
X0626750Y0103500D03*
X0636750Y0103500D03*
X0636750Y0113500D03*
X0626750Y0113500D03*
X0616750Y0113500D03*
X0606750Y0113500D03*
X0596750Y0113500D03*
X0596750Y0103500D03*
X0606750Y0103500D03*
X0616750Y0103500D03*
X0586750Y0103500D03*
X0576750Y0103500D03*
X0566750Y0103500D03*
X0566750Y0113500D03*
X0576750Y0113500D03*
X0586750Y0113500D03*
X0586750Y0125500D03*
X0576750Y0125500D03*
X0576750Y0135500D03*
X0586750Y0135500D03*
X0596750Y0135500D03*
X0606750Y0135500D03*
X0616750Y0135500D03*
X0626750Y0135500D03*
X0636750Y0135500D03*
X0636750Y0125500D03*
X0626750Y0125500D03*
X0616750Y0125500D03*
X0606750Y0125500D03*
X0596750Y0125500D03*
X0556750Y0113500D03*
X0546750Y0113500D03*
X0536750Y0113500D03*
X0526750Y0113500D03*
X0526750Y0103500D03*
X0536750Y0103500D03*
X0546750Y0103500D03*
X0556750Y0103500D03*
X0536750Y0125500D03*
X0526750Y0125500D03*
X0526750Y0135500D03*
X0536750Y0135500D03*
X0461750Y0143000D03*
X0461750Y0153000D03*
X0431750Y0135500D03*
X0421750Y0135500D03*
X0411750Y0135500D03*
X0401750Y0135500D03*
X0391750Y0135500D03*
X0381750Y0135500D03*
X0371750Y0135500D03*
X0371750Y0125500D03*
X0381750Y0125500D03*
X0391750Y0125500D03*
X0401750Y0125500D03*
X0411750Y0125500D03*
X0421750Y0125500D03*
X0431750Y0125500D03*
X0431750Y0113500D03*
X0421750Y0113500D03*
X0421750Y0103500D03*
X0431750Y0103500D03*
X0411750Y0103500D03*
X0401750Y0103500D03*
X0391750Y0103500D03*
X0381750Y0103500D03*
X0381750Y0113500D03*
X0391750Y0113500D03*
X0401750Y0113500D03*
X0411750Y0113500D03*
X0371750Y0113500D03*
X0361750Y0113500D03*
X0351750Y0113500D03*
X0351750Y0103500D03*
X0361750Y0103500D03*
X0371750Y0103500D03*
X0341750Y0103500D03*
X0331750Y0103500D03*
X0321750Y0103500D03*
X0321750Y0113500D03*
X0331750Y0113500D03*
X0341750Y0113500D03*
X0331750Y0125500D03*
X0321750Y0125500D03*
X0321750Y0135500D03*
X0331750Y0135500D03*
X0256750Y0143000D03*
X0256750Y0153000D03*
X0226750Y0135500D03*
X0216750Y0135500D03*
X0206750Y0135500D03*
X0196750Y0135500D03*
X0186750Y0135500D03*
X0176750Y0135500D03*
X0166750Y0135500D03*
X0166750Y0125500D03*
X0176750Y0125500D03*
X0186750Y0125500D03*
X0196750Y0125500D03*
X0206750Y0125500D03*
X0216750Y0125500D03*
X0226750Y0125500D03*
X0226750Y0113500D03*
X0216750Y0113500D03*
X0206750Y0113500D03*
X0206750Y0103500D03*
X0216750Y0103500D03*
X0226750Y0103500D03*
X0196750Y0103500D03*
X0186750Y0103500D03*
X0176750Y0103500D03*
X0176750Y0113500D03*
X0186750Y0113500D03*
X0196750Y0113500D03*
X0166750Y0113500D03*
X0156750Y0113500D03*
X0146750Y0113500D03*
X0146750Y0103500D03*
X0156750Y0103500D03*
X0166750Y0103500D03*
X0136750Y0103500D03*
X0126750Y0103500D03*
X0116750Y0103500D03*
X0116750Y0113500D03*
X0126750Y0113500D03*
X0136750Y0113500D03*
X0126750Y0125500D03*
X0116750Y0125500D03*
X0116750Y0135500D03*
X0126750Y0135500D03*
X0051750Y0143000D03*
X0051750Y0153000D03*
X0116750Y0195500D03*
X0126750Y0195500D03*
X0136750Y0195500D03*
X0136750Y0205500D03*
X0126750Y0205500D03*
X0116750Y0205500D03*
X0116750Y0217500D03*
X0126750Y0217500D03*
X0126750Y0227500D03*
X0116750Y0227500D03*
X0146750Y0205500D03*
X0156750Y0205500D03*
X0166750Y0205500D03*
X0166750Y0195500D03*
X0156750Y0195500D03*
X0146750Y0195500D03*
X0176750Y0195500D03*
X0186750Y0195500D03*
X0196750Y0195500D03*
X0196750Y0205500D03*
X0186750Y0205500D03*
X0176750Y0205500D03*
X0176750Y0217500D03*
X0186750Y0217500D03*
X0196750Y0217500D03*
X0196750Y0227500D03*
X0186750Y0227500D03*
X0176750Y0227500D03*
X0166750Y0227500D03*
X0166750Y0217500D03*
X0206750Y0217500D03*
X0216750Y0217500D03*
X0226750Y0217500D03*
X0226750Y0227500D03*
X0216750Y0227500D03*
X0206750Y0227500D03*
X0206750Y0205500D03*
X0216750Y0205500D03*
X0226750Y0205500D03*
X0226750Y0195500D03*
X0216750Y0195500D03*
X0206750Y0195500D03*
X0220250Y0170500D03*
X0220250Y0160500D03*
X0321750Y0195500D03*
X0331750Y0195500D03*
X0341750Y0195500D03*
X0341750Y0205500D03*
X0331750Y0205500D03*
X0321750Y0205500D03*
X0321750Y0217500D03*
X0331750Y0217500D03*
X0331750Y0227500D03*
X0321750Y0227500D03*
X0351750Y0205500D03*
X0361750Y0205500D03*
X0371750Y0205500D03*
X0371750Y0195500D03*
X0361750Y0195500D03*
X0351750Y0195500D03*
X0381750Y0195500D03*
X0391750Y0195500D03*
X0401750Y0195500D03*
X0411750Y0195500D03*
X0411750Y0205500D03*
X0401750Y0205500D03*
X0391750Y0205500D03*
X0381750Y0205500D03*
X0381750Y0217500D03*
X0391750Y0217500D03*
X0401750Y0217500D03*
X0411750Y0217500D03*
X0411750Y0227500D03*
X0401750Y0227500D03*
X0391750Y0227500D03*
X0381750Y0227500D03*
X0371750Y0227500D03*
X0371750Y0217500D03*
X0421750Y0217500D03*
X0431750Y0217500D03*
X0431750Y0227500D03*
X0421750Y0227500D03*
X0421750Y0205500D03*
X0431750Y0205500D03*
X0431750Y0195500D03*
X0421750Y0195500D03*
X0425250Y0170500D03*
X0425250Y0160500D03*
X0526750Y0195500D03*
X0536750Y0195500D03*
X0546750Y0195500D03*
X0556750Y0195500D03*
X0556750Y0205500D03*
X0546750Y0205500D03*
X0536750Y0205500D03*
X0526750Y0205500D03*
X0526750Y0217500D03*
X0536750Y0217500D03*
X0536750Y0227500D03*
X0526750Y0227500D03*
X0566750Y0205500D03*
X0576750Y0205500D03*
X0586750Y0205500D03*
X0586750Y0195500D03*
X0576750Y0195500D03*
X0566750Y0195500D03*
X0596750Y0195500D03*
X0606750Y0195500D03*
X0616750Y0195500D03*
X0616750Y0205500D03*
X0606750Y0205500D03*
X0596750Y0205500D03*
X0596750Y0217500D03*
X0606750Y0217500D03*
X0616750Y0217500D03*
X0616750Y0227500D03*
X0606750Y0227500D03*
X0596750Y0227500D03*
X0586750Y0227500D03*
X0576750Y0227500D03*
X0576750Y0217500D03*
X0586750Y0217500D03*
X0626750Y0217500D03*
X0636750Y0217500D03*
X0636750Y0227500D03*
X0626750Y0227500D03*
X0626750Y0205500D03*
X0636750Y0205500D03*
X0636750Y0195500D03*
X0626750Y0195500D03*
X0630250Y0170500D03*
X0630250Y0160500D03*
X0630250Y0252500D03*
X0630250Y0262500D03*
X0626750Y0287500D03*
X0636750Y0287500D03*
X0636750Y0297500D03*
X0626750Y0297500D03*
X0616750Y0297500D03*
X0606750Y0297500D03*
X0596750Y0297500D03*
X0586750Y0297500D03*
X0576750Y0297500D03*
X0566750Y0297500D03*
X0556750Y0297500D03*
X0546750Y0297500D03*
X0536750Y0297500D03*
X0526750Y0297500D03*
X0526750Y0287500D03*
X0536750Y0287500D03*
X0546750Y0287500D03*
X0556750Y0287500D03*
X0566750Y0287500D03*
X0576750Y0287500D03*
X0586750Y0287500D03*
X0596750Y0287500D03*
X0606750Y0287500D03*
X0616750Y0287500D03*
X0616750Y0309500D03*
X0606750Y0309500D03*
X0596750Y0309500D03*
X0596750Y0319500D03*
X0606750Y0319500D03*
X0616750Y0319500D03*
X0626750Y0319500D03*
X0636750Y0319500D03*
X0636750Y0309500D03*
X0626750Y0309500D03*
X0586750Y0309500D03*
X0576750Y0309500D03*
X0576750Y0319500D03*
X0586750Y0319500D03*
X0536750Y0319500D03*
X0526750Y0319500D03*
X0526750Y0309500D03*
X0536750Y0309500D03*
X0461750Y0327000D03*
X0461750Y0337000D03*
X0431750Y0319500D03*
X0421750Y0319500D03*
X0421750Y0309500D03*
X0431750Y0309500D03*
X0431750Y0297500D03*
X0421750Y0297500D03*
X0411750Y0297500D03*
X0401750Y0297500D03*
X0391750Y0297500D03*
X0381750Y0297500D03*
X0371750Y0297500D03*
X0361750Y0297500D03*
X0351750Y0297500D03*
X0341750Y0297500D03*
X0331750Y0297500D03*
X0321750Y0297500D03*
X0321750Y0287500D03*
X0331750Y0287500D03*
X0341750Y0287500D03*
X0351750Y0287500D03*
X0361750Y0287500D03*
X0371750Y0287500D03*
X0381750Y0287500D03*
X0391750Y0287500D03*
X0401750Y0287500D03*
X0411750Y0287500D03*
X0421750Y0287500D03*
X0431750Y0287500D03*
X0425250Y0262500D03*
X0425250Y0252500D03*
X0461750Y0245000D03*
X0461750Y0235000D03*
X0411750Y0309500D03*
X0401750Y0309500D03*
X0391750Y0309500D03*
X0381750Y0309500D03*
X0381750Y0319500D03*
X0391750Y0319500D03*
X0401750Y0319500D03*
X0411750Y0319500D03*
X0371750Y0319500D03*
X0371750Y0309500D03*
X0331750Y0309500D03*
X0321750Y0309500D03*
X0321750Y0319500D03*
X0331750Y0319500D03*
X0256750Y0327000D03*
X0256750Y0337000D03*
X0226750Y0319500D03*
X0216750Y0319500D03*
X0206750Y0319500D03*
X0206750Y0309500D03*
X0216750Y0309500D03*
X0226750Y0309500D03*
X0226750Y0297500D03*
X0216750Y0297500D03*
X0206750Y0297500D03*
X0196750Y0297500D03*
X0186750Y0297500D03*
X0176750Y0297500D03*
X0166750Y0297500D03*
X0156750Y0297500D03*
X0146750Y0297500D03*
X0136750Y0297500D03*
X0126750Y0297500D03*
X0116750Y0297500D03*
X0116750Y0287500D03*
X0126750Y0287500D03*
X0136750Y0287500D03*
X0146750Y0287500D03*
X0156750Y0287500D03*
X0166750Y0287500D03*
X0176750Y0287500D03*
X0186750Y0287500D03*
X0196750Y0287500D03*
X0206750Y0287500D03*
X0216750Y0287500D03*
X0226750Y0287500D03*
X0220250Y0262500D03*
X0220250Y0252500D03*
X0256750Y0245000D03*
X0256750Y0235000D03*
X0196750Y0309500D03*
X0186750Y0309500D03*
X0176750Y0309500D03*
X0176750Y0319500D03*
X0186750Y0319500D03*
X0196750Y0319500D03*
X0166750Y0319500D03*
X0166750Y0309500D03*
X0126750Y0309500D03*
X0116750Y0309500D03*
X0116750Y0319500D03*
X0126750Y0319500D03*
X0051750Y0327000D03*
X0051750Y0337000D03*
X0116750Y0379500D03*
X0126750Y0379500D03*
X0136750Y0379500D03*
X0146750Y0379500D03*
X0156750Y0379500D03*
X0166750Y0379500D03*
X0176750Y0379500D03*
X0186750Y0379500D03*
X0196750Y0379500D03*
X0206750Y0379500D03*
X0216750Y0379500D03*
X0226750Y0379500D03*
X0226750Y0389500D03*
X0216750Y0389500D03*
X0206750Y0389500D03*
X0196750Y0389500D03*
X0186750Y0389500D03*
X0176750Y0389500D03*
X0166750Y0389500D03*
X0156750Y0389500D03*
X0146750Y0389500D03*
X0136750Y0389500D03*
X0126750Y0389500D03*
X0116750Y0389500D03*
X0220250Y0354500D03*
X0220250Y0344500D03*
X0321750Y0379500D03*
X0331750Y0379500D03*
X0341750Y0379500D03*
X0351750Y0379500D03*
X0361750Y0379500D03*
X0371750Y0379500D03*
X0381750Y0379500D03*
X0391750Y0379500D03*
X0401750Y0379500D03*
X0411750Y0379500D03*
X0421750Y0379500D03*
X0431750Y0379500D03*
X0431750Y0389500D03*
X0421750Y0389500D03*
X0411750Y0389500D03*
X0401750Y0389500D03*
X0391750Y0389500D03*
X0381750Y0389500D03*
X0371750Y0389500D03*
X0361750Y0389500D03*
X0351750Y0389500D03*
X0341750Y0389500D03*
X0331750Y0389500D03*
X0321750Y0389500D03*
X0425250Y0354500D03*
X0425250Y0344500D03*
X0526750Y0379500D03*
X0536750Y0379500D03*
X0546750Y0379500D03*
X0556750Y0379500D03*
X0566750Y0379500D03*
X0576750Y0379500D03*
X0586750Y0379500D03*
X0596750Y0379500D03*
X0606750Y0379500D03*
X0616750Y0379500D03*
X0626750Y0379500D03*
X0636750Y0379500D03*
X0636750Y0389500D03*
X0626750Y0389500D03*
X0616750Y0389500D03*
X0606750Y0389500D03*
X0596750Y0389500D03*
X0586750Y0389500D03*
X0576750Y0389500D03*
X0566750Y0389500D03*
X0556750Y0389500D03*
X0546750Y0389500D03*
X0536750Y0389500D03*
X0526750Y0389500D03*
X0630250Y0354500D03*
X0630250Y0344500D03*
X0051750Y0245000D03*
X0051750Y0235000D03*
D11*
X0096750Y0232043D03*
X0096750Y0224957D03*
X0096750Y0198043D03*
X0096750Y0190957D03*
X0096750Y0140043D03*
X0096750Y0132957D03*
X0096750Y0106043D03*
X0096750Y0098957D03*
X0096750Y0048043D03*
X0096750Y0040957D03*
X0301750Y0040957D03*
X0301750Y0048043D03*
X0301750Y0098957D03*
X0301750Y0106043D03*
X0301750Y0132957D03*
X0301750Y0140043D03*
X0301750Y0190957D03*
X0301750Y0198043D03*
X0301750Y0224957D03*
X0301750Y0232043D03*
X0301750Y0282957D03*
X0301750Y0290043D03*
X0301750Y0316957D03*
X0301750Y0324043D03*
X0301750Y0374957D03*
X0301750Y0382043D03*
X0096750Y0382043D03*
X0096750Y0374957D03*
X0096750Y0324043D03*
X0096750Y0316957D03*
X0096750Y0290043D03*
X0096750Y0282957D03*
X0506750Y0282957D03*
X0506750Y0290043D03*
X0506750Y0316957D03*
X0506750Y0324043D03*
X0506750Y0374957D03*
X0506750Y0382043D03*
X0506750Y0232043D03*
X0506750Y0224957D03*
X0506750Y0198043D03*
X0506750Y0190957D03*
X0506750Y0140043D03*
X0506750Y0132957D03*
X0506750Y0106043D03*
X0506750Y0098957D03*
X0506750Y0048043D03*
X0506750Y0040957D03*
D12*
X0426750Y0052654D03*
X0416750Y0052654D03*
X0416750Y0059346D03*
X0426750Y0059346D03*
X0426750Y0144654D03*
X0426750Y0151346D03*
X0416750Y0151346D03*
X0416750Y0144654D03*
X0416750Y0236654D03*
X0426750Y0236654D03*
X0426750Y0243346D03*
X0416750Y0243346D03*
X0416750Y0328654D03*
X0426750Y0328654D03*
X0426750Y0335346D03*
X0416750Y0335346D03*
X0221750Y0335346D03*
X0221750Y0328654D03*
X0211750Y0328654D03*
X0211750Y0335346D03*
X0211750Y0243346D03*
X0211750Y0236654D03*
X0221750Y0236654D03*
X0221750Y0243346D03*
X0221750Y0151346D03*
X0221750Y0144654D03*
X0211750Y0144654D03*
X0211750Y0151346D03*
X0211750Y0059346D03*
X0211750Y0052654D03*
X0221750Y0052654D03*
X0221750Y0059346D03*
X0621750Y0059346D03*
X0631750Y0059346D03*
X0631750Y0052654D03*
X0621750Y0052654D03*
X0621750Y0144654D03*
X0621750Y0151346D03*
X0631750Y0151346D03*
X0631750Y0144654D03*
X0631750Y0236654D03*
X0621750Y0236654D03*
X0621750Y0243346D03*
X0631750Y0243346D03*
X0631750Y0328654D03*
X0621750Y0328654D03*
X0621750Y0335346D03*
X0631750Y0335346D03*
D13*
X0614250Y0339500D03*
X0614250Y0344500D03*
X0614250Y0349500D03*
X0614250Y0354500D03*
X0614250Y0359500D03*
X0609250Y0359500D03*
X0609250Y0354500D03*
X0609250Y0349500D03*
X0609250Y0344500D03*
X0609250Y0339500D03*
X0596750Y0402750D03*
X0409250Y0359500D03*
X0409250Y0354500D03*
X0409250Y0349500D03*
X0409250Y0344500D03*
X0409250Y0339500D03*
X0404250Y0339500D03*
X0404250Y0344500D03*
X0404250Y0349500D03*
X0404250Y0354500D03*
X0404250Y0359500D03*
X0404250Y0267500D03*
X0404250Y0262500D03*
X0409250Y0262500D03*
X0409250Y0267500D03*
X0409250Y0257500D03*
X0409250Y0252500D03*
X0409250Y0247500D03*
X0404250Y0247500D03*
X0404250Y0252500D03*
X0404250Y0257500D03*
X0404250Y0175500D03*
X0404250Y0170500D03*
X0404250Y0165500D03*
X0409250Y0165500D03*
X0409250Y0170500D03*
X0409250Y0175500D03*
X0409250Y0160500D03*
X0409250Y0155500D03*
X0404250Y0155500D03*
X0404250Y0160500D03*
X0404250Y0083500D03*
X0404250Y0078500D03*
X0404250Y0073500D03*
X0404250Y0068500D03*
X0404250Y0063500D03*
X0409250Y0063500D03*
X0409250Y0068500D03*
X0409250Y0073500D03*
X0409250Y0078500D03*
X0409250Y0083500D03*
X0609250Y0083500D03*
X0609250Y0078500D03*
X0609250Y0073500D03*
X0609250Y0068500D03*
X0609250Y0063500D03*
X0614250Y0063500D03*
X0614250Y0068500D03*
X0614250Y0073500D03*
X0614250Y0078500D03*
X0614250Y0083500D03*
X0614250Y0155500D03*
X0614250Y0160500D03*
X0609250Y0160500D03*
X0609250Y0155500D03*
X0609250Y0165500D03*
X0609250Y0170500D03*
X0609250Y0175500D03*
X0614250Y0175500D03*
X0614250Y0170500D03*
X0614250Y0165500D03*
X0614250Y0247500D03*
X0614250Y0252500D03*
X0614250Y0257500D03*
X0609250Y0257500D03*
X0609250Y0252500D03*
X0609250Y0247500D03*
X0609250Y0262500D03*
X0609250Y0267500D03*
X0614250Y0267500D03*
X0614250Y0262500D03*
X0204250Y0262500D03*
X0199250Y0262500D03*
X0199250Y0267500D03*
X0204250Y0267500D03*
X0204250Y0257500D03*
X0199250Y0257500D03*
X0199250Y0252500D03*
X0204250Y0252500D03*
X0204250Y0247500D03*
X0199250Y0247500D03*
X0199250Y0175500D03*
X0204250Y0175500D03*
X0204250Y0170500D03*
X0199250Y0170500D03*
X0199250Y0165500D03*
X0204250Y0165500D03*
X0204250Y0160500D03*
X0199250Y0160500D03*
X0199250Y0155500D03*
X0204250Y0155500D03*
X0204250Y0083500D03*
X0199250Y0083500D03*
X0199250Y0078500D03*
X0204250Y0078500D03*
X0204250Y0073500D03*
X0199250Y0073500D03*
X0199250Y0068500D03*
X0204250Y0068500D03*
X0204250Y0063500D03*
X0199250Y0063500D03*
X0199250Y0339500D03*
X0204250Y0339500D03*
X0204250Y0344500D03*
X0199250Y0344500D03*
X0199250Y0349500D03*
X0204250Y0349500D03*
X0204250Y0354500D03*
X0199250Y0354500D03*
X0199250Y0359500D03*
X0204250Y0359500D03*
X0091750Y0402750D03*
D14*
X0096750Y0355406D03*
X0096750Y0343594D03*
X0096750Y0263406D03*
X0096750Y0251594D03*
X0096750Y0171406D03*
X0096750Y0159594D03*
X0096750Y0079406D03*
X0096750Y0067594D03*
X0301750Y0067594D03*
X0301750Y0079406D03*
X0301750Y0159594D03*
X0301750Y0171406D03*
X0301750Y0251594D03*
X0301750Y0263406D03*
X0301750Y0343594D03*
X0301750Y0355406D03*
X0506750Y0355406D03*
X0506750Y0343594D03*
X0506750Y0263406D03*
X0506750Y0251594D03*
X0506750Y0171406D03*
X0506750Y0159594D03*
X0506750Y0079406D03*
X0506750Y0067594D03*
D15*
X0520250Y0107000D03*
X0434250Y0130500D03*
X0315250Y0107000D03*
X0229250Y0130500D03*
X0110250Y0107000D03*
X0229250Y0038500D03*
X0434250Y0038500D03*
X0639250Y0038500D03*
X0639250Y0130500D03*
X0520250Y0199000D03*
X0434250Y0222500D03*
X0315250Y0199000D03*
X0229250Y0222500D03*
X0315250Y0291000D03*
X0229250Y0314500D03*
X0315250Y0383000D03*
X0434250Y0314500D03*
X0520250Y0291000D03*
X0639250Y0314500D03*
X0520250Y0383000D03*
X0639250Y0222500D03*
X0110250Y0199000D03*
X0110250Y0291000D03*
X0110250Y0383000D03*
D16*
X0088185Y0020250D02*
X0088187Y0020369D01*
X0088193Y0020488D01*
X0088203Y0020607D01*
X0088217Y0020725D01*
X0088235Y0020843D01*
X0088256Y0020960D01*
X0088282Y0021076D01*
X0088312Y0021192D01*
X0088345Y0021306D01*
X0088382Y0021419D01*
X0088423Y0021531D01*
X0088468Y0021642D01*
X0088516Y0021751D01*
X0088568Y0021858D01*
X0088624Y0021963D01*
X0088683Y0022067D01*
X0088745Y0022168D01*
X0088811Y0022268D01*
X0088880Y0022365D01*
X0088952Y0022459D01*
X0089028Y0022552D01*
X0089106Y0022641D01*
X0089187Y0022728D01*
X0089272Y0022813D01*
X0089359Y0022894D01*
X0089448Y0022972D01*
X0089541Y0023048D01*
X0089635Y0023120D01*
X0089732Y0023189D01*
X0089832Y0023255D01*
X0089933Y0023317D01*
X0090037Y0023376D01*
X0090142Y0023432D01*
X0090249Y0023484D01*
X0090358Y0023532D01*
X0090469Y0023577D01*
X0090581Y0023618D01*
X0090694Y0023655D01*
X0090808Y0023688D01*
X0090924Y0023718D01*
X0091040Y0023744D01*
X0091157Y0023765D01*
X0091275Y0023783D01*
X0091393Y0023797D01*
X0091512Y0023807D01*
X0091631Y0023813D01*
X0091750Y0023815D01*
X0091869Y0023813D01*
X0091988Y0023807D01*
X0092107Y0023797D01*
X0092225Y0023783D01*
X0092343Y0023765D01*
X0092460Y0023744D01*
X0092576Y0023718D01*
X0092692Y0023688D01*
X0092806Y0023655D01*
X0092919Y0023618D01*
X0093031Y0023577D01*
X0093142Y0023532D01*
X0093251Y0023484D01*
X0093358Y0023432D01*
X0093463Y0023376D01*
X0093567Y0023317D01*
X0093668Y0023255D01*
X0093768Y0023189D01*
X0093865Y0023120D01*
X0093959Y0023048D01*
X0094052Y0022972D01*
X0094141Y0022894D01*
X0094228Y0022813D01*
X0094313Y0022728D01*
X0094394Y0022641D01*
X0094472Y0022552D01*
X0094548Y0022459D01*
X0094620Y0022365D01*
X0094689Y0022268D01*
X0094755Y0022168D01*
X0094817Y0022067D01*
X0094876Y0021963D01*
X0094932Y0021858D01*
X0094984Y0021751D01*
X0095032Y0021642D01*
X0095077Y0021531D01*
X0095118Y0021419D01*
X0095155Y0021306D01*
X0095188Y0021192D01*
X0095218Y0021076D01*
X0095244Y0020960D01*
X0095265Y0020843D01*
X0095283Y0020725D01*
X0095297Y0020607D01*
X0095307Y0020488D01*
X0095313Y0020369D01*
X0095315Y0020250D01*
X0095313Y0020131D01*
X0095307Y0020012D01*
X0095297Y0019893D01*
X0095283Y0019775D01*
X0095265Y0019657D01*
X0095244Y0019540D01*
X0095218Y0019424D01*
X0095188Y0019308D01*
X0095155Y0019194D01*
X0095118Y0019081D01*
X0095077Y0018969D01*
X0095032Y0018858D01*
X0094984Y0018749D01*
X0094932Y0018642D01*
X0094876Y0018537D01*
X0094817Y0018433D01*
X0094755Y0018332D01*
X0094689Y0018232D01*
X0094620Y0018135D01*
X0094548Y0018041D01*
X0094472Y0017948D01*
X0094394Y0017859D01*
X0094313Y0017772D01*
X0094228Y0017687D01*
X0094141Y0017606D01*
X0094052Y0017528D01*
X0093959Y0017452D01*
X0093865Y0017380D01*
X0093768Y0017311D01*
X0093668Y0017245D01*
X0093567Y0017183D01*
X0093463Y0017124D01*
X0093358Y0017068D01*
X0093251Y0017016D01*
X0093142Y0016968D01*
X0093031Y0016923D01*
X0092919Y0016882D01*
X0092806Y0016845D01*
X0092692Y0016812D01*
X0092576Y0016782D01*
X0092460Y0016756D01*
X0092343Y0016735D01*
X0092225Y0016717D01*
X0092107Y0016703D01*
X0091988Y0016693D01*
X0091869Y0016687D01*
X0091750Y0016685D01*
X0091631Y0016687D01*
X0091512Y0016693D01*
X0091393Y0016703D01*
X0091275Y0016717D01*
X0091157Y0016735D01*
X0091040Y0016756D01*
X0090924Y0016782D01*
X0090808Y0016812D01*
X0090694Y0016845D01*
X0090581Y0016882D01*
X0090469Y0016923D01*
X0090358Y0016968D01*
X0090249Y0017016D01*
X0090142Y0017068D01*
X0090037Y0017124D01*
X0089933Y0017183D01*
X0089832Y0017245D01*
X0089732Y0017311D01*
X0089635Y0017380D01*
X0089541Y0017452D01*
X0089448Y0017528D01*
X0089359Y0017606D01*
X0089272Y0017687D01*
X0089187Y0017772D01*
X0089106Y0017859D01*
X0089028Y0017948D01*
X0088952Y0018041D01*
X0088880Y0018135D01*
X0088811Y0018232D01*
X0088745Y0018332D01*
X0088683Y0018433D01*
X0088624Y0018537D01*
X0088568Y0018642D01*
X0088516Y0018749D01*
X0088468Y0018858D01*
X0088423Y0018969D01*
X0088382Y0019081D01*
X0088345Y0019194D01*
X0088312Y0019308D01*
X0088282Y0019424D01*
X0088256Y0019540D01*
X0088235Y0019657D01*
X0088217Y0019775D01*
X0088203Y0019893D01*
X0088193Y0020012D01*
X0088187Y0020131D01*
X0088185Y0020250D01*
D17*
X0091750Y0020250D03*
M02*
