G75*
%MOIN*%
%OFA0B0*%
%FSLAX25Y25*%
%IPPOS*%
%LPD*%
%AMOC8*
5,1,8,0,0,1.08239X$1,22.5*
%
%ADD10C,0.01500*%
%ADD11C,0.01100*%
%ADD12C,0.00079*%
D10*
X0001750Y0027500D02*
X0711750Y0027500D01*
X0711750Y0119500D02*
X0001750Y0119500D01*
X0001750Y0211500D02*
X0711750Y0211500D01*
X0711750Y0303500D02*
X0001750Y0303500D01*
X0001750Y0395500D02*
X0711750Y0395500D01*
D11*
X0724541Y0396483D02*
X0725852Y0392550D01*
X0727163Y0396483D01*
X0729834Y0394844D02*
X0733768Y0394844D01*
X0737136Y0394844D02*
X0738774Y0394189D01*
X0738775Y0394189D02*
X0738827Y0394166D01*
X0738878Y0394139D01*
X0738927Y0394109D01*
X0738974Y0394076D01*
X0739019Y0394040D01*
X0739061Y0394000D01*
X0739100Y0393958D01*
X0739136Y0393914D01*
X0739169Y0393867D01*
X0739199Y0393817D01*
X0739226Y0393766D01*
X0739249Y0393714D01*
X0739268Y0393660D01*
X0739284Y0393604D01*
X0739296Y0393548D01*
X0739304Y0393491D01*
X0739308Y0393434D01*
X0739309Y0393376D01*
X0739305Y0393319D01*
X0739298Y0393262D01*
X0739286Y0393205D01*
X0739271Y0393150D01*
X0739253Y0393095D01*
X0739230Y0393042D01*
X0739204Y0392991D01*
X0739175Y0392942D01*
X0739142Y0392894D01*
X0739106Y0392849D01*
X0739068Y0392807D01*
X0739026Y0392767D01*
X0738982Y0392730D01*
X0738935Y0392696D01*
X0738887Y0392665D01*
X0738836Y0392638D01*
X0738784Y0392614D01*
X0738730Y0392594D01*
X0738675Y0392578D01*
X0738619Y0392565D01*
X0738562Y0392556D01*
X0738504Y0392551D01*
X0738447Y0392550D01*
X0738938Y0396155D02*
X0738831Y0396201D01*
X0738722Y0396244D01*
X0738612Y0396284D01*
X0738500Y0396320D01*
X0738388Y0396352D01*
X0738274Y0396381D01*
X0738160Y0396407D01*
X0738045Y0396428D01*
X0737930Y0396447D01*
X0737813Y0396461D01*
X0737697Y0396472D01*
X0737580Y0396479D01*
X0737463Y0396483D01*
X0737463Y0396484D02*
X0737406Y0396483D01*
X0737348Y0396478D01*
X0737291Y0396469D01*
X0737235Y0396456D01*
X0737180Y0396440D01*
X0737126Y0396420D01*
X0737074Y0396396D01*
X0737023Y0396369D01*
X0736975Y0396338D01*
X0736928Y0396304D01*
X0736884Y0396267D01*
X0736842Y0396227D01*
X0736804Y0396185D01*
X0736768Y0396140D01*
X0736735Y0396092D01*
X0736706Y0396043D01*
X0736680Y0395992D01*
X0736657Y0395939D01*
X0736639Y0395884D01*
X0736624Y0395829D01*
X0736612Y0395772D01*
X0736605Y0395715D01*
X0736601Y0395658D01*
X0736602Y0395600D01*
X0736606Y0395543D01*
X0736614Y0395486D01*
X0736626Y0395430D01*
X0736642Y0395374D01*
X0736661Y0395320D01*
X0736684Y0395268D01*
X0736711Y0395217D01*
X0736741Y0395167D01*
X0736774Y0395120D01*
X0736810Y0395076D01*
X0736849Y0395034D01*
X0736891Y0394994D01*
X0736936Y0394958D01*
X0736983Y0394925D01*
X0737032Y0394895D01*
X0737083Y0394868D01*
X0737135Y0394845D01*
X0736644Y0392878D02*
X0736778Y0392832D01*
X0736913Y0392789D01*
X0737049Y0392750D01*
X0737186Y0392714D01*
X0737323Y0392682D01*
X0737462Y0392653D01*
X0737601Y0392627D01*
X0737741Y0392606D01*
X0737882Y0392587D01*
X0738022Y0392573D01*
X0738164Y0392562D01*
X0738305Y0392554D01*
X0738447Y0392551D01*
X0741988Y0393533D02*
X0741988Y0395500D01*
X0741990Y0395562D01*
X0741996Y0395623D01*
X0742005Y0395684D01*
X0742019Y0395744D01*
X0742036Y0395804D01*
X0742057Y0395862D01*
X0742082Y0395919D01*
X0742110Y0395974D01*
X0742141Y0396027D01*
X0742176Y0396078D01*
X0742214Y0396127D01*
X0742254Y0396173D01*
X0742298Y0396217D01*
X0742344Y0396257D01*
X0742393Y0396295D01*
X0742444Y0396330D01*
X0742497Y0396361D01*
X0742552Y0396389D01*
X0742609Y0396414D01*
X0742667Y0396435D01*
X0742727Y0396452D01*
X0742787Y0396466D01*
X0742848Y0396475D01*
X0742909Y0396481D01*
X0742971Y0396483D01*
X0744282Y0396483D01*
X0746695Y0395172D02*
X0746695Y0393861D01*
X0746696Y0393861D02*
X0746698Y0393790D01*
X0746704Y0393719D01*
X0746713Y0393649D01*
X0746727Y0393579D01*
X0746744Y0393510D01*
X0746765Y0393442D01*
X0746789Y0393376D01*
X0746817Y0393311D01*
X0746849Y0393247D01*
X0746884Y0393185D01*
X0746922Y0393125D01*
X0746963Y0393068D01*
X0747008Y0393012D01*
X0747055Y0392959D01*
X0747105Y0392909D01*
X0747158Y0392862D01*
X0747214Y0392817D01*
X0747271Y0392776D01*
X0747331Y0392738D01*
X0747393Y0392703D01*
X0747457Y0392671D01*
X0747522Y0392643D01*
X0747588Y0392619D01*
X0747656Y0392598D01*
X0747725Y0392581D01*
X0747795Y0392567D01*
X0747865Y0392558D01*
X0747936Y0392552D01*
X0748007Y0392550D01*
X0748078Y0392552D01*
X0748149Y0392558D01*
X0748219Y0392567D01*
X0748289Y0392581D01*
X0748358Y0392598D01*
X0748426Y0392619D01*
X0748492Y0392643D01*
X0748557Y0392671D01*
X0748621Y0392703D01*
X0748683Y0392738D01*
X0748743Y0392776D01*
X0748800Y0392817D01*
X0748856Y0392862D01*
X0748909Y0392909D01*
X0748959Y0392959D01*
X0749006Y0393012D01*
X0749051Y0393068D01*
X0749092Y0393125D01*
X0749130Y0393185D01*
X0749165Y0393247D01*
X0749197Y0393311D01*
X0749225Y0393376D01*
X0749249Y0393442D01*
X0749270Y0393510D01*
X0749287Y0393579D01*
X0749301Y0393649D01*
X0749310Y0393719D01*
X0749316Y0393790D01*
X0749318Y0393861D01*
X0749318Y0395172D01*
X0749316Y0395243D01*
X0749310Y0395314D01*
X0749301Y0395384D01*
X0749287Y0395454D01*
X0749270Y0395523D01*
X0749249Y0395591D01*
X0749225Y0395657D01*
X0749197Y0395722D01*
X0749165Y0395786D01*
X0749130Y0395848D01*
X0749092Y0395908D01*
X0749051Y0395965D01*
X0749006Y0396021D01*
X0748959Y0396074D01*
X0748909Y0396124D01*
X0748856Y0396171D01*
X0748800Y0396216D01*
X0748743Y0396257D01*
X0748683Y0396295D01*
X0748621Y0396330D01*
X0748557Y0396362D01*
X0748492Y0396390D01*
X0748426Y0396414D01*
X0748358Y0396435D01*
X0748289Y0396452D01*
X0748219Y0396466D01*
X0748149Y0396475D01*
X0748078Y0396481D01*
X0748007Y0396483D01*
X0747936Y0396481D01*
X0747865Y0396475D01*
X0747795Y0396466D01*
X0747725Y0396452D01*
X0747656Y0396435D01*
X0747588Y0396414D01*
X0747522Y0396390D01*
X0747457Y0396362D01*
X0747393Y0396330D01*
X0747331Y0396295D01*
X0747271Y0396257D01*
X0747214Y0396216D01*
X0747158Y0396171D01*
X0747105Y0396124D01*
X0747055Y0396074D01*
X0747008Y0396021D01*
X0746963Y0395965D01*
X0746922Y0395908D01*
X0746884Y0395848D01*
X0746849Y0395786D01*
X0746817Y0395722D01*
X0746789Y0395657D01*
X0746765Y0395591D01*
X0746744Y0395523D01*
X0746727Y0395454D01*
X0746713Y0395384D01*
X0746704Y0395314D01*
X0746698Y0395243D01*
X0746696Y0395172D01*
X0744282Y0392550D02*
X0742971Y0392550D01*
X0742909Y0392552D01*
X0742848Y0392558D01*
X0742787Y0392567D01*
X0742727Y0392581D01*
X0742667Y0392598D01*
X0742609Y0392619D01*
X0742552Y0392644D01*
X0742497Y0392672D01*
X0742444Y0392703D01*
X0742393Y0392738D01*
X0742344Y0392776D01*
X0742298Y0392816D01*
X0742254Y0392860D01*
X0742214Y0392906D01*
X0742176Y0392955D01*
X0742141Y0393006D01*
X0742110Y0393059D01*
X0742082Y0393114D01*
X0742057Y0393171D01*
X0742036Y0393229D01*
X0742019Y0393289D01*
X0742005Y0393349D01*
X0741996Y0393410D01*
X0741990Y0393471D01*
X0741988Y0393533D01*
X0752284Y0392550D02*
X0752284Y0396483D01*
X0754251Y0396483D01*
X0754251Y0395828D01*
X0756337Y0395172D02*
X0756337Y0393533D01*
X0756339Y0393471D01*
X0756345Y0393410D01*
X0756354Y0393349D01*
X0756368Y0393289D01*
X0756385Y0393229D01*
X0756406Y0393171D01*
X0756431Y0393114D01*
X0756459Y0393059D01*
X0756490Y0393006D01*
X0756525Y0392955D01*
X0756563Y0392906D01*
X0756603Y0392860D01*
X0756647Y0392816D01*
X0756693Y0392776D01*
X0756742Y0392738D01*
X0756793Y0392703D01*
X0756846Y0392672D01*
X0756901Y0392644D01*
X0756958Y0392619D01*
X0757016Y0392598D01*
X0757076Y0392581D01*
X0757136Y0392567D01*
X0757197Y0392558D01*
X0757258Y0392552D01*
X0757320Y0392550D01*
X0758959Y0392550D01*
X0758959Y0394517D02*
X0756337Y0394517D01*
X0756337Y0395172D02*
X0756339Y0395243D01*
X0756345Y0395314D01*
X0756354Y0395384D01*
X0756368Y0395454D01*
X0756385Y0395523D01*
X0756406Y0395591D01*
X0756430Y0395657D01*
X0756458Y0395722D01*
X0756490Y0395786D01*
X0756525Y0395848D01*
X0756563Y0395908D01*
X0756604Y0395965D01*
X0756649Y0396021D01*
X0756696Y0396074D01*
X0756746Y0396124D01*
X0756799Y0396171D01*
X0756855Y0396216D01*
X0756912Y0396257D01*
X0756972Y0396295D01*
X0757034Y0396330D01*
X0757098Y0396362D01*
X0757163Y0396390D01*
X0757229Y0396414D01*
X0757297Y0396435D01*
X0757366Y0396452D01*
X0757436Y0396466D01*
X0757506Y0396475D01*
X0757577Y0396481D01*
X0757648Y0396483D01*
X0757719Y0396481D01*
X0757790Y0396475D01*
X0757860Y0396466D01*
X0757930Y0396452D01*
X0757999Y0396435D01*
X0758067Y0396414D01*
X0758133Y0396390D01*
X0758198Y0396362D01*
X0758262Y0396330D01*
X0758324Y0396295D01*
X0758384Y0396257D01*
X0758441Y0396216D01*
X0758497Y0396171D01*
X0758550Y0396124D01*
X0758600Y0396074D01*
X0758647Y0396021D01*
X0758692Y0395965D01*
X0758733Y0395908D01*
X0758771Y0395848D01*
X0758806Y0395786D01*
X0758838Y0395722D01*
X0758866Y0395657D01*
X0758890Y0395591D01*
X0758911Y0395523D01*
X0758928Y0395454D01*
X0758942Y0395384D01*
X0758951Y0395314D01*
X0758957Y0395243D01*
X0758959Y0395172D01*
X0758959Y0394517D01*
X0738447Y0300551D02*
X0738305Y0300554D01*
X0738164Y0300562D01*
X0738022Y0300573D01*
X0737882Y0300587D01*
X0737741Y0300606D01*
X0737601Y0300627D01*
X0737462Y0300653D01*
X0737323Y0300682D01*
X0737186Y0300714D01*
X0737049Y0300750D01*
X0736913Y0300789D01*
X0736778Y0300832D01*
X0736644Y0300878D01*
X0737463Y0304483D02*
X0737580Y0304479D01*
X0737697Y0304472D01*
X0737813Y0304461D01*
X0737930Y0304447D01*
X0738045Y0304428D01*
X0738160Y0304407D01*
X0738274Y0304381D01*
X0738388Y0304352D01*
X0738500Y0304320D01*
X0738612Y0304284D01*
X0738722Y0304244D01*
X0738831Y0304201D01*
X0738938Y0304155D01*
X0737463Y0304484D02*
X0737406Y0304483D01*
X0737348Y0304478D01*
X0737291Y0304469D01*
X0737235Y0304456D01*
X0737180Y0304440D01*
X0737126Y0304420D01*
X0737074Y0304396D01*
X0737023Y0304369D01*
X0736975Y0304338D01*
X0736928Y0304304D01*
X0736884Y0304267D01*
X0736842Y0304227D01*
X0736804Y0304185D01*
X0736768Y0304140D01*
X0736735Y0304092D01*
X0736706Y0304043D01*
X0736680Y0303992D01*
X0736657Y0303939D01*
X0736639Y0303884D01*
X0736624Y0303829D01*
X0736612Y0303772D01*
X0736605Y0303715D01*
X0736601Y0303658D01*
X0736602Y0303600D01*
X0736606Y0303543D01*
X0736614Y0303486D01*
X0736626Y0303430D01*
X0736642Y0303374D01*
X0736661Y0303320D01*
X0736684Y0303268D01*
X0736711Y0303217D01*
X0736741Y0303167D01*
X0736774Y0303120D01*
X0736810Y0303076D01*
X0736849Y0303034D01*
X0736891Y0302994D01*
X0736936Y0302958D01*
X0736983Y0302925D01*
X0737032Y0302895D01*
X0737083Y0302868D01*
X0737135Y0302845D01*
X0737136Y0302844D02*
X0738774Y0302189D01*
X0738775Y0302189D02*
X0738827Y0302166D01*
X0738878Y0302139D01*
X0738927Y0302109D01*
X0738974Y0302076D01*
X0739019Y0302040D01*
X0739061Y0302000D01*
X0739100Y0301958D01*
X0739136Y0301914D01*
X0739169Y0301867D01*
X0739199Y0301817D01*
X0739226Y0301766D01*
X0739249Y0301714D01*
X0739268Y0301660D01*
X0739284Y0301604D01*
X0739296Y0301548D01*
X0739304Y0301491D01*
X0739308Y0301434D01*
X0739309Y0301376D01*
X0739305Y0301319D01*
X0739298Y0301262D01*
X0739286Y0301205D01*
X0739271Y0301150D01*
X0739253Y0301095D01*
X0739230Y0301042D01*
X0739204Y0300991D01*
X0739175Y0300942D01*
X0739142Y0300894D01*
X0739106Y0300849D01*
X0739068Y0300807D01*
X0739026Y0300767D01*
X0738982Y0300730D01*
X0738935Y0300696D01*
X0738887Y0300665D01*
X0738836Y0300638D01*
X0738784Y0300614D01*
X0738730Y0300594D01*
X0738675Y0300578D01*
X0738619Y0300565D01*
X0738562Y0300556D01*
X0738504Y0300551D01*
X0738447Y0300550D01*
X0741988Y0301533D02*
X0741988Y0303500D01*
X0741990Y0303562D01*
X0741996Y0303623D01*
X0742005Y0303684D01*
X0742019Y0303744D01*
X0742036Y0303804D01*
X0742057Y0303862D01*
X0742082Y0303919D01*
X0742110Y0303974D01*
X0742141Y0304027D01*
X0742176Y0304078D01*
X0742214Y0304127D01*
X0742254Y0304173D01*
X0742298Y0304217D01*
X0742344Y0304257D01*
X0742393Y0304295D01*
X0742444Y0304330D01*
X0742497Y0304361D01*
X0742552Y0304389D01*
X0742609Y0304414D01*
X0742667Y0304435D01*
X0742727Y0304452D01*
X0742787Y0304466D01*
X0742848Y0304475D01*
X0742909Y0304481D01*
X0742971Y0304483D01*
X0744282Y0304483D01*
X0746695Y0303172D02*
X0746695Y0301861D01*
X0746696Y0301861D02*
X0746698Y0301790D01*
X0746704Y0301719D01*
X0746713Y0301649D01*
X0746727Y0301579D01*
X0746744Y0301510D01*
X0746765Y0301442D01*
X0746789Y0301376D01*
X0746817Y0301311D01*
X0746849Y0301247D01*
X0746884Y0301185D01*
X0746922Y0301125D01*
X0746963Y0301068D01*
X0747008Y0301012D01*
X0747055Y0300959D01*
X0747105Y0300909D01*
X0747158Y0300862D01*
X0747214Y0300817D01*
X0747271Y0300776D01*
X0747331Y0300738D01*
X0747393Y0300703D01*
X0747457Y0300671D01*
X0747522Y0300643D01*
X0747588Y0300619D01*
X0747656Y0300598D01*
X0747725Y0300581D01*
X0747795Y0300567D01*
X0747865Y0300558D01*
X0747936Y0300552D01*
X0748007Y0300550D01*
X0748078Y0300552D01*
X0748149Y0300558D01*
X0748219Y0300567D01*
X0748289Y0300581D01*
X0748358Y0300598D01*
X0748426Y0300619D01*
X0748492Y0300643D01*
X0748557Y0300671D01*
X0748621Y0300703D01*
X0748683Y0300738D01*
X0748743Y0300776D01*
X0748800Y0300817D01*
X0748856Y0300862D01*
X0748909Y0300909D01*
X0748959Y0300959D01*
X0749006Y0301012D01*
X0749051Y0301068D01*
X0749092Y0301125D01*
X0749130Y0301185D01*
X0749165Y0301247D01*
X0749197Y0301311D01*
X0749225Y0301376D01*
X0749249Y0301442D01*
X0749270Y0301510D01*
X0749287Y0301579D01*
X0749301Y0301649D01*
X0749310Y0301719D01*
X0749316Y0301790D01*
X0749318Y0301861D01*
X0749318Y0303172D01*
X0749316Y0303243D01*
X0749310Y0303314D01*
X0749301Y0303384D01*
X0749287Y0303454D01*
X0749270Y0303523D01*
X0749249Y0303591D01*
X0749225Y0303657D01*
X0749197Y0303722D01*
X0749165Y0303786D01*
X0749130Y0303848D01*
X0749092Y0303908D01*
X0749051Y0303965D01*
X0749006Y0304021D01*
X0748959Y0304074D01*
X0748909Y0304124D01*
X0748856Y0304171D01*
X0748800Y0304216D01*
X0748743Y0304257D01*
X0748683Y0304295D01*
X0748621Y0304330D01*
X0748557Y0304362D01*
X0748492Y0304390D01*
X0748426Y0304414D01*
X0748358Y0304435D01*
X0748289Y0304452D01*
X0748219Y0304466D01*
X0748149Y0304475D01*
X0748078Y0304481D01*
X0748007Y0304483D01*
X0747936Y0304481D01*
X0747865Y0304475D01*
X0747795Y0304466D01*
X0747725Y0304452D01*
X0747656Y0304435D01*
X0747588Y0304414D01*
X0747522Y0304390D01*
X0747457Y0304362D01*
X0747393Y0304330D01*
X0747331Y0304295D01*
X0747271Y0304257D01*
X0747214Y0304216D01*
X0747158Y0304171D01*
X0747105Y0304124D01*
X0747055Y0304074D01*
X0747008Y0304021D01*
X0746963Y0303965D01*
X0746922Y0303908D01*
X0746884Y0303848D01*
X0746849Y0303786D01*
X0746817Y0303722D01*
X0746789Y0303657D01*
X0746765Y0303591D01*
X0746744Y0303523D01*
X0746727Y0303454D01*
X0746713Y0303384D01*
X0746704Y0303314D01*
X0746698Y0303243D01*
X0746696Y0303172D01*
X0744282Y0300550D02*
X0742971Y0300550D01*
X0742909Y0300552D01*
X0742848Y0300558D01*
X0742787Y0300567D01*
X0742727Y0300581D01*
X0742667Y0300598D01*
X0742609Y0300619D01*
X0742552Y0300644D01*
X0742497Y0300672D01*
X0742444Y0300703D01*
X0742393Y0300738D01*
X0742344Y0300776D01*
X0742298Y0300816D01*
X0742254Y0300860D01*
X0742214Y0300906D01*
X0742176Y0300955D01*
X0742141Y0301006D01*
X0742110Y0301059D01*
X0742082Y0301114D01*
X0742057Y0301171D01*
X0742036Y0301229D01*
X0742019Y0301289D01*
X0742005Y0301349D01*
X0741996Y0301410D01*
X0741990Y0301471D01*
X0741988Y0301533D01*
X0733768Y0302844D02*
X0729834Y0302844D01*
X0727163Y0304483D02*
X0725852Y0300550D01*
X0724541Y0304483D01*
X0752284Y0304483D02*
X0754251Y0304483D01*
X0754251Y0303828D01*
X0752284Y0304483D02*
X0752284Y0300550D01*
X0756337Y0301533D02*
X0756337Y0303172D01*
X0756337Y0302517D02*
X0758959Y0302517D01*
X0758959Y0303172D01*
X0758957Y0303243D01*
X0758951Y0303314D01*
X0758942Y0303384D01*
X0758928Y0303454D01*
X0758911Y0303523D01*
X0758890Y0303591D01*
X0758866Y0303657D01*
X0758838Y0303722D01*
X0758806Y0303786D01*
X0758771Y0303848D01*
X0758733Y0303908D01*
X0758692Y0303965D01*
X0758647Y0304021D01*
X0758600Y0304074D01*
X0758550Y0304124D01*
X0758497Y0304171D01*
X0758441Y0304216D01*
X0758384Y0304257D01*
X0758324Y0304295D01*
X0758262Y0304330D01*
X0758198Y0304362D01*
X0758133Y0304390D01*
X0758067Y0304414D01*
X0757999Y0304435D01*
X0757930Y0304452D01*
X0757860Y0304466D01*
X0757790Y0304475D01*
X0757719Y0304481D01*
X0757648Y0304483D01*
X0757577Y0304481D01*
X0757506Y0304475D01*
X0757436Y0304466D01*
X0757366Y0304452D01*
X0757297Y0304435D01*
X0757229Y0304414D01*
X0757163Y0304390D01*
X0757098Y0304362D01*
X0757034Y0304330D01*
X0756972Y0304295D01*
X0756912Y0304257D01*
X0756855Y0304216D01*
X0756799Y0304171D01*
X0756746Y0304124D01*
X0756696Y0304074D01*
X0756649Y0304021D01*
X0756604Y0303965D01*
X0756563Y0303908D01*
X0756525Y0303848D01*
X0756490Y0303786D01*
X0756458Y0303722D01*
X0756430Y0303657D01*
X0756406Y0303591D01*
X0756385Y0303523D01*
X0756368Y0303454D01*
X0756354Y0303384D01*
X0756345Y0303314D01*
X0756339Y0303243D01*
X0756337Y0303172D01*
X0756337Y0301533D02*
X0756339Y0301471D01*
X0756345Y0301410D01*
X0756354Y0301349D01*
X0756368Y0301289D01*
X0756385Y0301229D01*
X0756406Y0301171D01*
X0756431Y0301114D01*
X0756459Y0301059D01*
X0756490Y0301006D01*
X0756525Y0300955D01*
X0756563Y0300906D01*
X0756603Y0300860D01*
X0756647Y0300816D01*
X0756693Y0300776D01*
X0756742Y0300738D01*
X0756793Y0300703D01*
X0756846Y0300672D01*
X0756901Y0300644D01*
X0756958Y0300619D01*
X0757016Y0300598D01*
X0757076Y0300581D01*
X0757136Y0300567D01*
X0757197Y0300558D01*
X0757258Y0300552D01*
X0757320Y0300550D01*
X0758959Y0300550D01*
X0754251Y0212483D02*
X0754251Y0211828D01*
X0754251Y0212483D02*
X0752284Y0212483D01*
X0752284Y0208550D01*
X0749318Y0209861D02*
X0749318Y0211172D01*
X0749316Y0211243D01*
X0749310Y0211314D01*
X0749301Y0211384D01*
X0749287Y0211454D01*
X0749270Y0211523D01*
X0749249Y0211591D01*
X0749225Y0211657D01*
X0749197Y0211722D01*
X0749165Y0211786D01*
X0749130Y0211848D01*
X0749092Y0211908D01*
X0749051Y0211965D01*
X0749006Y0212021D01*
X0748959Y0212074D01*
X0748909Y0212124D01*
X0748856Y0212171D01*
X0748800Y0212216D01*
X0748743Y0212257D01*
X0748683Y0212295D01*
X0748621Y0212330D01*
X0748557Y0212362D01*
X0748492Y0212390D01*
X0748426Y0212414D01*
X0748358Y0212435D01*
X0748289Y0212452D01*
X0748219Y0212466D01*
X0748149Y0212475D01*
X0748078Y0212481D01*
X0748007Y0212483D01*
X0747936Y0212481D01*
X0747865Y0212475D01*
X0747795Y0212466D01*
X0747725Y0212452D01*
X0747656Y0212435D01*
X0747588Y0212414D01*
X0747522Y0212390D01*
X0747457Y0212362D01*
X0747393Y0212330D01*
X0747331Y0212295D01*
X0747271Y0212257D01*
X0747214Y0212216D01*
X0747158Y0212171D01*
X0747105Y0212124D01*
X0747055Y0212074D01*
X0747008Y0212021D01*
X0746963Y0211965D01*
X0746922Y0211908D01*
X0746884Y0211848D01*
X0746849Y0211786D01*
X0746817Y0211722D01*
X0746789Y0211657D01*
X0746765Y0211591D01*
X0746744Y0211523D01*
X0746727Y0211454D01*
X0746713Y0211384D01*
X0746704Y0211314D01*
X0746698Y0211243D01*
X0746696Y0211172D01*
X0746695Y0211172D02*
X0746695Y0209861D01*
X0746696Y0209861D02*
X0746698Y0209790D01*
X0746704Y0209719D01*
X0746713Y0209649D01*
X0746727Y0209579D01*
X0746744Y0209510D01*
X0746765Y0209442D01*
X0746789Y0209376D01*
X0746817Y0209311D01*
X0746849Y0209247D01*
X0746884Y0209185D01*
X0746922Y0209125D01*
X0746963Y0209068D01*
X0747008Y0209012D01*
X0747055Y0208959D01*
X0747105Y0208909D01*
X0747158Y0208862D01*
X0747214Y0208817D01*
X0747271Y0208776D01*
X0747331Y0208738D01*
X0747393Y0208703D01*
X0747457Y0208671D01*
X0747522Y0208643D01*
X0747588Y0208619D01*
X0747656Y0208598D01*
X0747725Y0208581D01*
X0747795Y0208567D01*
X0747865Y0208558D01*
X0747936Y0208552D01*
X0748007Y0208550D01*
X0748078Y0208552D01*
X0748149Y0208558D01*
X0748219Y0208567D01*
X0748289Y0208581D01*
X0748358Y0208598D01*
X0748426Y0208619D01*
X0748492Y0208643D01*
X0748557Y0208671D01*
X0748621Y0208703D01*
X0748683Y0208738D01*
X0748743Y0208776D01*
X0748800Y0208817D01*
X0748856Y0208862D01*
X0748909Y0208909D01*
X0748959Y0208959D01*
X0749006Y0209012D01*
X0749051Y0209068D01*
X0749092Y0209125D01*
X0749130Y0209185D01*
X0749165Y0209247D01*
X0749197Y0209311D01*
X0749225Y0209376D01*
X0749249Y0209442D01*
X0749270Y0209510D01*
X0749287Y0209579D01*
X0749301Y0209649D01*
X0749310Y0209719D01*
X0749316Y0209790D01*
X0749318Y0209861D01*
X0744282Y0208550D02*
X0742971Y0208550D01*
X0742909Y0208552D01*
X0742848Y0208558D01*
X0742787Y0208567D01*
X0742727Y0208581D01*
X0742667Y0208598D01*
X0742609Y0208619D01*
X0742552Y0208644D01*
X0742497Y0208672D01*
X0742444Y0208703D01*
X0742393Y0208738D01*
X0742344Y0208776D01*
X0742298Y0208816D01*
X0742254Y0208860D01*
X0742214Y0208906D01*
X0742176Y0208955D01*
X0742141Y0209006D01*
X0742110Y0209059D01*
X0742082Y0209114D01*
X0742057Y0209171D01*
X0742036Y0209229D01*
X0742019Y0209289D01*
X0742005Y0209349D01*
X0741996Y0209410D01*
X0741990Y0209471D01*
X0741988Y0209533D01*
X0741988Y0211500D01*
X0741990Y0211562D01*
X0741996Y0211623D01*
X0742005Y0211684D01*
X0742019Y0211744D01*
X0742036Y0211804D01*
X0742057Y0211862D01*
X0742082Y0211919D01*
X0742110Y0211974D01*
X0742141Y0212027D01*
X0742176Y0212078D01*
X0742214Y0212127D01*
X0742254Y0212173D01*
X0742298Y0212217D01*
X0742344Y0212257D01*
X0742393Y0212295D01*
X0742444Y0212330D01*
X0742497Y0212361D01*
X0742552Y0212389D01*
X0742609Y0212414D01*
X0742667Y0212435D01*
X0742727Y0212452D01*
X0742787Y0212466D01*
X0742848Y0212475D01*
X0742909Y0212481D01*
X0742971Y0212483D01*
X0744282Y0212483D01*
X0738774Y0210189D02*
X0737136Y0210844D01*
X0737135Y0210845D02*
X0737083Y0210868D01*
X0737032Y0210895D01*
X0736983Y0210925D01*
X0736936Y0210958D01*
X0736891Y0210994D01*
X0736849Y0211034D01*
X0736810Y0211076D01*
X0736774Y0211120D01*
X0736741Y0211167D01*
X0736711Y0211217D01*
X0736684Y0211268D01*
X0736661Y0211320D01*
X0736642Y0211374D01*
X0736626Y0211430D01*
X0736614Y0211486D01*
X0736606Y0211543D01*
X0736602Y0211600D01*
X0736601Y0211658D01*
X0736605Y0211715D01*
X0736612Y0211772D01*
X0736624Y0211829D01*
X0736639Y0211884D01*
X0736657Y0211939D01*
X0736680Y0211992D01*
X0736706Y0212043D01*
X0736735Y0212092D01*
X0736768Y0212140D01*
X0736804Y0212185D01*
X0736842Y0212227D01*
X0736884Y0212267D01*
X0736928Y0212304D01*
X0736975Y0212338D01*
X0737023Y0212369D01*
X0737074Y0212396D01*
X0737126Y0212420D01*
X0737180Y0212440D01*
X0737235Y0212456D01*
X0737291Y0212469D01*
X0737348Y0212478D01*
X0737406Y0212483D01*
X0737463Y0212484D01*
X0736644Y0208878D02*
X0736778Y0208832D01*
X0736913Y0208789D01*
X0737049Y0208750D01*
X0737186Y0208714D01*
X0737323Y0208682D01*
X0737462Y0208653D01*
X0737601Y0208627D01*
X0737741Y0208606D01*
X0737882Y0208587D01*
X0738022Y0208573D01*
X0738164Y0208562D01*
X0738305Y0208554D01*
X0738447Y0208551D01*
X0738447Y0208550D02*
X0738504Y0208551D01*
X0738562Y0208556D01*
X0738619Y0208565D01*
X0738675Y0208578D01*
X0738730Y0208594D01*
X0738784Y0208614D01*
X0738836Y0208638D01*
X0738887Y0208665D01*
X0738935Y0208696D01*
X0738982Y0208730D01*
X0739026Y0208767D01*
X0739068Y0208807D01*
X0739106Y0208849D01*
X0739142Y0208894D01*
X0739175Y0208942D01*
X0739204Y0208991D01*
X0739230Y0209042D01*
X0739253Y0209095D01*
X0739271Y0209150D01*
X0739286Y0209205D01*
X0739298Y0209262D01*
X0739305Y0209319D01*
X0739309Y0209376D01*
X0739308Y0209434D01*
X0739304Y0209491D01*
X0739296Y0209548D01*
X0739284Y0209604D01*
X0739268Y0209660D01*
X0739249Y0209714D01*
X0739226Y0209766D01*
X0739199Y0209817D01*
X0739169Y0209867D01*
X0739136Y0209914D01*
X0739100Y0209958D01*
X0739061Y0210000D01*
X0739019Y0210040D01*
X0738974Y0210076D01*
X0738927Y0210109D01*
X0738878Y0210139D01*
X0738827Y0210166D01*
X0738775Y0210189D01*
X0738938Y0212155D02*
X0738831Y0212201D01*
X0738722Y0212244D01*
X0738612Y0212284D01*
X0738500Y0212320D01*
X0738388Y0212352D01*
X0738274Y0212381D01*
X0738160Y0212407D01*
X0738045Y0212428D01*
X0737930Y0212447D01*
X0737813Y0212461D01*
X0737697Y0212472D01*
X0737580Y0212479D01*
X0737463Y0212483D01*
X0733768Y0210844D02*
X0729834Y0210844D01*
X0727163Y0212483D02*
X0725852Y0208550D01*
X0724541Y0212483D01*
X0756337Y0211172D02*
X0756337Y0209533D01*
X0756339Y0209471D01*
X0756345Y0209410D01*
X0756354Y0209349D01*
X0756368Y0209289D01*
X0756385Y0209229D01*
X0756406Y0209171D01*
X0756431Y0209114D01*
X0756459Y0209059D01*
X0756490Y0209006D01*
X0756525Y0208955D01*
X0756563Y0208906D01*
X0756603Y0208860D01*
X0756647Y0208816D01*
X0756693Y0208776D01*
X0756742Y0208738D01*
X0756793Y0208703D01*
X0756846Y0208672D01*
X0756901Y0208644D01*
X0756958Y0208619D01*
X0757016Y0208598D01*
X0757076Y0208581D01*
X0757136Y0208567D01*
X0757197Y0208558D01*
X0757258Y0208552D01*
X0757320Y0208550D01*
X0758959Y0208550D01*
X0758959Y0210517D02*
X0756337Y0210517D01*
X0756337Y0211172D02*
X0756339Y0211243D01*
X0756345Y0211314D01*
X0756354Y0211384D01*
X0756368Y0211454D01*
X0756385Y0211523D01*
X0756406Y0211591D01*
X0756430Y0211657D01*
X0756458Y0211722D01*
X0756490Y0211786D01*
X0756525Y0211848D01*
X0756563Y0211908D01*
X0756604Y0211965D01*
X0756649Y0212021D01*
X0756696Y0212074D01*
X0756746Y0212124D01*
X0756799Y0212171D01*
X0756855Y0212216D01*
X0756912Y0212257D01*
X0756972Y0212295D01*
X0757034Y0212330D01*
X0757098Y0212362D01*
X0757163Y0212390D01*
X0757229Y0212414D01*
X0757297Y0212435D01*
X0757366Y0212452D01*
X0757436Y0212466D01*
X0757506Y0212475D01*
X0757577Y0212481D01*
X0757648Y0212483D01*
X0757719Y0212481D01*
X0757790Y0212475D01*
X0757860Y0212466D01*
X0757930Y0212452D01*
X0757999Y0212435D01*
X0758067Y0212414D01*
X0758133Y0212390D01*
X0758198Y0212362D01*
X0758262Y0212330D01*
X0758324Y0212295D01*
X0758384Y0212257D01*
X0758441Y0212216D01*
X0758497Y0212171D01*
X0758550Y0212124D01*
X0758600Y0212074D01*
X0758647Y0212021D01*
X0758692Y0211965D01*
X0758733Y0211908D01*
X0758771Y0211848D01*
X0758806Y0211786D01*
X0758838Y0211722D01*
X0758866Y0211657D01*
X0758890Y0211591D01*
X0758911Y0211523D01*
X0758928Y0211454D01*
X0758942Y0211384D01*
X0758951Y0211314D01*
X0758957Y0211243D01*
X0758959Y0211172D01*
X0758959Y0210517D01*
X0754251Y0120483D02*
X0754251Y0119828D01*
X0754251Y0120483D02*
X0752284Y0120483D01*
X0752284Y0116550D01*
X0749318Y0117861D02*
X0749318Y0119172D01*
X0749316Y0119243D01*
X0749310Y0119314D01*
X0749301Y0119384D01*
X0749287Y0119454D01*
X0749270Y0119523D01*
X0749249Y0119591D01*
X0749225Y0119657D01*
X0749197Y0119722D01*
X0749165Y0119786D01*
X0749130Y0119848D01*
X0749092Y0119908D01*
X0749051Y0119965D01*
X0749006Y0120021D01*
X0748959Y0120074D01*
X0748909Y0120124D01*
X0748856Y0120171D01*
X0748800Y0120216D01*
X0748743Y0120257D01*
X0748683Y0120295D01*
X0748621Y0120330D01*
X0748557Y0120362D01*
X0748492Y0120390D01*
X0748426Y0120414D01*
X0748358Y0120435D01*
X0748289Y0120452D01*
X0748219Y0120466D01*
X0748149Y0120475D01*
X0748078Y0120481D01*
X0748007Y0120483D01*
X0747936Y0120481D01*
X0747865Y0120475D01*
X0747795Y0120466D01*
X0747725Y0120452D01*
X0747656Y0120435D01*
X0747588Y0120414D01*
X0747522Y0120390D01*
X0747457Y0120362D01*
X0747393Y0120330D01*
X0747331Y0120295D01*
X0747271Y0120257D01*
X0747214Y0120216D01*
X0747158Y0120171D01*
X0747105Y0120124D01*
X0747055Y0120074D01*
X0747008Y0120021D01*
X0746963Y0119965D01*
X0746922Y0119908D01*
X0746884Y0119848D01*
X0746849Y0119786D01*
X0746817Y0119722D01*
X0746789Y0119657D01*
X0746765Y0119591D01*
X0746744Y0119523D01*
X0746727Y0119454D01*
X0746713Y0119384D01*
X0746704Y0119314D01*
X0746698Y0119243D01*
X0746696Y0119172D01*
X0746695Y0119172D02*
X0746695Y0117861D01*
X0746696Y0117861D02*
X0746698Y0117790D01*
X0746704Y0117719D01*
X0746713Y0117649D01*
X0746727Y0117579D01*
X0746744Y0117510D01*
X0746765Y0117442D01*
X0746789Y0117376D01*
X0746817Y0117311D01*
X0746849Y0117247D01*
X0746884Y0117185D01*
X0746922Y0117125D01*
X0746963Y0117068D01*
X0747008Y0117012D01*
X0747055Y0116959D01*
X0747105Y0116909D01*
X0747158Y0116862D01*
X0747214Y0116817D01*
X0747271Y0116776D01*
X0747331Y0116738D01*
X0747393Y0116703D01*
X0747457Y0116671D01*
X0747522Y0116643D01*
X0747588Y0116619D01*
X0747656Y0116598D01*
X0747725Y0116581D01*
X0747795Y0116567D01*
X0747865Y0116558D01*
X0747936Y0116552D01*
X0748007Y0116550D01*
X0748078Y0116552D01*
X0748149Y0116558D01*
X0748219Y0116567D01*
X0748289Y0116581D01*
X0748358Y0116598D01*
X0748426Y0116619D01*
X0748492Y0116643D01*
X0748557Y0116671D01*
X0748621Y0116703D01*
X0748683Y0116738D01*
X0748743Y0116776D01*
X0748800Y0116817D01*
X0748856Y0116862D01*
X0748909Y0116909D01*
X0748959Y0116959D01*
X0749006Y0117012D01*
X0749051Y0117068D01*
X0749092Y0117125D01*
X0749130Y0117185D01*
X0749165Y0117247D01*
X0749197Y0117311D01*
X0749225Y0117376D01*
X0749249Y0117442D01*
X0749270Y0117510D01*
X0749287Y0117579D01*
X0749301Y0117649D01*
X0749310Y0117719D01*
X0749316Y0117790D01*
X0749318Y0117861D01*
X0744282Y0116550D02*
X0742971Y0116550D01*
X0742909Y0116552D01*
X0742848Y0116558D01*
X0742787Y0116567D01*
X0742727Y0116581D01*
X0742667Y0116598D01*
X0742609Y0116619D01*
X0742552Y0116644D01*
X0742497Y0116672D01*
X0742444Y0116703D01*
X0742393Y0116738D01*
X0742344Y0116776D01*
X0742298Y0116816D01*
X0742254Y0116860D01*
X0742214Y0116906D01*
X0742176Y0116955D01*
X0742141Y0117006D01*
X0742110Y0117059D01*
X0742082Y0117114D01*
X0742057Y0117171D01*
X0742036Y0117229D01*
X0742019Y0117289D01*
X0742005Y0117349D01*
X0741996Y0117410D01*
X0741990Y0117471D01*
X0741988Y0117533D01*
X0741988Y0119500D01*
X0741990Y0119562D01*
X0741996Y0119623D01*
X0742005Y0119684D01*
X0742019Y0119744D01*
X0742036Y0119804D01*
X0742057Y0119862D01*
X0742082Y0119919D01*
X0742110Y0119974D01*
X0742141Y0120027D01*
X0742176Y0120078D01*
X0742214Y0120127D01*
X0742254Y0120173D01*
X0742298Y0120217D01*
X0742344Y0120257D01*
X0742393Y0120295D01*
X0742444Y0120330D01*
X0742497Y0120361D01*
X0742552Y0120389D01*
X0742609Y0120414D01*
X0742667Y0120435D01*
X0742727Y0120452D01*
X0742787Y0120466D01*
X0742848Y0120475D01*
X0742909Y0120481D01*
X0742971Y0120483D01*
X0744282Y0120483D01*
X0738774Y0118189D02*
X0737136Y0118844D01*
X0737135Y0118845D02*
X0737083Y0118868D01*
X0737032Y0118895D01*
X0736983Y0118925D01*
X0736936Y0118958D01*
X0736891Y0118994D01*
X0736849Y0119034D01*
X0736810Y0119076D01*
X0736774Y0119120D01*
X0736741Y0119167D01*
X0736711Y0119217D01*
X0736684Y0119268D01*
X0736661Y0119320D01*
X0736642Y0119374D01*
X0736626Y0119430D01*
X0736614Y0119486D01*
X0736606Y0119543D01*
X0736602Y0119600D01*
X0736601Y0119658D01*
X0736605Y0119715D01*
X0736612Y0119772D01*
X0736624Y0119829D01*
X0736639Y0119884D01*
X0736657Y0119939D01*
X0736680Y0119992D01*
X0736706Y0120043D01*
X0736735Y0120092D01*
X0736768Y0120140D01*
X0736804Y0120185D01*
X0736842Y0120227D01*
X0736884Y0120267D01*
X0736928Y0120304D01*
X0736975Y0120338D01*
X0737023Y0120369D01*
X0737074Y0120396D01*
X0737126Y0120420D01*
X0737180Y0120440D01*
X0737235Y0120456D01*
X0737291Y0120469D01*
X0737348Y0120478D01*
X0737406Y0120483D01*
X0737463Y0120484D01*
X0736644Y0116878D02*
X0736778Y0116832D01*
X0736913Y0116789D01*
X0737049Y0116750D01*
X0737186Y0116714D01*
X0737323Y0116682D01*
X0737462Y0116653D01*
X0737601Y0116627D01*
X0737741Y0116606D01*
X0737882Y0116587D01*
X0738022Y0116573D01*
X0738164Y0116562D01*
X0738305Y0116554D01*
X0738447Y0116551D01*
X0738447Y0116550D02*
X0738504Y0116551D01*
X0738562Y0116556D01*
X0738619Y0116565D01*
X0738675Y0116578D01*
X0738730Y0116594D01*
X0738784Y0116614D01*
X0738836Y0116638D01*
X0738887Y0116665D01*
X0738935Y0116696D01*
X0738982Y0116730D01*
X0739026Y0116767D01*
X0739068Y0116807D01*
X0739106Y0116849D01*
X0739142Y0116894D01*
X0739175Y0116942D01*
X0739204Y0116991D01*
X0739230Y0117042D01*
X0739253Y0117095D01*
X0739271Y0117150D01*
X0739286Y0117205D01*
X0739298Y0117262D01*
X0739305Y0117319D01*
X0739309Y0117376D01*
X0739308Y0117434D01*
X0739304Y0117491D01*
X0739296Y0117548D01*
X0739284Y0117604D01*
X0739268Y0117660D01*
X0739249Y0117714D01*
X0739226Y0117766D01*
X0739199Y0117817D01*
X0739169Y0117867D01*
X0739136Y0117914D01*
X0739100Y0117958D01*
X0739061Y0118000D01*
X0739019Y0118040D01*
X0738974Y0118076D01*
X0738927Y0118109D01*
X0738878Y0118139D01*
X0738827Y0118166D01*
X0738775Y0118189D01*
X0738938Y0120155D02*
X0738831Y0120201D01*
X0738722Y0120244D01*
X0738612Y0120284D01*
X0738500Y0120320D01*
X0738388Y0120352D01*
X0738274Y0120381D01*
X0738160Y0120407D01*
X0738045Y0120428D01*
X0737930Y0120447D01*
X0737813Y0120461D01*
X0737697Y0120472D01*
X0737580Y0120479D01*
X0737463Y0120483D01*
X0733768Y0118844D02*
X0729834Y0118844D01*
X0727163Y0120483D02*
X0725852Y0116550D01*
X0724541Y0120483D01*
X0756337Y0119172D02*
X0756337Y0117533D01*
X0756339Y0117471D01*
X0756345Y0117410D01*
X0756354Y0117349D01*
X0756368Y0117289D01*
X0756385Y0117229D01*
X0756406Y0117171D01*
X0756431Y0117114D01*
X0756459Y0117059D01*
X0756490Y0117006D01*
X0756525Y0116955D01*
X0756563Y0116906D01*
X0756603Y0116860D01*
X0756647Y0116816D01*
X0756693Y0116776D01*
X0756742Y0116738D01*
X0756793Y0116703D01*
X0756846Y0116672D01*
X0756901Y0116644D01*
X0756958Y0116619D01*
X0757016Y0116598D01*
X0757076Y0116581D01*
X0757136Y0116567D01*
X0757197Y0116558D01*
X0757258Y0116552D01*
X0757320Y0116550D01*
X0758959Y0116550D01*
X0758959Y0118517D02*
X0756337Y0118517D01*
X0756337Y0119172D02*
X0756339Y0119243D01*
X0756345Y0119314D01*
X0756354Y0119384D01*
X0756368Y0119454D01*
X0756385Y0119523D01*
X0756406Y0119591D01*
X0756430Y0119657D01*
X0756458Y0119722D01*
X0756490Y0119786D01*
X0756525Y0119848D01*
X0756563Y0119908D01*
X0756604Y0119965D01*
X0756649Y0120021D01*
X0756696Y0120074D01*
X0756746Y0120124D01*
X0756799Y0120171D01*
X0756855Y0120216D01*
X0756912Y0120257D01*
X0756972Y0120295D01*
X0757034Y0120330D01*
X0757098Y0120362D01*
X0757163Y0120390D01*
X0757229Y0120414D01*
X0757297Y0120435D01*
X0757366Y0120452D01*
X0757436Y0120466D01*
X0757506Y0120475D01*
X0757577Y0120481D01*
X0757648Y0120483D01*
X0757719Y0120481D01*
X0757790Y0120475D01*
X0757860Y0120466D01*
X0757930Y0120452D01*
X0757999Y0120435D01*
X0758067Y0120414D01*
X0758133Y0120390D01*
X0758198Y0120362D01*
X0758262Y0120330D01*
X0758324Y0120295D01*
X0758384Y0120257D01*
X0758441Y0120216D01*
X0758497Y0120171D01*
X0758550Y0120124D01*
X0758600Y0120074D01*
X0758647Y0120021D01*
X0758692Y0119965D01*
X0758733Y0119908D01*
X0758771Y0119848D01*
X0758806Y0119786D01*
X0758838Y0119722D01*
X0758866Y0119657D01*
X0758890Y0119591D01*
X0758911Y0119523D01*
X0758928Y0119454D01*
X0758942Y0119384D01*
X0758951Y0119314D01*
X0758957Y0119243D01*
X0758959Y0119172D01*
X0758959Y0118517D01*
X0738447Y0024551D02*
X0738305Y0024554D01*
X0738164Y0024562D01*
X0738022Y0024573D01*
X0737882Y0024587D01*
X0737741Y0024606D01*
X0737601Y0024627D01*
X0737462Y0024653D01*
X0737323Y0024682D01*
X0737186Y0024714D01*
X0737049Y0024750D01*
X0736913Y0024789D01*
X0736778Y0024832D01*
X0736644Y0024878D01*
X0737463Y0028483D02*
X0737580Y0028479D01*
X0737697Y0028472D01*
X0737813Y0028461D01*
X0737930Y0028447D01*
X0738045Y0028428D01*
X0738160Y0028407D01*
X0738274Y0028381D01*
X0738388Y0028352D01*
X0738500Y0028320D01*
X0738612Y0028284D01*
X0738722Y0028244D01*
X0738831Y0028201D01*
X0738938Y0028155D01*
X0737463Y0028484D02*
X0737406Y0028483D01*
X0737348Y0028478D01*
X0737291Y0028469D01*
X0737235Y0028456D01*
X0737180Y0028440D01*
X0737126Y0028420D01*
X0737074Y0028396D01*
X0737023Y0028369D01*
X0736975Y0028338D01*
X0736928Y0028304D01*
X0736884Y0028267D01*
X0736842Y0028227D01*
X0736804Y0028185D01*
X0736768Y0028140D01*
X0736735Y0028092D01*
X0736706Y0028043D01*
X0736680Y0027992D01*
X0736657Y0027939D01*
X0736639Y0027884D01*
X0736624Y0027829D01*
X0736612Y0027772D01*
X0736605Y0027715D01*
X0736601Y0027658D01*
X0736602Y0027600D01*
X0736606Y0027543D01*
X0736614Y0027486D01*
X0736626Y0027430D01*
X0736642Y0027374D01*
X0736661Y0027320D01*
X0736684Y0027268D01*
X0736711Y0027217D01*
X0736741Y0027167D01*
X0736774Y0027120D01*
X0736810Y0027076D01*
X0736849Y0027034D01*
X0736891Y0026994D01*
X0736936Y0026958D01*
X0736983Y0026925D01*
X0737032Y0026895D01*
X0737083Y0026868D01*
X0737135Y0026845D01*
X0737136Y0026844D02*
X0738774Y0026189D01*
X0738775Y0026189D02*
X0738827Y0026166D01*
X0738878Y0026139D01*
X0738927Y0026109D01*
X0738974Y0026076D01*
X0739019Y0026040D01*
X0739061Y0026000D01*
X0739100Y0025958D01*
X0739136Y0025914D01*
X0739169Y0025867D01*
X0739199Y0025817D01*
X0739226Y0025766D01*
X0739249Y0025714D01*
X0739268Y0025660D01*
X0739284Y0025604D01*
X0739296Y0025548D01*
X0739304Y0025491D01*
X0739308Y0025434D01*
X0739309Y0025376D01*
X0739305Y0025319D01*
X0739298Y0025262D01*
X0739286Y0025205D01*
X0739271Y0025150D01*
X0739253Y0025095D01*
X0739230Y0025042D01*
X0739204Y0024991D01*
X0739175Y0024942D01*
X0739142Y0024894D01*
X0739106Y0024849D01*
X0739068Y0024807D01*
X0739026Y0024767D01*
X0738982Y0024730D01*
X0738935Y0024696D01*
X0738887Y0024665D01*
X0738836Y0024638D01*
X0738784Y0024614D01*
X0738730Y0024594D01*
X0738675Y0024578D01*
X0738619Y0024565D01*
X0738562Y0024556D01*
X0738504Y0024551D01*
X0738447Y0024550D01*
X0741988Y0025533D02*
X0741988Y0027500D01*
X0741990Y0027562D01*
X0741996Y0027623D01*
X0742005Y0027684D01*
X0742019Y0027744D01*
X0742036Y0027804D01*
X0742057Y0027862D01*
X0742082Y0027919D01*
X0742110Y0027974D01*
X0742141Y0028027D01*
X0742176Y0028078D01*
X0742214Y0028127D01*
X0742254Y0028173D01*
X0742298Y0028217D01*
X0742344Y0028257D01*
X0742393Y0028295D01*
X0742444Y0028330D01*
X0742497Y0028361D01*
X0742552Y0028389D01*
X0742609Y0028414D01*
X0742667Y0028435D01*
X0742727Y0028452D01*
X0742787Y0028466D01*
X0742848Y0028475D01*
X0742909Y0028481D01*
X0742971Y0028483D01*
X0744282Y0028483D01*
X0746695Y0027172D02*
X0746695Y0025861D01*
X0746696Y0025861D02*
X0746698Y0025790D01*
X0746704Y0025719D01*
X0746713Y0025649D01*
X0746727Y0025579D01*
X0746744Y0025510D01*
X0746765Y0025442D01*
X0746789Y0025376D01*
X0746817Y0025311D01*
X0746849Y0025247D01*
X0746884Y0025185D01*
X0746922Y0025125D01*
X0746963Y0025068D01*
X0747008Y0025012D01*
X0747055Y0024959D01*
X0747105Y0024909D01*
X0747158Y0024862D01*
X0747214Y0024817D01*
X0747271Y0024776D01*
X0747331Y0024738D01*
X0747393Y0024703D01*
X0747457Y0024671D01*
X0747522Y0024643D01*
X0747588Y0024619D01*
X0747656Y0024598D01*
X0747725Y0024581D01*
X0747795Y0024567D01*
X0747865Y0024558D01*
X0747936Y0024552D01*
X0748007Y0024550D01*
X0748078Y0024552D01*
X0748149Y0024558D01*
X0748219Y0024567D01*
X0748289Y0024581D01*
X0748358Y0024598D01*
X0748426Y0024619D01*
X0748492Y0024643D01*
X0748557Y0024671D01*
X0748621Y0024703D01*
X0748683Y0024738D01*
X0748743Y0024776D01*
X0748800Y0024817D01*
X0748856Y0024862D01*
X0748909Y0024909D01*
X0748959Y0024959D01*
X0749006Y0025012D01*
X0749051Y0025068D01*
X0749092Y0025125D01*
X0749130Y0025185D01*
X0749165Y0025247D01*
X0749197Y0025311D01*
X0749225Y0025376D01*
X0749249Y0025442D01*
X0749270Y0025510D01*
X0749287Y0025579D01*
X0749301Y0025649D01*
X0749310Y0025719D01*
X0749316Y0025790D01*
X0749318Y0025861D01*
X0749318Y0027172D01*
X0749316Y0027243D01*
X0749310Y0027314D01*
X0749301Y0027384D01*
X0749287Y0027454D01*
X0749270Y0027523D01*
X0749249Y0027591D01*
X0749225Y0027657D01*
X0749197Y0027722D01*
X0749165Y0027786D01*
X0749130Y0027848D01*
X0749092Y0027908D01*
X0749051Y0027965D01*
X0749006Y0028021D01*
X0748959Y0028074D01*
X0748909Y0028124D01*
X0748856Y0028171D01*
X0748800Y0028216D01*
X0748743Y0028257D01*
X0748683Y0028295D01*
X0748621Y0028330D01*
X0748557Y0028362D01*
X0748492Y0028390D01*
X0748426Y0028414D01*
X0748358Y0028435D01*
X0748289Y0028452D01*
X0748219Y0028466D01*
X0748149Y0028475D01*
X0748078Y0028481D01*
X0748007Y0028483D01*
X0747936Y0028481D01*
X0747865Y0028475D01*
X0747795Y0028466D01*
X0747725Y0028452D01*
X0747656Y0028435D01*
X0747588Y0028414D01*
X0747522Y0028390D01*
X0747457Y0028362D01*
X0747393Y0028330D01*
X0747331Y0028295D01*
X0747271Y0028257D01*
X0747214Y0028216D01*
X0747158Y0028171D01*
X0747105Y0028124D01*
X0747055Y0028074D01*
X0747008Y0028021D01*
X0746963Y0027965D01*
X0746922Y0027908D01*
X0746884Y0027848D01*
X0746849Y0027786D01*
X0746817Y0027722D01*
X0746789Y0027657D01*
X0746765Y0027591D01*
X0746744Y0027523D01*
X0746727Y0027454D01*
X0746713Y0027384D01*
X0746704Y0027314D01*
X0746698Y0027243D01*
X0746696Y0027172D01*
X0744282Y0024550D02*
X0742971Y0024550D01*
X0742909Y0024552D01*
X0742848Y0024558D01*
X0742787Y0024567D01*
X0742727Y0024581D01*
X0742667Y0024598D01*
X0742609Y0024619D01*
X0742552Y0024644D01*
X0742497Y0024672D01*
X0742444Y0024703D01*
X0742393Y0024738D01*
X0742344Y0024776D01*
X0742298Y0024816D01*
X0742254Y0024860D01*
X0742214Y0024906D01*
X0742176Y0024955D01*
X0742141Y0025006D01*
X0742110Y0025059D01*
X0742082Y0025114D01*
X0742057Y0025171D01*
X0742036Y0025229D01*
X0742019Y0025289D01*
X0742005Y0025349D01*
X0741996Y0025410D01*
X0741990Y0025471D01*
X0741988Y0025533D01*
X0733768Y0026844D02*
X0729834Y0026844D01*
X0727163Y0028483D02*
X0725852Y0024550D01*
X0724541Y0028483D01*
X0752284Y0028483D02*
X0752284Y0024550D01*
X0754251Y0027828D02*
X0754251Y0028483D01*
X0752284Y0028483D01*
X0756337Y0027172D02*
X0756337Y0025533D01*
X0756339Y0025471D01*
X0756345Y0025410D01*
X0756354Y0025349D01*
X0756368Y0025289D01*
X0756385Y0025229D01*
X0756406Y0025171D01*
X0756431Y0025114D01*
X0756459Y0025059D01*
X0756490Y0025006D01*
X0756525Y0024955D01*
X0756563Y0024906D01*
X0756603Y0024860D01*
X0756647Y0024816D01*
X0756693Y0024776D01*
X0756742Y0024738D01*
X0756793Y0024703D01*
X0756846Y0024672D01*
X0756901Y0024644D01*
X0756958Y0024619D01*
X0757016Y0024598D01*
X0757076Y0024581D01*
X0757136Y0024567D01*
X0757197Y0024558D01*
X0757258Y0024552D01*
X0757320Y0024550D01*
X0758959Y0024550D01*
X0758959Y0026517D02*
X0756337Y0026517D01*
X0756337Y0027172D02*
X0756339Y0027243D01*
X0756345Y0027314D01*
X0756354Y0027384D01*
X0756368Y0027454D01*
X0756385Y0027523D01*
X0756406Y0027591D01*
X0756430Y0027657D01*
X0756458Y0027722D01*
X0756490Y0027786D01*
X0756525Y0027848D01*
X0756563Y0027908D01*
X0756604Y0027965D01*
X0756649Y0028021D01*
X0756696Y0028074D01*
X0756746Y0028124D01*
X0756799Y0028171D01*
X0756855Y0028216D01*
X0756912Y0028257D01*
X0756972Y0028295D01*
X0757034Y0028330D01*
X0757098Y0028362D01*
X0757163Y0028390D01*
X0757229Y0028414D01*
X0757297Y0028435D01*
X0757366Y0028452D01*
X0757436Y0028466D01*
X0757506Y0028475D01*
X0757577Y0028481D01*
X0757648Y0028483D01*
X0757719Y0028481D01*
X0757790Y0028475D01*
X0757860Y0028466D01*
X0757930Y0028452D01*
X0757999Y0028435D01*
X0758067Y0028414D01*
X0758133Y0028390D01*
X0758198Y0028362D01*
X0758262Y0028330D01*
X0758324Y0028295D01*
X0758384Y0028257D01*
X0758441Y0028216D01*
X0758497Y0028171D01*
X0758550Y0028124D01*
X0758600Y0028074D01*
X0758647Y0028021D01*
X0758692Y0027965D01*
X0758733Y0027908D01*
X0758771Y0027848D01*
X0758806Y0027786D01*
X0758838Y0027722D01*
X0758866Y0027657D01*
X0758890Y0027591D01*
X0758911Y0027523D01*
X0758928Y0027454D01*
X0758942Y0027384D01*
X0758951Y0027314D01*
X0758957Y0027243D01*
X0758959Y0027172D01*
X0758959Y0026517D01*
D12*
X0477844Y0081254D02*
X0476270Y0081254D01*
X0476270Y0081253D02*
X0476203Y0081249D01*
X0476136Y0081249D01*
X0476068Y0081253D01*
X0476002Y0081261D01*
X0475935Y0081272D01*
X0475870Y0081288D01*
X0475805Y0081307D01*
X0475742Y0081329D01*
X0475680Y0081355D01*
X0475619Y0081385D01*
X0475561Y0081418D01*
X0475504Y0081454D01*
X0475450Y0081494D01*
X0475397Y0081536D01*
X0475348Y0081582D01*
X0475301Y0081630D01*
X0475257Y0081681D01*
X0475215Y0081734D01*
X0475177Y0081789D01*
X0475143Y0081847D01*
X0475111Y0081906D01*
X0475083Y0081968D01*
X0475058Y0082030D01*
X0475037Y0082094D01*
X0475020Y0082159D01*
X0475007Y0082225D01*
X0474997Y0082292D01*
X0474991Y0082359D01*
X0474989Y0082426D01*
X0474991Y0082493D01*
X0474990Y0082493D02*
X0474993Y0082566D01*
X0475000Y0082638D01*
X0475011Y0082709D01*
X0475025Y0082780D01*
X0475043Y0082850D01*
X0475066Y0082919D01*
X0475091Y0082987D01*
X0475121Y0083053D01*
X0475154Y0083117D01*
X0475190Y0083180D01*
X0475230Y0083240D01*
X0475273Y0083299D01*
X0475319Y0083354D01*
X0475368Y0083408D01*
X0475419Y0083458D01*
X0475474Y0083506D01*
X0475531Y0083551D01*
X0475590Y0083592D01*
X0475651Y0083630D01*
X0475715Y0083665D01*
X0475780Y0083697D01*
X0475847Y0083724D01*
X0475915Y0083749D01*
X0475984Y0083769D01*
X0476055Y0083786D01*
X0476126Y0083799D01*
X0476198Y0083808D01*
X0476270Y0083813D01*
X0477844Y0083813D01*
X0477914Y0083812D01*
X0477983Y0083807D01*
X0478052Y0083799D01*
X0478121Y0083787D01*
X0478188Y0083771D01*
X0478255Y0083751D01*
X0478321Y0083727D01*
X0478385Y0083700D01*
X0478447Y0083670D01*
X0478508Y0083636D01*
X0478567Y0083599D01*
X0478624Y0083558D01*
X0478678Y0083515D01*
X0478730Y0083468D01*
X0478779Y0083419D01*
X0478826Y0083367D01*
X0478869Y0083313D01*
X0478910Y0083256D01*
X0478947Y0083197D01*
X0478981Y0083136D01*
X0479011Y0083074D01*
X0479038Y0083010D01*
X0479062Y0082944D01*
X0479082Y0082877D01*
X0479098Y0082810D01*
X0479110Y0082741D01*
X0479118Y0082672D01*
X0479123Y0082603D01*
X0479124Y0082533D01*
X0479122Y0082464D01*
X0479116Y0082395D01*
X0479107Y0082326D01*
X0479094Y0082258D01*
X0479077Y0082191D01*
X0479057Y0082124D01*
X0479033Y0082059D01*
X0479006Y0081996D01*
X0478975Y0081933D01*
X0478941Y0081873D01*
X0478903Y0081815D01*
X0478863Y0081758D01*
X0478820Y0081704D01*
X0478773Y0081653D01*
X0478724Y0081604D01*
X0478673Y0081557D01*
X0478619Y0081514D01*
X0478562Y0081474D01*
X0478504Y0081436D01*
X0478444Y0081402D01*
X0478381Y0081371D01*
X0478318Y0081344D01*
X0478253Y0081320D01*
X0478186Y0081300D01*
X0478119Y0081283D01*
X0478051Y0081270D01*
X0477982Y0081261D01*
X0477913Y0081255D01*
X0477844Y0081253D01*
X0466309Y0079974D02*
X0463947Y0079974D01*
X0463876Y0079984D01*
X0463807Y0079998D01*
X0463738Y0080016D01*
X0463670Y0080037D01*
X0463603Y0080062D01*
X0463538Y0080091D01*
X0463474Y0080123D01*
X0463413Y0080158D01*
X0463353Y0080196D01*
X0463295Y0080238D01*
X0463240Y0080283D01*
X0463186Y0080330D01*
X0463136Y0080380D01*
X0463088Y0080433D01*
X0463043Y0080488D01*
X0463002Y0080546D01*
X0462963Y0080605D01*
X0462927Y0080667D01*
X0462895Y0080730D01*
X0462866Y0080796D01*
X0462841Y0080862D01*
X0462819Y0080930D01*
X0462801Y0080999D01*
X0462786Y0081068D01*
X0462776Y0081138D01*
X0462769Y0081209D01*
X0462765Y0081280D01*
X0462766Y0081351D01*
X0462766Y0081352D02*
X0462765Y0081423D01*
X0462769Y0081494D01*
X0462776Y0081565D01*
X0462786Y0081635D01*
X0462801Y0081704D01*
X0462819Y0081773D01*
X0462841Y0081841D01*
X0462866Y0081907D01*
X0462895Y0081973D01*
X0462927Y0082036D01*
X0462963Y0082098D01*
X0463002Y0082157D01*
X0463043Y0082215D01*
X0463088Y0082270D01*
X0463136Y0082323D01*
X0463186Y0082373D01*
X0463240Y0082420D01*
X0463295Y0082465D01*
X0463353Y0082507D01*
X0463413Y0082545D01*
X0463474Y0082580D01*
X0463538Y0082612D01*
X0463603Y0082641D01*
X0463670Y0082666D01*
X0463738Y0082687D01*
X0463807Y0082705D01*
X0463876Y0082719D01*
X0463947Y0082729D01*
X0463947Y0082730D02*
X0466309Y0082730D01*
X0466309Y0082729D02*
X0466380Y0082719D01*
X0466449Y0082705D01*
X0466518Y0082687D01*
X0466586Y0082666D01*
X0466653Y0082641D01*
X0466718Y0082612D01*
X0466782Y0082580D01*
X0466843Y0082545D01*
X0466903Y0082507D01*
X0466961Y0082465D01*
X0467016Y0082420D01*
X0467070Y0082373D01*
X0467120Y0082323D01*
X0467168Y0082270D01*
X0467213Y0082215D01*
X0467254Y0082157D01*
X0467293Y0082098D01*
X0467329Y0082036D01*
X0467361Y0081973D01*
X0467390Y0081907D01*
X0467415Y0081841D01*
X0467437Y0081773D01*
X0467455Y0081704D01*
X0467470Y0081635D01*
X0467480Y0081565D01*
X0467487Y0081494D01*
X0467491Y0081423D01*
X0467490Y0081352D01*
X0467490Y0081351D02*
X0467491Y0081280D01*
X0467487Y0081209D01*
X0467480Y0081138D01*
X0467470Y0081068D01*
X0467455Y0080999D01*
X0467437Y0080930D01*
X0467415Y0080862D01*
X0467390Y0080796D01*
X0467361Y0080730D01*
X0467329Y0080667D01*
X0467293Y0080605D01*
X0467254Y0080546D01*
X0467213Y0080488D01*
X0467168Y0080433D01*
X0467120Y0080380D01*
X0467070Y0080330D01*
X0467016Y0080283D01*
X0466961Y0080238D01*
X0466903Y0080196D01*
X0466843Y0080158D01*
X0466782Y0080123D01*
X0466718Y0080091D01*
X0466653Y0080062D01*
X0466586Y0080037D01*
X0466518Y0080016D01*
X0466449Y0079998D01*
X0466380Y0079984D01*
X0466309Y0079974D01*
X0466309Y0101470D02*
X0463947Y0101470D01*
X0463947Y0101471D02*
X0463876Y0101481D01*
X0463807Y0101495D01*
X0463738Y0101513D01*
X0463670Y0101534D01*
X0463603Y0101559D01*
X0463538Y0101588D01*
X0463474Y0101620D01*
X0463413Y0101655D01*
X0463353Y0101693D01*
X0463295Y0101735D01*
X0463240Y0101780D01*
X0463186Y0101827D01*
X0463136Y0101877D01*
X0463088Y0101930D01*
X0463043Y0101985D01*
X0463002Y0102043D01*
X0462963Y0102102D01*
X0462927Y0102164D01*
X0462895Y0102227D01*
X0462866Y0102293D01*
X0462841Y0102359D01*
X0462819Y0102427D01*
X0462801Y0102496D01*
X0462786Y0102565D01*
X0462776Y0102635D01*
X0462769Y0102706D01*
X0462765Y0102777D01*
X0462766Y0102848D01*
X0462766Y0102849D02*
X0462765Y0102920D01*
X0462769Y0102991D01*
X0462776Y0103062D01*
X0462786Y0103132D01*
X0462801Y0103201D01*
X0462819Y0103270D01*
X0462841Y0103338D01*
X0462866Y0103404D01*
X0462895Y0103470D01*
X0462927Y0103533D01*
X0462963Y0103595D01*
X0463002Y0103654D01*
X0463043Y0103712D01*
X0463088Y0103767D01*
X0463136Y0103820D01*
X0463186Y0103870D01*
X0463240Y0103917D01*
X0463295Y0103962D01*
X0463353Y0104004D01*
X0463413Y0104042D01*
X0463474Y0104077D01*
X0463538Y0104109D01*
X0463603Y0104138D01*
X0463670Y0104163D01*
X0463738Y0104184D01*
X0463807Y0104202D01*
X0463876Y0104216D01*
X0463947Y0104226D01*
X0466309Y0104226D01*
X0466380Y0104216D01*
X0466449Y0104202D01*
X0466518Y0104184D01*
X0466586Y0104163D01*
X0466653Y0104138D01*
X0466718Y0104109D01*
X0466782Y0104077D01*
X0466843Y0104042D01*
X0466903Y0104004D01*
X0466961Y0103962D01*
X0467016Y0103917D01*
X0467070Y0103870D01*
X0467120Y0103820D01*
X0467168Y0103767D01*
X0467213Y0103712D01*
X0467254Y0103654D01*
X0467293Y0103595D01*
X0467329Y0103533D01*
X0467361Y0103470D01*
X0467390Y0103404D01*
X0467415Y0103338D01*
X0467437Y0103270D01*
X0467455Y0103201D01*
X0467470Y0103132D01*
X0467480Y0103062D01*
X0467487Y0102991D01*
X0467491Y0102920D01*
X0467490Y0102849D01*
X0467490Y0102848D02*
X0467491Y0102777D01*
X0467487Y0102706D01*
X0467480Y0102635D01*
X0467470Y0102565D01*
X0467455Y0102496D01*
X0467437Y0102427D01*
X0467415Y0102359D01*
X0467390Y0102293D01*
X0467361Y0102227D01*
X0467329Y0102164D01*
X0467293Y0102102D01*
X0467254Y0102043D01*
X0467213Y0101985D01*
X0467168Y0101930D01*
X0467120Y0101877D01*
X0467070Y0101827D01*
X0467016Y0101780D01*
X0466961Y0101735D01*
X0466903Y0101693D01*
X0466843Y0101655D01*
X0466782Y0101620D01*
X0466718Y0101588D01*
X0466653Y0101559D01*
X0466586Y0101534D01*
X0466518Y0101513D01*
X0466449Y0101495D01*
X0466380Y0101481D01*
X0466309Y0101471D01*
X0474991Y0101627D02*
X0474989Y0101560D01*
X0474991Y0101493D01*
X0474997Y0101426D01*
X0475007Y0101359D01*
X0475020Y0101293D01*
X0475037Y0101228D01*
X0475058Y0101164D01*
X0475083Y0101102D01*
X0475111Y0101040D01*
X0475143Y0100981D01*
X0475177Y0100923D01*
X0475215Y0100868D01*
X0475257Y0100815D01*
X0475301Y0100764D01*
X0475348Y0100716D01*
X0475397Y0100670D01*
X0475450Y0100628D01*
X0475504Y0100588D01*
X0475561Y0100552D01*
X0475619Y0100519D01*
X0475680Y0100489D01*
X0475742Y0100463D01*
X0475805Y0100441D01*
X0475870Y0100422D01*
X0475935Y0100406D01*
X0476002Y0100395D01*
X0476068Y0100387D01*
X0476136Y0100383D01*
X0476203Y0100383D01*
X0476270Y0100387D01*
X0477844Y0100387D01*
X0477913Y0100389D01*
X0477982Y0100395D01*
X0478051Y0100404D01*
X0478119Y0100417D01*
X0478186Y0100434D01*
X0478253Y0100454D01*
X0478318Y0100478D01*
X0478381Y0100505D01*
X0478444Y0100536D01*
X0478504Y0100570D01*
X0478562Y0100608D01*
X0478619Y0100648D01*
X0478673Y0100691D01*
X0478724Y0100738D01*
X0478773Y0100787D01*
X0478820Y0100838D01*
X0478863Y0100892D01*
X0478903Y0100949D01*
X0478941Y0101007D01*
X0478975Y0101067D01*
X0479006Y0101130D01*
X0479033Y0101193D01*
X0479057Y0101258D01*
X0479077Y0101325D01*
X0479094Y0101392D01*
X0479107Y0101460D01*
X0479116Y0101529D01*
X0479122Y0101598D01*
X0479124Y0101667D01*
X0479123Y0101737D01*
X0479118Y0101806D01*
X0479110Y0101875D01*
X0479098Y0101944D01*
X0479082Y0102011D01*
X0479062Y0102078D01*
X0479038Y0102144D01*
X0479011Y0102208D01*
X0478981Y0102270D01*
X0478947Y0102331D01*
X0478910Y0102390D01*
X0478869Y0102447D01*
X0478826Y0102501D01*
X0478779Y0102553D01*
X0478730Y0102602D01*
X0478678Y0102649D01*
X0478624Y0102692D01*
X0478567Y0102733D01*
X0478508Y0102770D01*
X0478447Y0102804D01*
X0478385Y0102834D01*
X0478321Y0102861D01*
X0478255Y0102885D01*
X0478188Y0102905D01*
X0478121Y0102921D01*
X0478052Y0102933D01*
X0477983Y0102941D01*
X0477914Y0102946D01*
X0477844Y0102947D01*
X0477844Y0102946D02*
X0476270Y0102946D01*
X0476270Y0102947D02*
X0476198Y0102942D01*
X0476126Y0102933D01*
X0476055Y0102920D01*
X0475984Y0102903D01*
X0475915Y0102883D01*
X0475847Y0102858D01*
X0475780Y0102831D01*
X0475715Y0102799D01*
X0475651Y0102764D01*
X0475590Y0102726D01*
X0475531Y0102685D01*
X0475474Y0102640D01*
X0475419Y0102592D01*
X0475368Y0102542D01*
X0475319Y0102488D01*
X0475273Y0102433D01*
X0475230Y0102374D01*
X0475190Y0102314D01*
X0475154Y0102251D01*
X0475121Y0102187D01*
X0475091Y0102121D01*
X0475066Y0102053D01*
X0475043Y0101984D01*
X0475025Y0101914D01*
X0475011Y0101843D01*
X0475000Y0101772D01*
X0474993Y0101700D01*
X0474990Y0101627D01*
X0466309Y0171974D02*
X0463947Y0171974D01*
X0463876Y0171984D01*
X0463807Y0171998D01*
X0463738Y0172016D01*
X0463670Y0172037D01*
X0463603Y0172062D01*
X0463538Y0172091D01*
X0463474Y0172123D01*
X0463413Y0172158D01*
X0463353Y0172196D01*
X0463295Y0172238D01*
X0463240Y0172283D01*
X0463186Y0172330D01*
X0463136Y0172380D01*
X0463088Y0172433D01*
X0463043Y0172488D01*
X0463002Y0172546D01*
X0462963Y0172605D01*
X0462927Y0172667D01*
X0462895Y0172730D01*
X0462866Y0172796D01*
X0462841Y0172862D01*
X0462819Y0172930D01*
X0462801Y0172999D01*
X0462786Y0173068D01*
X0462776Y0173138D01*
X0462769Y0173209D01*
X0462765Y0173280D01*
X0462766Y0173351D01*
X0462766Y0173352D02*
X0462765Y0173423D01*
X0462769Y0173494D01*
X0462776Y0173565D01*
X0462786Y0173635D01*
X0462801Y0173704D01*
X0462819Y0173773D01*
X0462841Y0173841D01*
X0462866Y0173907D01*
X0462895Y0173973D01*
X0462927Y0174036D01*
X0462963Y0174098D01*
X0463002Y0174157D01*
X0463043Y0174215D01*
X0463088Y0174270D01*
X0463136Y0174323D01*
X0463186Y0174373D01*
X0463240Y0174420D01*
X0463295Y0174465D01*
X0463353Y0174507D01*
X0463413Y0174545D01*
X0463474Y0174580D01*
X0463538Y0174612D01*
X0463603Y0174641D01*
X0463670Y0174666D01*
X0463738Y0174687D01*
X0463807Y0174705D01*
X0463876Y0174719D01*
X0463947Y0174729D01*
X0463947Y0174730D02*
X0466309Y0174730D01*
X0466309Y0174729D02*
X0466380Y0174719D01*
X0466449Y0174705D01*
X0466518Y0174687D01*
X0466586Y0174666D01*
X0466653Y0174641D01*
X0466718Y0174612D01*
X0466782Y0174580D01*
X0466843Y0174545D01*
X0466903Y0174507D01*
X0466961Y0174465D01*
X0467016Y0174420D01*
X0467070Y0174373D01*
X0467120Y0174323D01*
X0467168Y0174270D01*
X0467213Y0174215D01*
X0467254Y0174157D01*
X0467293Y0174098D01*
X0467329Y0174036D01*
X0467361Y0173973D01*
X0467390Y0173907D01*
X0467415Y0173841D01*
X0467437Y0173773D01*
X0467455Y0173704D01*
X0467470Y0173635D01*
X0467480Y0173565D01*
X0467487Y0173494D01*
X0467491Y0173423D01*
X0467490Y0173352D01*
X0467490Y0173351D02*
X0467491Y0173280D01*
X0467487Y0173209D01*
X0467480Y0173138D01*
X0467470Y0173068D01*
X0467455Y0172999D01*
X0467437Y0172930D01*
X0467415Y0172862D01*
X0467390Y0172796D01*
X0467361Y0172730D01*
X0467329Y0172667D01*
X0467293Y0172605D01*
X0467254Y0172546D01*
X0467213Y0172488D01*
X0467168Y0172433D01*
X0467120Y0172380D01*
X0467070Y0172330D01*
X0467016Y0172283D01*
X0466961Y0172238D01*
X0466903Y0172196D01*
X0466843Y0172158D01*
X0466782Y0172123D01*
X0466718Y0172091D01*
X0466653Y0172062D01*
X0466586Y0172037D01*
X0466518Y0172016D01*
X0466449Y0171998D01*
X0466380Y0171984D01*
X0466309Y0171974D01*
X0476270Y0173254D02*
X0477844Y0173254D01*
X0477844Y0173253D02*
X0477913Y0173255D01*
X0477982Y0173261D01*
X0478051Y0173270D01*
X0478119Y0173283D01*
X0478186Y0173300D01*
X0478253Y0173320D01*
X0478318Y0173344D01*
X0478381Y0173371D01*
X0478444Y0173402D01*
X0478504Y0173436D01*
X0478562Y0173474D01*
X0478619Y0173514D01*
X0478673Y0173557D01*
X0478724Y0173604D01*
X0478773Y0173653D01*
X0478820Y0173704D01*
X0478863Y0173758D01*
X0478903Y0173815D01*
X0478941Y0173873D01*
X0478975Y0173933D01*
X0479006Y0173996D01*
X0479033Y0174059D01*
X0479057Y0174124D01*
X0479077Y0174191D01*
X0479094Y0174258D01*
X0479107Y0174326D01*
X0479116Y0174395D01*
X0479122Y0174464D01*
X0479124Y0174533D01*
X0479123Y0174603D01*
X0479118Y0174672D01*
X0479110Y0174741D01*
X0479098Y0174810D01*
X0479082Y0174877D01*
X0479062Y0174944D01*
X0479038Y0175010D01*
X0479011Y0175074D01*
X0478981Y0175136D01*
X0478947Y0175197D01*
X0478910Y0175256D01*
X0478869Y0175313D01*
X0478826Y0175367D01*
X0478779Y0175419D01*
X0478730Y0175468D01*
X0478678Y0175515D01*
X0478624Y0175558D01*
X0478567Y0175599D01*
X0478508Y0175636D01*
X0478447Y0175670D01*
X0478385Y0175700D01*
X0478321Y0175727D01*
X0478255Y0175751D01*
X0478188Y0175771D01*
X0478121Y0175787D01*
X0478052Y0175799D01*
X0477983Y0175807D01*
X0477914Y0175812D01*
X0477844Y0175813D01*
X0476270Y0175813D01*
X0476198Y0175808D01*
X0476126Y0175799D01*
X0476055Y0175786D01*
X0475984Y0175769D01*
X0475915Y0175749D01*
X0475847Y0175724D01*
X0475780Y0175697D01*
X0475715Y0175665D01*
X0475651Y0175630D01*
X0475590Y0175592D01*
X0475531Y0175551D01*
X0475474Y0175506D01*
X0475419Y0175458D01*
X0475368Y0175408D01*
X0475319Y0175354D01*
X0475273Y0175299D01*
X0475230Y0175240D01*
X0475190Y0175180D01*
X0475154Y0175117D01*
X0475121Y0175053D01*
X0475091Y0174987D01*
X0475066Y0174919D01*
X0475043Y0174850D01*
X0475025Y0174780D01*
X0475011Y0174709D01*
X0475000Y0174638D01*
X0474993Y0174566D01*
X0474990Y0174493D01*
X0474991Y0174493D02*
X0474989Y0174426D01*
X0474991Y0174359D01*
X0474997Y0174292D01*
X0475007Y0174225D01*
X0475020Y0174159D01*
X0475037Y0174094D01*
X0475058Y0174030D01*
X0475083Y0173968D01*
X0475111Y0173906D01*
X0475143Y0173847D01*
X0475177Y0173789D01*
X0475215Y0173734D01*
X0475257Y0173681D01*
X0475301Y0173630D01*
X0475348Y0173582D01*
X0475397Y0173536D01*
X0475450Y0173494D01*
X0475504Y0173454D01*
X0475561Y0173418D01*
X0475619Y0173385D01*
X0475680Y0173355D01*
X0475742Y0173329D01*
X0475805Y0173307D01*
X0475870Y0173288D01*
X0475935Y0173272D01*
X0476002Y0173261D01*
X0476068Y0173253D01*
X0476136Y0173249D01*
X0476203Y0173249D01*
X0476270Y0173253D01*
X0476270Y0192387D02*
X0477844Y0192387D01*
X0477913Y0192389D01*
X0477982Y0192395D01*
X0478051Y0192404D01*
X0478119Y0192417D01*
X0478186Y0192434D01*
X0478253Y0192454D01*
X0478318Y0192478D01*
X0478381Y0192505D01*
X0478444Y0192536D01*
X0478504Y0192570D01*
X0478562Y0192608D01*
X0478619Y0192648D01*
X0478673Y0192691D01*
X0478724Y0192738D01*
X0478773Y0192787D01*
X0478820Y0192838D01*
X0478863Y0192892D01*
X0478903Y0192949D01*
X0478941Y0193007D01*
X0478975Y0193067D01*
X0479006Y0193130D01*
X0479033Y0193193D01*
X0479057Y0193258D01*
X0479077Y0193325D01*
X0479094Y0193392D01*
X0479107Y0193460D01*
X0479116Y0193529D01*
X0479122Y0193598D01*
X0479124Y0193667D01*
X0479123Y0193737D01*
X0479118Y0193806D01*
X0479110Y0193875D01*
X0479098Y0193944D01*
X0479082Y0194011D01*
X0479062Y0194078D01*
X0479038Y0194144D01*
X0479011Y0194208D01*
X0478981Y0194270D01*
X0478947Y0194331D01*
X0478910Y0194390D01*
X0478869Y0194447D01*
X0478826Y0194501D01*
X0478779Y0194553D01*
X0478730Y0194602D01*
X0478678Y0194649D01*
X0478624Y0194692D01*
X0478567Y0194733D01*
X0478508Y0194770D01*
X0478447Y0194804D01*
X0478385Y0194834D01*
X0478321Y0194861D01*
X0478255Y0194885D01*
X0478188Y0194905D01*
X0478121Y0194921D01*
X0478052Y0194933D01*
X0477983Y0194941D01*
X0477914Y0194946D01*
X0477844Y0194947D01*
X0477844Y0194946D02*
X0476270Y0194946D01*
X0476270Y0194947D02*
X0476198Y0194942D01*
X0476126Y0194933D01*
X0476055Y0194920D01*
X0475984Y0194903D01*
X0475915Y0194883D01*
X0475847Y0194858D01*
X0475780Y0194831D01*
X0475715Y0194799D01*
X0475651Y0194764D01*
X0475590Y0194726D01*
X0475531Y0194685D01*
X0475474Y0194640D01*
X0475419Y0194592D01*
X0475368Y0194542D01*
X0475319Y0194488D01*
X0475273Y0194433D01*
X0475230Y0194374D01*
X0475190Y0194314D01*
X0475154Y0194251D01*
X0475121Y0194187D01*
X0475091Y0194121D01*
X0475066Y0194053D01*
X0475043Y0193984D01*
X0475025Y0193914D01*
X0475011Y0193843D01*
X0475000Y0193772D01*
X0474993Y0193700D01*
X0474990Y0193627D01*
X0474991Y0193627D02*
X0474989Y0193560D01*
X0474991Y0193493D01*
X0474997Y0193426D01*
X0475007Y0193359D01*
X0475020Y0193293D01*
X0475037Y0193228D01*
X0475058Y0193164D01*
X0475083Y0193102D01*
X0475111Y0193040D01*
X0475143Y0192981D01*
X0475177Y0192923D01*
X0475215Y0192868D01*
X0475257Y0192815D01*
X0475301Y0192764D01*
X0475348Y0192716D01*
X0475397Y0192670D01*
X0475450Y0192628D01*
X0475504Y0192588D01*
X0475561Y0192552D01*
X0475619Y0192519D01*
X0475680Y0192489D01*
X0475742Y0192463D01*
X0475805Y0192441D01*
X0475870Y0192422D01*
X0475935Y0192406D01*
X0476002Y0192395D01*
X0476068Y0192387D01*
X0476136Y0192383D01*
X0476203Y0192383D01*
X0476270Y0192387D01*
X0466309Y0193470D02*
X0463947Y0193470D01*
X0463947Y0193471D02*
X0463876Y0193481D01*
X0463807Y0193495D01*
X0463738Y0193513D01*
X0463670Y0193534D01*
X0463603Y0193559D01*
X0463538Y0193588D01*
X0463474Y0193620D01*
X0463413Y0193655D01*
X0463353Y0193693D01*
X0463295Y0193735D01*
X0463240Y0193780D01*
X0463186Y0193827D01*
X0463136Y0193877D01*
X0463088Y0193930D01*
X0463043Y0193985D01*
X0463002Y0194043D01*
X0462963Y0194102D01*
X0462927Y0194164D01*
X0462895Y0194227D01*
X0462866Y0194293D01*
X0462841Y0194359D01*
X0462819Y0194427D01*
X0462801Y0194496D01*
X0462786Y0194565D01*
X0462776Y0194635D01*
X0462769Y0194706D01*
X0462765Y0194777D01*
X0462766Y0194848D01*
X0462766Y0194849D02*
X0462765Y0194920D01*
X0462769Y0194991D01*
X0462776Y0195062D01*
X0462786Y0195132D01*
X0462801Y0195201D01*
X0462819Y0195270D01*
X0462841Y0195338D01*
X0462866Y0195404D01*
X0462895Y0195470D01*
X0462927Y0195533D01*
X0462963Y0195595D01*
X0463002Y0195654D01*
X0463043Y0195712D01*
X0463088Y0195767D01*
X0463136Y0195820D01*
X0463186Y0195870D01*
X0463240Y0195917D01*
X0463295Y0195962D01*
X0463353Y0196004D01*
X0463413Y0196042D01*
X0463474Y0196077D01*
X0463538Y0196109D01*
X0463603Y0196138D01*
X0463670Y0196163D01*
X0463738Y0196184D01*
X0463807Y0196202D01*
X0463876Y0196216D01*
X0463947Y0196226D01*
X0466309Y0196226D01*
X0466380Y0196216D01*
X0466449Y0196202D01*
X0466518Y0196184D01*
X0466586Y0196163D01*
X0466653Y0196138D01*
X0466718Y0196109D01*
X0466782Y0196077D01*
X0466843Y0196042D01*
X0466903Y0196004D01*
X0466961Y0195962D01*
X0467016Y0195917D01*
X0467070Y0195870D01*
X0467120Y0195820D01*
X0467168Y0195767D01*
X0467213Y0195712D01*
X0467254Y0195654D01*
X0467293Y0195595D01*
X0467329Y0195533D01*
X0467361Y0195470D01*
X0467390Y0195404D01*
X0467415Y0195338D01*
X0467437Y0195270D01*
X0467455Y0195201D01*
X0467470Y0195132D01*
X0467480Y0195062D01*
X0467487Y0194991D01*
X0467491Y0194920D01*
X0467490Y0194849D01*
X0467490Y0194848D02*
X0467491Y0194777D01*
X0467487Y0194706D01*
X0467480Y0194635D01*
X0467470Y0194565D01*
X0467455Y0194496D01*
X0467437Y0194427D01*
X0467415Y0194359D01*
X0467390Y0194293D01*
X0467361Y0194227D01*
X0467329Y0194164D01*
X0467293Y0194102D01*
X0467254Y0194043D01*
X0467213Y0193985D01*
X0467168Y0193930D01*
X0467120Y0193877D01*
X0467070Y0193827D01*
X0467016Y0193780D01*
X0466961Y0193735D01*
X0466903Y0193693D01*
X0466843Y0193655D01*
X0466782Y0193620D01*
X0466718Y0193588D01*
X0466653Y0193559D01*
X0466586Y0193534D01*
X0466518Y0193513D01*
X0466449Y0193495D01*
X0466380Y0193481D01*
X0466309Y0193471D01*
X0466309Y0263974D02*
X0463947Y0263974D01*
X0463876Y0263984D01*
X0463807Y0263998D01*
X0463738Y0264016D01*
X0463670Y0264037D01*
X0463603Y0264062D01*
X0463538Y0264091D01*
X0463474Y0264123D01*
X0463413Y0264158D01*
X0463353Y0264196D01*
X0463295Y0264238D01*
X0463240Y0264283D01*
X0463186Y0264330D01*
X0463136Y0264380D01*
X0463088Y0264433D01*
X0463043Y0264488D01*
X0463002Y0264546D01*
X0462963Y0264605D01*
X0462927Y0264667D01*
X0462895Y0264730D01*
X0462866Y0264796D01*
X0462841Y0264862D01*
X0462819Y0264930D01*
X0462801Y0264999D01*
X0462786Y0265068D01*
X0462776Y0265138D01*
X0462769Y0265209D01*
X0462765Y0265280D01*
X0462766Y0265351D01*
X0462766Y0265352D02*
X0462765Y0265423D01*
X0462769Y0265494D01*
X0462776Y0265565D01*
X0462786Y0265635D01*
X0462801Y0265704D01*
X0462819Y0265773D01*
X0462841Y0265841D01*
X0462866Y0265907D01*
X0462895Y0265973D01*
X0462927Y0266036D01*
X0462963Y0266098D01*
X0463002Y0266157D01*
X0463043Y0266215D01*
X0463088Y0266270D01*
X0463136Y0266323D01*
X0463186Y0266373D01*
X0463240Y0266420D01*
X0463295Y0266465D01*
X0463353Y0266507D01*
X0463413Y0266545D01*
X0463474Y0266580D01*
X0463538Y0266612D01*
X0463603Y0266641D01*
X0463670Y0266666D01*
X0463738Y0266687D01*
X0463807Y0266705D01*
X0463876Y0266719D01*
X0463947Y0266729D01*
X0463947Y0266730D02*
X0466309Y0266730D01*
X0466309Y0266729D02*
X0466380Y0266719D01*
X0466449Y0266705D01*
X0466518Y0266687D01*
X0466586Y0266666D01*
X0466653Y0266641D01*
X0466718Y0266612D01*
X0466782Y0266580D01*
X0466843Y0266545D01*
X0466903Y0266507D01*
X0466961Y0266465D01*
X0467016Y0266420D01*
X0467070Y0266373D01*
X0467120Y0266323D01*
X0467168Y0266270D01*
X0467213Y0266215D01*
X0467254Y0266157D01*
X0467293Y0266098D01*
X0467329Y0266036D01*
X0467361Y0265973D01*
X0467390Y0265907D01*
X0467415Y0265841D01*
X0467437Y0265773D01*
X0467455Y0265704D01*
X0467470Y0265635D01*
X0467480Y0265565D01*
X0467487Y0265494D01*
X0467491Y0265423D01*
X0467490Y0265352D01*
X0467490Y0265351D02*
X0467491Y0265280D01*
X0467487Y0265209D01*
X0467480Y0265138D01*
X0467470Y0265068D01*
X0467455Y0264999D01*
X0467437Y0264930D01*
X0467415Y0264862D01*
X0467390Y0264796D01*
X0467361Y0264730D01*
X0467329Y0264667D01*
X0467293Y0264605D01*
X0467254Y0264546D01*
X0467213Y0264488D01*
X0467168Y0264433D01*
X0467120Y0264380D01*
X0467070Y0264330D01*
X0467016Y0264283D01*
X0466961Y0264238D01*
X0466903Y0264196D01*
X0466843Y0264158D01*
X0466782Y0264123D01*
X0466718Y0264091D01*
X0466653Y0264062D01*
X0466586Y0264037D01*
X0466518Y0264016D01*
X0466449Y0263998D01*
X0466380Y0263984D01*
X0466309Y0263974D01*
X0476270Y0265254D02*
X0477844Y0265254D01*
X0477844Y0265253D02*
X0477913Y0265255D01*
X0477982Y0265261D01*
X0478051Y0265270D01*
X0478119Y0265283D01*
X0478186Y0265300D01*
X0478253Y0265320D01*
X0478318Y0265344D01*
X0478381Y0265371D01*
X0478444Y0265402D01*
X0478504Y0265436D01*
X0478562Y0265474D01*
X0478619Y0265514D01*
X0478673Y0265557D01*
X0478724Y0265604D01*
X0478773Y0265653D01*
X0478820Y0265704D01*
X0478863Y0265758D01*
X0478903Y0265815D01*
X0478941Y0265873D01*
X0478975Y0265933D01*
X0479006Y0265996D01*
X0479033Y0266059D01*
X0479057Y0266124D01*
X0479077Y0266191D01*
X0479094Y0266258D01*
X0479107Y0266326D01*
X0479116Y0266395D01*
X0479122Y0266464D01*
X0479124Y0266533D01*
X0479123Y0266603D01*
X0479118Y0266672D01*
X0479110Y0266741D01*
X0479098Y0266810D01*
X0479082Y0266877D01*
X0479062Y0266944D01*
X0479038Y0267010D01*
X0479011Y0267074D01*
X0478981Y0267136D01*
X0478947Y0267197D01*
X0478910Y0267256D01*
X0478869Y0267313D01*
X0478826Y0267367D01*
X0478779Y0267419D01*
X0478730Y0267468D01*
X0478678Y0267515D01*
X0478624Y0267558D01*
X0478567Y0267599D01*
X0478508Y0267636D01*
X0478447Y0267670D01*
X0478385Y0267700D01*
X0478321Y0267727D01*
X0478255Y0267751D01*
X0478188Y0267771D01*
X0478121Y0267787D01*
X0478052Y0267799D01*
X0477983Y0267807D01*
X0477914Y0267812D01*
X0477844Y0267813D01*
X0476270Y0267813D01*
X0476198Y0267808D01*
X0476126Y0267799D01*
X0476055Y0267786D01*
X0475984Y0267769D01*
X0475915Y0267749D01*
X0475847Y0267724D01*
X0475780Y0267697D01*
X0475715Y0267665D01*
X0475651Y0267630D01*
X0475590Y0267592D01*
X0475531Y0267551D01*
X0475474Y0267506D01*
X0475419Y0267458D01*
X0475368Y0267408D01*
X0475319Y0267354D01*
X0475273Y0267299D01*
X0475230Y0267240D01*
X0475190Y0267180D01*
X0475154Y0267117D01*
X0475121Y0267053D01*
X0475091Y0266987D01*
X0475066Y0266919D01*
X0475043Y0266850D01*
X0475025Y0266780D01*
X0475011Y0266709D01*
X0475000Y0266638D01*
X0474993Y0266566D01*
X0474990Y0266493D01*
X0474991Y0266493D02*
X0474989Y0266426D01*
X0474991Y0266359D01*
X0474997Y0266292D01*
X0475007Y0266225D01*
X0475020Y0266159D01*
X0475037Y0266094D01*
X0475058Y0266030D01*
X0475083Y0265968D01*
X0475111Y0265906D01*
X0475143Y0265847D01*
X0475177Y0265789D01*
X0475215Y0265734D01*
X0475257Y0265681D01*
X0475301Y0265630D01*
X0475348Y0265582D01*
X0475397Y0265536D01*
X0475450Y0265494D01*
X0475504Y0265454D01*
X0475561Y0265418D01*
X0475619Y0265385D01*
X0475680Y0265355D01*
X0475742Y0265329D01*
X0475805Y0265307D01*
X0475870Y0265288D01*
X0475935Y0265272D01*
X0476002Y0265261D01*
X0476068Y0265253D01*
X0476136Y0265249D01*
X0476203Y0265249D01*
X0476270Y0265253D01*
X0476270Y0284387D02*
X0477844Y0284387D01*
X0477913Y0284389D01*
X0477982Y0284395D01*
X0478051Y0284404D01*
X0478119Y0284417D01*
X0478186Y0284434D01*
X0478253Y0284454D01*
X0478318Y0284478D01*
X0478381Y0284505D01*
X0478444Y0284536D01*
X0478504Y0284570D01*
X0478562Y0284608D01*
X0478619Y0284648D01*
X0478673Y0284691D01*
X0478724Y0284738D01*
X0478773Y0284787D01*
X0478820Y0284838D01*
X0478863Y0284892D01*
X0478903Y0284949D01*
X0478941Y0285007D01*
X0478975Y0285067D01*
X0479006Y0285130D01*
X0479033Y0285193D01*
X0479057Y0285258D01*
X0479077Y0285325D01*
X0479094Y0285392D01*
X0479107Y0285460D01*
X0479116Y0285529D01*
X0479122Y0285598D01*
X0479124Y0285667D01*
X0479123Y0285737D01*
X0479118Y0285806D01*
X0479110Y0285875D01*
X0479098Y0285944D01*
X0479082Y0286011D01*
X0479062Y0286078D01*
X0479038Y0286144D01*
X0479011Y0286208D01*
X0478981Y0286270D01*
X0478947Y0286331D01*
X0478910Y0286390D01*
X0478869Y0286447D01*
X0478826Y0286501D01*
X0478779Y0286553D01*
X0478730Y0286602D01*
X0478678Y0286649D01*
X0478624Y0286692D01*
X0478567Y0286733D01*
X0478508Y0286770D01*
X0478447Y0286804D01*
X0478385Y0286834D01*
X0478321Y0286861D01*
X0478255Y0286885D01*
X0478188Y0286905D01*
X0478121Y0286921D01*
X0478052Y0286933D01*
X0477983Y0286941D01*
X0477914Y0286946D01*
X0477844Y0286947D01*
X0477844Y0286946D02*
X0476270Y0286946D01*
X0476270Y0286947D02*
X0476198Y0286942D01*
X0476126Y0286933D01*
X0476055Y0286920D01*
X0475984Y0286903D01*
X0475915Y0286883D01*
X0475847Y0286858D01*
X0475780Y0286831D01*
X0475715Y0286799D01*
X0475651Y0286764D01*
X0475590Y0286726D01*
X0475531Y0286685D01*
X0475474Y0286640D01*
X0475419Y0286592D01*
X0475368Y0286542D01*
X0475319Y0286488D01*
X0475273Y0286433D01*
X0475230Y0286374D01*
X0475190Y0286314D01*
X0475154Y0286251D01*
X0475121Y0286187D01*
X0475091Y0286121D01*
X0475066Y0286053D01*
X0475043Y0285984D01*
X0475025Y0285914D01*
X0475011Y0285843D01*
X0475000Y0285772D01*
X0474993Y0285700D01*
X0474990Y0285627D01*
X0474991Y0285627D02*
X0474989Y0285560D01*
X0474991Y0285493D01*
X0474997Y0285426D01*
X0475007Y0285359D01*
X0475020Y0285293D01*
X0475037Y0285228D01*
X0475058Y0285164D01*
X0475083Y0285102D01*
X0475111Y0285040D01*
X0475143Y0284981D01*
X0475177Y0284923D01*
X0475215Y0284868D01*
X0475257Y0284815D01*
X0475301Y0284764D01*
X0475348Y0284716D01*
X0475397Y0284670D01*
X0475450Y0284628D01*
X0475504Y0284588D01*
X0475561Y0284552D01*
X0475619Y0284519D01*
X0475680Y0284489D01*
X0475742Y0284463D01*
X0475805Y0284441D01*
X0475870Y0284422D01*
X0475935Y0284406D01*
X0476002Y0284395D01*
X0476068Y0284387D01*
X0476136Y0284383D01*
X0476203Y0284383D01*
X0476270Y0284387D01*
X0466309Y0285470D02*
X0463947Y0285470D01*
X0463947Y0285471D02*
X0463876Y0285481D01*
X0463807Y0285495D01*
X0463738Y0285513D01*
X0463670Y0285534D01*
X0463603Y0285559D01*
X0463538Y0285588D01*
X0463474Y0285620D01*
X0463413Y0285655D01*
X0463353Y0285693D01*
X0463295Y0285735D01*
X0463240Y0285780D01*
X0463186Y0285827D01*
X0463136Y0285877D01*
X0463088Y0285930D01*
X0463043Y0285985D01*
X0463002Y0286043D01*
X0462963Y0286102D01*
X0462927Y0286164D01*
X0462895Y0286227D01*
X0462866Y0286293D01*
X0462841Y0286359D01*
X0462819Y0286427D01*
X0462801Y0286496D01*
X0462786Y0286565D01*
X0462776Y0286635D01*
X0462769Y0286706D01*
X0462765Y0286777D01*
X0462766Y0286848D01*
X0462766Y0286849D02*
X0462765Y0286920D01*
X0462769Y0286991D01*
X0462776Y0287062D01*
X0462786Y0287132D01*
X0462801Y0287201D01*
X0462819Y0287270D01*
X0462841Y0287338D01*
X0462866Y0287404D01*
X0462895Y0287470D01*
X0462927Y0287533D01*
X0462963Y0287595D01*
X0463002Y0287654D01*
X0463043Y0287712D01*
X0463088Y0287767D01*
X0463136Y0287820D01*
X0463186Y0287870D01*
X0463240Y0287917D01*
X0463295Y0287962D01*
X0463353Y0288004D01*
X0463413Y0288042D01*
X0463474Y0288077D01*
X0463538Y0288109D01*
X0463603Y0288138D01*
X0463670Y0288163D01*
X0463738Y0288184D01*
X0463807Y0288202D01*
X0463876Y0288216D01*
X0463947Y0288226D01*
X0466309Y0288226D01*
X0466380Y0288216D01*
X0466449Y0288202D01*
X0466518Y0288184D01*
X0466586Y0288163D01*
X0466653Y0288138D01*
X0466718Y0288109D01*
X0466782Y0288077D01*
X0466843Y0288042D01*
X0466903Y0288004D01*
X0466961Y0287962D01*
X0467016Y0287917D01*
X0467070Y0287870D01*
X0467120Y0287820D01*
X0467168Y0287767D01*
X0467213Y0287712D01*
X0467254Y0287654D01*
X0467293Y0287595D01*
X0467329Y0287533D01*
X0467361Y0287470D01*
X0467390Y0287404D01*
X0467415Y0287338D01*
X0467437Y0287270D01*
X0467455Y0287201D01*
X0467470Y0287132D01*
X0467480Y0287062D01*
X0467487Y0286991D01*
X0467491Y0286920D01*
X0467490Y0286849D01*
X0467490Y0286848D02*
X0467491Y0286777D01*
X0467487Y0286706D01*
X0467480Y0286635D01*
X0467470Y0286565D01*
X0467455Y0286496D01*
X0467437Y0286427D01*
X0467415Y0286359D01*
X0467390Y0286293D01*
X0467361Y0286227D01*
X0467329Y0286164D01*
X0467293Y0286102D01*
X0467254Y0286043D01*
X0467213Y0285985D01*
X0467168Y0285930D01*
X0467120Y0285877D01*
X0467070Y0285827D01*
X0467016Y0285780D01*
X0466961Y0285735D01*
X0466903Y0285693D01*
X0466843Y0285655D01*
X0466782Y0285620D01*
X0466718Y0285588D01*
X0466653Y0285559D01*
X0466586Y0285534D01*
X0466518Y0285513D01*
X0466449Y0285495D01*
X0466380Y0285481D01*
X0466309Y0285471D01*
X0466309Y0355974D02*
X0463947Y0355974D01*
X0463876Y0355984D01*
X0463807Y0355998D01*
X0463738Y0356016D01*
X0463670Y0356037D01*
X0463603Y0356062D01*
X0463538Y0356091D01*
X0463474Y0356123D01*
X0463413Y0356158D01*
X0463353Y0356196D01*
X0463295Y0356238D01*
X0463240Y0356283D01*
X0463186Y0356330D01*
X0463136Y0356380D01*
X0463088Y0356433D01*
X0463043Y0356488D01*
X0463002Y0356546D01*
X0462963Y0356605D01*
X0462927Y0356667D01*
X0462895Y0356730D01*
X0462866Y0356796D01*
X0462841Y0356862D01*
X0462819Y0356930D01*
X0462801Y0356999D01*
X0462786Y0357068D01*
X0462776Y0357138D01*
X0462769Y0357209D01*
X0462765Y0357280D01*
X0462766Y0357351D01*
X0462766Y0357352D02*
X0462765Y0357423D01*
X0462769Y0357494D01*
X0462776Y0357565D01*
X0462786Y0357635D01*
X0462801Y0357704D01*
X0462819Y0357773D01*
X0462841Y0357841D01*
X0462866Y0357907D01*
X0462895Y0357973D01*
X0462927Y0358036D01*
X0462963Y0358098D01*
X0463002Y0358157D01*
X0463043Y0358215D01*
X0463088Y0358270D01*
X0463136Y0358323D01*
X0463186Y0358373D01*
X0463240Y0358420D01*
X0463295Y0358465D01*
X0463353Y0358507D01*
X0463413Y0358545D01*
X0463474Y0358580D01*
X0463538Y0358612D01*
X0463603Y0358641D01*
X0463670Y0358666D01*
X0463738Y0358687D01*
X0463807Y0358705D01*
X0463876Y0358719D01*
X0463947Y0358729D01*
X0463947Y0358730D02*
X0466309Y0358730D01*
X0466309Y0358729D02*
X0466380Y0358719D01*
X0466449Y0358705D01*
X0466518Y0358687D01*
X0466586Y0358666D01*
X0466653Y0358641D01*
X0466718Y0358612D01*
X0466782Y0358580D01*
X0466843Y0358545D01*
X0466903Y0358507D01*
X0466961Y0358465D01*
X0467016Y0358420D01*
X0467070Y0358373D01*
X0467120Y0358323D01*
X0467168Y0358270D01*
X0467213Y0358215D01*
X0467254Y0358157D01*
X0467293Y0358098D01*
X0467329Y0358036D01*
X0467361Y0357973D01*
X0467390Y0357907D01*
X0467415Y0357841D01*
X0467437Y0357773D01*
X0467455Y0357704D01*
X0467470Y0357635D01*
X0467480Y0357565D01*
X0467487Y0357494D01*
X0467491Y0357423D01*
X0467490Y0357352D01*
X0467490Y0357351D02*
X0467491Y0357280D01*
X0467487Y0357209D01*
X0467480Y0357138D01*
X0467470Y0357068D01*
X0467455Y0356999D01*
X0467437Y0356930D01*
X0467415Y0356862D01*
X0467390Y0356796D01*
X0467361Y0356730D01*
X0467329Y0356667D01*
X0467293Y0356605D01*
X0467254Y0356546D01*
X0467213Y0356488D01*
X0467168Y0356433D01*
X0467120Y0356380D01*
X0467070Y0356330D01*
X0467016Y0356283D01*
X0466961Y0356238D01*
X0466903Y0356196D01*
X0466843Y0356158D01*
X0466782Y0356123D01*
X0466718Y0356091D01*
X0466653Y0356062D01*
X0466586Y0356037D01*
X0466518Y0356016D01*
X0466449Y0355998D01*
X0466380Y0355984D01*
X0466309Y0355974D01*
X0476270Y0357254D02*
X0477844Y0357254D01*
X0477844Y0357253D02*
X0477913Y0357255D01*
X0477982Y0357261D01*
X0478051Y0357270D01*
X0478119Y0357283D01*
X0478186Y0357300D01*
X0478253Y0357320D01*
X0478318Y0357344D01*
X0478381Y0357371D01*
X0478444Y0357402D01*
X0478504Y0357436D01*
X0478562Y0357474D01*
X0478619Y0357514D01*
X0478673Y0357557D01*
X0478724Y0357604D01*
X0478773Y0357653D01*
X0478820Y0357704D01*
X0478863Y0357758D01*
X0478903Y0357815D01*
X0478941Y0357873D01*
X0478975Y0357933D01*
X0479006Y0357996D01*
X0479033Y0358059D01*
X0479057Y0358124D01*
X0479077Y0358191D01*
X0479094Y0358258D01*
X0479107Y0358326D01*
X0479116Y0358395D01*
X0479122Y0358464D01*
X0479124Y0358533D01*
X0479123Y0358603D01*
X0479118Y0358672D01*
X0479110Y0358741D01*
X0479098Y0358810D01*
X0479082Y0358877D01*
X0479062Y0358944D01*
X0479038Y0359010D01*
X0479011Y0359074D01*
X0478981Y0359136D01*
X0478947Y0359197D01*
X0478910Y0359256D01*
X0478869Y0359313D01*
X0478826Y0359367D01*
X0478779Y0359419D01*
X0478730Y0359468D01*
X0478678Y0359515D01*
X0478624Y0359558D01*
X0478567Y0359599D01*
X0478508Y0359636D01*
X0478447Y0359670D01*
X0478385Y0359700D01*
X0478321Y0359727D01*
X0478255Y0359751D01*
X0478188Y0359771D01*
X0478121Y0359787D01*
X0478052Y0359799D01*
X0477983Y0359807D01*
X0477914Y0359812D01*
X0477844Y0359813D01*
X0476270Y0359813D01*
X0476198Y0359808D01*
X0476126Y0359799D01*
X0476055Y0359786D01*
X0475984Y0359769D01*
X0475915Y0359749D01*
X0475847Y0359724D01*
X0475780Y0359697D01*
X0475715Y0359665D01*
X0475651Y0359630D01*
X0475590Y0359592D01*
X0475531Y0359551D01*
X0475474Y0359506D01*
X0475419Y0359458D01*
X0475368Y0359408D01*
X0475319Y0359354D01*
X0475273Y0359299D01*
X0475230Y0359240D01*
X0475190Y0359180D01*
X0475154Y0359117D01*
X0475121Y0359053D01*
X0475091Y0358987D01*
X0475066Y0358919D01*
X0475043Y0358850D01*
X0475025Y0358780D01*
X0475011Y0358709D01*
X0475000Y0358638D01*
X0474993Y0358566D01*
X0474990Y0358493D01*
X0474991Y0358493D02*
X0474989Y0358426D01*
X0474991Y0358359D01*
X0474997Y0358292D01*
X0475007Y0358225D01*
X0475020Y0358159D01*
X0475037Y0358094D01*
X0475058Y0358030D01*
X0475083Y0357968D01*
X0475111Y0357906D01*
X0475143Y0357847D01*
X0475177Y0357789D01*
X0475215Y0357734D01*
X0475257Y0357681D01*
X0475301Y0357630D01*
X0475348Y0357582D01*
X0475397Y0357536D01*
X0475450Y0357494D01*
X0475504Y0357454D01*
X0475561Y0357418D01*
X0475619Y0357385D01*
X0475680Y0357355D01*
X0475742Y0357329D01*
X0475805Y0357307D01*
X0475870Y0357288D01*
X0475935Y0357272D01*
X0476002Y0357261D01*
X0476068Y0357253D01*
X0476136Y0357249D01*
X0476203Y0357249D01*
X0476270Y0357253D01*
X0476270Y0376387D02*
X0477844Y0376387D01*
X0477913Y0376389D01*
X0477982Y0376395D01*
X0478051Y0376404D01*
X0478119Y0376417D01*
X0478186Y0376434D01*
X0478253Y0376454D01*
X0478318Y0376478D01*
X0478381Y0376505D01*
X0478444Y0376536D01*
X0478504Y0376570D01*
X0478562Y0376608D01*
X0478619Y0376648D01*
X0478673Y0376691D01*
X0478724Y0376738D01*
X0478773Y0376787D01*
X0478820Y0376838D01*
X0478863Y0376892D01*
X0478903Y0376949D01*
X0478941Y0377007D01*
X0478975Y0377067D01*
X0479006Y0377130D01*
X0479033Y0377193D01*
X0479057Y0377258D01*
X0479077Y0377325D01*
X0479094Y0377392D01*
X0479107Y0377460D01*
X0479116Y0377529D01*
X0479122Y0377598D01*
X0479124Y0377667D01*
X0479123Y0377737D01*
X0479118Y0377806D01*
X0479110Y0377875D01*
X0479098Y0377944D01*
X0479082Y0378011D01*
X0479062Y0378078D01*
X0479038Y0378144D01*
X0479011Y0378208D01*
X0478981Y0378270D01*
X0478947Y0378331D01*
X0478910Y0378390D01*
X0478869Y0378447D01*
X0478826Y0378501D01*
X0478779Y0378553D01*
X0478730Y0378602D01*
X0478678Y0378649D01*
X0478624Y0378692D01*
X0478567Y0378733D01*
X0478508Y0378770D01*
X0478447Y0378804D01*
X0478385Y0378834D01*
X0478321Y0378861D01*
X0478255Y0378885D01*
X0478188Y0378905D01*
X0478121Y0378921D01*
X0478052Y0378933D01*
X0477983Y0378941D01*
X0477914Y0378946D01*
X0477844Y0378947D01*
X0477844Y0378946D02*
X0476270Y0378946D01*
X0476270Y0378947D02*
X0476198Y0378942D01*
X0476126Y0378933D01*
X0476055Y0378920D01*
X0475984Y0378903D01*
X0475915Y0378883D01*
X0475847Y0378858D01*
X0475780Y0378831D01*
X0475715Y0378799D01*
X0475651Y0378764D01*
X0475590Y0378726D01*
X0475531Y0378685D01*
X0475474Y0378640D01*
X0475419Y0378592D01*
X0475368Y0378542D01*
X0475319Y0378488D01*
X0475273Y0378433D01*
X0475230Y0378374D01*
X0475190Y0378314D01*
X0475154Y0378251D01*
X0475121Y0378187D01*
X0475091Y0378121D01*
X0475066Y0378053D01*
X0475043Y0377984D01*
X0475025Y0377914D01*
X0475011Y0377843D01*
X0475000Y0377772D01*
X0474993Y0377700D01*
X0474990Y0377627D01*
X0474991Y0377627D02*
X0474989Y0377560D01*
X0474991Y0377493D01*
X0474997Y0377426D01*
X0475007Y0377359D01*
X0475020Y0377293D01*
X0475037Y0377228D01*
X0475058Y0377164D01*
X0475083Y0377102D01*
X0475111Y0377040D01*
X0475143Y0376981D01*
X0475177Y0376923D01*
X0475215Y0376868D01*
X0475257Y0376815D01*
X0475301Y0376764D01*
X0475348Y0376716D01*
X0475397Y0376670D01*
X0475450Y0376628D01*
X0475504Y0376588D01*
X0475561Y0376552D01*
X0475619Y0376519D01*
X0475680Y0376489D01*
X0475742Y0376463D01*
X0475805Y0376441D01*
X0475870Y0376422D01*
X0475935Y0376406D01*
X0476002Y0376395D01*
X0476068Y0376387D01*
X0476136Y0376383D01*
X0476203Y0376383D01*
X0476270Y0376387D01*
X0466309Y0377470D02*
X0463947Y0377470D01*
X0463947Y0377471D02*
X0463876Y0377481D01*
X0463807Y0377495D01*
X0463738Y0377513D01*
X0463670Y0377534D01*
X0463603Y0377559D01*
X0463538Y0377588D01*
X0463474Y0377620D01*
X0463413Y0377655D01*
X0463353Y0377693D01*
X0463295Y0377735D01*
X0463240Y0377780D01*
X0463186Y0377827D01*
X0463136Y0377877D01*
X0463088Y0377930D01*
X0463043Y0377985D01*
X0463002Y0378043D01*
X0462963Y0378102D01*
X0462927Y0378164D01*
X0462895Y0378227D01*
X0462866Y0378293D01*
X0462841Y0378359D01*
X0462819Y0378427D01*
X0462801Y0378496D01*
X0462786Y0378565D01*
X0462776Y0378635D01*
X0462769Y0378706D01*
X0462765Y0378777D01*
X0462766Y0378848D01*
X0462766Y0378849D02*
X0462765Y0378920D01*
X0462769Y0378991D01*
X0462776Y0379062D01*
X0462786Y0379132D01*
X0462801Y0379201D01*
X0462819Y0379270D01*
X0462841Y0379338D01*
X0462866Y0379404D01*
X0462895Y0379470D01*
X0462927Y0379533D01*
X0462963Y0379595D01*
X0463002Y0379654D01*
X0463043Y0379712D01*
X0463088Y0379767D01*
X0463136Y0379820D01*
X0463186Y0379870D01*
X0463240Y0379917D01*
X0463295Y0379962D01*
X0463353Y0380004D01*
X0463413Y0380042D01*
X0463474Y0380077D01*
X0463538Y0380109D01*
X0463603Y0380138D01*
X0463670Y0380163D01*
X0463738Y0380184D01*
X0463807Y0380202D01*
X0463876Y0380216D01*
X0463947Y0380226D01*
X0466309Y0380226D01*
X0466380Y0380216D01*
X0466449Y0380202D01*
X0466518Y0380184D01*
X0466586Y0380163D01*
X0466653Y0380138D01*
X0466718Y0380109D01*
X0466782Y0380077D01*
X0466843Y0380042D01*
X0466903Y0380004D01*
X0466961Y0379962D01*
X0467016Y0379917D01*
X0467070Y0379870D01*
X0467120Y0379820D01*
X0467168Y0379767D01*
X0467213Y0379712D01*
X0467254Y0379654D01*
X0467293Y0379595D01*
X0467329Y0379533D01*
X0467361Y0379470D01*
X0467390Y0379404D01*
X0467415Y0379338D01*
X0467437Y0379270D01*
X0467455Y0379201D01*
X0467470Y0379132D01*
X0467480Y0379062D01*
X0467487Y0378991D01*
X0467491Y0378920D01*
X0467490Y0378849D01*
X0467490Y0378848D02*
X0467491Y0378777D01*
X0467487Y0378706D01*
X0467480Y0378635D01*
X0467470Y0378565D01*
X0467455Y0378496D01*
X0467437Y0378427D01*
X0467415Y0378359D01*
X0467390Y0378293D01*
X0467361Y0378227D01*
X0467329Y0378164D01*
X0467293Y0378102D01*
X0467254Y0378043D01*
X0467213Y0377985D01*
X0467168Y0377930D01*
X0467120Y0377877D01*
X0467070Y0377827D01*
X0467016Y0377780D01*
X0466961Y0377735D01*
X0466903Y0377693D01*
X0466843Y0377655D01*
X0466782Y0377620D01*
X0466718Y0377588D01*
X0466653Y0377559D01*
X0466586Y0377534D01*
X0466518Y0377513D01*
X0466449Y0377495D01*
X0466380Y0377481D01*
X0466309Y0377471D01*
X0274124Y0377667D02*
X0274123Y0377737D01*
X0274118Y0377806D01*
X0274110Y0377875D01*
X0274098Y0377944D01*
X0274082Y0378011D01*
X0274062Y0378078D01*
X0274038Y0378144D01*
X0274011Y0378208D01*
X0273981Y0378270D01*
X0273947Y0378331D01*
X0273910Y0378390D01*
X0273869Y0378447D01*
X0273826Y0378501D01*
X0273779Y0378553D01*
X0273730Y0378602D01*
X0273678Y0378649D01*
X0273624Y0378692D01*
X0273567Y0378733D01*
X0273508Y0378770D01*
X0273447Y0378804D01*
X0273385Y0378834D01*
X0273321Y0378861D01*
X0273255Y0378885D01*
X0273188Y0378905D01*
X0273121Y0378921D01*
X0273052Y0378933D01*
X0272983Y0378941D01*
X0272914Y0378946D01*
X0272844Y0378947D01*
X0272844Y0378946D02*
X0271270Y0378946D01*
X0271270Y0378947D02*
X0271198Y0378942D01*
X0271126Y0378933D01*
X0271055Y0378920D01*
X0270984Y0378903D01*
X0270915Y0378883D01*
X0270847Y0378858D01*
X0270780Y0378831D01*
X0270715Y0378799D01*
X0270651Y0378764D01*
X0270590Y0378726D01*
X0270531Y0378685D01*
X0270474Y0378640D01*
X0270419Y0378592D01*
X0270368Y0378542D01*
X0270319Y0378488D01*
X0270273Y0378433D01*
X0270230Y0378374D01*
X0270190Y0378314D01*
X0270154Y0378251D01*
X0270121Y0378187D01*
X0270091Y0378121D01*
X0270066Y0378053D01*
X0270043Y0377984D01*
X0270025Y0377914D01*
X0270011Y0377843D01*
X0270000Y0377772D01*
X0269993Y0377700D01*
X0269990Y0377627D01*
X0269991Y0377627D02*
X0269989Y0377560D01*
X0269991Y0377493D01*
X0269997Y0377426D01*
X0270007Y0377359D01*
X0270020Y0377293D01*
X0270037Y0377228D01*
X0270058Y0377164D01*
X0270083Y0377102D01*
X0270111Y0377040D01*
X0270143Y0376981D01*
X0270177Y0376923D01*
X0270215Y0376868D01*
X0270257Y0376815D01*
X0270301Y0376764D01*
X0270348Y0376716D01*
X0270397Y0376670D01*
X0270450Y0376628D01*
X0270504Y0376588D01*
X0270561Y0376552D01*
X0270619Y0376519D01*
X0270680Y0376489D01*
X0270742Y0376463D01*
X0270805Y0376441D01*
X0270870Y0376422D01*
X0270935Y0376406D01*
X0271002Y0376395D01*
X0271068Y0376387D01*
X0271136Y0376383D01*
X0271203Y0376383D01*
X0271270Y0376387D01*
X0272844Y0376387D01*
X0272913Y0376389D01*
X0272982Y0376395D01*
X0273051Y0376404D01*
X0273119Y0376417D01*
X0273186Y0376434D01*
X0273253Y0376454D01*
X0273318Y0376478D01*
X0273381Y0376505D01*
X0273444Y0376536D01*
X0273504Y0376570D01*
X0273562Y0376608D01*
X0273619Y0376648D01*
X0273673Y0376691D01*
X0273724Y0376738D01*
X0273773Y0376787D01*
X0273820Y0376838D01*
X0273863Y0376892D01*
X0273903Y0376949D01*
X0273941Y0377007D01*
X0273975Y0377067D01*
X0274006Y0377130D01*
X0274033Y0377193D01*
X0274057Y0377258D01*
X0274077Y0377325D01*
X0274094Y0377392D01*
X0274107Y0377460D01*
X0274116Y0377529D01*
X0274122Y0377598D01*
X0274124Y0377667D01*
X0261309Y0377470D02*
X0258947Y0377470D01*
X0258947Y0377471D02*
X0258876Y0377481D01*
X0258807Y0377495D01*
X0258738Y0377513D01*
X0258670Y0377534D01*
X0258603Y0377559D01*
X0258538Y0377588D01*
X0258474Y0377620D01*
X0258413Y0377655D01*
X0258353Y0377693D01*
X0258295Y0377735D01*
X0258240Y0377780D01*
X0258186Y0377827D01*
X0258136Y0377877D01*
X0258088Y0377930D01*
X0258043Y0377985D01*
X0258002Y0378043D01*
X0257963Y0378102D01*
X0257927Y0378164D01*
X0257895Y0378227D01*
X0257866Y0378293D01*
X0257841Y0378359D01*
X0257819Y0378427D01*
X0257801Y0378496D01*
X0257786Y0378565D01*
X0257776Y0378635D01*
X0257769Y0378706D01*
X0257765Y0378777D01*
X0257766Y0378848D01*
X0257766Y0378849D02*
X0257765Y0378920D01*
X0257769Y0378991D01*
X0257776Y0379062D01*
X0257786Y0379132D01*
X0257801Y0379201D01*
X0257819Y0379270D01*
X0257841Y0379338D01*
X0257866Y0379404D01*
X0257895Y0379470D01*
X0257927Y0379533D01*
X0257963Y0379595D01*
X0258002Y0379654D01*
X0258043Y0379712D01*
X0258088Y0379767D01*
X0258136Y0379820D01*
X0258186Y0379870D01*
X0258240Y0379917D01*
X0258295Y0379962D01*
X0258353Y0380004D01*
X0258413Y0380042D01*
X0258474Y0380077D01*
X0258538Y0380109D01*
X0258603Y0380138D01*
X0258670Y0380163D01*
X0258738Y0380184D01*
X0258807Y0380202D01*
X0258876Y0380216D01*
X0258947Y0380226D01*
X0261309Y0380226D01*
X0261380Y0380216D01*
X0261449Y0380202D01*
X0261518Y0380184D01*
X0261586Y0380163D01*
X0261653Y0380138D01*
X0261718Y0380109D01*
X0261782Y0380077D01*
X0261843Y0380042D01*
X0261903Y0380004D01*
X0261961Y0379962D01*
X0262016Y0379917D01*
X0262070Y0379870D01*
X0262120Y0379820D01*
X0262168Y0379767D01*
X0262213Y0379712D01*
X0262254Y0379654D01*
X0262293Y0379595D01*
X0262329Y0379533D01*
X0262361Y0379470D01*
X0262390Y0379404D01*
X0262415Y0379338D01*
X0262437Y0379270D01*
X0262455Y0379201D01*
X0262470Y0379132D01*
X0262480Y0379062D01*
X0262487Y0378991D01*
X0262491Y0378920D01*
X0262490Y0378849D01*
X0262490Y0378848D02*
X0262491Y0378777D01*
X0262487Y0378706D01*
X0262480Y0378635D01*
X0262470Y0378565D01*
X0262455Y0378496D01*
X0262437Y0378427D01*
X0262415Y0378359D01*
X0262390Y0378293D01*
X0262361Y0378227D01*
X0262329Y0378164D01*
X0262293Y0378102D01*
X0262254Y0378043D01*
X0262213Y0377985D01*
X0262168Y0377930D01*
X0262120Y0377877D01*
X0262070Y0377827D01*
X0262016Y0377780D01*
X0261961Y0377735D01*
X0261903Y0377693D01*
X0261843Y0377655D01*
X0261782Y0377620D01*
X0261718Y0377588D01*
X0261653Y0377559D01*
X0261586Y0377534D01*
X0261518Y0377513D01*
X0261449Y0377495D01*
X0261380Y0377481D01*
X0261309Y0377471D01*
X0271270Y0359813D02*
X0272844Y0359813D01*
X0272914Y0359812D01*
X0272983Y0359807D01*
X0273052Y0359799D01*
X0273121Y0359787D01*
X0273188Y0359771D01*
X0273255Y0359751D01*
X0273321Y0359727D01*
X0273385Y0359700D01*
X0273447Y0359670D01*
X0273508Y0359636D01*
X0273567Y0359599D01*
X0273624Y0359558D01*
X0273678Y0359515D01*
X0273730Y0359468D01*
X0273779Y0359419D01*
X0273826Y0359367D01*
X0273869Y0359313D01*
X0273910Y0359256D01*
X0273947Y0359197D01*
X0273981Y0359136D01*
X0274011Y0359074D01*
X0274038Y0359010D01*
X0274062Y0358944D01*
X0274082Y0358877D01*
X0274098Y0358810D01*
X0274110Y0358741D01*
X0274118Y0358672D01*
X0274123Y0358603D01*
X0274124Y0358533D01*
X0274122Y0358464D01*
X0274116Y0358395D01*
X0274107Y0358326D01*
X0274094Y0358258D01*
X0274077Y0358191D01*
X0274057Y0358124D01*
X0274033Y0358059D01*
X0274006Y0357996D01*
X0273975Y0357933D01*
X0273941Y0357873D01*
X0273903Y0357815D01*
X0273863Y0357758D01*
X0273820Y0357704D01*
X0273773Y0357653D01*
X0273724Y0357604D01*
X0273673Y0357557D01*
X0273619Y0357514D01*
X0273562Y0357474D01*
X0273504Y0357436D01*
X0273444Y0357402D01*
X0273381Y0357371D01*
X0273318Y0357344D01*
X0273253Y0357320D01*
X0273186Y0357300D01*
X0273119Y0357283D01*
X0273051Y0357270D01*
X0272982Y0357261D01*
X0272913Y0357255D01*
X0272844Y0357253D01*
X0272844Y0357254D02*
X0271270Y0357254D01*
X0271270Y0357253D02*
X0271203Y0357249D01*
X0271136Y0357249D01*
X0271068Y0357253D01*
X0271002Y0357261D01*
X0270935Y0357272D01*
X0270870Y0357288D01*
X0270805Y0357307D01*
X0270742Y0357329D01*
X0270680Y0357355D01*
X0270619Y0357385D01*
X0270561Y0357418D01*
X0270504Y0357454D01*
X0270450Y0357494D01*
X0270397Y0357536D01*
X0270348Y0357582D01*
X0270301Y0357630D01*
X0270257Y0357681D01*
X0270215Y0357734D01*
X0270177Y0357789D01*
X0270143Y0357847D01*
X0270111Y0357906D01*
X0270083Y0357968D01*
X0270058Y0358030D01*
X0270037Y0358094D01*
X0270020Y0358159D01*
X0270007Y0358225D01*
X0269997Y0358292D01*
X0269991Y0358359D01*
X0269989Y0358426D01*
X0269991Y0358493D01*
X0269990Y0358493D02*
X0269993Y0358566D01*
X0270000Y0358638D01*
X0270011Y0358709D01*
X0270025Y0358780D01*
X0270043Y0358850D01*
X0270066Y0358919D01*
X0270091Y0358987D01*
X0270121Y0359053D01*
X0270154Y0359117D01*
X0270190Y0359180D01*
X0270230Y0359240D01*
X0270273Y0359299D01*
X0270319Y0359354D01*
X0270368Y0359408D01*
X0270419Y0359458D01*
X0270474Y0359506D01*
X0270531Y0359551D01*
X0270590Y0359592D01*
X0270651Y0359630D01*
X0270715Y0359665D01*
X0270780Y0359697D01*
X0270847Y0359724D01*
X0270915Y0359749D01*
X0270984Y0359769D01*
X0271055Y0359786D01*
X0271126Y0359799D01*
X0271198Y0359808D01*
X0271270Y0359813D01*
X0261309Y0358730D02*
X0258947Y0358730D01*
X0258947Y0358729D02*
X0258876Y0358719D01*
X0258807Y0358705D01*
X0258738Y0358687D01*
X0258670Y0358666D01*
X0258603Y0358641D01*
X0258538Y0358612D01*
X0258474Y0358580D01*
X0258413Y0358545D01*
X0258353Y0358507D01*
X0258295Y0358465D01*
X0258240Y0358420D01*
X0258186Y0358373D01*
X0258136Y0358323D01*
X0258088Y0358270D01*
X0258043Y0358215D01*
X0258002Y0358157D01*
X0257963Y0358098D01*
X0257927Y0358036D01*
X0257895Y0357973D01*
X0257866Y0357907D01*
X0257841Y0357841D01*
X0257819Y0357773D01*
X0257801Y0357704D01*
X0257786Y0357635D01*
X0257776Y0357565D01*
X0257769Y0357494D01*
X0257765Y0357423D01*
X0257766Y0357352D01*
X0257766Y0357351D02*
X0257765Y0357280D01*
X0257769Y0357209D01*
X0257776Y0357138D01*
X0257786Y0357068D01*
X0257801Y0356999D01*
X0257819Y0356930D01*
X0257841Y0356862D01*
X0257866Y0356796D01*
X0257895Y0356730D01*
X0257927Y0356667D01*
X0257963Y0356605D01*
X0258002Y0356546D01*
X0258043Y0356488D01*
X0258088Y0356433D01*
X0258136Y0356380D01*
X0258186Y0356330D01*
X0258240Y0356283D01*
X0258295Y0356238D01*
X0258353Y0356196D01*
X0258413Y0356158D01*
X0258474Y0356123D01*
X0258538Y0356091D01*
X0258603Y0356062D01*
X0258670Y0356037D01*
X0258738Y0356016D01*
X0258807Y0355998D01*
X0258876Y0355984D01*
X0258947Y0355974D01*
X0261309Y0355974D01*
X0261380Y0355984D01*
X0261449Y0355998D01*
X0261518Y0356016D01*
X0261586Y0356037D01*
X0261653Y0356062D01*
X0261718Y0356091D01*
X0261782Y0356123D01*
X0261843Y0356158D01*
X0261903Y0356196D01*
X0261961Y0356238D01*
X0262016Y0356283D01*
X0262070Y0356330D01*
X0262120Y0356380D01*
X0262168Y0356433D01*
X0262213Y0356488D01*
X0262254Y0356546D01*
X0262293Y0356605D01*
X0262329Y0356667D01*
X0262361Y0356730D01*
X0262390Y0356796D01*
X0262415Y0356862D01*
X0262437Y0356930D01*
X0262455Y0356999D01*
X0262470Y0357068D01*
X0262480Y0357138D01*
X0262487Y0357209D01*
X0262491Y0357280D01*
X0262490Y0357351D01*
X0262490Y0357352D02*
X0262491Y0357423D01*
X0262487Y0357494D01*
X0262480Y0357565D01*
X0262470Y0357635D01*
X0262455Y0357704D01*
X0262437Y0357773D01*
X0262415Y0357841D01*
X0262390Y0357907D01*
X0262361Y0357973D01*
X0262329Y0358036D01*
X0262293Y0358098D01*
X0262254Y0358157D01*
X0262213Y0358215D01*
X0262168Y0358270D01*
X0262120Y0358323D01*
X0262070Y0358373D01*
X0262016Y0358420D01*
X0261961Y0358465D01*
X0261903Y0358507D01*
X0261843Y0358545D01*
X0261782Y0358580D01*
X0261718Y0358612D01*
X0261653Y0358641D01*
X0261586Y0358666D01*
X0261518Y0358687D01*
X0261449Y0358705D01*
X0261380Y0358719D01*
X0261309Y0358729D01*
X0261309Y0288226D02*
X0258947Y0288226D01*
X0258876Y0288216D01*
X0258807Y0288202D01*
X0258738Y0288184D01*
X0258670Y0288163D01*
X0258603Y0288138D01*
X0258538Y0288109D01*
X0258474Y0288077D01*
X0258413Y0288042D01*
X0258353Y0288004D01*
X0258295Y0287962D01*
X0258240Y0287917D01*
X0258186Y0287870D01*
X0258136Y0287820D01*
X0258088Y0287767D01*
X0258043Y0287712D01*
X0258002Y0287654D01*
X0257963Y0287595D01*
X0257927Y0287533D01*
X0257895Y0287470D01*
X0257866Y0287404D01*
X0257841Y0287338D01*
X0257819Y0287270D01*
X0257801Y0287201D01*
X0257786Y0287132D01*
X0257776Y0287062D01*
X0257769Y0286991D01*
X0257765Y0286920D01*
X0257766Y0286849D01*
X0257766Y0286848D02*
X0257765Y0286777D01*
X0257769Y0286706D01*
X0257776Y0286635D01*
X0257786Y0286565D01*
X0257801Y0286496D01*
X0257819Y0286427D01*
X0257841Y0286359D01*
X0257866Y0286293D01*
X0257895Y0286227D01*
X0257927Y0286164D01*
X0257963Y0286102D01*
X0258002Y0286043D01*
X0258043Y0285985D01*
X0258088Y0285930D01*
X0258136Y0285877D01*
X0258186Y0285827D01*
X0258240Y0285780D01*
X0258295Y0285735D01*
X0258353Y0285693D01*
X0258413Y0285655D01*
X0258474Y0285620D01*
X0258538Y0285588D01*
X0258603Y0285559D01*
X0258670Y0285534D01*
X0258738Y0285513D01*
X0258807Y0285495D01*
X0258876Y0285481D01*
X0258947Y0285471D01*
X0258947Y0285470D02*
X0261309Y0285470D01*
X0261309Y0285471D02*
X0261380Y0285481D01*
X0261449Y0285495D01*
X0261518Y0285513D01*
X0261586Y0285534D01*
X0261653Y0285559D01*
X0261718Y0285588D01*
X0261782Y0285620D01*
X0261843Y0285655D01*
X0261903Y0285693D01*
X0261961Y0285735D01*
X0262016Y0285780D01*
X0262070Y0285827D01*
X0262120Y0285877D01*
X0262168Y0285930D01*
X0262213Y0285985D01*
X0262254Y0286043D01*
X0262293Y0286102D01*
X0262329Y0286164D01*
X0262361Y0286227D01*
X0262390Y0286293D01*
X0262415Y0286359D01*
X0262437Y0286427D01*
X0262455Y0286496D01*
X0262470Y0286565D01*
X0262480Y0286635D01*
X0262487Y0286706D01*
X0262491Y0286777D01*
X0262490Y0286848D01*
X0262490Y0286849D02*
X0262491Y0286920D01*
X0262487Y0286991D01*
X0262480Y0287062D01*
X0262470Y0287132D01*
X0262455Y0287201D01*
X0262437Y0287270D01*
X0262415Y0287338D01*
X0262390Y0287404D01*
X0262361Y0287470D01*
X0262329Y0287533D01*
X0262293Y0287595D01*
X0262254Y0287654D01*
X0262213Y0287712D01*
X0262168Y0287767D01*
X0262120Y0287820D01*
X0262070Y0287870D01*
X0262016Y0287917D01*
X0261961Y0287962D01*
X0261903Y0288004D01*
X0261843Y0288042D01*
X0261782Y0288077D01*
X0261718Y0288109D01*
X0261653Y0288138D01*
X0261586Y0288163D01*
X0261518Y0288184D01*
X0261449Y0288202D01*
X0261380Y0288216D01*
X0261309Y0288226D01*
X0271270Y0286946D02*
X0272844Y0286946D01*
X0272844Y0286947D02*
X0272914Y0286946D01*
X0272983Y0286941D01*
X0273052Y0286933D01*
X0273121Y0286921D01*
X0273188Y0286905D01*
X0273255Y0286885D01*
X0273321Y0286861D01*
X0273385Y0286834D01*
X0273447Y0286804D01*
X0273508Y0286770D01*
X0273567Y0286733D01*
X0273624Y0286692D01*
X0273678Y0286649D01*
X0273730Y0286602D01*
X0273779Y0286553D01*
X0273826Y0286501D01*
X0273869Y0286447D01*
X0273910Y0286390D01*
X0273947Y0286331D01*
X0273981Y0286270D01*
X0274011Y0286208D01*
X0274038Y0286144D01*
X0274062Y0286078D01*
X0274082Y0286011D01*
X0274098Y0285944D01*
X0274110Y0285875D01*
X0274118Y0285806D01*
X0274123Y0285737D01*
X0274124Y0285667D01*
X0274122Y0285598D01*
X0274116Y0285529D01*
X0274107Y0285460D01*
X0274094Y0285392D01*
X0274077Y0285325D01*
X0274057Y0285258D01*
X0274033Y0285193D01*
X0274006Y0285130D01*
X0273975Y0285067D01*
X0273941Y0285007D01*
X0273903Y0284949D01*
X0273863Y0284892D01*
X0273820Y0284838D01*
X0273773Y0284787D01*
X0273724Y0284738D01*
X0273673Y0284691D01*
X0273619Y0284648D01*
X0273562Y0284608D01*
X0273504Y0284570D01*
X0273444Y0284536D01*
X0273381Y0284505D01*
X0273318Y0284478D01*
X0273253Y0284454D01*
X0273186Y0284434D01*
X0273119Y0284417D01*
X0273051Y0284404D01*
X0272982Y0284395D01*
X0272913Y0284389D01*
X0272844Y0284387D01*
X0271270Y0284387D01*
X0271203Y0284383D01*
X0271136Y0284383D01*
X0271068Y0284387D01*
X0271002Y0284395D01*
X0270935Y0284406D01*
X0270870Y0284422D01*
X0270805Y0284441D01*
X0270742Y0284463D01*
X0270680Y0284489D01*
X0270619Y0284519D01*
X0270561Y0284552D01*
X0270504Y0284588D01*
X0270450Y0284628D01*
X0270397Y0284670D01*
X0270348Y0284716D01*
X0270301Y0284764D01*
X0270257Y0284815D01*
X0270215Y0284868D01*
X0270177Y0284923D01*
X0270143Y0284981D01*
X0270111Y0285040D01*
X0270083Y0285102D01*
X0270058Y0285164D01*
X0270037Y0285228D01*
X0270020Y0285293D01*
X0270007Y0285359D01*
X0269997Y0285426D01*
X0269991Y0285493D01*
X0269989Y0285560D01*
X0269991Y0285627D01*
X0269990Y0285627D02*
X0269993Y0285700D01*
X0270000Y0285772D01*
X0270011Y0285843D01*
X0270025Y0285914D01*
X0270043Y0285984D01*
X0270066Y0286053D01*
X0270091Y0286121D01*
X0270121Y0286187D01*
X0270154Y0286251D01*
X0270190Y0286314D01*
X0270230Y0286374D01*
X0270273Y0286433D01*
X0270319Y0286488D01*
X0270368Y0286542D01*
X0270419Y0286592D01*
X0270474Y0286640D01*
X0270531Y0286685D01*
X0270590Y0286726D01*
X0270651Y0286764D01*
X0270715Y0286799D01*
X0270780Y0286831D01*
X0270847Y0286858D01*
X0270915Y0286883D01*
X0270984Y0286903D01*
X0271055Y0286920D01*
X0271126Y0286933D01*
X0271198Y0286942D01*
X0271270Y0286947D01*
X0271270Y0267813D02*
X0272844Y0267813D01*
X0272914Y0267812D01*
X0272983Y0267807D01*
X0273052Y0267799D01*
X0273121Y0267787D01*
X0273188Y0267771D01*
X0273255Y0267751D01*
X0273321Y0267727D01*
X0273385Y0267700D01*
X0273447Y0267670D01*
X0273508Y0267636D01*
X0273567Y0267599D01*
X0273624Y0267558D01*
X0273678Y0267515D01*
X0273730Y0267468D01*
X0273779Y0267419D01*
X0273826Y0267367D01*
X0273869Y0267313D01*
X0273910Y0267256D01*
X0273947Y0267197D01*
X0273981Y0267136D01*
X0274011Y0267074D01*
X0274038Y0267010D01*
X0274062Y0266944D01*
X0274082Y0266877D01*
X0274098Y0266810D01*
X0274110Y0266741D01*
X0274118Y0266672D01*
X0274123Y0266603D01*
X0274124Y0266533D01*
X0274122Y0266464D01*
X0274116Y0266395D01*
X0274107Y0266326D01*
X0274094Y0266258D01*
X0274077Y0266191D01*
X0274057Y0266124D01*
X0274033Y0266059D01*
X0274006Y0265996D01*
X0273975Y0265933D01*
X0273941Y0265873D01*
X0273903Y0265815D01*
X0273863Y0265758D01*
X0273820Y0265704D01*
X0273773Y0265653D01*
X0273724Y0265604D01*
X0273673Y0265557D01*
X0273619Y0265514D01*
X0273562Y0265474D01*
X0273504Y0265436D01*
X0273444Y0265402D01*
X0273381Y0265371D01*
X0273318Y0265344D01*
X0273253Y0265320D01*
X0273186Y0265300D01*
X0273119Y0265283D01*
X0273051Y0265270D01*
X0272982Y0265261D01*
X0272913Y0265255D01*
X0272844Y0265253D01*
X0272844Y0265254D02*
X0271270Y0265254D01*
X0271270Y0265253D02*
X0271203Y0265249D01*
X0271136Y0265249D01*
X0271068Y0265253D01*
X0271002Y0265261D01*
X0270935Y0265272D01*
X0270870Y0265288D01*
X0270805Y0265307D01*
X0270742Y0265329D01*
X0270680Y0265355D01*
X0270619Y0265385D01*
X0270561Y0265418D01*
X0270504Y0265454D01*
X0270450Y0265494D01*
X0270397Y0265536D01*
X0270348Y0265582D01*
X0270301Y0265630D01*
X0270257Y0265681D01*
X0270215Y0265734D01*
X0270177Y0265789D01*
X0270143Y0265847D01*
X0270111Y0265906D01*
X0270083Y0265968D01*
X0270058Y0266030D01*
X0270037Y0266094D01*
X0270020Y0266159D01*
X0270007Y0266225D01*
X0269997Y0266292D01*
X0269991Y0266359D01*
X0269989Y0266426D01*
X0269991Y0266493D01*
X0269990Y0266493D02*
X0269993Y0266566D01*
X0270000Y0266638D01*
X0270011Y0266709D01*
X0270025Y0266780D01*
X0270043Y0266850D01*
X0270066Y0266919D01*
X0270091Y0266987D01*
X0270121Y0267053D01*
X0270154Y0267117D01*
X0270190Y0267180D01*
X0270230Y0267240D01*
X0270273Y0267299D01*
X0270319Y0267354D01*
X0270368Y0267408D01*
X0270419Y0267458D01*
X0270474Y0267506D01*
X0270531Y0267551D01*
X0270590Y0267592D01*
X0270651Y0267630D01*
X0270715Y0267665D01*
X0270780Y0267697D01*
X0270847Y0267724D01*
X0270915Y0267749D01*
X0270984Y0267769D01*
X0271055Y0267786D01*
X0271126Y0267799D01*
X0271198Y0267808D01*
X0271270Y0267813D01*
X0261309Y0266730D02*
X0258947Y0266730D01*
X0258947Y0266729D02*
X0258876Y0266719D01*
X0258807Y0266705D01*
X0258738Y0266687D01*
X0258670Y0266666D01*
X0258603Y0266641D01*
X0258538Y0266612D01*
X0258474Y0266580D01*
X0258413Y0266545D01*
X0258353Y0266507D01*
X0258295Y0266465D01*
X0258240Y0266420D01*
X0258186Y0266373D01*
X0258136Y0266323D01*
X0258088Y0266270D01*
X0258043Y0266215D01*
X0258002Y0266157D01*
X0257963Y0266098D01*
X0257927Y0266036D01*
X0257895Y0265973D01*
X0257866Y0265907D01*
X0257841Y0265841D01*
X0257819Y0265773D01*
X0257801Y0265704D01*
X0257786Y0265635D01*
X0257776Y0265565D01*
X0257769Y0265494D01*
X0257765Y0265423D01*
X0257766Y0265352D01*
X0257766Y0265351D02*
X0257765Y0265280D01*
X0257769Y0265209D01*
X0257776Y0265138D01*
X0257786Y0265068D01*
X0257801Y0264999D01*
X0257819Y0264930D01*
X0257841Y0264862D01*
X0257866Y0264796D01*
X0257895Y0264730D01*
X0257927Y0264667D01*
X0257963Y0264605D01*
X0258002Y0264546D01*
X0258043Y0264488D01*
X0258088Y0264433D01*
X0258136Y0264380D01*
X0258186Y0264330D01*
X0258240Y0264283D01*
X0258295Y0264238D01*
X0258353Y0264196D01*
X0258413Y0264158D01*
X0258474Y0264123D01*
X0258538Y0264091D01*
X0258603Y0264062D01*
X0258670Y0264037D01*
X0258738Y0264016D01*
X0258807Y0263998D01*
X0258876Y0263984D01*
X0258947Y0263974D01*
X0261309Y0263974D01*
X0261380Y0263984D01*
X0261449Y0263998D01*
X0261518Y0264016D01*
X0261586Y0264037D01*
X0261653Y0264062D01*
X0261718Y0264091D01*
X0261782Y0264123D01*
X0261843Y0264158D01*
X0261903Y0264196D01*
X0261961Y0264238D01*
X0262016Y0264283D01*
X0262070Y0264330D01*
X0262120Y0264380D01*
X0262168Y0264433D01*
X0262213Y0264488D01*
X0262254Y0264546D01*
X0262293Y0264605D01*
X0262329Y0264667D01*
X0262361Y0264730D01*
X0262390Y0264796D01*
X0262415Y0264862D01*
X0262437Y0264930D01*
X0262455Y0264999D01*
X0262470Y0265068D01*
X0262480Y0265138D01*
X0262487Y0265209D01*
X0262491Y0265280D01*
X0262490Y0265351D01*
X0262490Y0265352D02*
X0262491Y0265423D01*
X0262487Y0265494D01*
X0262480Y0265565D01*
X0262470Y0265635D01*
X0262455Y0265704D01*
X0262437Y0265773D01*
X0262415Y0265841D01*
X0262390Y0265907D01*
X0262361Y0265973D01*
X0262329Y0266036D01*
X0262293Y0266098D01*
X0262254Y0266157D01*
X0262213Y0266215D01*
X0262168Y0266270D01*
X0262120Y0266323D01*
X0262070Y0266373D01*
X0262016Y0266420D01*
X0261961Y0266465D01*
X0261903Y0266507D01*
X0261843Y0266545D01*
X0261782Y0266580D01*
X0261718Y0266612D01*
X0261653Y0266641D01*
X0261586Y0266666D01*
X0261518Y0266687D01*
X0261449Y0266705D01*
X0261380Y0266719D01*
X0261309Y0266729D01*
X0261309Y0196226D02*
X0258947Y0196226D01*
X0258876Y0196216D01*
X0258807Y0196202D01*
X0258738Y0196184D01*
X0258670Y0196163D01*
X0258603Y0196138D01*
X0258538Y0196109D01*
X0258474Y0196077D01*
X0258413Y0196042D01*
X0258353Y0196004D01*
X0258295Y0195962D01*
X0258240Y0195917D01*
X0258186Y0195870D01*
X0258136Y0195820D01*
X0258088Y0195767D01*
X0258043Y0195712D01*
X0258002Y0195654D01*
X0257963Y0195595D01*
X0257927Y0195533D01*
X0257895Y0195470D01*
X0257866Y0195404D01*
X0257841Y0195338D01*
X0257819Y0195270D01*
X0257801Y0195201D01*
X0257786Y0195132D01*
X0257776Y0195062D01*
X0257769Y0194991D01*
X0257765Y0194920D01*
X0257766Y0194849D01*
X0257766Y0194848D02*
X0257765Y0194777D01*
X0257769Y0194706D01*
X0257776Y0194635D01*
X0257786Y0194565D01*
X0257801Y0194496D01*
X0257819Y0194427D01*
X0257841Y0194359D01*
X0257866Y0194293D01*
X0257895Y0194227D01*
X0257927Y0194164D01*
X0257963Y0194102D01*
X0258002Y0194043D01*
X0258043Y0193985D01*
X0258088Y0193930D01*
X0258136Y0193877D01*
X0258186Y0193827D01*
X0258240Y0193780D01*
X0258295Y0193735D01*
X0258353Y0193693D01*
X0258413Y0193655D01*
X0258474Y0193620D01*
X0258538Y0193588D01*
X0258603Y0193559D01*
X0258670Y0193534D01*
X0258738Y0193513D01*
X0258807Y0193495D01*
X0258876Y0193481D01*
X0258947Y0193471D01*
X0258947Y0193470D02*
X0261309Y0193470D01*
X0261309Y0193471D02*
X0261380Y0193481D01*
X0261449Y0193495D01*
X0261518Y0193513D01*
X0261586Y0193534D01*
X0261653Y0193559D01*
X0261718Y0193588D01*
X0261782Y0193620D01*
X0261843Y0193655D01*
X0261903Y0193693D01*
X0261961Y0193735D01*
X0262016Y0193780D01*
X0262070Y0193827D01*
X0262120Y0193877D01*
X0262168Y0193930D01*
X0262213Y0193985D01*
X0262254Y0194043D01*
X0262293Y0194102D01*
X0262329Y0194164D01*
X0262361Y0194227D01*
X0262390Y0194293D01*
X0262415Y0194359D01*
X0262437Y0194427D01*
X0262455Y0194496D01*
X0262470Y0194565D01*
X0262480Y0194635D01*
X0262487Y0194706D01*
X0262491Y0194777D01*
X0262490Y0194848D01*
X0262490Y0194849D02*
X0262491Y0194920D01*
X0262487Y0194991D01*
X0262480Y0195062D01*
X0262470Y0195132D01*
X0262455Y0195201D01*
X0262437Y0195270D01*
X0262415Y0195338D01*
X0262390Y0195404D01*
X0262361Y0195470D01*
X0262329Y0195533D01*
X0262293Y0195595D01*
X0262254Y0195654D01*
X0262213Y0195712D01*
X0262168Y0195767D01*
X0262120Y0195820D01*
X0262070Y0195870D01*
X0262016Y0195917D01*
X0261961Y0195962D01*
X0261903Y0196004D01*
X0261843Y0196042D01*
X0261782Y0196077D01*
X0261718Y0196109D01*
X0261653Y0196138D01*
X0261586Y0196163D01*
X0261518Y0196184D01*
X0261449Y0196202D01*
X0261380Y0196216D01*
X0261309Y0196226D01*
X0271270Y0194946D02*
X0272844Y0194946D01*
X0272844Y0194947D02*
X0272914Y0194946D01*
X0272983Y0194941D01*
X0273052Y0194933D01*
X0273121Y0194921D01*
X0273188Y0194905D01*
X0273255Y0194885D01*
X0273321Y0194861D01*
X0273385Y0194834D01*
X0273447Y0194804D01*
X0273508Y0194770D01*
X0273567Y0194733D01*
X0273624Y0194692D01*
X0273678Y0194649D01*
X0273730Y0194602D01*
X0273779Y0194553D01*
X0273826Y0194501D01*
X0273869Y0194447D01*
X0273910Y0194390D01*
X0273947Y0194331D01*
X0273981Y0194270D01*
X0274011Y0194208D01*
X0274038Y0194144D01*
X0274062Y0194078D01*
X0274082Y0194011D01*
X0274098Y0193944D01*
X0274110Y0193875D01*
X0274118Y0193806D01*
X0274123Y0193737D01*
X0274124Y0193667D01*
X0274122Y0193598D01*
X0274116Y0193529D01*
X0274107Y0193460D01*
X0274094Y0193392D01*
X0274077Y0193325D01*
X0274057Y0193258D01*
X0274033Y0193193D01*
X0274006Y0193130D01*
X0273975Y0193067D01*
X0273941Y0193007D01*
X0273903Y0192949D01*
X0273863Y0192892D01*
X0273820Y0192838D01*
X0273773Y0192787D01*
X0273724Y0192738D01*
X0273673Y0192691D01*
X0273619Y0192648D01*
X0273562Y0192608D01*
X0273504Y0192570D01*
X0273444Y0192536D01*
X0273381Y0192505D01*
X0273318Y0192478D01*
X0273253Y0192454D01*
X0273186Y0192434D01*
X0273119Y0192417D01*
X0273051Y0192404D01*
X0272982Y0192395D01*
X0272913Y0192389D01*
X0272844Y0192387D01*
X0271270Y0192387D01*
X0271203Y0192383D01*
X0271136Y0192383D01*
X0271068Y0192387D01*
X0271002Y0192395D01*
X0270935Y0192406D01*
X0270870Y0192422D01*
X0270805Y0192441D01*
X0270742Y0192463D01*
X0270680Y0192489D01*
X0270619Y0192519D01*
X0270561Y0192552D01*
X0270504Y0192588D01*
X0270450Y0192628D01*
X0270397Y0192670D01*
X0270348Y0192716D01*
X0270301Y0192764D01*
X0270257Y0192815D01*
X0270215Y0192868D01*
X0270177Y0192923D01*
X0270143Y0192981D01*
X0270111Y0193040D01*
X0270083Y0193102D01*
X0270058Y0193164D01*
X0270037Y0193228D01*
X0270020Y0193293D01*
X0270007Y0193359D01*
X0269997Y0193426D01*
X0269991Y0193493D01*
X0269989Y0193560D01*
X0269991Y0193627D01*
X0269990Y0193627D02*
X0269993Y0193700D01*
X0270000Y0193772D01*
X0270011Y0193843D01*
X0270025Y0193914D01*
X0270043Y0193984D01*
X0270066Y0194053D01*
X0270091Y0194121D01*
X0270121Y0194187D01*
X0270154Y0194251D01*
X0270190Y0194314D01*
X0270230Y0194374D01*
X0270273Y0194433D01*
X0270319Y0194488D01*
X0270368Y0194542D01*
X0270419Y0194592D01*
X0270474Y0194640D01*
X0270531Y0194685D01*
X0270590Y0194726D01*
X0270651Y0194764D01*
X0270715Y0194799D01*
X0270780Y0194831D01*
X0270847Y0194858D01*
X0270915Y0194883D01*
X0270984Y0194903D01*
X0271055Y0194920D01*
X0271126Y0194933D01*
X0271198Y0194942D01*
X0271270Y0194947D01*
X0271270Y0175813D02*
X0272844Y0175813D01*
X0272914Y0175812D01*
X0272983Y0175807D01*
X0273052Y0175799D01*
X0273121Y0175787D01*
X0273188Y0175771D01*
X0273255Y0175751D01*
X0273321Y0175727D01*
X0273385Y0175700D01*
X0273447Y0175670D01*
X0273508Y0175636D01*
X0273567Y0175599D01*
X0273624Y0175558D01*
X0273678Y0175515D01*
X0273730Y0175468D01*
X0273779Y0175419D01*
X0273826Y0175367D01*
X0273869Y0175313D01*
X0273910Y0175256D01*
X0273947Y0175197D01*
X0273981Y0175136D01*
X0274011Y0175074D01*
X0274038Y0175010D01*
X0274062Y0174944D01*
X0274082Y0174877D01*
X0274098Y0174810D01*
X0274110Y0174741D01*
X0274118Y0174672D01*
X0274123Y0174603D01*
X0274124Y0174533D01*
X0274122Y0174464D01*
X0274116Y0174395D01*
X0274107Y0174326D01*
X0274094Y0174258D01*
X0274077Y0174191D01*
X0274057Y0174124D01*
X0274033Y0174059D01*
X0274006Y0173996D01*
X0273975Y0173933D01*
X0273941Y0173873D01*
X0273903Y0173815D01*
X0273863Y0173758D01*
X0273820Y0173704D01*
X0273773Y0173653D01*
X0273724Y0173604D01*
X0273673Y0173557D01*
X0273619Y0173514D01*
X0273562Y0173474D01*
X0273504Y0173436D01*
X0273444Y0173402D01*
X0273381Y0173371D01*
X0273318Y0173344D01*
X0273253Y0173320D01*
X0273186Y0173300D01*
X0273119Y0173283D01*
X0273051Y0173270D01*
X0272982Y0173261D01*
X0272913Y0173255D01*
X0272844Y0173253D01*
X0272844Y0173254D02*
X0271270Y0173254D01*
X0271270Y0173253D02*
X0271203Y0173249D01*
X0271136Y0173249D01*
X0271068Y0173253D01*
X0271002Y0173261D01*
X0270935Y0173272D01*
X0270870Y0173288D01*
X0270805Y0173307D01*
X0270742Y0173329D01*
X0270680Y0173355D01*
X0270619Y0173385D01*
X0270561Y0173418D01*
X0270504Y0173454D01*
X0270450Y0173494D01*
X0270397Y0173536D01*
X0270348Y0173582D01*
X0270301Y0173630D01*
X0270257Y0173681D01*
X0270215Y0173734D01*
X0270177Y0173789D01*
X0270143Y0173847D01*
X0270111Y0173906D01*
X0270083Y0173968D01*
X0270058Y0174030D01*
X0270037Y0174094D01*
X0270020Y0174159D01*
X0270007Y0174225D01*
X0269997Y0174292D01*
X0269991Y0174359D01*
X0269989Y0174426D01*
X0269991Y0174493D01*
X0269990Y0174493D02*
X0269993Y0174566D01*
X0270000Y0174638D01*
X0270011Y0174709D01*
X0270025Y0174780D01*
X0270043Y0174850D01*
X0270066Y0174919D01*
X0270091Y0174987D01*
X0270121Y0175053D01*
X0270154Y0175117D01*
X0270190Y0175180D01*
X0270230Y0175240D01*
X0270273Y0175299D01*
X0270319Y0175354D01*
X0270368Y0175408D01*
X0270419Y0175458D01*
X0270474Y0175506D01*
X0270531Y0175551D01*
X0270590Y0175592D01*
X0270651Y0175630D01*
X0270715Y0175665D01*
X0270780Y0175697D01*
X0270847Y0175724D01*
X0270915Y0175749D01*
X0270984Y0175769D01*
X0271055Y0175786D01*
X0271126Y0175799D01*
X0271198Y0175808D01*
X0271270Y0175813D01*
X0261309Y0174730D02*
X0258947Y0174730D01*
X0258947Y0174729D02*
X0258876Y0174719D01*
X0258807Y0174705D01*
X0258738Y0174687D01*
X0258670Y0174666D01*
X0258603Y0174641D01*
X0258538Y0174612D01*
X0258474Y0174580D01*
X0258413Y0174545D01*
X0258353Y0174507D01*
X0258295Y0174465D01*
X0258240Y0174420D01*
X0258186Y0174373D01*
X0258136Y0174323D01*
X0258088Y0174270D01*
X0258043Y0174215D01*
X0258002Y0174157D01*
X0257963Y0174098D01*
X0257927Y0174036D01*
X0257895Y0173973D01*
X0257866Y0173907D01*
X0257841Y0173841D01*
X0257819Y0173773D01*
X0257801Y0173704D01*
X0257786Y0173635D01*
X0257776Y0173565D01*
X0257769Y0173494D01*
X0257765Y0173423D01*
X0257766Y0173352D01*
X0257766Y0173351D02*
X0257765Y0173280D01*
X0257769Y0173209D01*
X0257776Y0173138D01*
X0257786Y0173068D01*
X0257801Y0172999D01*
X0257819Y0172930D01*
X0257841Y0172862D01*
X0257866Y0172796D01*
X0257895Y0172730D01*
X0257927Y0172667D01*
X0257963Y0172605D01*
X0258002Y0172546D01*
X0258043Y0172488D01*
X0258088Y0172433D01*
X0258136Y0172380D01*
X0258186Y0172330D01*
X0258240Y0172283D01*
X0258295Y0172238D01*
X0258353Y0172196D01*
X0258413Y0172158D01*
X0258474Y0172123D01*
X0258538Y0172091D01*
X0258603Y0172062D01*
X0258670Y0172037D01*
X0258738Y0172016D01*
X0258807Y0171998D01*
X0258876Y0171984D01*
X0258947Y0171974D01*
X0261309Y0171974D01*
X0261380Y0171984D01*
X0261449Y0171998D01*
X0261518Y0172016D01*
X0261586Y0172037D01*
X0261653Y0172062D01*
X0261718Y0172091D01*
X0261782Y0172123D01*
X0261843Y0172158D01*
X0261903Y0172196D01*
X0261961Y0172238D01*
X0262016Y0172283D01*
X0262070Y0172330D01*
X0262120Y0172380D01*
X0262168Y0172433D01*
X0262213Y0172488D01*
X0262254Y0172546D01*
X0262293Y0172605D01*
X0262329Y0172667D01*
X0262361Y0172730D01*
X0262390Y0172796D01*
X0262415Y0172862D01*
X0262437Y0172930D01*
X0262455Y0172999D01*
X0262470Y0173068D01*
X0262480Y0173138D01*
X0262487Y0173209D01*
X0262491Y0173280D01*
X0262490Y0173351D01*
X0262490Y0173352D02*
X0262491Y0173423D01*
X0262487Y0173494D01*
X0262480Y0173565D01*
X0262470Y0173635D01*
X0262455Y0173704D01*
X0262437Y0173773D01*
X0262415Y0173841D01*
X0262390Y0173907D01*
X0262361Y0173973D01*
X0262329Y0174036D01*
X0262293Y0174098D01*
X0262254Y0174157D01*
X0262213Y0174215D01*
X0262168Y0174270D01*
X0262120Y0174323D01*
X0262070Y0174373D01*
X0262016Y0174420D01*
X0261961Y0174465D01*
X0261903Y0174507D01*
X0261843Y0174545D01*
X0261782Y0174580D01*
X0261718Y0174612D01*
X0261653Y0174641D01*
X0261586Y0174666D01*
X0261518Y0174687D01*
X0261449Y0174705D01*
X0261380Y0174719D01*
X0261309Y0174729D01*
X0261309Y0104226D02*
X0258947Y0104226D01*
X0258876Y0104216D01*
X0258807Y0104202D01*
X0258738Y0104184D01*
X0258670Y0104163D01*
X0258603Y0104138D01*
X0258538Y0104109D01*
X0258474Y0104077D01*
X0258413Y0104042D01*
X0258353Y0104004D01*
X0258295Y0103962D01*
X0258240Y0103917D01*
X0258186Y0103870D01*
X0258136Y0103820D01*
X0258088Y0103767D01*
X0258043Y0103712D01*
X0258002Y0103654D01*
X0257963Y0103595D01*
X0257927Y0103533D01*
X0257895Y0103470D01*
X0257866Y0103404D01*
X0257841Y0103338D01*
X0257819Y0103270D01*
X0257801Y0103201D01*
X0257786Y0103132D01*
X0257776Y0103062D01*
X0257769Y0102991D01*
X0257765Y0102920D01*
X0257766Y0102849D01*
X0257766Y0102848D02*
X0257765Y0102777D01*
X0257769Y0102706D01*
X0257776Y0102635D01*
X0257786Y0102565D01*
X0257801Y0102496D01*
X0257819Y0102427D01*
X0257841Y0102359D01*
X0257866Y0102293D01*
X0257895Y0102227D01*
X0257927Y0102164D01*
X0257963Y0102102D01*
X0258002Y0102043D01*
X0258043Y0101985D01*
X0258088Y0101930D01*
X0258136Y0101877D01*
X0258186Y0101827D01*
X0258240Y0101780D01*
X0258295Y0101735D01*
X0258353Y0101693D01*
X0258413Y0101655D01*
X0258474Y0101620D01*
X0258538Y0101588D01*
X0258603Y0101559D01*
X0258670Y0101534D01*
X0258738Y0101513D01*
X0258807Y0101495D01*
X0258876Y0101481D01*
X0258947Y0101471D01*
X0258947Y0101470D02*
X0261309Y0101470D01*
X0261309Y0101471D02*
X0261380Y0101481D01*
X0261449Y0101495D01*
X0261518Y0101513D01*
X0261586Y0101534D01*
X0261653Y0101559D01*
X0261718Y0101588D01*
X0261782Y0101620D01*
X0261843Y0101655D01*
X0261903Y0101693D01*
X0261961Y0101735D01*
X0262016Y0101780D01*
X0262070Y0101827D01*
X0262120Y0101877D01*
X0262168Y0101930D01*
X0262213Y0101985D01*
X0262254Y0102043D01*
X0262293Y0102102D01*
X0262329Y0102164D01*
X0262361Y0102227D01*
X0262390Y0102293D01*
X0262415Y0102359D01*
X0262437Y0102427D01*
X0262455Y0102496D01*
X0262470Y0102565D01*
X0262480Y0102635D01*
X0262487Y0102706D01*
X0262491Y0102777D01*
X0262490Y0102848D01*
X0262490Y0102849D02*
X0262491Y0102920D01*
X0262487Y0102991D01*
X0262480Y0103062D01*
X0262470Y0103132D01*
X0262455Y0103201D01*
X0262437Y0103270D01*
X0262415Y0103338D01*
X0262390Y0103404D01*
X0262361Y0103470D01*
X0262329Y0103533D01*
X0262293Y0103595D01*
X0262254Y0103654D01*
X0262213Y0103712D01*
X0262168Y0103767D01*
X0262120Y0103820D01*
X0262070Y0103870D01*
X0262016Y0103917D01*
X0261961Y0103962D01*
X0261903Y0104004D01*
X0261843Y0104042D01*
X0261782Y0104077D01*
X0261718Y0104109D01*
X0261653Y0104138D01*
X0261586Y0104163D01*
X0261518Y0104184D01*
X0261449Y0104202D01*
X0261380Y0104216D01*
X0261309Y0104226D01*
X0271270Y0102946D02*
X0272844Y0102946D01*
X0272844Y0102947D02*
X0272914Y0102946D01*
X0272983Y0102941D01*
X0273052Y0102933D01*
X0273121Y0102921D01*
X0273188Y0102905D01*
X0273255Y0102885D01*
X0273321Y0102861D01*
X0273385Y0102834D01*
X0273447Y0102804D01*
X0273508Y0102770D01*
X0273567Y0102733D01*
X0273624Y0102692D01*
X0273678Y0102649D01*
X0273730Y0102602D01*
X0273779Y0102553D01*
X0273826Y0102501D01*
X0273869Y0102447D01*
X0273910Y0102390D01*
X0273947Y0102331D01*
X0273981Y0102270D01*
X0274011Y0102208D01*
X0274038Y0102144D01*
X0274062Y0102078D01*
X0274082Y0102011D01*
X0274098Y0101944D01*
X0274110Y0101875D01*
X0274118Y0101806D01*
X0274123Y0101737D01*
X0274124Y0101667D01*
X0274122Y0101598D01*
X0274116Y0101529D01*
X0274107Y0101460D01*
X0274094Y0101392D01*
X0274077Y0101325D01*
X0274057Y0101258D01*
X0274033Y0101193D01*
X0274006Y0101130D01*
X0273975Y0101067D01*
X0273941Y0101007D01*
X0273903Y0100949D01*
X0273863Y0100892D01*
X0273820Y0100838D01*
X0273773Y0100787D01*
X0273724Y0100738D01*
X0273673Y0100691D01*
X0273619Y0100648D01*
X0273562Y0100608D01*
X0273504Y0100570D01*
X0273444Y0100536D01*
X0273381Y0100505D01*
X0273318Y0100478D01*
X0273253Y0100454D01*
X0273186Y0100434D01*
X0273119Y0100417D01*
X0273051Y0100404D01*
X0272982Y0100395D01*
X0272913Y0100389D01*
X0272844Y0100387D01*
X0271270Y0100387D01*
X0271203Y0100383D01*
X0271136Y0100383D01*
X0271068Y0100387D01*
X0271002Y0100395D01*
X0270935Y0100406D01*
X0270870Y0100422D01*
X0270805Y0100441D01*
X0270742Y0100463D01*
X0270680Y0100489D01*
X0270619Y0100519D01*
X0270561Y0100552D01*
X0270504Y0100588D01*
X0270450Y0100628D01*
X0270397Y0100670D01*
X0270348Y0100716D01*
X0270301Y0100764D01*
X0270257Y0100815D01*
X0270215Y0100868D01*
X0270177Y0100923D01*
X0270143Y0100981D01*
X0270111Y0101040D01*
X0270083Y0101102D01*
X0270058Y0101164D01*
X0270037Y0101228D01*
X0270020Y0101293D01*
X0270007Y0101359D01*
X0269997Y0101426D01*
X0269991Y0101493D01*
X0269989Y0101560D01*
X0269991Y0101627D01*
X0269990Y0101627D02*
X0269993Y0101700D01*
X0270000Y0101772D01*
X0270011Y0101843D01*
X0270025Y0101914D01*
X0270043Y0101984D01*
X0270066Y0102053D01*
X0270091Y0102121D01*
X0270121Y0102187D01*
X0270154Y0102251D01*
X0270190Y0102314D01*
X0270230Y0102374D01*
X0270273Y0102433D01*
X0270319Y0102488D01*
X0270368Y0102542D01*
X0270419Y0102592D01*
X0270474Y0102640D01*
X0270531Y0102685D01*
X0270590Y0102726D01*
X0270651Y0102764D01*
X0270715Y0102799D01*
X0270780Y0102831D01*
X0270847Y0102858D01*
X0270915Y0102883D01*
X0270984Y0102903D01*
X0271055Y0102920D01*
X0271126Y0102933D01*
X0271198Y0102942D01*
X0271270Y0102947D01*
X0271270Y0083813D02*
X0272844Y0083813D01*
X0272914Y0083812D01*
X0272983Y0083807D01*
X0273052Y0083799D01*
X0273121Y0083787D01*
X0273188Y0083771D01*
X0273255Y0083751D01*
X0273321Y0083727D01*
X0273385Y0083700D01*
X0273447Y0083670D01*
X0273508Y0083636D01*
X0273567Y0083599D01*
X0273624Y0083558D01*
X0273678Y0083515D01*
X0273730Y0083468D01*
X0273779Y0083419D01*
X0273826Y0083367D01*
X0273869Y0083313D01*
X0273910Y0083256D01*
X0273947Y0083197D01*
X0273981Y0083136D01*
X0274011Y0083074D01*
X0274038Y0083010D01*
X0274062Y0082944D01*
X0274082Y0082877D01*
X0274098Y0082810D01*
X0274110Y0082741D01*
X0274118Y0082672D01*
X0274123Y0082603D01*
X0274124Y0082533D01*
X0274122Y0082464D01*
X0274116Y0082395D01*
X0274107Y0082326D01*
X0274094Y0082258D01*
X0274077Y0082191D01*
X0274057Y0082124D01*
X0274033Y0082059D01*
X0274006Y0081996D01*
X0273975Y0081933D01*
X0273941Y0081873D01*
X0273903Y0081815D01*
X0273863Y0081758D01*
X0273820Y0081704D01*
X0273773Y0081653D01*
X0273724Y0081604D01*
X0273673Y0081557D01*
X0273619Y0081514D01*
X0273562Y0081474D01*
X0273504Y0081436D01*
X0273444Y0081402D01*
X0273381Y0081371D01*
X0273318Y0081344D01*
X0273253Y0081320D01*
X0273186Y0081300D01*
X0273119Y0081283D01*
X0273051Y0081270D01*
X0272982Y0081261D01*
X0272913Y0081255D01*
X0272844Y0081253D01*
X0272844Y0081254D02*
X0271270Y0081254D01*
X0271270Y0081253D02*
X0271203Y0081249D01*
X0271136Y0081249D01*
X0271068Y0081253D01*
X0271002Y0081261D01*
X0270935Y0081272D01*
X0270870Y0081288D01*
X0270805Y0081307D01*
X0270742Y0081329D01*
X0270680Y0081355D01*
X0270619Y0081385D01*
X0270561Y0081418D01*
X0270504Y0081454D01*
X0270450Y0081494D01*
X0270397Y0081536D01*
X0270348Y0081582D01*
X0270301Y0081630D01*
X0270257Y0081681D01*
X0270215Y0081734D01*
X0270177Y0081789D01*
X0270143Y0081847D01*
X0270111Y0081906D01*
X0270083Y0081968D01*
X0270058Y0082030D01*
X0270037Y0082094D01*
X0270020Y0082159D01*
X0270007Y0082225D01*
X0269997Y0082292D01*
X0269991Y0082359D01*
X0269989Y0082426D01*
X0269991Y0082493D01*
X0269990Y0082493D02*
X0269993Y0082566D01*
X0270000Y0082638D01*
X0270011Y0082709D01*
X0270025Y0082780D01*
X0270043Y0082850D01*
X0270066Y0082919D01*
X0270091Y0082987D01*
X0270121Y0083053D01*
X0270154Y0083117D01*
X0270190Y0083180D01*
X0270230Y0083240D01*
X0270273Y0083299D01*
X0270319Y0083354D01*
X0270368Y0083408D01*
X0270419Y0083458D01*
X0270474Y0083506D01*
X0270531Y0083551D01*
X0270590Y0083592D01*
X0270651Y0083630D01*
X0270715Y0083665D01*
X0270780Y0083697D01*
X0270847Y0083724D01*
X0270915Y0083749D01*
X0270984Y0083769D01*
X0271055Y0083786D01*
X0271126Y0083799D01*
X0271198Y0083808D01*
X0271270Y0083813D01*
X0261309Y0082730D02*
X0258947Y0082730D01*
X0258947Y0082729D02*
X0258876Y0082719D01*
X0258807Y0082705D01*
X0258738Y0082687D01*
X0258670Y0082666D01*
X0258603Y0082641D01*
X0258538Y0082612D01*
X0258474Y0082580D01*
X0258413Y0082545D01*
X0258353Y0082507D01*
X0258295Y0082465D01*
X0258240Y0082420D01*
X0258186Y0082373D01*
X0258136Y0082323D01*
X0258088Y0082270D01*
X0258043Y0082215D01*
X0258002Y0082157D01*
X0257963Y0082098D01*
X0257927Y0082036D01*
X0257895Y0081973D01*
X0257866Y0081907D01*
X0257841Y0081841D01*
X0257819Y0081773D01*
X0257801Y0081704D01*
X0257786Y0081635D01*
X0257776Y0081565D01*
X0257769Y0081494D01*
X0257765Y0081423D01*
X0257766Y0081352D01*
X0257766Y0081351D02*
X0257765Y0081280D01*
X0257769Y0081209D01*
X0257776Y0081138D01*
X0257786Y0081068D01*
X0257801Y0080999D01*
X0257819Y0080930D01*
X0257841Y0080862D01*
X0257866Y0080796D01*
X0257895Y0080730D01*
X0257927Y0080667D01*
X0257963Y0080605D01*
X0258002Y0080546D01*
X0258043Y0080488D01*
X0258088Y0080433D01*
X0258136Y0080380D01*
X0258186Y0080330D01*
X0258240Y0080283D01*
X0258295Y0080238D01*
X0258353Y0080196D01*
X0258413Y0080158D01*
X0258474Y0080123D01*
X0258538Y0080091D01*
X0258603Y0080062D01*
X0258670Y0080037D01*
X0258738Y0080016D01*
X0258807Y0079998D01*
X0258876Y0079984D01*
X0258947Y0079974D01*
X0261309Y0079974D01*
X0261380Y0079984D01*
X0261449Y0079998D01*
X0261518Y0080016D01*
X0261586Y0080037D01*
X0261653Y0080062D01*
X0261718Y0080091D01*
X0261782Y0080123D01*
X0261843Y0080158D01*
X0261903Y0080196D01*
X0261961Y0080238D01*
X0262016Y0080283D01*
X0262070Y0080330D01*
X0262120Y0080380D01*
X0262168Y0080433D01*
X0262213Y0080488D01*
X0262254Y0080546D01*
X0262293Y0080605D01*
X0262329Y0080667D01*
X0262361Y0080730D01*
X0262390Y0080796D01*
X0262415Y0080862D01*
X0262437Y0080930D01*
X0262455Y0080999D01*
X0262470Y0081068D01*
X0262480Y0081138D01*
X0262487Y0081209D01*
X0262491Y0081280D01*
X0262490Y0081351D01*
X0262490Y0081352D02*
X0262491Y0081423D01*
X0262487Y0081494D01*
X0262480Y0081565D01*
X0262470Y0081635D01*
X0262455Y0081704D01*
X0262437Y0081773D01*
X0262415Y0081841D01*
X0262390Y0081907D01*
X0262361Y0081973D01*
X0262329Y0082036D01*
X0262293Y0082098D01*
X0262254Y0082157D01*
X0262213Y0082215D01*
X0262168Y0082270D01*
X0262120Y0082323D01*
X0262070Y0082373D01*
X0262016Y0082420D01*
X0261961Y0082465D01*
X0261903Y0082507D01*
X0261843Y0082545D01*
X0261782Y0082580D01*
X0261718Y0082612D01*
X0261653Y0082641D01*
X0261586Y0082666D01*
X0261518Y0082687D01*
X0261449Y0082705D01*
X0261380Y0082719D01*
X0261309Y0082729D01*
X0069124Y0082533D02*
X0069123Y0082603D01*
X0069118Y0082672D01*
X0069110Y0082741D01*
X0069098Y0082810D01*
X0069082Y0082877D01*
X0069062Y0082944D01*
X0069038Y0083010D01*
X0069011Y0083074D01*
X0068981Y0083136D01*
X0068947Y0083197D01*
X0068910Y0083256D01*
X0068869Y0083313D01*
X0068826Y0083367D01*
X0068779Y0083419D01*
X0068730Y0083468D01*
X0068678Y0083515D01*
X0068624Y0083558D01*
X0068567Y0083599D01*
X0068508Y0083636D01*
X0068447Y0083670D01*
X0068385Y0083700D01*
X0068321Y0083727D01*
X0068255Y0083751D01*
X0068188Y0083771D01*
X0068121Y0083787D01*
X0068052Y0083799D01*
X0067983Y0083807D01*
X0067914Y0083812D01*
X0067844Y0083813D01*
X0066270Y0083813D01*
X0066198Y0083808D01*
X0066126Y0083799D01*
X0066055Y0083786D01*
X0065984Y0083769D01*
X0065915Y0083749D01*
X0065847Y0083724D01*
X0065780Y0083697D01*
X0065715Y0083665D01*
X0065651Y0083630D01*
X0065590Y0083592D01*
X0065531Y0083551D01*
X0065474Y0083506D01*
X0065419Y0083458D01*
X0065368Y0083408D01*
X0065319Y0083354D01*
X0065273Y0083299D01*
X0065230Y0083240D01*
X0065190Y0083180D01*
X0065154Y0083117D01*
X0065121Y0083053D01*
X0065091Y0082987D01*
X0065066Y0082919D01*
X0065043Y0082850D01*
X0065025Y0082780D01*
X0065011Y0082709D01*
X0065000Y0082638D01*
X0064993Y0082566D01*
X0064990Y0082493D01*
X0064991Y0082493D02*
X0064989Y0082426D01*
X0064991Y0082359D01*
X0064997Y0082292D01*
X0065007Y0082225D01*
X0065020Y0082159D01*
X0065037Y0082094D01*
X0065058Y0082030D01*
X0065083Y0081968D01*
X0065111Y0081906D01*
X0065143Y0081847D01*
X0065177Y0081789D01*
X0065215Y0081734D01*
X0065257Y0081681D01*
X0065301Y0081630D01*
X0065348Y0081582D01*
X0065397Y0081536D01*
X0065450Y0081494D01*
X0065504Y0081454D01*
X0065561Y0081418D01*
X0065619Y0081385D01*
X0065680Y0081355D01*
X0065742Y0081329D01*
X0065805Y0081307D01*
X0065870Y0081288D01*
X0065935Y0081272D01*
X0066002Y0081261D01*
X0066068Y0081253D01*
X0066136Y0081249D01*
X0066203Y0081249D01*
X0066270Y0081253D01*
X0066270Y0081254D02*
X0067844Y0081254D01*
X0067844Y0081253D02*
X0067913Y0081255D01*
X0067982Y0081261D01*
X0068051Y0081270D01*
X0068119Y0081283D01*
X0068186Y0081300D01*
X0068253Y0081320D01*
X0068318Y0081344D01*
X0068381Y0081371D01*
X0068444Y0081402D01*
X0068504Y0081436D01*
X0068562Y0081474D01*
X0068619Y0081514D01*
X0068673Y0081557D01*
X0068724Y0081604D01*
X0068773Y0081653D01*
X0068820Y0081704D01*
X0068863Y0081758D01*
X0068903Y0081815D01*
X0068941Y0081873D01*
X0068975Y0081933D01*
X0069006Y0081996D01*
X0069033Y0082059D01*
X0069057Y0082124D01*
X0069077Y0082191D01*
X0069094Y0082258D01*
X0069107Y0082326D01*
X0069116Y0082395D01*
X0069122Y0082464D01*
X0069124Y0082533D01*
X0056309Y0082730D02*
X0053947Y0082730D01*
X0053947Y0082729D02*
X0053876Y0082719D01*
X0053807Y0082705D01*
X0053738Y0082687D01*
X0053670Y0082666D01*
X0053603Y0082641D01*
X0053538Y0082612D01*
X0053474Y0082580D01*
X0053413Y0082545D01*
X0053353Y0082507D01*
X0053295Y0082465D01*
X0053240Y0082420D01*
X0053186Y0082373D01*
X0053136Y0082323D01*
X0053088Y0082270D01*
X0053043Y0082215D01*
X0053002Y0082157D01*
X0052963Y0082098D01*
X0052927Y0082036D01*
X0052895Y0081973D01*
X0052866Y0081907D01*
X0052841Y0081841D01*
X0052819Y0081773D01*
X0052801Y0081704D01*
X0052786Y0081635D01*
X0052776Y0081565D01*
X0052769Y0081494D01*
X0052765Y0081423D01*
X0052766Y0081352D01*
X0052766Y0081351D02*
X0052765Y0081280D01*
X0052769Y0081209D01*
X0052776Y0081138D01*
X0052786Y0081068D01*
X0052801Y0080999D01*
X0052819Y0080930D01*
X0052841Y0080862D01*
X0052866Y0080796D01*
X0052895Y0080730D01*
X0052927Y0080667D01*
X0052963Y0080605D01*
X0053002Y0080546D01*
X0053043Y0080488D01*
X0053088Y0080433D01*
X0053136Y0080380D01*
X0053186Y0080330D01*
X0053240Y0080283D01*
X0053295Y0080238D01*
X0053353Y0080196D01*
X0053413Y0080158D01*
X0053474Y0080123D01*
X0053538Y0080091D01*
X0053603Y0080062D01*
X0053670Y0080037D01*
X0053738Y0080016D01*
X0053807Y0079998D01*
X0053876Y0079984D01*
X0053947Y0079974D01*
X0056309Y0079974D01*
X0056380Y0079984D01*
X0056449Y0079998D01*
X0056518Y0080016D01*
X0056586Y0080037D01*
X0056653Y0080062D01*
X0056718Y0080091D01*
X0056782Y0080123D01*
X0056843Y0080158D01*
X0056903Y0080196D01*
X0056961Y0080238D01*
X0057016Y0080283D01*
X0057070Y0080330D01*
X0057120Y0080380D01*
X0057168Y0080433D01*
X0057213Y0080488D01*
X0057254Y0080546D01*
X0057293Y0080605D01*
X0057329Y0080667D01*
X0057361Y0080730D01*
X0057390Y0080796D01*
X0057415Y0080862D01*
X0057437Y0080930D01*
X0057455Y0080999D01*
X0057470Y0081068D01*
X0057480Y0081138D01*
X0057487Y0081209D01*
X0057491Y0081280D01*
X0057490Y0081351D01*
X0057490Y0081352D02*
X0057491Y0081423D01*
X0057487Y0081494D01*
X0057480Y0081565D01*
X0057470Y0081635D01*
X0057455Y0081704D01*
X0057437Y0081773D01*
X0057415Y0081841D01*
X0057390Y0081907D01*
X0057361Y0081973D01*
X0057329Y0082036D01*
X0057293Y0082098D01*
X0057254Y0082157D01*
X0057213Y0082215D01*
X0057168Y0082270D01*
X0057120Y0082323D01*
X0057070Y0082373D01*
X0057016Y0082420D01*
X0056961Y0082465D01*
X0056903Y0082507D01*
X0056843Y0082545D01*
X0056782Y0082580D01*
X0056718Y0082612D01*
X0056653Y0082641D01*
X0056586Y0082666D01*
X0056518Y0082687D01*
X0056449Y0082705D01*
X0056380Y0082719D01*
X0056309Y0082729D01*
X0056309Y0101470D02*
X0053947Y0101470D01*
X0053947Y0101471D02*
X0053876Y0101481D01*
X0053807Y0101495D01*
X0053738Y0101513D01*
X0053670Y0101534D01*
X0053603Y0101559D01*
X0053538Y0101588D01*
X0053474Y0101620D01*
X0053413Y0101655D01*
X0053353Y0101693D01*
X0053295Y0101735D01*
X0053240Y0101780D01*
X0053186Y0101827D01*
X0053136Y0101877D01*
X0053088Y0101930D01*
X0053043Y0101985D01*
X0053002Y0102043D01*
X0052963Y0102102D01*
X0052927Y0102164D01*
X0052895Y0102227D01*
X0052866Y0102293D01*
X0052841Y0102359D01*
X0052819Y0102427D01*
X0052801Y0102496D01*
X0052786Y0102565D01*
X0052776Y0102635D01*
X0052769Y0102706D01*
X0052765Y0102777D01*
X0052766Y0102848D01*
X0052766Y0102849D02*
X0052765Y0102920D01*
X0052769Y0102991D01*
X0052776Y0103062D01*
X0052786Y0103132D01*
X0052801Y0103201D01*
X0052819Y0103270D01*
X0052841Y0103338D01*
X0052866Y0103404D01*
X0052895Y0103470D01*
X0052927Y0103533D01*
X0052963Y0103595D01*
X0053002Y0103654D01*
X0053043Y0103712D01*
X0053088Y0103767D01*
X0053136Y0103820D01*
X0053186Y0103870D01*
X0053240Y0103917D01*
X0053295Y0103962D01*
X0053353Y0104004D01*
X0053413Y0104042D01*
X0053474Y0104077D01*
X0053538Y0104109D01*
X0053603Y0104138D01*
X0053670Y0104163D01*
X0053738Y0104184D01*
X0053807Y0104202D01*
X0053876Y0104216D01*
X0053947Y0104226D01*
X0056309Y0104226D01*
X0056380Y0104216D01*
X0056449Y0104202D01*
X0056518Y0104184D01*
X0056586Y0104163D01*
X0056653Y0104138D01*
X0056718Y0104109D01*
X0056782Y0104077D01*
X0056843Y0104042D01*
X0056903Y0104004D01*
X0056961Y0103962D01*
X0057016Y0103917D01*
X0057070Y0103870D01*
X0057120Y0103820D01*
X0057168Y0103767D01*
X0057213Y0103712D01*
X0057254Y0103654D01*
X0057293Y0103595D01*
X0057329Y0103533D01*
X0057361Y0103470D01*
X0057390Y0103404D01*
X0057415Y0103338D01*
X0057437Y0103270D01*
X0057455Y0103201D01*
X0057470Y0103132D01*
X0057480Y0103062D01*
X0057487Y0102991D01*
X0057491Y0102920D01*
X0057490Y0102849D01*
X0057490Y0102848D02*
X0057491Y0102777D01*
X0057487Y0102706D01*
X0057480Y0102635D01*
X0057470Y0102565D01*
X0057455Y0102496D01*
X0057437Y0102427D01*
X0057415Y0102359D01*
X0057390Y0102293D01*
X0057361Y0102227D01*
X0057329Y0102164D01*
X0057293Y0102102D01*
X0057254Y0102043D01*
X0057213Y0101985D01*
X0057168Y0101930D01*
X0057120Y0101877D01*
X0057070Y0101827D01*
X0057016Y0101780D01*
X0056961Y0101735D01*
X0056903Y0101693D01*
X0056843Y0101655D01*
X0056782Y0101620D01*
X0056718Y0101588D01*
X0056653Y0101559D01*
X0056586Y0101534D01*
X0056518Y0101513D01*
X0056449Y0101495D01*
X0056380Y0101481D01*
X0056309Y0101471D01*
X0064991Y0101627D02*
X0064989Y0101560D01*
X0064991Y0101493D01*
X0064997Y0101426D01*
X0065007Y0101359D01*
X0065020Y0101293D01*
X0065037Y0101228D01*
X0065058Y0101164D01*
X0065083Y0101102D01*
X0065111Y0101040D01*
X0065143Y0100981D01*
X0065177Y0100923D01*
X0065215Y0100868D01*
X0065257Y0100815D01*
X0065301Y0100764D01*
X0065348Y0100716D01*
X0065397Y0100670D01*
X0065450Y0100628D01*
X0065504Y0100588D01*
X0065561Y0100552D01*
X0065619Y0100519D01*
X0065680Y0100489D01*
X0065742Y0100463D01*
X0065805Y0100441D01*
X0065870Y0100422D01*
X0065935Y0100406D01*
X0066002Y0100395D01*
X0066068Y0100387D01*
X0066136Y0100383D01*
X0066203Y0100383D01*
X0066270Y0100387D01*
X0067844Y0100387D01*
X0067913Y0100389D01*
X0067982Y0100395D01*
X0068051Y0100404D01*
X0068119Y0100417D01*
X0068186Y0100434D01*
X0068253Y0100454D01*
X0068318Y0100478D01*
X0068381Y0100505D01*
X0068444Y0100536D01*
X0068504Y0100570D01*
X0068562Y0100608D01*
X0068619Y0100648D01*
X0068673Y0100691D01*
X0068724Y0100738D01*
X0068773Y0100787D01*
X0068820Y0100838D01*
X0068863Y0100892D01*
X0068903Y0100949D01*
X0068941Y0101007D01*
X0068975Y0101067D01*
X0069006Y0101130D01*
X0069033Y0101193D01*
X0069057Y0101258D01*
X0069077Y0101325D01*
X0069094Y0101392D01*
X0069107Y0101460D01*
X0069116Y0101529D01*
X0069122Y0101598D01*
X0069124Y0101667D01*
X0069123Y0101737D01*
X0069118Y0101806D01*
X0069110Y0101875D01*
X0069098Y0101944D01*
X0069082Y0102011D01*
X0069062Y0102078D01*
X0069038Y0102144D01*
X0069011Y0102208D01*
X0068981Y0102270D01*
X0068947Y0102331D01*
X0068910Y0102390D01*
X0068869Y0102447D01*
X0068826Y0102501D01*
X0068779Y0102553D01*
X0068730Y0102602D01*
X0068678Y0102649D01*
X0068624Y0102692D01*
X0068567Y0102733D01*
X0068508Y0102770D01*
X0068447Y0102804D01*
X0068385Y0102834D01*
X0068321Y0102861D01*
X0068255Y0102885D01*
X0068188Y0102905D01*
X0068121Y0102921D01*
X0068052Y0102933D01*
X0067983Y0102941D01*
X0067914Y0102946D01*
X0067844Y0102947D01*
X0067844Y0102946D02*
X0066270Y0102946D01*
X0066270Y0102947D02*
X0066198Y0102942D01*
X0066126Y0102933D01*
X0066055Y0102920D01*
X0065984Y0102903D01*
X0065915Y0102883D01*
X0065847Y0102858D01*
X0065780Y0102831D01*
X0065715Y0102799D01*
X0065651Y0102764D01*
X0065590Y0102726D01*
X0065531Y0102685D01*
X0065474Y0102640D01*
X0065419Y0102592D01*
X0065368Y0102542D01*
X0065319Y0102488D01*
X0065273Y0102433D01*
X0065230Y0102374D01*
X0065190Y0102314D01*
X0065154Y0102251D01*
X0065121Y0102187D01*
X0065091Y0102121D01*
X0065066Y0102053D01*
X0065043Y0101984D01*
X0065025Y0101914D01*
X0065011Y0101843D01*
X0065000Y0101772D01*
X0064993Y0101700D01*
X0064990Y0101627D01*
X0056309Y0171974D02*
X0053947Y0171974D01*
X0053876Y0171984D01*
X0053807Y0171998D01*
X0053738Y0172016D01*
X0053670Y0172037D01*
X0053603Y0172062D01*
X0053538Y0172091D01*
X0053474Y0172123D01*
X0053413Y0172158D01*
X0053353Y0172196D01*
X0053295Y0172238D01*
X0053240Y0172283D01*
X0053186Y0172330D01*
X0053136Y0172380D01*
X0053088Y0172433D01*
X0053043Y0172488D01*
X0053002Y0172546D01*
X0052963Y0172605D01*
X0052927Y0172667D01*
X0052895Y0172730D01*
X0052866Y0172796D01*
X0052841Y0172862D01*
X0052819Y0172930D01*
X0052801Y0172999D01*
X0052786Y0173068D01*
X0052776Y0173138D01*
X0052769Y0173209D01*
X0052765Y0173280D01*
X0052766Y0173351D01*
X0052766Y0173352D02*
X0052765Y0173423D01*
X0052769Y0173494D01*
X0052776Y0173565D01*
X0052786Y0173635D01*
X0052801Y0173704D01*
X0052819Y0173773D01*
X0052841Y0173841D01*
X0052866Y0173907D01*
X0052895Y0173973D01*
X0052927Y0174036D01*
X0052963Y0174098D01*
X0053002Y0174157D01*
X0053043Y0174215D01*
X0053088Y0174270D01*
X0053136Y0174323D01*
X0053186Y0174373D01*
X0053240Y0174420D01*
X0053295Y0174465D01*
X0053353Y0174507D01*
X0053413Y0174545D01*
X0053474Y0174580D01*
X0053538Y0174612D01*
X0053603Y0174641D01*
X0053670Y0174666D01*
X0053738Y0174687D01*
X0053807Y0174705D01*
X0053876Y0174719D01*
X0053947Y0174729D01*
X0053947Y0174730D02*
X0056309Y0174730D01*
X0056309Y0174729D02*
X0056380Y0174719D01*
X0056449Y0174705D01*
X0056518Y0174687D01*
X0056586Y0174666D01*
X0056653Y0174641D01*
X0056718Y0174612D01*
X0056782Y0174580D01*
X0056843Y0174545D01*
X0056903Y0174507D01*
X0056961Y0174465D01*
X0057016Y0174420D01*
X0057070Y0174373D01*
X0057120Y0174323D01*
X0057168Y0174270D01*
X0057213Y0174215D01*
X0057254Y0174157D01*
X0057293Y0174098D01*
X0057329Y0174036D01*
X0057361Y0173973D01*
X0057390Y0173907D01*
X0057415Y0173841D01*
X0057437Y0173773D01*
X0057455Y0173704D01*
X0057470Y0173635D01*
X0057480Y0173565D01*
X0057487Y0173494D01*
X0057491Y0173423D01*
X0057490Y0173352D01*
X0057490Y0173351D02*
X0057491Y0173280D01*
X0057487Y0173209D01*
X0057480Y0173138D01*
X0057470Y0173068D01*
X0057455Y0172999D01*
X0057437Y0172930D01*
X0057415Y0172862D01*
X0057390Y0172796D01*
X0057361Y0172730D01*
X0057329Y0172667D01*
X0057293Y0172605D01*
X0057254Y0172546D01*
X0057213Y0172488D01*
X0057168Y0172433D01*
X0057120Y0172380D01*
X0057070Y0172330D01*
X0057016Y0172283D01*
X0056961Y0172238D01*
X0056903Y0172196D01*
X0056843Y0172158D01*
X0056782Y0172123D01*
X0056718Y0172091D01*
X0056653Y0172062D01*
X0056586Y0172037D01*
X0056518Y0172016D01*
X0056449Y0171998D01*
X0056380Y0171984D01*
X0056309Y0171974D01*
X0066270Y0173254D02*
X0067844Y0173254D01*
X0067844Y0173253D02*
X0067913Y0173255D01*
X0067982Y0173261D01*
X0068051Y0173270D01*
X0068119Y0173283D01*
X0068186Y0173300D01*
X0068253Y0173320D01*
X0068318Y0173344D01*
X0068381Y0173371D01*
X0068444Y0173402D01*
X0068504Y0173436D01*
X0068562Y0173474D01*
X0068619Y0173514D01*
X0068673Y0173557D01*
X0068724Y0173604D01*
X0068773Y0173653D01*
X0068820Y0173704D01*
X0068863Y0173758D01*
X0068903Y0173815D01*
X0068941Y0173873D01*
X0068975Y0173933D01*
X0069006Y0173996D01*
X0069033Y0174059D01*
X0069057Y0174124D01*
X0069077Y0174191D01*
X0069094Y0174258D01*
X0069107Y0174326D01*
X0069116Y0174395D01*
X0069122Y0174464D01*
X0069124Y0174533D01*
X0069123Y0174603D01*
X0069118Y0174672D01*
X0069110Y0174741D01*
X0069098Y0174810D01*
X0069082Y0174877D01*
X0069062Y0174944D01*
X0069038Y0175010D01*
X0069011Y0175074D01*
X0068981Y0175136D01*
X0068947Y0175197D01*
X0068910Y0175256D01*
X0068869Y0175313D01*
X0068826Y0175367D01*
X0068779Y0175419D01*
X0068730Y0175468D01*
X0068678Y0175515D01*
X0068624Y0175558D01*
X0068567Y0175599D01*
X0068508Y0175636D01*
X0068447Y0175670D01*
X0068385Y0175700D01*
X0068321Y0175727D01*
X0068255Y0175751D01*
X0068188Y0175771D01*
X0068121Y0175787D01*
X0068052Y0175799D01*
X0067983Y0175807D01*
X0067914Y0175812D01*
X0067844Y0175813D01*
X0066270Y0175813D01*
X0066198Y0175808D01*
X0066126Y0175799D01*
X0066055Y0175786D01*
X0065984Y0175769D01*
X0065915Y0175749D01*
X0065847Y0175724D01*
X0065780Y0175697D01*
X0065715Y0175665D01*
X0065651Y0175630D01*
X0065590Y0175592D01*
X0065531Y0175551D01*
X0065474Y0175506D01*
X0065419Y0175458D01*
X0065368Y0175408D01*
X0065319Y0175354D01*
X0065273Y0175299D01*
X0065230Y0175240D01*
X0065190Y0175180D01*
X0065154Y0175117D01*
X0065121Y0175053D01*
X0065091Y0174987D01*
X0065066Y0174919D01*
X0065043Y0174850D01*
X0065025Y0174780D01*
X0065011Y0174709D01*
X0065000Y0174638D01*
X0064993Y0174566D01*
X0064990Y0174493D01*
X0064991Y0174493D02*
X0064989Y0174426D01*
X0064991Y0174359D01*
X0064997Y0174292D01*
X0065007Y0174225D01*
X0065020Y0174159D01*
X0065037Y0174094D01*
X0065058Y0174030D01*
X0065083Y0173968D01*
X0065111Y0173906D01*
X0065143Y0173847D01*
X0065177Y0173789D01*
X0065215Y0173734D01*
X0065257Y0173681D01*
X0065301Y0173630D01*
X0065348Y0173582D01*
X0065397Y0173536D01*
X0065450Y0173494D01*
X0065504Y0173454D01*
X0065561Y0173418D01*
X0065619Y0173385D01*
X0065680Y0173355D01*
X0065742Y0173329D01*
X0065805Y0173307D01*
X0065870Y0173288D01*
X0065935Y0173272D01*
X0066002Y0173261D01*
X0066068Y0173253D01*
X0066136Y0173249D01*
X0066203Y0173249D01*
X0066270Y0173253D01*
X0066270Y0192387D02*
X0067844Y0192387D01*
X0067913Y0192389D01*
X0067982Y0192395D01*
X0068051Y0192404D01*
X0068119Y0192417D01*
X0068186Y0192434D01*
X0068253Y0192454D01*
X0068318Y0192478D01*
X0068381Y0192505D01*
X0068444Y0192536D01*
X0068504Y0192570D01*
X0068562Y0192608D01*
X0068619Y0192648D01*
X0068673Y0192691D01*
X0068724Y0192738D01*
X0068773Y0192787D01*
X0068820Y0192838D01*
X0068863Y0192892D01*
X0068903Y0192949D01*
X0068941Y0193007D01*
X0068975Y0193067D01*
X0069006Y0193130D01*
X0069033Y0193193D01*
X0069057Y0193258D01*
X0069077Y0193325D01*
X0069094Y0193392D01*
X0069107Y0193460D01*
X0069116Y0193529D01*
X0069122Y0193598D01*
X0069124Y0193667D01*
X0069123Y0193737D01*
X0069118Y0193806D01*
X0069110Y0193875D01*
X0069098Y0193944D01*
X0069082Y0194011D01*
X0069062Y0194078D01*
X0069038Y0194144D01*
X0069011Y0194208D01*
X0068981Y0194270D01*
X0068947Y0194331D01*
X0068910Y0194390D01*
X0068869Y0194447D01*
X0068826Y0194501D01*
X0068779Y0194553D01*
X0068730Y0194602D01*
X0068678Y0194649D01*
X0068624Y0194692D01*
X0068567Y0194733D01*
X0068508Y0194770D01*
X0068447Y0194804D01*
X0068385Y0194834D01*
X0068321Y0194861D01*
X0068255Y0194885D01*
X0068188Y0194905D01*
X0068121Y0194921D01*
X0068052Y0194933D01*
X0067983Y0194941D01*
X0067914Y0194946D01*
X0067844Y0194947D01*
X0067844Y0194946D02*
X0066270Y0194946D01*
X0066270Y0194947D02*
X0066198Y0194942D01*
X0066126Y0194933D01*
X0066055Y0194920D01*
X0065984Y0194903D01*
X0065915Y0194883D01*
X0065847Y0194858D01*
X0065780Y0194831D01*
X0065715Y0194799D01*
X0065651Y0194764D01*
X0065590Y0194726D01*
X0065531Y0194685D01*
X0065474Y0194640D01*
X0065419Y0194592D01*
X0065368Y0194542D01*
X0065319Y0194488D01*
X0065273Y0194433D01*
X0065230Y0194374D01*
X0065190Y0194314D01*
X0065154Y0194251D01*
X0065121Y0194187D01*
X0065091Y0194121D01*
X0065066Y0194053D01*
X0065043Y0193984D01*
X0065025Y0193914D01*
X0065011Y0193843D01*
X0065000Y0193772D01*
X0064993Y0193700D01*
X0064990Y0193627D01*
X0064991Y0193627D02*
X0064989Y0193560D01*
X0064991Y0193493D01*
X0064997Y0193426D01*
X0065007Y0193359D01*
X0065020Y0193293D01*
X0065037Y0193228D01*
X0065058Y0193164D01*
X0065083Y0193102D01*
X0065111Y0193040D01*
X0065143Y0192981D01*
X0065177Y0192923D01*
X0065215Y0192868D01*
X0065257Y0192815D01*
X0065301Y0192764D01*
X0065348Y0192716D01*
X0065397Y0192670D01*
X0065450Y0192628D01*
X0065504Y0192588D01*
X0065561Y0192552D01*
X0065619Y0192519D01*
X0065680Y0192489D01*
X0065742Y0192463D01*
X0065805Y0192441D01*
X0065870Y0192422D01*
X0065935Y0192406D01*
X0066002Y0192395D01*
X0066068Y0192387D01*
X0066136Y0192383D01*
X0066203Y0192383D01*
X0066270Y0192387D01*
X0056309Y0193470D02*
X0053947Y0193470D01*
X0053947Y0193471D02*
X0053876Y0193481D01*
X0053807Y0193495D01*
X0053738Y0193513D01*
X0053670Y0193534D01*
X0053603Y0193559D01*
X0053538Y0193588D01*
X0053474Y0193620D01*
X0053413Y0193655D01*
X0053353Y0193693D01*
X0053295Y0193735D01*
X0053240Y0193780D01*
X0053186Y0193827D01*
X0053136Y0193877D01*
X0053088Y0193930D01*
X0053043Y0193985D01*
X0053002Y0194043D01*
X0052963Y0194102D01*
X0052927Y0194164D01*
X0052895Y0194227D01*
X0052866Y0194293D01*
X0052841Y0194359D01*
X0052819Y0194427D01*
X0052801Y0194496D01*
X0052786Y0194565D01*
X0052776Y0194635D01*
X0052769Y0194706D01*
X0052765Y0194777D01*
X0052766Y0194848D01*
X0052766Y0194849D02*
X0052765Y0194920D01*
X0052769Y0194991D01*
X0052776Y0195062D01*
X0052786Y0195132D01*
X0052801Y0195201D01*
X0052819Y0195270D01*
X0052841Y0195338D01*
X0052866Y0195404D01*
X0052895Y0195470D01*
X0052927Y0195533D01*
X0052963Y0195595D01*
X0053002Y0195654D01*
X0053043Y0195712D01*
X0053088Y0195767D01*
X0053136Y0195820D01*
X0053186Y0195870D01*
X0053240Y0195917D01*
X0053295Y0195962D01*
X0053353Y0196004D01*
X0053413Y0196042D01*
X0053474Y0196077D01*
X0053538Y0196109D01*
X0053603Y0196138D01*
X0053670Y0196163D01*
X0053738Y0196184D01*
X0053807Y0196202D01*
X0053876Y0196216D01*
X0053947Y0196226D01*
X0056309Y0196226D01*
X0056380Y0196216D01*
X0056449Y0196202D01*
X0056518Y0196184D01*
X0056586Y0196163D01*
X0056653Y0196138D01*
X0056718Y0196109D01*
X0056782Y0196077D01*
X0056843Y0196042D01*
X0056903Y0196004D01*
X0056961Y0195962D01*
X0057016Y0195917D01*
X0057070Y0195870D01*
X0057120Y0195820D01*
X0057168Y0195767D01*
X0057213Y0195712D01*
X0057254Y0195654D01*
X0057293Y0195595D01*
X0057329Y0195533D01*
X0057361Y0195470D01*
X0057390Y0195404D01*
X0057415Y0195338D01*
X0057437Y0195270D01*
X0057455Y0195201D01*
X0057470Y0195132D01*
X0057480Y0195062D01*
X0057487Y0194991D01*
X0057491Y0194920D01*
X0057490Y0194849D01*
X0057490Y0194848D02*
X0057491Y0194777D01*
X0057487Y0194706D01*
X0057480Y0194635D01*
X0057470Y0194565D01*
X0057455Y0194496D01*
X0057437Y0194427D01*
X0057415Y0194359D01*
X0057390Y0194293D01*
X0057361Y0194227D01*
X0057329Y0194164D01*
X0057293Y0194102D01*
X0057254Y0194043D01*
X0057213Y0193985D01*
X0057168Y0193930D01*
X0057120Y0193877D01*
X0057070Y0193827D01*
X0057016Y0193780D01*
X0056961Y0193735D01*
X0056903Y0193693D01*
X0056843Y0193655D01*
X0056782Y0193620D01*
X0056718Y0193588D01*
X0056653Y0193559D01*
X0056586Y0193534D01*
X0056518Y0193513D01*
X0056449Y0193495D01*
X0056380Y0193481D01*
X0056309Y0193471D01*
X0056309Y0263974D02*
X0053947Y0263974D01*
X0053876Y0263984D01*
X0053807Y0263998D01*
X0053738Y0264016D01*
X0053670Y0264037D01*
X0053603Y0264062D01*
X0053538Y0264091D01*
X0053474Y0264123D01*
X0053413Y0264158D01*
X0053353Y0264196D01*
X0053295Y0264238D01*
X0053240Y0264283D01*
X0053186Y0264330D01*
X0053136Y0264380D01*
X0053088Y0264433D01*
X0053043Y0264488D01*
X0053002Y0264546D01*
X0052963Y0264605D01*
X0052927Y0264667D01*
X0052895Y0264730D01*
X0052866Y0264796D01*
X0052841Y0264862D01*
X0052819Y0264930D01*
X0052801Y0264999D01*
X0052786Y0265068D01*
X0052776Y0265138D01*
X0052769Y0265209D01*
X0052765Y0265280D01*
X0052766Y0265351D01*
X0052766Y0265352D02*
X0052765Y0265423D01*
X0052769Y0265494D01*
X0052776Y0265565D01*
X0052786Y0265635D01*
X0052801Y0265704D01*
X0052819Y0265773D01*
X0052841Y0265841D01*
X0052866Y0265907D01*
X0052895Y0265973D01*
X0052927Y0266036D01*
X0052963Y0266098D01*
X0053002Y0266157D01*
X0053043Y0266215D01*
X0053088Y0266270D01*
X0053136Y0266323D01*
X0053186Y0266373D01*
X0053240Y0266420D01*
X0053295Y0266465D01*
X0053353Y0266507D01*
X0053413Y0266545D01*
X0053474Y0266580D01*
X0053538Y0266612D01*
X0053603Y0266641D01*
X0053670Y0266666D01*
X0053738Y0266687D01*
X0053807Y0266705D01*
X0053876Y0266719D01*
X0053947Y0266729D01*
X0053947Y0266730D02*
X0056309Y0266730D01*
X0056309Y0266729D02*
X0056380Y0266719D01*
X0056449Y0266705D01*
X0056518Y0266687D01*
X0056586Y0266666D01*
X0056653Y0266641D01*
X0056718Y0266612D01*
X0056782Y0266580D01*
X0056843Y0266545D01*
X0056903Y0266507D01*
X0056961Y0266465D01*
X0057016Y0266420D01*
X0057070Y0266373D01*
X0057120Y0266323D01*
X0057168Y0266270D01*
X0057213Y0266215D01*
X0057254Y0266157D01*
X0057293Y0266098D01*
X0057329Y0266036D01*
X0057361Y0265973D01*
X0057390Y0265907D01*
X0057415Y0265841D01*
X0057437Y0265773D01*
X0057455Y0265704D01*
X0057470Y0265635D01*
X0057480Y0265565D01*
X0057487Y0265494D01*
X0057491Y0265423D01*
X0057490Y0265352D01*
X0057490Y0265351D02*
X0057491Y0265280D01*
X0057487Y0265209D01*
X0057480Y0265138D01*
X0057470Y0265068D01*
X0057455Y0264999D01*
X0057437Y0264930D01*
X0057415Y0264862D01*
X0057390Y0264796D01*
X0057361Y0264730D01*
X0057329Y0264667D01*
X0057293Y0264605D01*
X0057254Y0264546D01*
X0057213Y0264488D01*
X0057168Y0264433D01*
X0057120Y0264380D01*
X0057070Y0264330D01*
X0057016Y0264283D01*
X0056961Y0264238D01*
X0056903Y0264196D01*
X0056843Y0264158D01*
X0056782Y0264123D01*
X0056718Y0264091D01*
X0056653Y0264062D01*
X0056586Y0264037D01*
X0056518Y0264016D01*
X0056449Y0263998D01*
X0056380Y0263984D01*
X0056309Y0263974D01*
X0066270Y0265254D02*
X0067844Y0265254D01*
X0067844Y0265253D02*
X0067913Y0265255D01*
X0067982Y0265261D01*
X0068051Y0265270D01*
X0068119Y0265283D01*
X0068186Y0265300D01*
X0068253Y0265320D01*
X0068318Y0265344D01*
X0068381Y0265371D01*
X0068444Y0265402D01*
X0068504Y0265436D01*
X0068562Y0265474D01*
X0068619Y0265514D01*
X0068673Y0265557D01*
X0068724Y0265604D01*
X0068773Y0265653D01*
X0068820Y0265704D01*
X0068863Y0265758D01*
X0068903Y0265815D01*
X0068941Y0265873D01*
X0068975Y0265933D01*
X0069006Y0265996D01*
X0069033Y0266059D01*
X0069057Y0266124D01*
X0069077Y0266191D01*
X0069094Y0266258D01*
X0069107Y0266326D01*
X0069116Y0266395D01*
X0069122Y0266464D01*
X0069124Y0266533D01*
X0069123Y0266603D01*
X0069118Y0266672D01*
X0069110Y0266741D01*
X0069098Y0266810D01*
X0069082Y0266877D01*
X0069062Y0266944D01*
X0069038Y0267010D01*
X0069011Y0267074D01*
X0068981Y0267136D01*
X0068947Y0267197D01*
X0068910Y0267256D01*
X0068869Y0267313D01*
X0068826Y0267367D01*
X0068779Y0267419D01*
X0068730Y0267468D01*
X0068678Y0267515D01*
X0068624Y0267558D01*
X0068567Y0267599D01*
X0068508Y0267636D01*
X0068447Y0267670D01*
X0068385Y0267700D01*
X0068321Y0267727D01*
X0068255Y0267751D01*
X0068188Y0267771D01*
X0068121Y0267787D01*
X0068052Y0267799D01*
X0067983Y0267807D01*
X0067914Y0267812D01*
X0067844Y0267813D01*
X0066270Y0267813D01*
X0066198Y0267808D01*
X0066126Y0267799D01*
X0066055Y0267786D01*
X0065984Y0267769D01*
X0065915Y0267749D01*
X0065847Y0267724D01*
X0065780Y0267697D01*
X0065715Y0267665D01*
X0065651Y0267630D01*
X0065590Y0267592D01*
X0065531Y0267551D01*
X0065474Y0267506D01*
X0065419Y0267458D01*
X0065368Y0267408D01*
X0065319Y0267354D01*
X0065273Y0267299D01*
X0065230Y0267240D01*
X0065190Y0267180D01*
X0065154Y0267117D01*
X0065121Y0267053D01*
X0065091Y0266987D01*
X0065066Y0266919D01*
X0065043Y0266850D01*
X0065025Y0266780D01*
X0065011Y0266709D01*
X0065000Y0266638D01*
X0064993Y0266566D01*
X0064990Y0266493D01*
X0064991Y0266493D02*
X0064989Y0266426D01*
X0064991Y0266359D01*
X0064997Y0266292D01*
X0065007Y0266225D01*
X0065020Y0266159D01*
X0065037Y0266094D01*
X0065058Y0266030D01*
X0065083Y0265968D01*
X0065111Y0265906D01*
X0065143Y0265847D01*
X0065177Y0265789D01*
X0065215Y0265734D01*
X0065257Y0265681D01*
X0065301Y0265630D01*
X0065348Y0265582D01*
X0065397Y0265536D01*
X0065450Y0265494D01*
X0065504Y0265454D01*
X0065561Y0265418D01*
X0065619Y0265385D01*
X0065680Y0265355D01*
X0065742Y0265329D01*
X0065805Y0265307D01*
X0065870Y0265288D01*
X0065935Y0265272D01*
X0066002Y0265261D01*
X0066068Y0265253D01*
X0066136Y0265249D01*
X0066203Y0265249D01*
X0066270Y0265253D01*
X0066270Y0284387D02*
X0067844Y0284387D01*
X0067913Y0284389D01*
X0067982Y0284395D01*
X0068051Y0284404D01*
X0068119Y0284417D01*
X0068186Y0284434D01*
X0068253Y0284454D01*
X0068318Y0284478D01*
X0068381Y0284505D01*
X0068444Y0284536D01*
X0068504Y0284570D01*
X0068562Y0284608D01*
X0068619Y0284648D01*
X0068673Y0284691D01*
X0068724Y0284738D01*
X0068773Y0284787D01*
X0068820Y0284838D01*
X0068863Y0284892D01*
X0068903Y0284949D01*
X0068941Y0285007D01*
X0068975Y0285067D01*
X0069006Y0285130D01*
X0069033Y0285193D01*
X0069057Y0285258D01*
X0069077Y0285325D01*
X0069094Y0285392D01*
X0069107Y0285460D01*
X0069116Y0285529D01*
X0069122Y0285598D01*
X0069124Y0285667D01*
X0069123Y0285737D01*
X0069118Y0285806D01*
X0069110Y0285875D01*
X0069098Y0285944D01*
X0069082Y0286011D01*
X0069062Y0286078D01*
X0069038Y0286144D01*
X0069011Y0286208D01*
X0068981Y0286270D01*
X0068947Y0286331D01*
X0068910Y0286390D01*
X0068869Y0286447D01*
X0068826Y0286501D01*
X0068779Y0286553D01*
X0068730Y0286602D01*
X0068678Y0286649D01*
X0068624Y0286692D01*
X0068567Y0286733D01*
X0068508Y0286770D01*
X0068447Y0286804D01*
X0068385Y0286834D01*
X0068321Y0286861D01*
X0068255Y0286885D01*
X0068188Y0286905D01*
X0068121Y0286921D01*
X0068052Y0286933D01*
X0067983Y0286941D01*
X0067914Y0286946D01*
X0067844Y0286947D01*
X0067844Y0286946D02*
X0066270Y0286946D01*
X0066270Y0286947D02*
X0066198Y0286942D01*
X0066126Y0286933D01*
X0066055Y0286920D01*
X0065984Y0286903D01*
X0065915Y0286883D01*
X0065847Y0286858D01*
X0065780Y0286831D01*
X0065715Y0286799D01*
X0065651Y0286764D01*
X0065590Y0286726D01*
X0065531Y0286685D01*
X0065474Y0286640D01*
X0065419Y0286592D01*
X0065368Y0286542D01*
X0065319Y0286488D01*
X0065273Y0286433D01*
X0065230Y0286374D01*
X0065190Y0286314D01*
X0065154Y0286251D01*
X0065121Y0286187D01*
X0065091Y0286121D01*
X0065066Y0286053D01*
X0065043Y0285984D01*
X0065025Y0285914D01*
X0065011Y0285843D01*
X0065000Y0285772D01*
X0064993Y0285700D01*
X0064990Y0285627D01*
X0064991Y0285627D02*
X0064989Y0285560D01*
X0064991Y0285493D01*
X0064997Y0285426D01*
X0065007Y0285359D01*
X0065020Y0285293D01*
X0065037Y0285228D01*
X0065058Y0285164D01*
X0065083Y0285102D01*
X0065111Y0285040D01*
X0065143Y0284981D01*
X0065177Y0284923D01*
X0065215Y0284868D01*
X0065257Y0284815D01*
X0065301Y0284764D01*
X0065348Y0284716D01*
X0065397Y0284670D01*
X0065450Y0284628D01*
X0065504Y0284588D01*
X0065561Y0284552D01*
X0065619Y0284519D01*
X0065680Y0284489D01*
X0065742Y0284463D01*
X0065805Y0284441D01*
X0065870Y0284422D01*
X0065935Y0284406D01*
X0066002Y0284395D01*
X0066068Y0284387D01*
X0066136Y0284383D01*
X0066203Y0284383D01*
X0066270Y0284387D01*
X0056309Y0285470D02*
X0053947Y0285470D01*
X0053947Y0285471D02*
X0053876Y0285481D01*
X0053807Y0285495D01*
X0053738Y0285513D01*
X0053670Y0285534D01*
X0053603Y0285559D01*
X0053538Y0285588D01*
X0053474Y0285620D01*
X0053413Y0285655D01*
X0053353Y0285693D01*
X0053295Y0285735D01*
X0053240Y0285780D01*
X0053186Y0285827D01*
X0053136Y0285877D01*
X0053088Y0285930D01*
X0053043Y0285985D01*
X0053002Y0286043D01*
X0052963Y0286102D01*
X0052927Y0286164D01*
X0052895Y0286227D01*
X0052866Y0286293D01*
X0052841Y0286359D01*
X0052819Y0286427D01*
X0052801Y0286496D01*
X0052786Y0286565D01*
X0052776Y0286635D01*
X0052769Y0286706D01*
X0052765Y0286777D01*
X0052766Y0286848D01*
X0052766Y0286849D02*
X0052765Y0286920D01*
X0052769Y0286991D01*
X0052776Y0287062D01*
X0052786Y0287132D01*
X0052801Y0287201D01*
X0052819Y0287270D01*
X0052841Y0287338D01*
X0052866Y0287404D01*
X0052895Y0287470D01*
X0052927Y0287533D01*
X0052963Y0287595D01*
X0053002Y0287654D01*
X0053043Y0287712D01*
X0053088Y0287767D01*
X0053136Y0287820D01*
X0053186Y0287870D01*
X0053240Y0287917D01*
X0053295Y0287962D01*
X0053353Y0288004D01*
X0053413Y0288042D01*
X0053474Y0288077D01*
X0053538Y0288109D01*
X0053603Y0288138D01*
X0053670Y0288163D01*
X0053738Y0288184D01*
X0053807Y0288202D01*
X0053876Y0288216D01*
X0053947Y0288226D01*
X0056309Y0288226D01*
X0056380Y0288216D01*
X0056449Y0288202D01*
X0056518Y0288184D01*
X0056586Y0288163D01*
X0056653Y0288138D01*
X0056718Y0288109D01*
X0056782Y0288077D01*
X0056843Y0288042D01*
X0056903Y0288004D01*
X0056961Y0287962D01*
X0057016Y0287917D01*
X0057070Y0287870D01*
X0057120Y0287820D01*
X0057168Y0287767D01*
X0057213Y0287712D01*
X0057254Y0287654D01*
X0057293Y0287595D01*
X0057329Y0287533D01*
X0057361Y0287470D01*
X0057390Y0287404D01*
X0057415Y0287338D01*
X0057437Y0287270D01*
X0057455Y0287201D01*
X0057470Y0287132D01*
X0057480Y0287062D01*
X0057487Y0286991D01*
X0057491Y0286920D01*
X0057490Y0286849D01*
X0057490Y0286848D02*
X0057491Y0286777D01*
X0057487Y0286706D01*
X0057480Y0286635D01*
X0057470Y0286565D01*
X0057455Y0286496D01*
X0057437Y0286427D01*
X0057415Y0286359D01*
X0057390Y0286293D01*
X0057361Y0286227D01*
X0057329Y0286164D01*
X0057293Y0286102D01*
X0057254Y0286043D01*
X0057213Y0285985D01*
X0057168Y0285930D01*
X0057120Y0285877D01*
X0057070Y0285827D01*
X0057016Y0285780D01*
X0056961Y0285735D01*
X0056903Y0285693D01*
X0056843Y0285655D01*
X0056782Y0285620D01*
X0056718Y0285588D01*
X0056653Y0285559D01*
X0056586Y0285534D01*
X0056518Y0285513D01*
X0056449Y0285495D01*
X0056380Y0285481D01*
X0056309Y0285471D01*
X0056309Y0355974D02*
X0053947Y0355974D01*
X0053876Y0355984D01*
X0053807Y0355998D01*
X0053738Y0356016D01*
X0053670Y0356037D01*
X0053603Y0356062D01*
X0053538Y0356091D01*
X0053474Y0356123D01*
X0053413Y0356158D01*
X0053353Y0356196D01*
X0053295Y0356238D01*
X0053240Y0356283D01*
X0053186Y0356330D01*
X0053136Y0356380D01*
X0053088Y0356433D01*
X0053043Y0356488D01*
X0053002Y0356546D01*
X0052963Y0356605D01*
X0052927Y0356667D01*
X0052895Y0356730D01*
X0052866Y0356796D01*
X0052841Y0356862D01*
X0052819Y0356930D01*
X0052801Y0356999D01*
X0052786Y0357068D01*
X0052776Y0357138D01*
X0052769Y0357209D01*
X0052765Y0357280D01*
X0052766Y0357351D01*
X0052766Y0357352D02*
X0052765Y0357423D01*
X0052769Y0357494D01*
X0052776Y0357565D01*
X0052786Y0357635D01*
X0052801Y0357704D01*
X0052819Y0357773D01*
X0052841Y0357841D01*
X0052866Y0357907D01*
X0052895Y0357973D01*
X0052927Y0358036D01*
X0052963Y0358098D01*
X0053002Y0358157D01*
X0053043Y0358215D01*
X0053088Y0358270D01*
X0053136Y0358323D01*
X0053186Y0358373D01*
X0053240Y0358420D01*
X0053295Y0358465D01*
X0053353Y0358507D01*
X0053413Y0358545D01*
X0053474Y0358580D01*
X0053538Y0358612D01*
X0053603Y0358641D01*
X0053670Y0358666D01*
X0053738Y0358687D01*
X0053807Y0358705D01*
X0053876Y0358719D01*
X0053947Y0358729D01*
X0053947Y0358730D02*
X0056309Y0358730D01*
X0056309Y0358729D02*
X0056380Y0358719D01*
X0056449Y0358705D01*
X0056518Y0358687D01*
X0056586Y0358666D01*
X0056653Y0358641D01*
X0056718Y0358612D01*
X0056782Y0358580D01*
X0056843Y0358545D01*
X0056903Y0358507D01*
X0056961Y0358465D01*
X0057016Y0358420D01*
X0057070Y0358373D01*
X0057120Y0358323D01*
X0057168Y0358270D01*
X0057213Y0358215D01*
X0057254Y0358157D01*
X0057293Y0358098D01*
X0057329Y0358036D01*
X0057361Y0357973D01*
X0057390Y0357907D01*
X0057415Y0357841D01*
X0057437Y0357773D01*
X0057455Y0357704D01*
X0057470Y0357635D01*
X0057480Y0357565D01*
X0057487Y0357494D01*
X0057491Y0357423D01*
X0057490Y0357352D01*
X0057490Y0357351D02*
X0057491Y0357280D01*
X0057487Y0357209D01*
X0057480Y0357138D01*
X0057470Y0357068D01*
X0057455Y0356999D01*
X0057437Y0356930D01*
X0057415Y0356862D01*
X0057390Y0356796D01*
X0057361Y0356730D01*
X0057329Y0356667D01*
X0057293Y0356605D01*
X0057254Y0356546D01*
X0057213Y0356488D01*
X0057168Y0356433D01*
X0057120Y0356380D01*
X0057070Y0356330D01*
X0057016Y0356283D01*
X0056961Y0356238D01*
X0056903Y0356196D01*
X0056843Y0356158D01*
X0056782Y0356123D01*
X0056718Y0356091D01*
X0056653Y0356062D01*
X0056586Y0356037D01*
X0056518Y0356016D01*
X0056449Y0355998D01*
X0056380Y0355984D01*
X0056309Y0355974D01*
X0066270Y0357254D02*
X0067844Y0357254D01*
X0067844Y0357253D02*
X0067913Y0357255D01*
X0067982Y0357261D01*
X0068051Y0357270D01*
X0068119Y0357283D01*
X0068186Y0357300D01*
X0068253Y0357320D01*
X0068318Y0357344D01*
X0068381Y0357371D01*
X0068444Y0357402D01*
X0068504Y0357436D01*
X0068562Y0357474D01*
X0068619Y0357514D01*
X0068673Y0357557D01*
X0068724Y0357604D01*
X0068773Y0357653D01*
X0068820Y0357704D01*
X0068863Y0357758D01*
X0068903Y0357815D01*
X0068941Y0357873D01*
X0068975Y0357933D01*
X0069006Y0357996D01*
X0069033Y0358059D01*
X0069057Y0358124D01*
X0069077Y0358191D01*
X0069094Y0358258D01*
X0069107Y0358326D01*
X0069116Y0358395D01*
X0069122Y0358464D01*
X0069124Y0358533D01*
X0069123Y0358603D01*
X0069118Y0358672D01*
X0069110Y0358741D01*
X0069098Y0358810D01*
X0069082Y0358877D01*
X0069062Y0358944D01*
X0069038Y0359010D01*
X0069011Y0359074D01*
X0068981Y0359136D01*
X0068947Y0359197D01*
X0068910Y0359256D01*
X0068869Y0359313D01*
X0068826Y0359367D01*
X0068779Y0359419D01*
X0068730Y0359468D01*
X0068678Y0359515D01*
X0068624Y0359558D01*
X0068567Y0359599D01*
X0068508Y0359636D01*
X0068447Y0359670D01*
X0068385Y0359700D01*
X0068321Y0359727D01*
X0068255Y0359751D01*
X0068188Y0359771D01*
X0068121Y0359787D01*
X0068052Y0359799D01*
X0067983Y0359807D01*
X0067914Y0359812D01*
X0067844Y0359813D01*
X0066270Y0359813D01*
X0066198Y0359808D01*
X0066126Y0359799D01*
X0066055Y0359786D01*
X0065984Y0359769D01*
X0065915Y0359749D01*
X0065847Y0359724D01*
X0065780Y0359697D01*
X0065715Y0359665D01*
X0065651Y0359630D01*
X0065590Y0359592D01*
X0065531Y0359551D01*
X0065474Y0359506D01*
X0065419Y0359458D01*
X0065368Y0359408D01*
X0065319Y0359354D01*
X0065273Y0359299D01*
X0065230Y0359240D01*
X0065190Y0359180D01*
X0065154Y0359117D01*
X0065121Y0359053D01*
X0065091Y0358987D01*
X0065066Y0358919D01*
X0065043Y0358850D01*
X0065025Y0358780D01*
X0065011Y0358709D01*
X0065000Y0358638D01*
X0064993Y0358566D01*
X0064990Y0358493D01*
X0064991Y0358493D02*
X0064989Y0358426D01*
X0064991Y0358359D01*
X0064997Y0358292D01*
X0065007Y0358225D01*
X0065020Y0358159D01*
X0065037Y0358094D01*
X0065058Y0358030D01*
X0065083Y0357968D01*
X0065111Y0357906D01*
X0065143Y0357847D01*
X0065177Y0357789D01*
X0065215Y0357734D01*
X0065257Y0357681D01*
X0065301Y0357630D01*
X0065348Y0357582D01*
X0065397Y0357536D01*
X0065450Y0357494D01*
X0065504Y0357454D01*
X0065561Y0357418D01*
X0065619Y0357385D01*
X0065680Y0357355D01*
X0065742Y0357329D01*
X0065805Y0357307D01*
X0065870Y0357288D01*
X0065935Y0357272D01*
X0066002Y0357261D01*
X0066068Y0357253D01*
X0066136Y0357249D01*
X0066203Y0357249D01*
X0066270Y0357253D01*
X0066270Y0376387D02*
X0067844Y0376387D01*
X0067913Y0376389D01*
X0067982Y0376395D01*
X0068051Y0376404D01*
X0068119Y0376417D01*
X0068186Y0376434D01*
X0068253Y0376454D01*
X0068318Y0376478D01*
X0068381Y0376505D01*
X0068444Y0376536D01*
X0068504Y0376570D01*
X0068562Y0376608D01*
X0068619Y0376648D01*
X0068673Y0376691D01*
X0068724Y0376738D01*
X0068773Y0376787D01*
X0068820Y0376838D01*
X0068863Y0376892D01*
X0068903Y0376949D01*
X0068941Y0377007D01*
X0068975Y0377067D01*
X0069006Y0377130D01*
X0069033Y0377193D01*
X0069057Y0377258D01*
X0069077Y0377325D01*
X0069094Y0377392D01*
X0069107Y0377460D01*
X0069116Y0377529D01*
X0069122Y0377598D01*
X0069124Y0377667D01*
X0069123Y0377737D01*
X0069118Y0377806D01*
X0069110Y0377875D01*
X0069098Y0377944D01*
X0069082Y0378011D01*
X0069062Y0378078D01*
X0069038Y0378144D01*
X0069011Y0378208D01*
X0068981Y0378270D01*
X0068947Y0378331D01*
X0068910Y0378390D01*
X0068869Y0378447D01*
X0068826Y0378501D01*
X0068779Y0378553D01*
X0068730Y0378602D01*
X0068678Y0378649D01*
X0068624Y0378692D01*
X0068567Y0378733D01*
X0068508Y0378770D01*
X0068447Y0378804D01*
X0068385Y0378834D01*
X0068321Y0378861D01*
X0068255Y0378885D01*
X0068188Y0378905D01*
X0068121Y0378921D01*
X0068052Y0378933D01*
X0067983Y0378941D01*
X0067914Y0378946D01*
X0067844Y0378947D01*
X0067844Y0378946D02*
X0066270Y0378946D01*
X0066270Y0378947D02*
X0066198Y0378942D01*
X0066126Y0378933D01*
X0066055Y0378920D01*
X0065984Y0378903D01*
X0065915Y0378883D01*
X0065847Y0378858D01*
X0065780Y0378831D01*
X0065715Y0378799D01*
X0065651Y0378764D01*
X0065590Y0378726D01*
X0065531Y0378685D01*
X0065474Y0378640D01*
X0065419Y0378592D01*
X0065368Y0378542D01*
X0065319Y0378488D01*
X0065273Y0378433D01*
X0065230Y0378374D01*
X0065190Y0378314D01*
X0065154Y0378251D01*
X0065121Y0378187D01*
X0065091Y0378121D01*
X0065066Y0378053D01*
X0065043Y0377984D01*
X0065025Y0377914D01*
X0065011Y0377843D01*
X0065000Y0377772D01*
X0064993Y0377700D01*
X0064990Y0377627D01*
X0064991Y0377627D02*
X0064989Y0377560D01*
X0064991Y0377493D01*
X0064997Y0377426D01*
X0065007Y0377359D01*
X0065020Y0377293D01*
X0065037Y0377228D01*
X0065058Y0377164D01*
X0065083Y0377102D01*
X0065111Y0377040D01*
X0065143Y0376981D01*
X0065177Y0376923D01*
X0065215Y0376868D01*
X0065257Y0376815D01*
X0065301Y0376764D01*
X0065348Y0376716D01*
X0065397Y0376670D01*
X0065450Y0376628D01*
X0065504Y0376588D01*
X0065561Y0376552D01*
X0065619Y0376519D01*
X0065680Y0376489D01*
X0065742Y0376463D01*
X0065805Y0376441D01*
X0065870Y0376422D01*
X0065935Y0376406D01*
X0066002Y0376395D01*
X0066068Y0376387D01*
X0066136Y0376383D01*
X0066203Y0376383D01*
X0066270Y0376387D01*
X0056309Y0377470D02*
X0053947Y0377470D01*
X0053947Y0377471D02*
X0053876Y0377481D01*
X0053807Y0377495D01*
X0053738Y0377513D01*
X0053670Y0377534D01*
X0053603Y0377559D01*
X0053538Y0377588D01*
X0053474Y0377620D01*
X0053413Y0377655D01*
X0053353Y0377693D01*
X0053295Y0377735D01*
X0053240Y0377780D01*
X0053186Y0377827D01*
X0053136Y0377877D01*
X0053088Y0377930D01*
X0053043Y0377985D01*
X0053002Y0378043D01*
X0052963Y0378102D01*
X0052927Y0378164D01*
X0052895Y0378227D01*
X0052866Y0378293D01*
X0052841Y0378359D01*
X0052819Y0378427D01*
X0052801Y0378496D01*
X0052786Y0378565D01*
X0052776Y0378635D01*
X0052769Y0378706D01*
X0052765Y0378777D01*
X0052766Y0378848D01*
X0052766Y0378849D02*
X0052765Y0378920D01*
X0052769Y0378991D01*
X0052776Y0379062D01*
X0052786Y0379132D01*
X0052801Y0379201D01*
X0052819Y0379270D01*
X0052841Y0379338D01*
X0052866Y0379404D01*
X0052895Y0379470D01*
X0052927Y0379533D01*
X0052963Y0379595D01*
X0053002Y0379654D01*
X0053043Y0379712D01*
X0053088Y0379767D01*
X0053136Y0379820D01*
X0053186Y0379870D01*
X0053240Y0379917D01*
X0053295Y0379962D01*
X0053353Y0380004D01*
X0053413Y0380042D01*
X0053474Y0380077D01*
X0053538Y0380109D01*
X0053603Y0380138D01*
X0053670Y0380163D01*
X0053738Y0380184D01*
X0053807Y0380202D01*
X0053876Y0380216D01*
X0053947Y0380226D01*
X0056309Y0380226D01*
X0056380Y0380216D01*
X0056449Y0380202D01*
X0056518Y0380184D01*
X0056586Y0380163D01*
X0056653Y0380138D01*
X0056718Y0380109D01*
X0056782Y0380077D01*
X0056843Y0380042D01*
X0056903Y0380004D01*
X0056961Y0379962D01*
X0057016Y0379917D01*
X0057070Y0379870D01*
X0057120Y0379820D01*
X0057168Y0379767D01*
X0057213Y0379712D01*
X0057254Y0379654D01*
X0057293Y0379595D01*
X0057329Y0379533D01*
X0057361Y0379470D01*
X0057390Y0379404D01*
X0057415Y0379338D01*
X0057437Y0379270D01*
X0057455Y0379201D01*
X0057470Y0379132D01*
X0057480Y0379062D01*
X0057487Y0378991D01*
X0057491Y0378920D01*
X0057490Y0378849D01*
X0057490Y0378848D02*
X0057491Y0378777D01*
X0057487Y0378706D01*
X0057480Y0378635D01*
X0057470Y0378565D01*
X0057455Y0378496D01*
X0057437Y0378427D01*
X0057415Y0378359D01*
X0057390Y0378293D01*
X0057361Y0378227D01*
X0057329Y0378164D01*
X0057293Y0378102D01*
X0057254Y0378043D01*
X0057213Y0377985D01*
X0057168Y0377930D01*
X0057120Y0377877D01*
X0057070Y0377827D01*
X0057016Y0377780D01*
X0056961Y0377735D01*
X0056903Y0377693D01*
X0056843Y0377655D01*
X0056782Y0377620D01*
X0056718Y0377588D01*
X0056653Y0377559D01*
X0056586Y0377534D01*
X0056518Y0377513D01*
X0056449Y0377495D01*
X0056380Y0377481D01*
X0056309Y0377471D01*
M02*
