G75*
%MOIN*%
%OFA0B0*%
%FSLAX25Y25*%
%IPPOS*%
%LPD*%
%AMOC8*
5,1,8,0,0,1.08239X$1,22.5*
%
%ADD10R,0.05131X0.04737*%
%ADD11C,0.01990*%
%ADD12R,0.07690X0.02375*%
%ADD13R,0.06548X0.08674*%
%ADD14R,0.10643X0.06410*%
%ADD15C,0.00400*%
%ADD16R,0.07887X0.04737*%
%ADD17R,0.04737X0.05131*%
%ADD18R,0.02375X0.03162*%
%ADD19R,0.03162X0.02375*%
%ADD20C,0.08200*%
%ADD21C,0.03556*%
%ADD22R,0.05131X0.08674*%
%ADD23R,0.05524X0.08674*%
%ADD24R,0.03162X0.06115*%
%ADD25R,0.18910X0.04737*%
%ADD26R,0.14186X0.07099*%
%ADD27R,0.02965X0.05524*%
%ADD28R,0.03280X0.04068*%
%ADD29R,0.05524X0.02965*%
%ADD30C,0.04737*%
%ADD31R,0.06706X0.03556*%
%ADD32R,0.03162X0.04737*%
%ADD33R,0.03950X0.04737*%
%ADD34C,0.04343*%
%ADD35C,0.03300*%
%ADD36C,0.05000*%
%ADD37C,0.06706*%
D10*
X0110904Y0056000D03*
X0110904Y0062000D03*
X0117596Y0062000D03*
X0117596Y0056000D03*
X0123904Y0056000D03*
X0123904Y0062000D03*
X0130596Y0062000D03*
X0130596Y0056000D03*
X0143404Y0067500D03*
X0150096Y0067500D03*
X0167404Y0070000D03*
X0167404Y0064000D03*
X0174096Y0064000D03*
X0174096Y0070000D03*
X0174096Y0080500D03*
X0167404Y0080500D03*
X0150096Y0093500D03*
X0143404Y0093500D03*
X0130596Y0089300D03*
X0123904Y0089300D03*
X0117596Y0089500D03*
X0110904Y0089500D03*
X0110904Y0083500D03*
X0117596Y0083500D03*
X0082596Y0090500D03*
X0082596Y0096500D03*
X0075904Y0096500D03*
X0075904Y0090500D03*
X0110904Y0148000D03*
X0117596Y0148000D03*
X0123904Y0148000D03*
X0130596Y0148000D03*
X0130596Y0154000D03*
X0123904Y0154000D03*
X0117596Y0154000D03*
X0110904Y0154000D03*
X0110904Y0175500D03*
X0110904Y0181500D03*
X0117596Y0181500D03*
X0117596Y0175500D03*
X0123904Y0181300D03*
X0130596Y0181300D03*
X0143404Y0185500D03*
X0150096Y0185500D03*
X0167404Y0172500D03*
X0174096Y0172500D03*
X0174096Y0162000D03*
X0167404Y0162000D03*
X0167404Y0156000D03*
X0167404Y0150000D03*
X0174096Y0150000D03*
X0174096Y0156000D03*
X0150096Y0159500D03*
X0143404Y0159500D03*
X0082596Y0182500D03*
X0082596Y0188500D03*
X0075904Y0188500D03*
X0075904Y0182500D03*
X0110904Y0240000D03*
X0117596Y0240000D03*
X0123904Y0240000D03*
X0130596Y0240000D03*
X0130596Y0246000D03*
X0123904Y0246000D03*
X0117596Y0246000D03*
X0110904Y0246000D03*
X0110904Y0267500D03*
X0110904Y0273500D03*
X0117596Y0273500D03*
X0117596Y0267500D03*
X0123904Y0273300D03*
X0130596Y0273300D03*
X0143404Y0277500D03*
X0150096Y0277500D03*
X0167404Y0264500D03*
X0174096Y0264500D03*
X0174096Y0254000D03*
X0167404Y0254000D03*
X0167404Y0248000D03*
X0167404Y0242000D03*
X0174096Y0242000D03*
X0174096Y0248000D03*
X0150096Y0251500D03*
X0143404Y0251500D03*
X0082596Y0274500D03*
X0082596Y0280500D03*
X0075904Y0280500D03*
X0075904Y0274500D03*
X0110904Y0332000D03*
X0110904Y0338000D03*
X0117596Y0338000D03*
X0117596Y0332000D03*
X0123904Y0332000D03*
X0123904Y0338000D03*
X0130596Y0338000D03*
X0130596Y0332000D03*
X0143404Y0343500D03*
X0150096Y0343500D03*
X0167404Y0346000D03*
X0167404Y0340000D03*
X0174096Y0340000D03*
X0174096Y0346000D03*
X0174096Y0356500D03*
X0167404Y0356500D03*
X0150096Y0369500D03*
X0143404Y0369500D03*
X0130596Y0365300D03*
X0123904Y0365300D03*
X0117596Y0365500D03*
X0110904Y0365500D03*
X0110904Y0359500D03*
X0117596Y0359500D03*
X0082596Y0366500D03*
X0082596Y0372500D03*
X0075904Y0372500D03*
X0075904Y0366500D03*
X0167404Y0334000D03*
X0174096Y0334000D03*
X0275904Y0366500D03*
X0282596Y0366500D03*
X0282596Y0372500D03*
X0275904Y0372500D03*
X0310904Y0365500D03*
X0317596Y0365500D03*
X0317596Y0359500D03*
X0310904Y0359500D03*
X0323904Y0365300D03*
X0330596Y0365300D03*
X0343404Y0369500D03*
X0350096Y0369500D03*
X0367404Y0356500D03*
X0374096Y0356500D03*
X0374096Y0346000D03*
X0374096Y0340000D03*
X0367404Y0340000D03*
X0367404Y0346000D03*
X0367404Y0334000D03*
X0374096Y0334000D03*
X0350096Y0343500D03*
X0343404Y0343500D03*
X0330596Y0338000D03*
X0330596Y0332000D03*
X0323904Y0332000D03*
X0323904Y0338000D03*
X0317596Y0338000D03*
X0317596Y0332000D03*
X0310904Y0332000D03*
X0310904Y0338000D03*
X0282596Y0280500D03*
X0275904Y0280500D03*
X0275904Y0274500D03*
X0282596Y0274500D03*
X0310904Y0273500D03*
X0310904Y0267500D03*
X0317596Y0267500D03*
X0317596Y0273500D03*
X0323904Y0273300D03*
X0330596Y0273300D03*
X0343404Y0277500D03*
X0350096Y0277500D03*
X0367404Y0264500D03*
X0374096Y0264500D03*
X0374096Y0254000D03*
X0367404Y0254000D03*
X0367404Y0248000D03*
X0367404Y0242000D03*
X0374096Y0242000D03*
X0374096Y0248000D03*
X0350096Y0251500D03*
X0343404Y0251500D03*
X0330596Y0246000D03*
X0323904Y0246000D03*
X0323904Y0240000D03*
X0330596Y0240000D03*
X0317596Y0240000D03*
X0310904Y0240000D03*
X0310904Y0246000D03*
X0317596Y0246000D03*
X0282596Y0188500D03*
X0282596Y0182500D03*
X0275904Y0182500D03*
X0275904Y0188500D03*
X0310904Y0181500D03*
X0310904Y0175500D03*
X0317596Y0175500D03*
X0317596Y0181500D03*
X0323904Y0181300D03*
X0330596Y0181300D03*
X0343404Y0185500D03*
X0350096Y0185500D03*
X0367404Y0172500D03*
X0374096Y0172500D03*
X0374096Y0162000D03*
X0367404Y0162000D03*
X0367404Y0156000D03*
X0367404Y0150000D03*
X0374096Y0150000D03*
X0374096Y0156000D03*
X0350096Y0159500D03*
X0343404Y0159500D03*
X0330596Y0154000D03*
X0323904Y0154000D03*
X0323904Y0148000D03*
X0330596Y0148000D03*
X0317596Y0148000D03*
X0310904Y0148000D03*
X0310904Y0154000D03*
X0317596Y0154000D03*
X0343404Y0093500D03*
X0350096Y0093500D03*
X0330596Y0089300D03*
X0323904Y0089300D03*
X0317596Y0089500D03*
X0310904Y0089500D03*
X0310904Y0083500D03*
X0317596Y0083500D03*
X0317596Y0062000D03*
X0317596Y0056000D03*
X0310904Y0056000D03*
X0310904Y0062000D03*
X0323904Y0062000D03*
X0323904Y0056000D03*
X0330596Y0056000D03*
X0330596Y0062000D03*
X0343404Y0067500D03*
X0350096Y0067500D03*
X0367404Y0070000D03*
X0367404Y0064000D03*
X0374096Y0064000D03*
X0374096Y0070000D03*
X0374096Y0080500D03*
X0367404Y0080500D03*
X0367404Y0058000D03*
X0374096Y0058000D03*
X0282596Y0090500D03*
X0282596Y0096500D03*
X0275904Y0096500D03*
X0275904Y0090500D03*
X0174096Y0058000D03*
X0167404Y0058000D03*
D11*
X0148830Y0072127D02*
X0148830Y0074873D01*
X0151576Y0074873D01*
X0151576Y0072127D01*
X0148830Y0072127D01*
X0148830Y0074017D02*
X0151576Y0074017D01*
X0141924Y0074873D02*
X0141924Y0072127D01*
X0141924Y0074873D02*
X0144670Y0074873D01*
X0144670Y0072127D01*
X0141924Y0072127D01*
X0141924Y0074017D02*
X0144670Y0074017D01*
X0078123Y0077420D02*
X0075377Y0077420D01*
X0078123Y0077420D02*
X0078123Y0074674D01*
X0075377Y0074674D01*
X0075377Y0077420D01*
X0075377Y0076564D02*
X0078123Y0076564D01*
X0078123Y0084326D02*
X0075377Y0084326D01*
X0078123Y0084326D02*
X0078123Y0081580D01*
X0075377Y0081580D01*
X0075377Y0084326D01*
X0075377Y0083470D02*
X0078123Y0083470D01*
X0078830Y0102127D02*
X0078830Y0104873D01*
X0081576Y0104873D01*
X0081576Y0102127D01*
X0078830Y0102127D01*
X0078830Y0104017D02*
X0081576Y0104017D01*
X0071924Y0104873D02*
X0071924Y0102127D01*
X0071924Y0104873D02*
X0074670Y0104873D01*
X0074670Y0102127D01*
X0071924Y0102127D01*
X0071924Y0104017D02*
X0074670Y0104017D01*
X0075377Y0169420D02*
X0078123Y0169420D01*
X0078123Y0166674D01*
X0075377Y0166674D01*
X0075377Y0169420D01*
X0075377Y0168564D02*
X0078123Y0168564D01*
X0078123Y0176326D02*
X0075377Y0176326D01*
X0078123Y0176326D02*
X0078123Y0173580D01*
X0075377Y0173580D01*
X0075377Y0176326D01*
X0075377Y0175470D02*
X0078123Y0175470D01*
X0078830Y0194127D02*
X0078830Y0196873D01*
X0081576Y0196873D01*
X0081576Y0194127D01*
X0078830Y0194127D01*
X0078830Y0196017D02*
X0081576Y0196017D01*
X0071924Y0196873D02*
X0071924Y0194127D01*
X0071924Y0196873D02*
X0074670Y0196873D01*
X0074670Y0194127D01*
X0071924Y0194127D01*
X0071924Y0196017D02*
X0074670Y0196017D01*
X0141924Y0166873D02*
X0141924Y0164127D01*
X0141924Y0166873D02*
X0144670Y0166873D01*
X0144670Y0164127D01*
X0141924Y0164127D01*
X0141924Y0166017D02*
X0144670Y0166017D01*
X0148830Y0166873D02*
X0148830Y0164127D01*
X0148830Y0166873D02*
X0151576Y0166873D01*
X0151576Y0164127D01*
X0148830Y0164127D01*
X0148830Y0166017D02*
X0151576Y0166017D01*
X0148830Y0256127D02*
X0148830Y0258873D01*
X0151576Y0258873D01*
X0151576Y0256127D01*
X0148830Y0256127D01*
X0148830Y0258017D02*
X0151576Y0258017D01*
X0141924Y0258873D02*
X0141924Y0256127D01*
X0141924Y0258873D02*
X0144670Y0258873D01*
X0144670Y0256127D01*
X0141924Y0256127D01*
X0141924Y0258017D02*
X0144670Y0258017D01*
X0078123Y0261420D02*
X0075377Y0261420D01*
X0078123Y0261420D02*
X0078123Y0258674D01*
X0075377Y0258674D01*
X0075377Y0261420D01*
X0075377Y0260564D02*
X0078123Y0260564D01*
X0078123Y0268326D02*
X0075377Y0268326D01*
X0078123Y0268326D02*
X0078123Y0265580D01*
X0075377Y0265580D01*
X0075377Y0268326D01*
X0075377Y0267470D02*
X0078123Y0267470D01*
X0078830Y0286127D02*
X0078830Y0288873D01*
X0081576Y0288873D01*
X0081576Y0286127D01*
X0078830Y0286127D01*
X0078830Y0288017D02*
X0081576Y0288017D01*
X0071924Y0288873D02*
X0071924Y0286127D01*
X0071924Y0288873D02*
X0074670Y0288873D01*
X0074670Y0286127D01*
X0071924Y0286127D01*
X0071924Y0288017D02*
X0074670Y0288017D01*
X0141924Y0348127D02*
X0141924Y0350873D01*
X0144670Y0350873D01*
X0144670Y0348127D01*
X0141924Y0348127D01*
X0141924Y0350017D02*
X0144670Y0350017D01*
X0148830Y0350873D02*
X0148830Y0348127D01*
X0148830Y0350873D02*
X0151576Y0350873D01*
X0151576Y0348127D01*
X0148830Y0348127D01*
X0148830Y0350017D02*
X0151576Y0350017D01*
X0078123Y0353420D02*
X0075377Y0353420D01*
X0078123Y0353420D02*
X0078123Y0350674D01*
X0075377Y0350674D01*
X0075377Y0353420D01*
X0075377Y0352564D02*
X0078123Y0352564D01*
X0078123Y0360326D02*
X0075377Y0360326D01*
X0078123Y0360326D02*
X0078123Y0357580D01*
X0075377Y0357580D01*
X0075377Y0360326D01*
X0075377Y0359470D02*
X0078123Y0359470D01*
X0078830Y0378127D02*
X0078830Y0380873D01*
X0081576Y0380873D01*
X0081576Y0378127D01*
X0078830Y0378127D01*
X0078830Y0380017D02*
X0081576Y0380017D01*
X0071924Y0380873D02*
X0071924Y0378127D01*
X0071924Y0380873D02*
X0074670Y0380873D01*
X0074670Y0378127D01*
X0071924Y0378127D01*
X0071924Y0380017D02*
X0074670Y0380017D01*
X0271924Y0380873D02*
X0271924Y0378127D01*
X0271924Y0380873D02*
X0274670Y0380873D01*
X0274670Y0378127D01*
X0271924Y0378127D01*
X0271924Y0380017D02*
X0274670Y0380017D01*
X0278830Y0380873D02*
X0278830Y0378127D01*
X0278830Y0380873D02*
X0281576Y0380873D01*
X0281576Y0378127D01*
X0278830Y0378127D01*
X0278830Y0380017D02*
X0281576Y0380017D01*
X0278123Y0360326D02*
X0275377Y0360326D01*
X0278123Y0360326D02*
X0278123Y0357580D01*
X0275377Y0357580D01*
X0275377Y0360326D01*
X0275377Y0359470D02*
X0278123Y0359470D01*
X0278123Y0353420D02*
X0275377Y0353420D01*
X0278123Y0353420D02*
X0278123Y0350674D01*
X0275377Y0350674D01*
X0275377Y0353420D01*
X0275377Y0352564D02*
X0278123Y0352564D01*
X0341924Y0350873D02*
X0341924Y0348127D01*
X0341924Y0350873D02*
X0344670Y0350873D01*
X0344670Y0348127D01*
X0341924Y0348127D01*
X0341924Y0350017D02*
X0344670Y0350017D01*
X0348830Y0350873D02*
X0348830Y0348127D01*
X0348830Y0350873D02*
X0351576Y0350873D01*
X0351576Y0348127D01*
X0348830Y0348127D01*
X0348830Y0350017D02*
X0351576Y0350017D01*
X0278830Y0288873D02*
X0278830Y0286127D01*
X0278830Y0288873D02*
X0281576Y0288873D01*
X0281576Y0286127D01*
X0278830Y0286127D01*
X0278830Y0288017D02*
X0281576Y0288017D01*
X0271924Y0288873D02*
X0271924Y0286127D01*
X0271924Y0288873D02*
X0274670Y0288873D01*
X0274670Y0286127D01*
X0271924Y0286127D01*
X0271924Y0288017D02*
X0274670Y0288017D01*
X0275377Y0268326D02*
X0278123Y0268326D01*
X0278123Y0265580D01*
X0275377Y0265580D01*
X0275377Y0268326D01*
X0275377Y0267470D02*
X0278123Y0267470D01*
X0278123Y0261420D02*
X0275377Y0261420D01*
X0278123Y0261420D02*
X0278123Y0258674D01*
X0275377Y0258674D01*
X0275377Y0261420D01*
X0275377Y0260564D02*
X0278123Y0260564D01*
X0341924Y0258873D02*
X0341924Y0256127D01*
X0341924Y0258873D02*
X0344670Y0258873D01*
X0344670Y0256127D01*
X0341924Y0256127D01*
X0341924Y0258017D02*
X0344670Y0258017D01*
X0348830Y0258873D02*
X0348830Y0256127D01*
X0348830Y0258873D02*
X0351576Y0258873D01*
X0351576Y0256127D01*
X0348830Y0256127D01*
X0348830Y0258017D02*
X0351576Y0258017D01*
X0278830Y0196873D02*
X0278830Y0194127D01*
X0278830Y0196873D02*
X0281576Y0196873D01*
X0281576Y0194127D01*
X0278830Y0194127D01*
X0278830Y0196017D02*
X0281576Y0196017D01*
X0271924Y0196873D02*
X0271924Y0194127D01*
X0271924Y0196873D02*
X0274670Y0196873D01*
X0274670Y0194127D01*
X0271924Y0194127D01*
X0271924Y0196017D02*
X0274670Y0196017D01*
X0275377Y0176326D02*
X0278123Y0176326D01*
X0278123Y0173580D01*
X0275377Y0173580D01*
X0275377Y0176326D01*
X0275377Y0175470D02*
X0278123Y0175470D01*
X0278123Y0169420D02*
X0275377Y0169420D01*
X0278123Y0169420D02*
X0278123Y0166674D01*
X0275377Y0166674D01*
X0275377Y0169420D01*
X0275377Y0168564D02*
X0278123Y0168564D01*
X0341924Y0166873D02*
X0341924Y0164127D01*
X0341924Y0166873D02*
X0344670Y0166873D01*
X0344670Y0164127D01*
X0341924Y0164127D01*
X0341924Y0166017D02*
X0344670Y0166017D01*
X0348830Y0166873D02*
X0348830Y0164127D01*
X0348830Y0166873D02*
X0351576Y0166873D01*
X0351576Y0164127D01*
X0348830Y0164127D01*
X0348830Y0166017D02*
X0351576Y0166017D01*
X0278830Y0104873D02*
X0278830Y0102127D01*
X0278830Y0104873D02*
X0281576Y0104873D01*
X0281576Y0102127D01*
X0278830Y0102127D01*
X0278830Y0104017D02*
X0281576Y0104017D01*
X0271924Y0104873D02*
X0271924Y0102127D01*
X0271924Y0104873D02*
X0274670Y0104873D01*
X0274670Y0102127D01*
X0271924Y0102127D01*
X0271924Y0104017D02*
X0274670Y0104017D01*
X0275377Y0084326D02*
X0278123Y0084326D01*
X0278123Y0081580D01*
X0275377Y0081580D01*
X0275377Y0084326D01*
X0275377Y0083470D02*
X0278123Y0083470D01*
X0278123Y0077420D02*
X0275377Y0077420D01*
X0278123Y0077420D02*
X0278123Y0074674D01*
X0275377Y0074674D01*
X0275377Y0077420D01*
X0275377Y0076564D02*
X0278123Y0076564D01*
X0341924Y0074873D02*
X0341924Y0072127D01*
X0341924Y0074873D02*
X0344670Y0074873D01*
X0344670Y0072127D01*
X0341924Y0072127D01*
X0341924Y0074017D02*
X0344670Y0074017D01*
X0348830Y0074873D02*
X0348830Y0072127D01*
X0348830Y0074873D02*
X0351576Y0074873D01*
X0351576Y0072127D01*
X0348830Y0072127D01*
X0348830Y0074017D02*
X0351576Y0074017D01*
D12*
X0266250Y0086982D03*
X0266250Y0089541D03*
X0266250Y0092100D03*
X0266250Y0094659D03*
X0266250Y0097218D03*
X0266250Y0178982D03*
X0266250Y0181541D03*
X0266250Y0184100D03*
X0266250Y0186659D03*
X0266250Y0189218D03*
X0266250Y0270982D03*
X0266250Y0273541D03*
X0266250Y0276100D03*
X0266250Y0278659D03*
X0266250Y0281218D03*
X0266250Y0362982D03*
X0266250Y0365541D03*
X0266250Y0368100D03*
X0266250Y0370659D03*
X0266250Y0373218D03*
X0066250Y0373218D03*
X0066250Y0370659D03*
X0066250Y0368100D03*
X0066250Y0365541D03*
X0066250Y0362982D03*
X0066250Y0281218D03*
X0066250Y0278659D03*
X0066250Y0276100D03*
X0066250Y0273541D03*
X0066250Y0270982D03*
X0066250Y0189218D03*
X0066250Y0186659D03*
X0066250Y0184100D03*
X0066250Y0181541D03*
X0066250Y0178982D03*
X0066250Y0097218D03*
X0066250Y0094659D03*
X0066250Y0092100D03*
X0066250Y0089541D03*
X0066250Y0086982D03*
D13*
X0067333Y0080683D03*
X0067333Y0103517D03*
X0067333Y0172683D03*
X0067333Y0195517D03*
X0067333Y0264683D03*
X0067333Y0287517D03*
X0067333Y0356683D03*
X0067333Y0379517D03*
X0267333Y0379517D03*
X0267333Y0356683D03*
X0267333Y0287517D03*
X0267333Y0264683D03*
X0267333Y0195517D03*
X0267333Y0172683D03*
X0267333Y0103517D03*
X0267333Y0080683D03*
D14*
X0255719Y0088311D03*
X0255719Y0095889D03*
X0255719Y0180311D03*
X0255719Y0187889D03*
X0255719Y0272311D03*
X0255719Y0279889D03*
X0255719Y0364311D03*
X0255719Y0371889D03*
X0055719Y0371889D03*
X0055719Y0364311D03*
X0055719Y0279889D03*
X0055719Y0272311D03*
X0055719Y0187889D03*
X0055719Y0180311D03*
X0055719Y0095889D03*
X0055719Y0088311D03*
D15*
X0053159Y0084226D02*
X0063789Y0084226D01*
X0063789Y0077139D01*
X0060640Y0077139D01*
X0060640Y0078320D01*
X0053159Y0078320D01*
X0052858Y0078399D01*
X0052581Y0078542D01*
X0052343Y0078744D01*
X0052156Y0078993D01*
X0052029Y0079278D01*
X0051969Y0079584D01*
X0051978Y0079895D01*
X0051978Y0083045D01*
X0052008Y0083308D01*
X0052095Y0083557D01*
X0052236Y0083781D01*
X0052423Y0083968D01*
X0052647Y0084109D01*
X0052897Y0084196D01*
X0053159Y0084226D01*
X0052348Y0083893D02*
X0063789Y0083893D01*
X0063789Y0083495D02*
X0052073Y0083495D01*
X0051984Y0083096D02*
X0063789Y0083096D01*
X0063789Y0082698D02*
X0051978Y0082698D01*
X0051978Y0082299D02*
X0063789Y0082299D01*
X0063789Y0081901D02*
X0051978Y0081901D01*
X0051978Y0081502D02*
X0063789Y0081502D01*
X0063789Y0081103D02*
X0051978Y0081103D01*
X0051978Y0080705D02*
X0063789Y0080705D01*
X0063789Y0080306D02*
X0051978Y0080306D01*
X0051978Y0079908D02*
X0063789Y0079908D01*
X0063789Y0079509D02*
X0051984Y0079509D01*
X0052104Y0079111D02*
X0063789Y0079111D01*
X0063789Y0078712D02*
X0052380Y0078712D01*
X0060640Y0078314D02*
X0063789Y0078314D01*
X0063789Y0077915D02*
X0060640Y0077915D01*
X0060640Y0077517D02*
X0063789Y0077517D01*
X0063789Y0099974D02*
X0053553Y0099974D01*
X0053242Y0099965D01*
X0052936Y0100025D01*
X0052651Y0100152D01*
X0052402Y0100339D01*
X0052200Y0100577D01*
X0052057Y0100853D01*
X0051978Y0101155D01*
X0051978Y0103911D01*
X0052018Y0104261D01*
X0052134Y0104594D01*
X0052322Y0104893D01*
X0052571Y0105142D01*
X0052870Y0105330D01*
X0053203Y0105446D01*
X0053553Y0105486D01*
X0060640Y0105486D01*
X0060640Y0107061D01*
X0063789Y0107061D01*
X0063789Y0099974D01*
X0063789Y0100232D02*
X0052544Y0100232D01*
X0052172Y0100631D02*
X0063789Y0100631D01*
X0063789Y0101029D02*
X0052011Y0101029D01*
X0051978Y0101428D02*
X0063789Y0101428D01*
X0063789Y0101826D02*
X0051978Y0101826D01*
X0051978Y0102225D02*
X0063789Y0102225D01*
X0063789Y0102623D02*
X0051978Y0102623D01*
X0051978Y0103022D02*
X0063789Y0103022D01*
X0063789Y0103420D02*
X0051978Y0103420D01*
X0051978Y0103819D02*
X0063789Y0103819D01*
X0063789Y0104217D02*
X0052013Y0104217D01*
X0052148Y0104616D02*
X0063789Y0104616D01*
X0063789Y0105014D02*
X0052443Y0105014D01*
X0053107Y0105413D02*
X0063789Y0105413D01*
X0063789Y0105811D02*
X0060640Y0105811D01*
X0060640Y0106210D02*
X0063789Y0106210D01*
X0063789Y0106608D02*
X0060640Y0106608D01*
X0060640Y0107007D02*
X0063789Y0107007D01*
X0063789Y0169139D02*
X0060640Y0169139D01*
X0060640Y0170320D01*
X0053159Y0170320D01*
X0052858Y0170399D01*
X0052581Y0170542D01*
X0052343Y0170744D01*
X0052156Y0170993D01*
X0052029Y0171278D01*
X0051969Y0171584D01*
X0051978Y0171895D01*
X0051978Y0175045D01*
X0052008Y0175308D01*
X0052095Y0175557D01*
X0052236Y0175781D01*
X0052423Y0175968D01*
X0052647Y0176109D01*
X0052897Y0176196D01*
X0053159Y0176226D01*
X0063789Y0176226D01*
X0063789Y0169139D01*
X0063789Y0169174D02*
X0060640Y0169174D01*
X0060640Y0169573D02*
X0063789Y0169573D01*
X0063789Y0169972D02*
X0060640Y0169972D01*
X0063789Y0170370D02*
X0052969Y0170370D01*
X0052325Y0170769D02*
X0063789Y0170769D01*
X0063789Y0171167D02*
X0052079Y0171167D01*
X0051973Y0171566D02*
X0063789Y0171566D01*
X0063789Y0171964D02*
X0051978Y0171964D01*
X0051978Y0172363D02*
X0063789Y0172363D01*
X0063789Y0172761D02*
X0051978Y0172761D01*
X0051978Y0173160D02*
X0063789Y0173160D01*
X0063789Y0173558D02*
X0051978Y0173558D01*
X0051978Y0173957D02*
X0063789Y0173957D01*
X0063789Y0174355D02*
X0051978Y0174355D01*
X0051978Y0174754D02*
X0063789Y0174754D01*
X0063789Y0175152D02*
X0051990Y0175152D01*
X0052093Y0175551D02*
X0063789Y0175551D01*
X0063789Y0175949D02*
X0052404Y0175949D01*
X0053242Y0191965D02*
X0052936Y0192025D01*
X0052651Y0192152D01*
X0052402Y0192339D01*
X0052200Y0192577D01*
X0052057Y0192853D01*
X0051978Y0193155D01*
X0051978Y0195911D01*
X0052018Y0196261D01*
X0052134Y0196594D01*
X0052322Y0196893D01*
X0052571Y0197142D01*
X0052870Y0197330D01*
X0053203Y0197446D01*
X0053553Y0197486D01*
X0060640Y0197486D01*
X0060640Y0199061D01*
X0063789Y0199061D01*
X0063789Y0191974D01*
X0053553Y0191974D01*
X0053242Y0191965D01*
X0052469Y0192288D02*
X0063789Y0192288D01*
X0063789Y0192687D02*
X0052143Y0192687D01*
X0051997Y0193085D02*
X0063789Y0193085D01*
X0063789Y0193484D02*
X0051978Y0193484D01*
X0051978Y0193882D02*
X0063789Y0193882D01*
X0063789Y0194281D02*
X0051978Y0194281D01*
X0051978Y0194679D02*
X0063789Y0194679D01*
X0063789Y0195078D02*
X0051978Y0195078D01*
X0051978Y0195476D02*
X0063789Y0195476D01*
X0063789Y0195875D02*
X0051978Y0195875D01*
X0052022Y0196273D02*
X0063789Y0196273D01*
X0063789Y0196672D02*
X0052183Y0196672D01*
X0052499Y0197070D02*
X0063789Y0197070D01*
X0063789Y0197469D02*
X0053402Y0197469D01*
X0060640Y0197867D02*
X0063789Y0197867D01*
X0063789Y0198266D02*
X0060640Y0198266D01*
X0060640Y0198664D02*
X0063789Y0198664D01*
X0063789Y0261139D02*
X0060640Y0261139D01*
X0060640Y0262320D01*
X0053159Y0262320D01*
X0052858Y0262399D01*
X0052581Y0262542D01*
X0052343Y0262744D01*
X0052156Y0262993D01*
X0052029Y0263278D01*
X0051969Y0263584D01*
X0051978Y0263895D01*
X0051978Y0267045D01*
X0052008Y0267308D01*
X0052095Y0267557D01*
X0052236Y0267781D01*
X0052423Y0267968D01*
X0052647Y0268109D01*
X0052897Y0268196D01*
X0053159Y0268226D01*
X0063789Y0268226D01*
X0063789Y0261139D01*
X0063789Y0261231D02*
X0060640Y0261231D01*
X0060640Y0261629D02*
X0063789Y0261629D01*
X0063789Y0262028D02*
X0060640Y0262028D01*
X0063789Y0262426D02*
X0052805Y0262426D01*
X0052283Y0262825D02*
X0063789Y0262825D01*
X0063789Y0263223D02*
X0052054Y0263223D01*
X0051970Y0263622D02*
X0063789Y0263622D01*
X0063789Y0264020D02*
X0051978Y0264020D01*
X0051978Y0264419D02*
X0063789Y0264419D01*
X0063789Y0264817D02*
X0051978Y0264817D01*
X0051978Y0265216D02*
X0063789Y0265216D01*
X0063789Y0265614D02*
X0051978Y0265614D01*
X0051978Y0266013D02*
X0063789Y0266013D01*
X0063789Y0266411D02*
X0051978Y0266411D01*
X0051978Y0266810D02*
X0063789Y0266810D01*
X0063789Y0267208D02*
X0051997Y0267208D01*
X0052126Y0267607D02*
X0063789Y0267607D01*
X0063789Y0268005D02*
X0052482Y0268005D01*
X0053242Y0283965D02*
X0052936Y0284025D01*
X0052651Y0284152D01*
X0052402Y0284339D01*
X0052200Y0284577D01*
X0052057Y0284853D01*
X0051978Y0285155D01*
X0051978Y0287911D01*
X0052018Y0288261D01*
X0052134Y0288594D01*
X0052322Y0288893D01*
X0052571Y0289142D01*
X0052870Y0289330D01*
X0053203Y0289446D01*
X0053553Y0289486D01*
X0060640Y0289486D01*
X0060640Y0291061D01*
X0063789Y0291061D01*
X0063789Y0283974D01*
X0053553Y0283974D01*
X0053242Y0283965D01*
X0052397Y0284344D02*
X0063789Y0284344D01*
X0063789Y0284743D02*
X0052114Y0284743D01*
X0051982Y0285141D02*
X0063789Y0285141D01*
X0063789Y0285540D02*
X0051978Y0285540D01*
X0051978Y0285938D02*
X0063789Y0285938D01*
X0063789Y0286337D02*
X0051978Y0286337D01*
X0051978Y0286735D02*
X0063789Y0286735D01*
X0063789Y0287134D02*
X0051978Y0287134D01*
X0051978Y0287532D02*
X0063789Y0287532D01*
X0063789Y0287931D02*
X0051981Y0287931D01*
X0052042Y0288329D02*
X0063789Y0288329D01*
X0063789Y0288728D02*
X0052218Y0288728D01*
X0052555Y0289126D02*
X0063789Y0289126D01*
X0063789Y0289525D02*
X0060640Y0289525D01*
X0060640Y0289923D02*
X0063789Y0289923D01*
X0063789Y0290322D02*
X0060640Y0290322D01*
X0060640Y0290720D02*
X0063789Y0290720D01*
X0063789Y0353139D02*
X0060640Y0353139D01*
X0060640Y0354320D01*
X0053159Y0354320D01*
X0052858Y0354399D01*
X0052581Y0354542D01*
X0052343Y0354744D01*
X0052156Y0354993D01*
X0052029Y0355278D01*
X0051969Y0355584D01*
X0051978Y0355895D01*
X0051978Y0359045D01*
X0052008Y0359308D01*
X0052095Y0359557D01*
X0052236Y0359781D01*
X0052423Y0359968D01*
X0052647Y0360109D01*
X0052897Y0360196D01*
X0053159Y0360226D01*
X0063789Y0360226D01*
X0063789Y0353139D01*
X0063789Y0353287D02*
X0060640Y0353287D01*
X0060640Y0353685D02*
X0063789Y0353685D01*
X0063789Y0354084D02*
X0060640Y0354084D01*
X0063789Y0354482D02*
X0052697Y0354482D01*
X0052241Y0354881D02*
X0063789Y0354881D01*
X0063789Y0355279D02*
X0052029Y0355279D01*
X0051972Y0355678D02*
X0063789Y0355678D01*
X0063789Y0356076D02*
X0051978Y0356076D01*
X0051978Y0356475D02*
X0063789Y0356475D01*
X0063789Y0356873D02*
X0051978Y0356873D01*
X0051978Y0357272D02*
X0063789Y0357272D01*
X0063789Y0357670D02*
X0051978Y0357670D01*
X0051978Y0358069D02*
X0063789Y0358069D01*
X0063789Y0358467D02*
X0051978Y0358467D01*
X0051978Y0358866D02*
X0063789Y0358866D01*
X0063789Y0359264D02*
X0052003Y0359264D01*
X0052162Y0359663D02*
X0063789Y0359663D01*
X0063789Y0360061D02*
X0052571Y0360061D01*
X0053242Y0375965D02*
X0052936Y0376025D01*
X0052651Y0376152D01*
X0052402Y0376339D01*
X0052200Y0376577D01*
X0052057Y0376853D01*
X0051978Y0377155D01*
X0051978Y0379911D01*
X0052018Y0380261D01*
X0052134Y0380594D01*
X0052322Y0380893D01*
X0052571Y0381142D01*
X0052870Y0381330D01*
X0053203Y0381446D01*
X0053553Y0381486D01*
X0060640Y0381486D01*
X0060640Y0383061D01*
X0063789Y0383061D01*
X0063789Y0375974D01*
X0053553Y0375974D01*
X0053242Y0375965D01*
X0053053Y0376002D02*
X0063789Y0376002D01*
X0063789Y0376400D02*
X0052350Y0376400D01*
X0052085Y0376799D02*
X0063789Y0376799D01*
X0063789Y0377197D02*
X0051978Y0377197D01*
X0051978Y0377596D02*
X0063789Y0377596D01*
X0063789Y0377994D02*
X0051978Y0377994D01*
X0051978Y0378393D02*
X0063789Y0378393D01*
X0063789Y0378791D02*
X0051978Y0378791D01*
X0051978Y0379190D02*
X0063789Y0379190D01*
X0063789Y0379588D02*
X0051978Y0379588D01*
X0051987Y0379987D02*
X0063789Y0379987D01*
X0063789Y0380385D02*
X0052061Y0380385D01*
X0052253Y0380784D02*
X0063789Y0380784D01*
X0063789Y0381183D02*
X0052635Y0381183D01*
X0060640Y0381581D02*
X0063789Y0381581D01*
X0063789Y0381980D02*
X0060640Y0381980D01*
X0060640Y0382378D02*
X0063789Y0382378D01*
X0063789Y0382777D02*
X0060640Y0382777D01*
X0251978Y0379911D02*
X0252018Y0380261D01*
X0252134Y0380594D01*
X0252322Y0380893D01*
X0252571Y0381142D01*
X0252870Y0381330D01*
X0253203Y0381446D01*
X0253553Y0381486D01*
X0260640Y0381486D01*
X0260640Y0383061D01*
X0263789Y0383061D01*
X0263789Y0375974D01*
X0253553Y0375974D01*
X0253242Y0375965D01*
X0252936Y0376025D01*
X0252651Y0376152D01*
X0252402Y0376339D01*
X0252200Y0376577D01*
X0252057Y0376853D01*
X0251978Y0377155D01*
X0251978Y0379911D01*
X0251987Y0379987D02*
X0263789Y0379987D01*
X0263789Y0380385D02*
X0252061Y0380385D01*
X0252253Y0380784D02*
X0263789Y0380784D01*
X0263789Y0381183D02*
X0252635Y0381183D01*
X0251978Y0379588D02*
X0263789Y0379588D01*
X0263789Y0379190D02*
X0251978Y0379190D01*
X0251978Y0378791D02*
X0263789Y0378791D01*
X0263789Y0378393D02*
X0251978Y0378393D01*
X0251978Y0377994D02*
X0263789Y0377994D01*
X0263789Y0377596D02*
X0251978Y0377596D01*
X0251978Y0377197D02*
X0263789Y0377197D01*
X0263789Y0376799D02*
X0252085Y0376799D01*
X0252350Y0376400D02*
X0263789Y0376400D01*
X0263789Y0376002D02*
X0253053Y0376002D01*
X0260640Y0381581D02*
X0263789Y0381581D01*
X0263789Y0381980D02*
X0260640Y0381980D01*
X0260640Y0382378D02*
X0263789Y0382378D01*
X0263789Y0382777D02*
X0260640Y0382777D01*
X0263789Y0360226D02*
X0253159Y0360226D01*
X0252897Y0360196D01*
X0252647Y0360109D01*
X0252423Y0359968D01*
X0252236Y0359781D01*
X0252095Y0359557D01*
X0252008Y0359308D01*
X0251978Y0359045D01*
X0251978Y0355895D01*
X0251969Y0355584D01*
X0252029Y0355278D01*
X0252156Y0354993D01*
X0252343Y0354744D01*
X0252581Y0354542D01*
X0252858Y0354399D01*
X0253159Y0354320D01*
X0260640Y0354320D01*
X0260640Y0353139D01*
X0263789Y0353139D01*
X0263789Y0360226D01*
X0263789Y0360061D02*
X0252571Y0360061D01*
X0252162Y0359663D02*
X0263789Y0359663D01*
X0263789Y0359264D02*
X0252003Y0359264D01*
X0251978Y0358866D02*
X0263789Y0358866D01*
X0263789Y0358467D02*
X0251978Y0358467D01*
X0251978Y0358069D02*
X0263789Y0358069D01*
X0263789Y0357670D02*
X0251978Y0357670D01*
X0251978Y0357272D02*
X0263789Y0357272D01*
X0263789Y0356873D02*
X0251978Y0356873D01*
X0251978Y0356475D02*
X0263789Y0356475D01*
X0263789Y0356076D02*
X0251978Y0356076D01*
X0251972Y0355678D02*
X0263789Y0355678D01*
X0263789Y0355279D02*
X0252029Y0355279D01*
X0252241Y0354881D02*
X0263789Y0354881D01*
X0263789Y0354482D02*
X0252697Y0354482D01*
X0260640Y0354084D02*
X0263789Y0354084D01*
X0263789Y0353685D02*
X0260640Y0353685D01*
X0260640Y0353287D02*
X0263789Y0353287D01*
X0263789Y0291061D02*
X0260640Y0291061D01*
X0260640Y0289486D01*
X0253553Y0289486D01*
X0253203Y0289446D01*
X0252870Y0289330D01*
X0252571Y0289142D01*
X0252322Y0288893D01*
X0252134Y0288594D01*
X0252018Y0288261D01*
X0251978Y0287911D01*
X0251978Y0285155D01*
X0252057Y0284853D01*
X0252200Y0284577D01*
X0252402Y0284339D01*
X0252651Y0284152D01*
X0252936Y0284025D01*
X0253242Y0283965D01*
X0253553Y0283974D01*
X0263789Y0283974D01*
X0263789Y0291061D01*
X0263789Y0290720D02*
X0260640Y0290720D01*
X0260640Y0290322D02*
X0263789Y0290322D01*
X0263789Y0289923D02*
X0260640Y0289923D01*
X0260640Y0289525D02*
X0263789Y0289525D01*
X0263789Y0289126D02*
X0252555Y0289126D01*
X0252218Y0288728D02*
X0263789Y0288728D01*
X0263789Y0288329D02*
X0252042Y0288329D01*
X0251981Y0287931D02*
X0263789Y0287931D01*
X0263789Y0287532D02*
X0251978Y0287532D01*
X0251978Y0287134D02*
X0263789Y0287134D01*
X0263789Y0286735D02*
X0251978Y0286735D01*
X0251978Y0286337D02*
X0263789Y0286337D01*
X0263789Y0285938D02*
X0251978Y0285938D01*
X0251978Y0285540D02*
X0263789Y0285540D01*
X0263789Y0285141D02*
X0251982Y0285141D01*
X0252114Y0284743D02*
X0263789Y0284743D01*
X0263789Y0284344D02*
X0252397Y0284344D01*
X0253159Y0268226D02*
X0263789Y0268226D01*
X0263789Y0261139D01*
X0260640Y0261139D01*
X0260640Y0262320D01*
X0253159Y0262320D01*
X0252858Y0262399D01*
X0252581Y0262542D01*
X0252343Y0262744D01*
X0252156Y0262993D01*
X0252029Y0263278D01*
X0251969Y0263584D01*
X0251978Y0263895D01*
X0251978Y0267045D01*
X0252008Y0267308D01*
X0252095Y0267557D01*
X0252236Y0267781D01*
X0252423Y0267968D01*
X0252647Y0268109D01*
X0252897Y0268196D01*
X0253159Y0268226D01*
X0252482Y0268005D02*
X0263789Y0268005D01*
X0263789Y0267607D02*
X0252126Y0267607D01*
X0251997Y0267208D02*
X0263789Y0267208D01*
X0263789Y0266810D02*
X0251978Y0266810D01*
X0251978Y0266411D02*
X0263789Y0266411D01*
X0263789Y0266013D02*
X0251978Y0266013D01*
X0251978Y0265614D02*
X0263789Y0265614D01*
X0263789Y0265216D02*
X0251978Y0265216D01*
X0251978Y0264817D02*
X0263789Y0264817D01*
X0263789Y0264419D02*
X0251978Y0264419D01*
X0251978Y0264020D02*
X0263789Y0264020D01*
X0263789Y0263622D02*
X0251970Y0263622D01*
X0252054Y0263223D02*
X0263789Y0263223D01*
X0263789Y0262825D02*
X0252283Y0262825D01*
X0252805Y0262426D02*
X0263789Y0262426D01*
X0263789Y0262028D02*
X0260640Y0262028D01*
X0260640Y0261629D02*
X0263789Y0261629D01*
X0263789Y0261231D02*
X0260640Y0261231D01*
X0260640Y0199061D02*
X0263789Y0199061D01*
X0263789Y0191974D01*
X0253553Y0191974D01*
X0253242Y0191965D01*
X0252936Y0192025D01*
X0252651Y0192152D01*
X0252402Y0192339D01*
X0252200Y0192577D01*
X0252057Y0192853D01*
X0251978Y0193155D01*
X0251978Y0195911D01*
X0252018Y0196261D01*
X0252134Y0196594D01*
X0252322Y0196893D01*
X0252571Y0197142D01*
X0252870Y0197330D01*
X0253203Y0197446D01*
X0253553Y0197486D01*
X0260640Y0197486D01*
X0260640Y0199061D01*
X0260640Y0198664D02*
X0263789Y0198664D01*
X0263789Y0198266D02*
X0260640Y0198266D01*
X0260640Y0197867D02*
X0263789Y0197867D01*
X0263789Y0197469D02*
X0253402Y0197469D01*
X0252499Y0197070D02*
X0263789Y0197070D01*
X0263789Y0196672D02*
X0252183Y0196672D01*
X0252022Y0196273D02*
X0263789Y0196273D01*
X0263789Y0195875D02*
X0251978Y0195875D01*
X0251978Y0195476D02*
X0263789Y0195476D01*
X0263789Y0195078D02*
X0251978Y0195078D01*
X0251978Y0194679D02*
X0263789Y0194679D01*
X0263789Y0194281D02*
X0251978Y0194281D01*
X0251978Y0193882D02*
X0263789Y0193882D01*
X0263789Y0193484D02*
X0251978Y0193484D01*
X0251997Y0193085D02*
X0263789Y0193085D01*
X0263789Y0192687D02*
X0252143Y0192687D01*
X0252469Y0192288D02*
X0263789Y0192288D01*
X0263789Y0176226D02*
X0253159Y0176226D01*
X0252897Y0176196D01*
X0252647Y0176109D01*
X0252423Y0175968D01*
X0252236Y0175781D01*
X0252095Y0175557D01*
X0252008Y0175308D01*
X0251978Y0175045D01*
X0251978Y0171895D01*
X0251969Y0171584D01*
X0252029Y0171278D01*
X0252156Y0170993D01*
X0252343Y0170744D01*
X0252581Y0170542D01*
X0252858Y0170399D01*
X0253159Y0170320D01*
X0260640Y0170320D01*
X0260640Y0169139D01*
X0263789Y0169139D01*
X0263789Y0176226D01*
X0263789Y0175949D02*
X0252404Y0175949D01*
X0252093Y0175551D02*
X0263789Y0175551D01*
X0263789Y0175152D02*
X0251990Y0175152D01*
X0251978Y0174754D02*
X0263789Y0174754D01*
X0263789Y0174355D02*
X0251978Y0174355D01*
X0251978Y0173957D02*
X0263789Y0173957D01*
X0263789Y0173558D02*
X0251978Y0173558D01*
X0251978Y0173160D02*
X0263789Y0173160D01*
X0263789Y0172761D02*
X0251978Y0172761D01*
X0251978Y0172363D02*
X0263789Y0172363D01*
X0263789Y0171964D02*
X0251978Y0171964D01*
X0251973Y0171566D02*
X0263789Y0171566D01*
X0263789Y0171167D02*
X0252079Y0171167D01*
X0252325Y0170769D02*
X0263789Y0170769D01*
X0263789Y0170370D02*
X0252969Y0170370D01*
X0260640Y0169972D02*
X0263789Y0169972D01*
X0263789Y0169573D02*
X0260640Y0169573D01*
X0260640Y0169174D02*
X0263789Y0169174D01*
X0263789Y0107061D02*
X0260640Y0107061D01*
X0260640Y0105486D01*
X0253553Y0105486D01*
X0253203Y0105446D01*
X0252870Y0105330D01*
X0252571Y0105142D01*
X0252322Y0104893D01*
X0252134Y0104594D01*
X0252018Y0104261D01*
X0251978Y0103911D01*
X0251978Y0101155D01*
X0252057Y0100853D01*
X0252200Y0100577D01*
X0252402Y0100339D01*
X0252651Y0100152D01*
X0252936Y0100025D01*
X0253242Y0099965D01*
X0253553Y0099974D01*
X0263789Y0099974D01*
X0263789Y0107061D01*
X0263789Y0107007D02*
X0260640Y0107007D01*
X0260640Y0106608D02*
X0263789Y0106608D01*
X0263789Y0106210D02*
X0260640Y0106210D01*
X0260640Y0105811D02*
X0263789Y0105811D01*
X0263789Y0105413D02*
X0253107Y0105413D01*
X0252443Y0105014D02*
X0263789Y0105014D01*
X0263789Y0104616D02*
X0252148Y0104616D01*
X0252013Y0104217D02*
X0263789Y0104217D01*
X0263789Y0103819D02*
X0251978Y0103819D01*
X0251978Y0103420D02*
X0263789Y0103420D01*
X0263789Y0103022D02*
X0251978Y0103022D01*
X0251978Y0102623D02*
X0263789Y0102623D01*
X0263789Y0102225D02*
X0251978Y0102225D01*
X0251978Y0101826D02*
X0263789Y0101826D01*
X0263789Y0101428D02*
X0251978Y0101428D01*
X0252011Y0101029D02*
X0263789Y0101029D01*
X0263789Y0100631D02*
X0252172Y0100631D01*
X0252544Y0100232D02*
X0263789Y0100232D01*
X0263789Y0084226D02*
X0253159Y0084226D01*
X0252897Y0084196D01*
X0252647Y0084109D01*
X0252423Y0083968D01*
X0252236Y0083781D01*
X0252095Y0083557D01*
X0252008Y0083308D01*
X0251978Y0083045D01*
X0251978Y0079895D01*
X0251969Y0079584D01*
X0252029Y0079278D01*
X0252156Y0078993D01*
X0252343Y0078744D01*
X0252581Y0078542D01*
X0252858Y0078399D01*
X0253159Y0078320D01*
X0260640Y0078320D01*
X0260640Y0077139D01*
X0263789Y0077139D01*
X0263789Y0084226D01*
X0263789Y0083893D02*
X0252348Y0083893D01*
X0252073Y0083495D02*
X0263789Y0083495D01*
X0263789Y0083096D02*
X0251984Y0083096D01*
X0251978Y0082698D02*
X0263789Y0082698D01*
X0263789Y0082299D02*
X0251978Y0082299D01*
X0251978Y0081901D02*
X0263789Y0081901D01*
X0263789Y0081502D02*
X0251978Y0081502D01*
X0251978Y0081103D02*
X0263789Y0081103D01*
X0263789Y0080705D02*
X0251978Y0080705D01*
X0251978Y0080306D02*
X0263789Y0080306D01*
X0263789Y0079908D02*
X0251978Y0079908D01*
X0251984Y0079509D02*
X0263789Y0079509D01*
X0263789Y0079111D02*
X0252104Y0079111D01*
X0252380Y0078712D02*
X0263789Y0078712D01*
X0263789Y0078314D02*
X0260640Y0078314D01*
X0260640Y0077915D02*
X0263789Y0077915D01*
X0263789Y0077517D02*
X0260640Y0077517D01*
D16*
X0172750Y0086079D03*
X0172750Y0095921D03*
X0172750Y0178079D03*
X0172750Y0187921D03*
X0172750Y0270079D03*
X0172750Y0279921D03*
X0172750Y0362079D03*
X0172750Y0371921D03*
X0372750Y0371921D03*
X0372750Y0362079D03*
X0372750Y0279921D03*
X0372750Y0270079D03*
X0372750Y0187921D03*
X0372750Y0178079D03*
X0372750Y0095921D03*
X0372750Y0086079D03*
D17*
X0364750Y0087654D03*
X0358750Y0086746D03*
X0358750Y0080054D03*
X0364750Y0094346D03*
X0358750Y0172054D03*
X0358750Y0178746D03*
X0364750Y0179654D03*
X0364750Y0186346D03*
X0358750Y0264054D03*
X0358750Y0270746D03*
X0364750Y0271654D03*
X0364750Y0278346D03*
X0358750Y0356054D03*
X0358750Y0362746D03*
X0364750Y0363654D03*
X0364750Y0370346D03*
X0164750Y0370346D03*
X0164750Y0363654D03*
X0158750Y0362746D03*
X0158750Y0356054D03*
X0164750Y0278346D03*
X0164750Y0271654D03*
X0158750Y0270746D03*
X0158750Y0264054D03*
X0164750Y0186346D03*
X0164750Y0179654D03*
X0158750Y0178746D03*
X0158750Y0172054D03*
X0164750Y0094346D03*
X0164750Y0087654D03*
X0158750Y0086746D03*
X0158750Y0080054D03*
D18*
X0185944Y0055193D03*
X0189093Y0055193D03*
X0192243Y0055193D03*
X0195393Y0055193D03*
X0198542Y0055193D03*
X0196967Y0058736D03*
X0193818Y0058736D03*
X0190668Y0058736D03*
X0200117Y0058736D03*
X0203267Y0058736D03*
X0206416Y0058736D03*
X0209566Y0058736D03*
X0212715Y0058736D03*
X0215865Y0058736D03*
X0219015Y0058736D03*
X0222164Y0058736D03*
X0220589Y0055193D03*
X0217440Y0055193D03*
X0211141Y0055193D03*
X0207991Y0055193D03*
X0204841Y0055193D03*
X0224920Y0055193D03*
X0209566Y0088264D03*
X0206416Y0088264D03*
X0203267Y0088264D03*
X0200117Y0088264D03*
X0196967Y0088264D03*
X0195393Y0091807D03*
X0198542Y0091807D03*
X0201692Y0091807D03*
X0204841Y0091807D03*
X0207991Y0091807D03*
X0211141Y0091807D03*
X0217440Y0091807D03*
X0220589Y0091807D03*
X0224920Y0091807D03*
X0224920Y0147193D03*
X0220589Y0147193D03*
X0217440Y0147193D03*
X0219015Y0150736D03*
X0222164Y0150736D03*
X0215865Y0150736D03*
X0212715Y0150736D03*
X0209566Y0150736D03*
X0206416Y0150736D03*
X0203267Y0150736D03*
X0200117Y0150736D03*
X0196967Y0150736D03*
X0193818Y0150736D03*
X0190668Y0150736D03*
X0189093Y0147193D03*
X0185944Y0147193D03*
X0192243Y0147193D03*
X0195393Y0147193D03*
X0198542Y0147193D03*
X0204841Y0147193D03*
X0207991Y0147193D03*
X0211141Y0147193D03*
X0209566Y0180264D03*
X0206416Y0180264D03*
X0203267Y0180264D03*
X0200117Y0180264D03*
X0196967Y0180264D03*
X0195393Y0183807D03*
X0198542Y0183807D03*
X0201692Y0183807D03*
X0204841Y0183807D03*
X0207991Y0183807D03*
X0211141Y0183807D03*
X0217440Y0183807D03*
X0220589Y0183807D03*
X0224920Y0183807D03*
X0224920Y0239193D03*
X0220589Y0239193D03*
X0217440Y0239193D03*
X0219015Y0242736D03*
X0222164Y0242736D03*
X0215865Y0242736D03*
X0212715Y0242736D03*
X0209566Y0242736D03*
X0206416Y0242736D03*
X0203267Y0242736D03*
X0200117Y0242736D03*
X0196967Y0242736D03*
X0193818Y0242736D03*
X0190668Y0242736D03*
X0189093Y0239193D03*
X0185944Y0239193D03*
X0192243Y0239193D03*
X0195393Y0239193D03*
X0198542Y0239193D03*
X0204841Y0239193D03*
X0207991Y0239193D03*
X0211141Y0239193D03*
X0209566Y0272264D03*
X0206416Y0272264D03*
X0203267Y0272264D03*
X0200117Y0272264D03*
X0196967Y0272264D03*
X0195393Y0275807D03*
X0198542Y0275807D03*
X0201692Y0275807D03*
X0204841Y0275807D03*
X0207991Y0275807D03*
X0211141Y0275807D03*
X0217440Y0275807D03*
X0220589Y0275807D03*
X0224920Y0275807D03*
X0224920Y0331193D03*
X0220589Y0331193D03*
X0217440Y0331193D03*
X0219015Y0334736D03*
X0222164Y0334736D03*
X0215865Y0334736D03*
X0212715Y0334736D03*
X0209566Y0334736D03*
X0206416Y0334736D03*
X0203267Y0334736D03*
X0200117Y0334736D03*
X0196967Y0334736D03*
X0193818Y0334736D03*
X0190668Y0334736D03*
X0189093Y0331193D03*
X0185944Y0331193D03*
X0192243Y0331193D03*
X0195393Y0331193D03*
X0198542Y0331193D03*
X0204841Y0331193D03*
X0207991Y0331193D03*
X0211141Y0331193D03*
X0209566Y0364264D03*
X0206416Y0364264D03*
X0203267Y0364264D03*
X0200117Y0364264D03*
X0196967Y0364264D03*
X0195393Y0367807D03*
X0198542Y0367807D03*
X0201692Y0367807D03*
X0204841Y0367807D03*
X0207991Y0367807D03*
X0211141Y0367807D03*
X0217440Y0367807D03*
X0220589Y0367807D03*
X0224920Y0367807D03*
X0385944Y0331193D03*
X0389093Y0331193D03*
X0392243Y0331193D03*
X0395393Y0331193D03*
X0398542Y0331193D03*
X0396967Y0334736D03*
X0393818Y0334736D03*
X0390668Y0334736D03*
X0400117Y0334736D03*
X0403267Y0334736D03*
X0406416Y0334736D03*
X0409566Y0334736D03*
X0412715Y0334736D03*
X0415865Y0334736D03*
X0419015Y0334736D03*
X0422164Y0334736D03*
X0420589Y0331193D03*
X0417440Y0331193D03*
X0411141Y0331193D03*
X0407991Y0331193D03*
X0404841Y0331193D03*
X0424920Y0331193D03*
X0409566Y0364264D03*
X0406416Y0364264D03*
X0403267Y0364264D03*
X0400117Y0364264D03*
X0396967Y0364264D03*
X0395393Y0367807D03*
X0398542Y0367807D03*
X0401692Y0367807D03*
X0404841Y0367807D03*
X0407991Y0367807D03*
X0411141Y0367807D03*
X0417440Y0367807D03*
X0420589Y0367807D03*
X0424920Y0367807D03*
X0424920Y0275807D03*
X0420589Y0275807D03*
X0417440Y0275807D03*
X0411141Y0275807D03*
X0407991Y0275807D03*
X0404841Y0275807D03*
X0401692Y0275807D03*
X0398542Y0275807D03*
X0395393Y0275807D03*
X0396967Y0272264D03*
X0400117Y0272264D03*
X0403267Y0272264D03*
X0406416Y0272264D03*
X0409566Y0272264D03*
X0409566Y0242736D03*
X0412715Y0242736D03*
X0415865Y0242736D03*
X0419015Y0242736D03*
X0422164Y0242736D03*
X0420589Y0239193D03*
X0417440Y0239193D03*
X0411141Y0239193D03*
X0407991Y0239193D03*
X0404841Y0239193D03*
X0403267Y0242736D03*
X0406416Y0242736D03*
X0400117Y0242736D03*
X0396967Y0242736D03*
X0393818Y0242736D03*
X0390668Y0242736D03*
X0389093Y0239193D03*
X0385944Y0239193D03*
X0392243Y0239193D03*
X0395393Y0239193D03*
X0398542Y0239193D03*
X0424920Y0239193D03*
X0424920Y0183807D03*
X0420589Y0183807D03*
X0417440Y0183807D03*
X0411141Y0183807D03*
X0407991Y0183807D03*
X0404841Y0183807D03*
X0401692Y0183807D03*
X0398542Y0183807D03*
X0395393Y0183807D03*
X0396967Y0180264D03*
X0400117Y0180264D03*
X0403267Y0180264D03*
X0406416Y0180264D03*
X0409566Y0180264D03*
X0409566Y0150736D03*
X0412715Y0150736D03*
X0415865Y0150736D03*
X0419015Y0150736D03*
X0422164Y0150736D03*
X0420589Y0147193D03*
X0417440Y0147193D03*
X0411141Y0147193D03*
X0407991Y0147193D03*
X0404841Y0147193D03*
X0403267Y0150736D03*
X0406416Y0150736D03*
X0400117Y0150736D03*
X0396967Y0150736D03*
X0393818Y0150736D03*
X0390668Y0150736D03*
X0389093Y0147193D03*
X0385944Y0147193D03*
X0392243Y0147193D03*
X0395393Y0147193D03*
X0398542Y0147193D03*
X0424920Y0147193D03*
X0424920Y0091807D03*
X0420589Y0091807D03*
X0417440Y0091807D03*
X0411141Y0091807D03*
X0407991Y0091807D03*
X0404841Y0091807D03*
X0401692Y0091807D03*
X0398542Y0091807D03*
X0395393Y0091807D03*
X0396967Y0088264D03*
X0400117Y0088264D03*
X0403267Y0088264D03*
X0406416Y0088264D03*
X0409566Y0088264D03*
X0409566Y0058736D03*
X0412715Y0058736D03*
X0415865Y0058736D03*
X0419015Y0058736D03*
X0422164Y0058736D03*
X0420589Y0055193D03*
X0417440Y0055193D03*
X0411141Y0055193D03*
X0407991Y0055193D03*
X0404841Y0055193D03*
X0403267Y0058736D03*
X0406416Y0058736D03*
X0400117Y0058736D03*
X0396967Y0058736D03*
X0393818Y0058736D03*
X0390668Y0058736D03*
X0389093Y0055193D03*
X0385944Y0055193D03*
X0392243Y0055193D03*
X0395393Y0055193D03*
X0398542Y0055193D03*
X0424920Y0055193D03*
D19*
X0407991Y0065626D03*
X0407991Y0068776D03*
X0407991Y0071925D03*
X0407991Y0075075D03*
X0407991Y0078224D03*
X0407991Y0081374D03*
X0385550Y0081374D03*
X0385550Y0078224D03*
X0385550Y0075075D03*
X0385550Y0071925D03*
X0385550Y0068776D03*
X0385550Y0065626D03*
X0382007Y0064051D03*
X0382007Y0060902D03*
X0382007Y0057752D03*
X0382007Y0054602D03*
X0382007Y0067201D03*
X0382007Y0070350D03*
X0382007Y0073500D03*
X0382007Y0076650D03*
X0382007Y0079799D03*
X0382007Y0082949D03*
X0382007Y0086098D03*
X0382007Y0089248D03*
X0382007Y0092398D03*
X0382007Y0146602D03*
X0382007Y0149752D03*
X0382007Y0152902D03*
X0382007Y0156051D03*
X0382007Y0159201D03*
X0382007Y0162350D03*
X0382007Y0165500D03*
X0382007Y0168650D03*
X0382007Y0171799D03*
X0382007Y0174949D03*
X0382007Y0178098D03*
X0382007Y0181248D03*
X0382007Y0184398D03*
X0385550Y0173374D03*
X0385550Y0170224D03*
X0385550Y0167075D03*
X0385550Y0163925D03*
X0385550Y0160776D03*
X0385550Y0157626D03*
X0407991Y0157626D03*
X0407991Y0160776D03*
X0407991Y0163925D03*
X0407991Y0167075D03*
X0407991Y0170224D03*
X0407991Y0173374D03*
X0382007Y0238602D03*
X0382007Y0241752D03*
X0382007Y0244902D03*
X0382007Y0248051D03*
X0382007Y0251201D03*
X0382007Y0254350D03*
X0382007Y0257500D03*
X0382007Y0260650D03*
X0382007Y0263799D03*
X0382007Y0266949D03*
X0382007Y0270098D03*
X0382007Y0273248D03*
X0382007Y0276398D03*
X0385550Y0265374D03*
X0385550Y0262224D03*
X0385550Y0259075D03*
X0385550Y0255925D03*
X0385550Y0252776D03*
X0385550Y0249626D03*
X0407991Y0249626D03*
X0407991Y0252776D03*
X0407991Y0255925D03*
X0407991Y0259075D03*
X0407991Y0262224D03*
X0407991Y0265374D03*
X0382007Y0330602D03*
X0382007Y0333752D03*
X0382007Y0336902D03*
X0382007Y0340051D03*
X0382007Y0343201D03*
X0382007Y0346350D03*
X0382007Y0349500D03*
X0382007Y0352650D03*
X0382007Y0355799D03*
X0382007Y0358949D03*
X0382007Y0362098D03*
X0382007Y0365248D03*
X0382007Y0368398D03*
X0385550Y0357374D03*
X0385550Y0354224D03*
X0385550Y0351075D03*
X0385550Y0347925D03*
X0385550Y0344776D03*
X0385550Y0341626D03*
X0407991Y0341626D03*
X0407991Y0344776D03*
X0407991Y0347925D03*
X0407991Y0351075D03*
X0407991Y0354224D03*
X0407991Y0357374D03*
X0207991Y0357374D03*
X0207991Y0354224D03*
X0207991Y0351075D03*
X0207991Y0347925D03*
X0207991Y0344776D03*
X0207991Y0341626D03*
X0185550Y0341626D03*
X0185550Y0344776D03*
X0185550Y0347925D03*
X0185550Y0351075D03*
X0185550Y0354224D03*
X0185550Y0357374D03*
X0182007Y0355799D03*
X0182007Y0352650D03*
X0182007Y0349500D03*
X0182007Y0346350D03*
X0182007Y0343201D03*
X0182007Y0340051D03*
X0182007Y0336902D03*
X0182007Y0333752D03*
X0182007Y0330602D03*
X0182007Y0358949D03*
X0182007Y0362098D03*
X0182007Y0365248D03*
X0182007Y0368398D03*
X0182007Y0276398D03*
X0182007Y0273248D03*
X0182007Y0270098D03*
X0182007Y0266949D03*
X0182007Y0263799D03*
X0182007Y0260650D03*
X0182007Y0257500D03*
X0182007Y0254350D03*
X0182007Y0251201D03*
X0182007Y0248051D03*
X0182007Y0244902D03*
X0182007Y0241752D03*
X0182007Y0238602D03*
X0185550Y0249626D03*
X0185550Y0252776D03*
X0185550Y0255925D03*
X0185550Y0259075D03*
X0185550Y0262224D03*
X0185550Y0265374D03*
X0207991Y0265374D03*
X0207991Y0262224D03*
X0207991Y0259075D03*
X0207991Y0255925D03*
X0207991Y0252776D03*
X0207991Y0249626D03*
X0182007Y0184398D03*
X0182007Y0181248D03*
X0182007Y0178098D03*
X0182007Y0174949D03*
X0182007Y0171799D03*
X0182007Y0168650D03*
X0182007Y0165500D03*
X0182007Y0162350D03*
X0182007Y0159201D03*
X0182007Y0156051D03*
X0182007Y0152902D03*
X0182007Y0149752D03*
X0182007Y0146602D03*
X0185550Y0157626D03*
X0185550Y0160776D03*
X0185550Y0163925D03*
X0185550Y0167075D03*
X0185550Y0170224D03*
X0185550Y0173374D03*
X0207991Y0173374D03*
X0207991Y0170224D03*
X0207991Y0167075D03*
X0207991Y0163925D03*
X0207991Y0160776D03*
X0207991Y0157626D03*
X0182007Y0092398D03*
X0182007Y0089248D03*
X0182007Y0086098D03*
X0182007Y0082949D03*
X0182007Y0079799D03*
X0182007Y0076650D03*
X0182007Y0073500D03*
X0182007Y0070350D03*
X0182007Y0067201D03*
X0182007Y0064051D03*
X0182007Y0060902D03*
X0182007Y0057752D03*
X0182007Y0054602D03*
X0185550Y0065626D03*
X0185550Y0068776D03*
X0185550Y0071925D03*
X0185550Y0075075D03*
X0185550Y0078224D03*
X0185550Y0081374D03*
X0207991Y0081374D03*
X0207991Y0078224D03*
X0207991Y0075075D03*
X0207991Y0071925D03*
X0207991Y0068776D03*
X0207991Y0065626D03*
D20*
X0215250Y0068500D03*
X0215250Y0078500D03*
X0211750Y0103500D03*
X0211750Y0113500D03*
X0201750Y0113500D03*
X0191750Y0113500D03*
X0191750Y0103500D03*
X0201750Y0103500D03*
X0181750Y0103500D03*
X0181750Y0113500D03*
X0171750Y0113500D03*
X0171750Y0103500D03*
X0161750Y0103500D03*
X0161750Y0113500D03*
X0151750Y0113500D03*
X0151750Y0103500D03*
X0141750Y0103500D03*
X0131750Y0103500D03*
X0131750Y0113500D03*
X0141750Y0113500D03*
X0121750Y0113500D03*
X0121750Y0103500D03*
X0111750Y0103500D03*
X0121750Y0125500D03*
X0121750Y0135500D03*
X0111750Y0135500D03*
X0161750Y0135500D03*
X0171750Y0135500D03*
X0181750Y0135500D03*
X0191750Y0135500D03*
X0201750Y0135500D03*
X0211750Y0135500D03*
X0221750Y0135500D03*
X0221750Y0125500D03*
X0211750Y0125500D03*
X0201750Y0125500D03*
X0191750Y0125500D03*
X0181750Y0125500D03*
X0171750Y0125500D03*
X0161750Y0125500D03*
X0215250Y0160500D03*
X0215250Y0170500D03*
X0211750Y0195500D03*
X0211750Y0205500D03*
X0201750Y0205500D03*
X0191750Y0205500D03*
X0191750Y0195500D03*
X0201750Y0195500D03*
X0181750Y0195500D03*
X0181750Y0205500D03*
X0171750Y0205500D03*
X0171750Y0195500D03*
X0161750Y0195500D03*
X0161750Y0205500D03*
X0151750Y0205500D03*
X0151750Y0195500D03*
X0141750Y0195500D03*
X0131750Y0195500D03*
X0131750Y0205500D03*
X0141750Y0205500D03*
X0121750Y0205500D03*
X0121750Y0195500D03*
X0111750Y0195500D03*
X0121750Y0217500D03*
X0121750Y0227500D03*
X0111750Y0227500D03*
X0161750Y0227500D03*
X0161750Y0217500D03*
X0171750Y0217500D03*
X0171750Y0227500D03*
X0181750Y0227500D03*
X0181750Y0217500D03*
X0191750Y0217500D03*
X0201750Y0217500D03*
X0201750Y0227500D03*
X0191750Y0227500D03*
X0211750Y0227500D03*
X0211750Y0217500D03*
X0221750Y0217500D03*
X0221750Y0227500D03*
X0221750Y0205500D03*
X0221750Y0195500D03*
X0215250Y0252500D03*
X0215250Y0262500D03*
X0211750Y0287500D03*
X0201750Y0287500D03*
X0191750Y0287500D03*
X0181750Y0287500D03*
X0171750Y0287500D03*
X0161750Y0287500D03*
X0151750Y0287500D03*
X0141750Y0287500D03*
X0131750Y0287500D03*
X0121750Y0287500D03*
X0111750Y0287500D03*
X0121750Y0297500D03*
X0131750Y0297500D03*
X0141750Y0297500D03*
X0151750Y0297500D03*
X0161750Y0297500D03*
X0171750Y0297500D03*
X0181750Y0297500D03*
X0191750Y0297500D03*
X0201750Y0297500D03*
X0211750Y0297500D03*
X0221750Y0297500D03*
X0221750Y0287500D03*
X0221750Y0309500D03*
X0221750Y0319500D03*
X0211750Y0319500D03*
X0211750Y0309500D03*
X0201750Y0309500D03*
X0191750Y0309500D03*
X0191750Y0319500D03*
X0201750Y0319500D03*
X0181750Y0319500D03*
X0181750Y0309500D03*
X0171750Y0309500D03*
X0171750Y0319500D03*
X0161750Y0319500D03*
X0161750Y0309500D03*
X0121750Y0309500D03*
X0121750Y0319500D03*
X0111750Y0319500D03*
X0111750Y0379500D03*
X0121750Y0379500D03*
X0131750Y0379500D03*
X0141750Y0379500D03*
X0151750Y0379500D03*
X0161750Y0379500D03*
X0171750Y0379500D03*
X0181750Y0379500D03*
X0191750Y0379500D03*
X0201750Y0379500D03*
X0211750Y0379500D03*
X0221750Y0379500D03*
X0221750Y0389500D03*
X0211750Y0389500D03*
X0201750Y0389500D03*
X0191750Y0389500D03*
X0181750Y0389500D03*
X0171750Y0389500D03*
X0161750Y0389500D03*
X0151750Y0389500D03*
X0141750Y0389500D03*
X0131750Y0389500D03*
X0121750Y0389500D03*
X0215250Y0354500D03*
X0215250Y0344500D03*
X0311750Y0319500D03*
X0321750Y0319500D03*
X0321750Y0309500D03*
X0321750Y0297500D03*
X0331750Y0297500D03*
X0341750Y0297500D03*
X0351750Y0297500D03*
X0361750Y0297500D03*
X0371750Y0297500D03*
X0381750Y0297500D03*
X0391750Y0297500D03*
X0401750Y0297500D03*
X0411750Y0297500D03*
X0421750Y0297500D03*
X0421750Y0287500D03*
X0411750Y0287500D03*
X0401750Y0287500D03*
X0391750Y0287500D03*
X0381750Y0287500D03*
X0371750Y0287500D03*
X0361750Y0287500D03*
X0351750Y0287500D03*
X0341750Y0287500D03*
X0331750Y0287500D03*
X0321750Y0287500D03*
X0311750Y0287500D03*
X0361750Y0309500D03*
X0371750Y0309500D03*
X0371750Y0319500D03*
X0361750Y0319500D03*
X0381750Y0319500D03*
X0381750Y0309500D03*
X0391750Y0309500D03*
X0391750Y0319500D03*
X0401750Y0319500D03*
X0401750Y0309500D03*
X0411750Y0309500D03*
X0421750Y0309500D03*
X0421750Y0319500D03*
X0411750Y0319500D03*
X0415250Y0344500D03*
X0415250Y0354500D03*
X0411750Y0379500D03*
X0421750Y0379500D03*
X0421750Y0389500D03*
X0411750Y0389500D03*
X0401750Y0389500D03*
X0391750Y0389500D03*
X0381750Y0389500D03*
X0371750Y0389500D03*
X0361750Y0389500D03*
X0351750Y0389500D03*
X0341750Y0389500D03*
X0331750Y0389500D03*
X0321750Y0389500D03*
X0321750Y0379500D03*
X0311750Y0379500D03*
X0331750Y0379500D03*
X0341750Y0379500D03*
X0351750Y0379500D03*
X0361750Y0379500D03*
X0371750Y0379500D03*
X0381750Y0379500D03*
X0391750Y0379500D03*
X0401750Y0379500D03*
X0415250Y0262500D03*
X0415250Y0252500D03*
X0411750Y0227500D03*
X0421750Y0227500D03*
X0421750Y0217500D03*
X0411750Y0217500D03*
X0401750Y0217500D03*
X0401750Y0227500D03*
X0391750Y0227500D03*
X0391750Y0217500D03*
X0381750Y0217500D03*
X0381750Y0227500D03*
X0371750Y0227500D03*
X0361750Y0227500D03*
X0361750Y0217500D03*
X0371750Y0217500D03*
X0371750Y0205500D03*
X0361750Y0205500D03*
X0361750Y0195500D03*
X0371750Y0195500D03*
X0381750Y0195500D03*
X0381750Y0205500D03*
X0391750Y0205500D03*
X0391750Y0195500D03*
X0401750Y0195500D03*
X0401750Y0205500D03*
X0411750Y0205500D03*
X0421750Y0205500D03*
X0421750Y0195500D03*
X0411750Y0195500D03*
X0415250Y0170500D03*
X0415250Y0160500D03*
X0411750Y0135500D03*
X0421750Y0135500D03*
X0421750Y0125500D03*
X0411750Y0125500D03*
X0401750Y0125500D03*
X0391750Y0125500D03*
X0381750Y0125500D03*
X0371750Y0125500D03*
X0361750Y0125500D03*
X0361750Y0135500D03*
X0371750Y0135500D03*
X0381750Y0135500D03*
X0391750Y0135500D03*
X0401750Y0135500D03*
X0401750Y0113500D03*
X0401750Y0103500D03*
X0391750Y0103500D03*
X0391750Y0113500D03*
X0381750Y0113500D03*
X0381750Y0103500D03*
X0371750Y0103500D03*
X0361750Y0103500D03*
X0361750Y0113500D03*
X0371750Y0113500D03*
X0351750Y0113500D03*
X0351750Y0103500D03*
X0341750Y0103500D03*
X0341750Y0113500D03*
X0331750Y0113500D03*
X0331750Y0103500D03*
X0321750Y0103500D03*
X0321750Y0113500D03*
X0311750Y0103500D03*
X0321750Y0125500D03*
X0321750Y0135500D03*
X0311750Y0135500D03*
X0311750Y0195500D03*
X0321750Y0195500D03*
X0321750Y0205500D03*
X0331750Y0205500D03*
X0331750Y0195500D03*
X0341750Y0195500D03*
X0341750Y0205500D03*
X0351750Y0205500D03*
X0351750Y0195500D03*
X0321750Y0217500D03*
X0321750Y0227500D03*
X0311750Y0227500D03*
X0221750Y0113500D03*
X0221750Y0103500D03*
X0221750Y0043500D03*
X0211750Y0043500D03*
X0201750Y0043500D03*
X0191750Y0043500D03*
X0181750Y0043500D03*
X0171750Y0043500D03*
X0161750Y0043500D03*
X0161750Y0033500D03*
X0171750Y0033500D03*
X0181750Y0033500D03*
X0191750Y0033500D03*
X0201750Y0033500D03*
X0211750Y0033500D03*
X0221750Y0033500D03*
X0311750Y0043500D03*
X0321750Y0043500D03*
X0321750Y0033500D03*
X0361750Y0033500D03*
X0371750Y0033500D03*
X0381750Y0033500D03*
X0391750Y0033500D03*
X0401750Y0033500D03*
X0411750Y0033500D03*
X0421750Y0033500D03*
X0421750Y0043500D03*
X0411750Y0043500D03*
X0401750Y0043500D03*
X0391750Y0043500D03*
X0381750Y0043500D03*
X0371750Y0043500D03*
X0361750Y0043500D03*
X0415250Y0068500D03*
X0415250Y0078500D03*
X0411750Y0103500D03*
X0421750Y0103500D03*
X0421750Y0113500D03*
X0411750Y0113500D03*
X0121750Y0043500D03*
X0111750Y0043500D03*
X0121750Y0033500D03*
D21*
X0096750Y0040957D03*
X0096750Y0048043D03*
X0096750Y0098957D03*
X0096750Y0106043D03*
X0096750Y0132957D03*
X0096750Y0140043D03*
X0096750Y0190957D03*
X0096750Y0198043D03*
X0096750Y0224957D03*
X0096750Y0232043D03*
X0096750Y0282957D03*
X0096750Y0290043D03*
X0096750Y0316957D03*
X0096750Y0324043D03*
X0096750Y0374957D03*
X0096750Y0382043D03*
X0296750Y0382043D03*
X0296750Y0374957D03*
X0296750Y0324043D03*
X0296750Y0316957D03*
X0296750Y0290043D03*
X0296750Y0282957D03*
X0296750Y0232043D03*
X0296750Y0224957D03*
X0296750Y0198043D03*
X0296750Y0190957D03*
X0296750Y0140043D03*
X0296750Y0132957D03*
X0296750Y0106043D03*
X0296750Y0098957D03*
X0296750Y0048043D03*
X0296750Y0040957D03*
D22*
X0304427Y0044500D03*
X0289073Y0044500D03*
X0289073Y0102500D03*
X0304427Y0102500D03*
X0304427Y0136500D03*
X0289073Y0136500D03*
X0289073Y0194500D03*
X0304427Y0194500D03*
X0304427Y0228500D03*
X0289073Y0228500D03*
X0289073Y0286500D03*
X0304427Y0286500D03*
X0304427Y0320500D03*
X0289073Y0320500D03*
X0289073Y0378500D03*
X0304427Y0378500D03*
X0104427Y0378500D03*
X0089073Y0378500D03*
X0089073Y0320500D03*
X0104427Y0320500D03*
X0104427Y0286500D03*
X0089073Y0286500D03*
X0089073Y0228500D03*
X0104427Y0228500D03*
X0104427Y0194500D03*
X0089073Y0194500D03*
X0089073Y0136500D03*
X0104427Y0136500D03*
X0104427Y0102500D03*
X0089073Y0102500D03*
X0089073Y0044500D03*
X0104427Y0044500D03*
D23*
X0130726Y0033531D03*
X0152774Y0033531D03*
X0152774Y0125531D03*
X0130726Y0125531D03*
X0130726Y0217531D03*
X0152774Y0217531D03*
X0152774Y0309531D03*
X0130726Y0309531D03*
X0330726Y0309531D03*
X0352774Y0309531D03*
X0352774Y0217531D03*
X0330726Y0217531D03*
X0330726Y0125531D03*
X0352774Y0125531D03*
X0352774Y0033531D03*
X0330726Y0033531D03*
D24*
X0335844Y0048000D03*
X0339781Y0048000D03*
X0343719Y0048000D03*
X0347656Y0048000D03*
X0347656Y0140000D03*
X0343719Y0140000D03*
X0339781Y0140000D03*
X0335844Y0140000D03*
X0335844Y0232000D03*
X0339781Y0232000D03*
X0343719Y0232000D03*
X0347656Y0232000D03*
X0347656Y0324000D03*
X0343719Y0324000D03*
X0339781Y0324000D03*
X0335844Y0324000D03*
X0147656Y0324000D03*
X0143719Y0324000D03*
X0139781Y0324000D03*
X0135844Y0324000D03*
X0135844Y0232000D03*
X0139781Y0232000D03*
X0143719Y0232000D03*
X0147656Y0232000D03*
X0147656Y0140000D03*
X0143719Y0140000D03*
X0139781Y0140000D03*
X0135844Y0140000D03*
X0135844Y0048000D03*
X0139781Y0048000D03*
X0143719Y0048000D03*
X0147656Y0048000D03*
D25*
X0074917Y0052163D03*
X0074917Y0060037D03*
X0074917Y0144163D03*
X0074917Y0152037D03*
X0074917Y0236163D03*
X0074917Y0244037D03*
X0074917Y0328163D03*
X0074917Y0336037D03*
X0274917Y0336037D03*
X0274917Y0328163D03*
X0274917Y0244037D03*
X0274917Y0236163D03*
X0274917Y0152037D03*
X0274917Y0144163D03*
X0274917Y0060037D03*
X0274917Y0052163D03*
D26*
X0054444Y0042714D03*
X0054444Y0069486D03*
X0054444Y0134714D03*
X0054444Y0161486D03*
X0054444Y0226714D03*
X0054444Y0253486D03*
X0054444Y0318714D03*
X0054444Y0345486D03*
X0254444Y0345486D03*
X0254444Y0318714D03*
X0254444Y0253486D03*
X0254444Y0226714D03*
X0254444Y0161486D03*
X0254444Y0134714D03*
X0254444Y0069486D03*
X0254444Y0042714D03*
D27*
X0310610Y0067781D03*
X0314350Y0067781D03*
X0318090Y0067781D03*
X0318090Y0078019D03*
X0310610Y0078019D03*
X0310610Y0159781D03*
X0314350Y0159781D03*
X0318090Y0159781D03*
X0318090Y0170019D03*
X0310610Y0170019D03*
X0310610Y0251781D03*
X0314350Y0251781D03*
X0318090Y0251781D03*
X0318090Y0262019D03*
X0310610Y0262019D03*
X0310610Y0343781D03*
X0314350Y0343781D03*
X0318090Y0343781D03*
X0318090Y0354019D03*
X0310610Y0354019D03*
X0118090Y0354019D03*
X0110610Y0354019D03*
X0110610Y0343781D03*
X0114350Y0343781D03*
X0118090Y0343781D03*
X0118090Y0262019D03*
X0110610Y0262019D03*
X0110610Y0251781D03*
X0114350Y0251781D03*
X0118090Y0251781D03*
X0118090Y0170019D03*
X0110610Y0170019D03*
X0110610Y0159781D03*
X0114350Y0159781D03*
X0118090Y0159781D03*
X0118090Y0078019D03*
X0110610Y0078019D03*
X0110610Y0067781D03*
X0114350Y0067781D03*
X0118090Y0067781D03*
D28*
X0122722Y0068500D03*
X0122722Y0076000D03*
X0131778Y0076000D03*
X0131778Y0068500D03*
X0131778Y0160500D03*
X0131778Y0168000D03*
X0122722Y0168000D03*
X0122722Y0160500D03*
X0122722Y0252500D03*
X0122722Y0260000D03*
X0131778Y0260000D03*
X0131778Y0252500D03*
X0131778Y0344500D03*
X0131778Y0352000D03*
X0122722Y0352000D03*
X0122722Y0344500D03*
X0322722Y0344500D03*
X0322722Y0352000D03*
X0331778Y0352000D03*
X0331778Y0344500D03*
X0331778Y0260000D03*
X0331778Y0252500D03*
X0322722Y0252500D03*
X0322722Y0260000D03*
X0322722Y0168000D03*
X0322722Y0160500D03*
X0331778Y0160500D03*
X0331778Y0168000D03*
X0331778Y0076000D03*
X0331778Y0068500D03*
X0322722Y0068500D03*
X0322722Y0076000D03*
D29*
X0341631Y0079760D03*
X0341631Y0083500D03*
X0341631Y0087240D03*
X0351869Y0087240D03*
X0351869Y0079760D03*
X0351869Y0171760D03*
X0351869Y0179240D03*
X0341631Y0179240D03*
X0341631Y0175500D03*
X0341631Y0171760D03*
X0341631Y0263760D03*
X0341631Y0267500D03*
X0341631Y0271240D03*
X0351869Y0271240D03*
X0351869Y0263760D03*
X0351869Y0355760D03*
X0351869Y0363240D03*
X0341631Y0363240D03*
X0341631Y0359500D03*
X0341631Y0355760D03*
X0151869Y0355760D03*
X0151869Y0363240D03*
X0141631Y0363240D03*
X0141631Y0359500D03*
X0141631Y0355760D03*
X0141631Y0271240D03*
X0141631Y0267500D03*
X0141631Y0263760D03*
X0151869Y0263760D03*
X0151869Y0271240D03*
X0151869Y0179240D03*
X0151869Y0171760D03*
X0141631Y0171760D03*
X0141631Y0175500D03*
X0141631Y0179240D03*
X0141631Y0087240D03*
X0141631Y0083500D03*
X0141631Y0079760D03*
X0151869Y0079760D03*
X0151869Y0087240D03*
D30*
X0194250Y0083500D03*
X0194250Y0078500D03*
X0194250Y0073500D03*
X0194250Y0068500D03*
X0194250Y0063500D03*
X0199250Y0063500D03*
X0199250Y0068500D03*
X0199250Y0073500D03*
X0199250Y0078500D03*
X0199250Y0083500D03*
X0199250Y0155500D03*
X0199250Y0160500D03*
X0194250Y0160500D03*
X0194250Y0155500D03*
X0194250Y0165500D03*
X0194250Y0170500D03*
X0194250Y0175500D03*
X0199250Y0175500D03*
X0199250Y0170500D03*
X0199250Y0165500D03*
X0199250Y0247500D03*
X0199250Y0252500D03*
X0199250Y0257500D03*
X0194250Y0257500D03*
X0194250Y0252500D03*
X0194250Y0247500D03*
X0194250Y0262500D03*
X0194250Y0267500D03*
X0199250Y0267500D03*
X0199250Y0262500D03*
X0199250Y0339500D03*
X0199250Y0344500D03*
X0199250Y0349500D03*
X0199250Y0354500D03*
X0199250Y0359500D03*
X0194250Y0359500D03*
X0194250Y0354500D03*
X0194250Y0349500D03*
X0194250Y0344500D03*
X0194250Y0339500D03*
X0091750Y0402750D03*
X0381750Y0402750D03*
X0394250Y0359500D03*
X0394250Y0354500D03*
X0394250Y0349500D03*
X0394250Y0344500D03*
X0394250Y0339500D03*
X0399250Y0339500D03*
X0399250Y0344500D03*
X0399250Y0349500D03*
X0399250Y0354500D03*
X0399250Y0359500D03*
X0399250Y0267500D03*
X0399250Y0262500D03*
X0394250Y0262500D03*
X0394250Y0267500D03*
X0394250Y0257500D03*
X0394250Y0252500D03*
X0394250Y0247500D03*
X0399250Y0247500D03*
X0399250Y0252500D03*
X0399250Y0257500D03*
X0399250Y0175500D03*
X0399250Y0170500D03*
X0399250Y0165500D03*
X0394250Y0165500D03*
X0394250Y0170500D03*
X0394250Y0175500D03*
X0394250Y0160500D03*
X0394250Y0155500D03*
X0399250Y0155500D03*
X0399250Y0160500D03*
X0399250Y0083500D03*
X0399250Y0078500D03*
X0399250Y0073500D03*
X0399250Y0068500D03*
X0399250Y0063500D03*
X0394250Y0063500D03*
X0394250Y0068500D03*
X0394250Y0073500D03*
X0394250Y0078500D03*
X0394250Y0083500D03*
D31*
X0300840Y0082258D03*
X0300840Y0070447D03*
X0300840Y0064542D03*
X0300840Y0156542D03*
X0300840Y0162447D03*
X0300840Y0174258D03*
X0300840Y0248542D03*
X0300840Y0254447D03*
X0300840Y0266258D03*
X0300840Y0340542D03*
X0300840Y0346447D03*
X0300840Y0358258D03*
X0100840Y0358258D03*
X0100840Y0346447D03*
X0100840Y0340542D03*
X0100840Y0266258D03*
X0100840Y0254447D03*
X0100840Y0248542D03*
X0100840Y0174258D03*
X0100840Y0162447D03*
X0100840Y0156542D03*
X0100840Y0082258D03*
X0100840Y0070447D03*
X0100840Y0064542D03*
D32*
X0090013Y0059030D03*
X0090013Y0087770D03*
X0090013Y0151030D03*
X0090013Y0179770D03*
X0090013Y0243030D03*
X0090013Y0271770D03*
X0090013Y0335030D03*
X0090013Y0363770D03*
X0290013Y0363770D03*
X0290013Y0335030D03*
X0290013Y0271770D03*
X0290013Y0243030D03*
X0290013Y0179770D03*
X0290013Y0151030D03*
X0290013Y0087770D03*
X0290013Y0059030D03*
D33*
X0298281Y0059030D03*
X0298281Y0087770D03*
X0298281Y0151030D03*
X0298281Y0179770D03*
X0298281Y0243030D03*
X0298281Y0271770D03*
X0298281Y0335030D03*
X0298281Y0363770D03*
X0098281Y0363770D03*
X0098281Y0335030D03*
X0098281Y0271770D03*
X0098281Y0243030D03*
X0098281Y0179770D03*
X0098281Y0151030D03*
X0098281Y0087770D03*
X0098281Y0059030D03*
D34*
X0093950Y0067494D03*
X0093950Y0079306D03*
X0093950Y0159494D03*
X0093950Y0171306D03*
X0093950Y0251494D03*
X0093950Y0263306D03*
X0093950Y0343494D03*
X0093950Y0355306D03*
X0293950Y0355306D03*
X0293950Y0343494D03*
X0293950Y0263306D03*
X0293950Y0251494D03*
X0293950Y0171306D03*
X0293950Y0159494D03*
X0293950Y0079306D03*
X0293950Y0067494D03*
D35*
X0313250Y0110000D03*
X0224250Y0130500D03*
X0313250Y0202000D03*
X0224250Y0222500D03*
X0313250Y0294000D03*
X0224250Y0314500D03*
X0313250Y0386000D03*
X0424250Y0314500D03*
X0424250Y0222500D03*
X0424250Y0130500D03*
X0424250Y0038500D03*
X0224250Y0038500D03*
X0113250Y0110000D03*
X0113250Y0202000D03*
X0113250Y0294000D03*
X0113250Y0386000D03*
D36*
X0088185Y0020250D02*
X0088187Y0020369D01*
X0088193Y0020488D01*
X0088203Y0020607D01*
X0088217Y0020725D01*
X0088235Y0020843D01*
X0088256Y0020960D01*
X0088282Y0021076D01*
X0088312Y0021192D01*
X0088345Y0021306D01*
X0088382Y0021419D01*
X0088423Y0021531D01*
X0088468Y0021642D01*
X0088516Y0021751D01*
X0088568Y0021858D01*
X0088624Y0021963D01*
X0088683Y0022067D01*
X0088745Y0022168D01*
X0088811Y0022268D01*
X0088880Y0022365D01*
X0088952Y0022459D01*
X0089028Y0022552D01*
X0089106Y0022641D01*
X0089187Y0022728D01*
X0089272Y0022813D01*
X0089359Y0022894D01*
X0089448Y0022972D01*
X0089541Y0023048D01*
X0089635Y0023120D01*
X0089732Y0023189D01*
X0089832Y0023255D01*
X0089933Y0023317D01*
X0090037Y0023376D01*
X0090142Y0023432D01*
X0090249Y0023484D01*
X0090358Y0023532D01*
X0090469Y0023577D01*
X0090581Y0023618D01*
X0090694Y0023655D01*
X0090808Y0023688D01*
X0090924Y0023718D01*
X0091040Y0023744D01*
X0091157Y0023765D01*
X0091275Y0023783D01*
X0091393Y0023797D01*
X0091512Y0023807D01*
X0091631Y0023813D01*
X0091750Y0023815D01*
X0091869Y0023813D01*
X0091988Y0023807D01*
X0092107Y0023797D01*
X0092225Y0023783D01*
X0092343Y0023765D01*
X0092460Y0023744D01*
X0092576Y0023718D01*
X0092692Y0023688D01*
X0092806Y0023655D01*
X0092919Y0023618D01*
X0093031Y0023577D01*
X0093142Y0023532D01*
X0093251Y0023484D01*
X0093358Y0023432D01*
X0093463Y0023376D01*
X0093567Y0023317D01*
X0093668Y0023255D01*
X0093768Y0023189D01*
X0093865Y0023120D01*
X0093959Y0023048D01*
X0094052Y0022972D01*
X0094141Y0022894D01*
X0094228Y0022813D01*
X0094313Y0022728D01*
X0094394Y0022641D01*
X0094472Y0022552D01*
X0094548Y0022459D01*
X0094620Y0022365D01*
X0094689Y0022268D01*
X0094755Y0022168D01*
X0094817Y0022067D01*
X0094876Y0021963D01*
X0094932Y0021858D01*
X0094984Y0021751D01*
X0095032Y0021642D01*
X0095077Y0021531D01*
X0095118Y0021419D01*
X0095155Y0021306D01*
X0095188Y0021192D01*
X0095218Y0021076D01*
X0095244Y0020960D01*
X0095265Y0020843D01*
X0095283Y0020725D01*
X0095297Y0020607D01*
X0095307Y0020488D01*
X0095313Y0020369D01*
X0095315Y0020250D01*
X0095313Y0020131D01*
X0095307Y0020012D01*
X0095297Y0019893D01*
X0095283Y0019775D01*
X0095265Y0019657D01*
X0095244Y0019540D01*
X0095218Y0019424D01*
X0095188Y0019308D01*
X0095155Y0019194D01*
X0095118Y0019081D01*
X0095077Y0018969D01*
X0095032Y0018858D01*
X0094984Y0018749D01*
X0094932Y0018642D01*
X0094876Y0018537D01*
X0094817Y0018433D01*
X0094755Y0018332D01*
X0094689Y0018232D01*
X0094620Y0018135D01*
X0094548Y0018041D01*
X0094472Y0017948D01*
X0094394Y0017859D01*
X0094313Y0017772D01*
X0094228Y0017687D01*
X0094141Y0017606D01*
X0094052Y0017528D01*
X0093959Y0017452D01*
X0093865Y0017380D01*
X0093768Y0017311D01*
X0093668Y0017245D01*
X0093567Y0017183D01*
X0093463Y0017124D01*
X0093358Y0017068D01*
X0093251Y0017016D01*
X0093142Y0016968D01*
X0093031Y0016923D01*
X0092919Y0016882D01*
X0092806Y0016845D01*
X0092692Y0016812D01*
X0092576Y0016782D01*
X0092460Y0016756D01*
X0092343Y0016735D01*
X0092225Y0016717D01*
X0092107Y0016703D01*
X0091988Y0016693D01*
X0091869Y0016687D01*
X0091750Y0016685D01*
X0091631Y0016687D01*
X0091512Y0016693D01*
X0091393Y0016703D01*
X0091275Y0016717D01*
X0091157Y0016735D01*
X0091040Y0016756D01*
X0090924Y0016782D01*
X0090808Y0016812D01*
X0090694Y0016845D01*
X0090581Y0016882D01*
X0090469Y0016923D01*
X0090358Y0016968D01*
X0090249Y0017016D01*
X0090142Y0017068D01*
X0090037Y0017124D01*
X0089933Y0017183D01*
X0089832Y0017245D01*
X0089732Y0017311D01*
X0089635Y0017380D01*
X0089541Y0017452D01*
X0089448Y0017528D01*
X0089359Y0017606D01*
X0089272Y0017687D01*
X0089187Y0017772D01*
X0089106Y0017859D01*
X0089028Y0017948D01*
X0088952Y0018041D01*
X0088880Y0018135D01*
X0088811Y0018232D01*
X0088745Y0018332D01*
X0088683Y0018433D01*
X0088624Y0018537D01*
X0088568Y0018642D01*
X0088516Y0018749D01*
X0088468Y0018858D01*
X0088423Y0018969D01*
X0088382Y0019081D01*
X0088345Y0019194D01*
X0088312Y0019308D01*
X0088282Y0019424D01*
X0088256Y0019540D01*
X0088235Y0019657D01*
X0088217Y0019775D01*
X0088203Y0019893D01*
X0088193Y0020012D01*
X0088187Y0020131D01*
X0088185Y0020250D01*
D37*
X0091750Y0020250D03*
M02*
