%
M48
M72
T01C0.0120
T02C0.0200
T03C0.0276
T04C0.0354
T05C0.0400
%
T01
X6375Y5230
X7485Y4780
X8625Y6000
X10518Y6727
X10725Y5900
X12165Y5200
X12449Y5060
X13595Y5300
X14375Y5250
X14952Y5373
X15575Y6640
X15865Y6560
X15415Y6904
X15475Y7450
X15495Y8410
X16325Y8110
X16075Y9160
X17845Y9240
X18205Y9560
X18555Y9240
X17895Y8070
X17580Y7455
X17280Y7470
X17806Y6150
X18504Y6180
X18738Y5820
X20250Y5125
X20434Y4869
X21055Y5221
X22018Y4940
X22008Y6331
X22225Y6580
X20298Y6172
X18895Y6880
X18855Y7820
X22065Y8860
X22065Y9550
X24895Y9640
X24895Y8840
X24895Y7740
X27225Y8690
X28715Y9050
X28795Y9650
X28511Y10027
X28375Y10630
X29435Y8790
X29535Y8270
X30675Y7870
X31315Y7220
X31765Y7210
X32696Y6813
X33495Y6210
X33595Y5300
X34375Y5250
X34952Y5373
X35575Y6640
X35865Y6560
X35415Y6904
X35475Y7450
X35495Y8410
X36325Y8110
X36075Y9160
X37845Y9240
X38205Y9560
X38555Y9240
X37895Y8070
X38855Y7820
X38895Y6880
X38504Y6180
X38738Y5820
X37806Y6150
X37580Y7455
X37280Y7470
X40298Y6172
X40250Y5125
X40434Y4869
X41055Y5221
X42018Y4940
X42008Y6331
X42225Y6580
X42065Y8860
X42065Y9550
X42018Y14140
X41055Y14421
X40434Y14069
X40250Y14325
X40298Y15372
X38895Y16080
X38504Y15380
X38738Y15020
X37806Y15350
X37580Y16655
X37280Y16670
X37895Y17270
X38855Y17020
X38555Y18440
X38205Y18760
X37845Y18440
X36325Y17310
X35495Y17610
X36075Y18360
X35475Y16650
X35415Y16104
X35575Y15840
X35865Y15760
X34952Y14573
X34375Y14450
X33595Y14500
X33495Y15410
X32696Y16013
X31765Y16410
X31315Y16420
X30675Y17070
X29535Y17470
X29435Y17990
X28715Y18250
X28795Y18850
X28511Y19227
X28375Y19830
X27225Y17890
X24895Y18040
X24895Y18840
X24895Y19820
X22065Y18750
X22065Y18060
X22225Y15780
X22008Y15531
X21055Y14421
X20434Y14069
X20250Y14325
X18738Y15020
X18504Y15380
X17806Y15350
X18895Y16080
X18855Y17020
X17895Y17270
X17580Y16655
X17280Y16670
X16325Y17310
X15495Y17610
X16075Y18360
X17845Y18440
X18205Y18760
X18555Y18440
X15475Y16650
X15415Y16104
X15575Y15840
X15865Y15760
X14952Y14573
X14375Y14450
X13595Y14500
X13495Y15410
X12696Y16013
X11765Y16410
X11315Y16420
X10518Y15927
X10725Y15100
X12165Y14400
X12449Y14260
X10025Y13650
X8625Y15200
X7485Y13980
X6375Y14430
X4895Y16940
X4895Y18040
X4895Y18840
X4895Y19820
X7225Y17890
X8715Y18250
X8795Y18850
X8511Y19227
X8375Y19830
X9435Y17990
X9535Y17470
X10675Y17070
X12535Y17460
X13063Y17389
X13275Y17157
X13735Y17220
X13735Y16920
X13735Y17810
X13735Y18776
X10025Y22850
X10725Y24300
X10518Y25127
X11315Y25620
X11765Y25610
X12696Y25213
X13495Y24610
X13595Y23700
X14375Y23650
X14952Y23773
X15575Y25040
X15865Y24960
X15415Y25304
X15475Y25850
X16325Y26510
X15495Y26810
X16075Y27560
X17845Y27640
X18205Y27960
X18555Y27640
X17895Y26470
X17580Y25855
X17280Y25870
X17806Y24550
X18504Y24580
X18738Y24220
X18895Y25280
X18855Y26220
X20298Y24572
X20250Y23525
X20434Y23269
X21055Y23621
X22018Y23340
X22008Y24731
X22225Y24980
X22065Y27260
X22065Y27950
X24895Y28040
X24895Y27240
X24895Y26140
X27225Y27090
X28715Y27450
X29435Y27190
X29535Y26670
X30675Y26270
X31315Y25620
X31765Y25610
X32696Y25213
X33495Y24610
X33595Y23700
X34375Y23650
X34952Y23773
X35575Y25040
X35865Y24960
X35415Y25304
X35475Y25850
X35495Y26810
X36325Y26510
X37280Y25870
X37580Y25855
X37895Y26470
X38855Y26220
X38895Y25280
X38504Y24580
X38738Y24220
X37806Y24550
X40298Y24572
X40250Y23525
X40434Y23269
X41055Y23621
X42018Y23340
X42008Y24731
X42225Y24980
X42065Y27260
X42065Y27950
X38555Y27640
X38205Y27960
X37845Y27640
X36075Y27560
X33735Y27976
X33735Y27010
X33735Y26420
X33735Y26120
X33275Y26357
X33063Y26589
X32535Y26660
X30518Y25127
X30725Y24300
X32165Y23600
X32449Y23460
X30025Y22850
X28625Y24400
X27485Y23180
X26375Y23630
X28795Y28050
X28511Y28427
X28375Y29030
X24895Y29020
X27485Y32380
X26375Y32830
X28625Y33600
X30518Y34327
X30725Y33500
X32165Y32800
X32449Y32660
X33595Y32900
X34375Y32850
X34952Y32973
X33495Y33810
X32696Y34413
X31765Y34810
X31315Y34820
X30675Y35470
X29535Y35870
X29435Y36390
X28715Y36650
X28795Y37250
X28511Y37627
X28375Y38230
X27225Y36290
X24895Y36440
X24895Y37240
X24895Y38220
X22065Y37150
X22065Y36460
X24895Y35340
X22225Y34180
X22008Y33931
X21055Y32821
X20434Y32469
X20250Y32725
X20298Y33772
X18895Y34480
X18504Y33780
X18738Y33420
X17806Y33750
X17580Y35055
X17280Y35070
X17895Y35670
X18855Y35420
X18555Y36840
X18205Y37160
X17845Y36840
X16075Y36760
X15495Y36010
X16325Y35710
X15475Y35050
X15415Y34504
X15575Y34240
X15865Y34160
X14952Y32973
X14375Y32850
X13595Y32900
X13495Y33810
X12696Y34413
X11765Y34810
X11315Y34820
X10675Y35470
X10518Y34327
X10725Y33500
X12165Y32800
X12449Y32660
X10025Y32050
X8625Y33600
X7485Y32380
X6375Y32830
X4895Y35340
X4895Y36440
X4895Y37240
X4895Y38220
X7225Y36290
X8715Y36650
X8795Y37250
X8511Y37627
X8375Y38230
X9435Y36390
X9535Y35870
X12535Y35860
X13063Y35789
X13275Y35557
X13735Y35620
X13735Y35320
X13735Y36210
X13735Y37176
X22018Y32540
X30025Y32050
X33735Y35320
X33735Y35620
X33275Y35557
X33063Y35789
X32535Y35860
X33735Y36210
X33735Y37176
X35495Y36010
X36075Y36760
X36325Y35710
X35475Y35050
X35415Y34504
X35575Y34240
X35865Y34160
X37280Y35070
X37580Y35055
X37895Y35670
X38855Y35420
X38895Y34480
X38504Y33780
X38738Y33420
X37806Y33750
X40298Y33772
X40250Y32725
X40434Y32469
X41055Y32821
X42018Y32540
X42008Y33931
X42225Y34180
X42065Y36460
X42065Y37150
X38555Y36840
X38205Y37160
X37845Y36840
X33735Y18776
X33735Y17810
X33063Y17389
X33275Y17157
X33735Y17220
X33735Y16920
X32535Y17460
X30518Y15927
X30725Y15100
X32165Y14400
X32449Y14260
X30025Y13650
X28625Y15200
X27485Y13980
X26375Y14430
X24895Y16940
X22018Y14140
X20298Y15372
X24895Y10620
X30518Y6727
X30725Y5900
X32165Y5200
X32449Y5060
X30025Y4450
X28625Y6000
X27485Y4780
X26375Y5230
X32535Y8260
X33063Y8189
X33275Y7957
X33735Y8020
X33735Y7720
X33735Y8610
X33735Y9576
X42008Y15531
X42225Y15780
X42065Y18060
X42065Y18750
X13735Y26120
X13735Y26420
X13275Y26357
X13063Y26589
X12535Y26660
X13735Y27010
X13735Y27976
X10675Y26270
X9535Y26670
X9435Y27190
X8715Y27450
X8795Y28050
X8511Y28427
X8375Y29030
X7225Y27090
X4895Y27240
X4895Y28040
X4895Y29020
X4895Y26140
X6375Y23630
X7485Y23180
X8625Y24400
X12165Y23600
X12449Y23460
X8375Y10630
X8511Y10027
X8795Y9650
X8715Y9050
X9435Y8790
X9535Y8270
X10675Y7870
X11315Y7220
X11765Y7210
X12696Y6813
X13495Y6210
X13735Y7720
X13735Y8020
X13275Y7957
X13063Y8189
X12535Y8260
X13735Y8610
X13735Y9576
X10025Y4450
X7225Y8690
X4895Y8840
X4895Y9640
X4895Y10620
X4895Y7740
T02
X19425Y7850
X19425Y7350
X19425Y6850
X19425Y6350
X19925Y6350
X19925Y6850
X19925Y7350
X19925Y7850
X19925Y8350
X19425Y8350
X19425Y15550
X19425Y16050
X19925Y16050
X19925Y15550
X19925Y16550
X19925Y17050
X19925Y17550
X19425Y17550
X19425Y17050
X19425Y16550
X19425Y24750
X19425Y25250
X19425Y25750
X19925Y25750
X19925Y25250
X19925Y24750
X19925Y26250
X19925Y26750
X19425Y26750
X19425Y26250
X19425Y33950
X19425Y34450
X19425Y34950
X19425Y35450
X19425Y35950
X19925Y35950
X19925Y35450
X19925Y34950
X19925Y34450
X19925Y33950
X39425Y33950
X39425Y34450
X39425Y34950
X39425Y35450
X39425Y35950
X39925Y35950
X39925Y35450
X39925Y34950
X39925Y34450
X39925Y33950
X39925Y26750
X39925Y26250
X39425Y26250
X39425Y26750
X39425Y25750
X39425Y25250
X39425Y24750
X39925Y24750
X39925Y25250
X39925Y25750
X39925Y17550
X39925Y17050
X39925Y16550
X39425Y16550
X39425Y17050
X39425Y17550
X39425Y16050
X39425Y15550
X39925Y15550
X39925Y16050
X39925Y8350
X39925Y7850
X39925Y7350
X39925Y6850
X39925Y6350
X39425Y6350
X39425Y6850
X39425Y7350
X39425Y7850
X39425Y8350
T03
X29675Y9896
X29675Y10604
X29675Y13296
X29675Y14004
X29675Y19096
X29675Y19804
X29675Y22496
X29675Y23204
X29675Y28296
X29675Y29004
X29675Y31696
X29675Y32404
X29675Y37496
X29675Y38204
X9675Y38204
X9675Y37496
X9675Y32404
X9675Y31696
X9675Y29004
X9675Y28296
X9675Y23204
X9675Y22496
X9675Y19804
X9675Y19096
X9675Y14004
X9675Y13296
X9675Y10604
X9675Y9896
X9675Y4804
X9675Y4096
X29675Y4096
X29675Y4804
T04
X29395Y6749
X29395Y7931
X29395Y15949
X29395Y17131
X29395Y25149
X29395Y26331
X29395Y34349
X29395Y35531
X9395Y35531
X9395Y34349
X9395Y26331
X9395Y25149
X9395Y17131
X9395Y15949
X9395Y7931
X9395Y6749
T05
X11175Y4350
X12175Y4350
X12175Y3350
X16175Y3350
X17175Y3350
X18175Y3350
X19175Y3350
X20175Y3350
X21175Y3350
X22175Y3350
X22175Y4350
X21175Y4350
X20175Y4350
X19175Y4350
X18175Y4350
X17175Y4350
X16175Y4350
X21525Y6850
X21525Y7850
X21175Y10350
X21175Y11350
X20175Y11350
X19175Y11350
X19175Y10350
X20175Y10350
X18175Y10350
X18175Y11350
X17175Y11350
X17175Y10350
X16175Y10350
X16175Y11350
X15175Y11350
X15175Y10350
X14175Y10350
X13175Y10350
X13175Y11350
X14175Y11350
X12175Y11350
X12175Y10350
X11175Y10350
X12175Y12550
X12175Y13550
X11175Y13550
X16175Y13550
X17175Y13550
X18175Y13550
X19175Y13550
X20175Y13550
X21175Y13550
X22175Y13550
X22175Y12550
X21175Y12550
X20175Y12550
X19175Y12550
X18175Y12550
X17175Y12550
X16175Y12550
X21525Y16050
X21525Y17050
X21175Y19550
X21175Y20550
X20175Y20550
X19175Y20550
X19175Y19550
X20175Y19550
X18175Y19550
X18175Y20550
X17175Y20550
X17175Y19550
X16175Y19550
X16175Y20550
X15175Y20550
X15175Y19550
X14175Y19550
X13175Y19550
X13175Y20550
X14175Y20550
X12175Y20550
X12175Y19550
X11175Y19550
X12175Y21750
X12175Y22750
X11175Y22750
X16175Y22750
X16175Y21750
X17175Y21750
X17175Y22750
X18175Y22750
X18175Y21750
X19175Y21750
X20175Y21750
X20175Y22750
X19175Y22750
X21175Y22750
X21175Y21750
X22175Y21750
X22175Y22750
X22175Y20550
X22175Y19550
X21525Y25250
X21525Y26250
X21175Y28750
X20175Y28750
X19175Y28750
X18175Y28750
X17175Y28750
X16175Y28750
X15175Y28750
X14175Y28750
X13175Y28750
X12175Y28750
X11175Y28750
X12175Y29750
X13175Y29750
X14175Y29750
X15175Y29750
X16175Y29750
X17175Y29750
X18175Y29750
X19175Y29750
X20175Y29750
X21175Y29750
X22175Y29750
X22175Y28750
X22175Y30950
X22175Y31950
X21175Y31950
X21175Y30950
X20175Y30950
X19175Y30950
X19175Y31950
X20175Y31950
X18175Y31950
X18175Y30950
X17175Y30950
X17175Y31950
X16175Y31950
X16175Y30950
X12175Y30950
X12175Y31950
X11175Y31950
X11175Y37950
X12175Y37950
X13175Y37950
X14175Y37950
X15175Y37950
X16175Y37950
X17175Y37950
X18175Y37950
X19175Y37950
X20175Y37950
X21175Y37950
X22175Y37950
X22175Y38950
X21175Y38950
X20175Y38950
X19175Y38950
X18175Y38950
X17175Y38950
X16175Y38950
X15175Y38950
X14175Y38950
X13175Y38950
X12175Y38950
X21525Y35450
X21525Y34450
X31175Y31950
X32175Y31950
X32175Y30950
X32175Y29750
X33175Y29750
X34175Y29750
X35175Y29750
X36175Y29750
X37175Y29750
X38175Y29750
X39175Y29750
X40175Y29750
X41175Y29750
X42175Y29750
X42175Y28750
X41175Y28750
X40175Y28750
X39175Y28750
X38175Y28750
X37175Y28750
X36175Y28750
X35175Y28750
X34175Y28750
X33175Y28750
X32175Y28750
X31175Y28750
X36175Y30950
X37175Y30950
X37175Y31950
X36175Y31950
X38175Y31950
X38175Y30950
X39175Y30950
X39175Y31950
X40175Y31950
X40175Y30950
X41175Y30950
X42175Y30950
X42175Y31950
X41175Y31950
X41525Y34450
X41525Y35450
X41175Y37950
X42175Y37950
X42175Y38950
X41175Y38950
X40175Y38950
X39175Y38950
X38175Y38950
X37175Y38950
X36175Y38950
X35175Y38950
X34175Y38950
X33175Y38950
X32175Y38950
X32175Y37950
X31175Y37950
X33175Y37950
X34175Y37950
X35175Y37950
X36175Y37950
X37175Y37950
X38175Y37950
X39175Y37950
X40175Y37950
X41525Y26250
X41525Y25250
X41175Y22750
X42175Y22750
X42175Y21750
X41175Y21750
X40175Y21750
X40175Y22750
X39175Y22750
X39175Y21750
X38175Y21750
X38175Y22750
X37175Y22750
X36175Y22750
X36175Y21750
X37175Y21750
X37175Y20550
X36175Y20550
X36175Y19550
X37175Y19550
X38175Y19550
X38175Y20550
X39175Y20550
X39175Y19550
X40175Y19550
X40175Y20550
X41175Y20550
X42175Y20550
X42175Y19550
X41175Y19550
X41525Y17050
X41525Y16050
X41175Y13550
X42175Y13550
X42175Y12550
X41175Y12550
X40175Y12550
X39175Y12550
X38175Y12550
X37175Y12550
X36175Y12550
X36175Y13550
X37175Y13550
X38175Y13550
X39175Y13550
X40175Y13550
X40175Y11350
X40175Y10350
X39175Y10350
X39175Y11350
X38175Y11350
X38175Y10350
X37175Y10350
X36175Y10350
X36175Y11350
X37175Y11350
X35175Y11350
X35175Y10350
X34175Y10350
X34175Y11350
X33175Y11350
X33175Y10350
X32175Y10350
X32175Y11350
X31175Y10350
X32175Y12550
X32175Y13550
X31175Y13550
X31175Y19550
X32175Y19550
X32175Y20550
X33175Y20550
X33175Y19550
X34175Y19550
X34175Y20550
X35175Y20550
X35175Y19550
X32175Y21750
X32175Y22750
X31175Y22750
X22175Y11350
X22175Y10350
X31175Y4350
X32175Y4350
X32175Y3350
X36175Y3350
X37175Y3350
X38175Y3350
X39175Y3350
X40175Y3350
X41175Y3350
X42175Y3350
X42175Y4350
X41175Y4350
X40175Y4350
X39175Y4350
X38175Y4350
X37175Y4350
X36175Y4350
X41525Y6850
X41525Y7850
X41175Y10350
X42175Y10350
X42175Y11350
X41175Y11350
M30
