G75*
%MOIN*%
%OFA0B0*%
%FSLAX25Y25*%
%IPPOS*%
%LPD*%
%AMOC8*
5,1,8,0,0,1.08239X$1,22.5*
%
%ADD10R,0.04331X0.03937*%
%ADD11C,0.01181*%
%ADD12R,0.05748X0.07874*%
%ADD13R,0.09843X0.05610*%
%ADD14C,0.00400*%
%ADD15C,0.00197*%
%ADD16R,0.07087X0.03937*%
%ADD17R,0.03937X0.04331*%
%ADD18R,0.01575X0.02362*%
%ADD19R,0.02362X0.01575*%
%ADD20R,0.04331X0.07874*%
%ADD21R,0.04724X0.07874*%
%ADD22R,0.02362X0.05315*%
%ADD23R,0.18110X0.03937*%
%ADD24R,0.13386X0.06299*%
%ADD25R,0.02165X0.04724*%
%ADD26R,0.02480X0.03268*%
%ADD27R,0.04724X0.02165*%
%ADD28R,0.05906X0.02756*%
%ADD29R,0.02362X0.03937*%
%ADD30R,0.03150X0.03937*%
D10*
X0110904Y0056000D03*
X0110904Y0062000D03*
X0117596Y0062000D03*
X0117596Y0056000D03*
X0123904Y0056000D03*
X0123904Y0062000D03*
X0130596Y0062000D03*
X0130596Y0056000D03*
X0143404Y0067500D03*
X0150096Y0067500D03*
X0167404Y0070000D03*
X0167404Y0064000D03*
X0174096Y0064000D03*
X0174096Y0070000D03*
X0174096Y0080500D03*
X0167404Y0080500D03*
X0150096Y0093500D03*
X0143404Y0093500D03*
X0130596Y0089300D03*
X0123904Y0089300D03*
X0117596Y0089500D03*
X0110904Y0089500D03*
X0110904Y0083500D03*
X0117596Y0083500D03*
X0082596Y0090500D03*
X0082596Y0096500D03*
X0075904Y0096500D03*
X0075904Y0090500D03*
X0110904Y0148000D03*
X0117596Y0148000D03*
X0123904Y0148000D03*
X0130596Y0148000D03*
X0130596Y0154000D03*
X0123904Y0154000D03*
X0117596Y0154000D03*
X0110904Y0154000D03*
X0110904Y0175500D03*
X0110904Y0181500D03*
X0117596Y0181500D03*
X0117596Y0175500D03*
X0123904Y0181300D03*
X0130596Y0181300D03*
X0143404Y0185500D03*
X0150096Y0185500D03*
X0167404Y0172500D03*
X0174096Y0172500D03*
X0174096Y0162000D03*
X0167404Y0162000D03*
X0167404Y0156000D03*
X0167404Y0150000D03*
X0174096Y0150000D03*
X0174096Y0156000D03*
X0150096Y0159500D03*
X0143404Y0159500D03*
X0082596Y0182500D03*
X0082596Y0188500D03*
X0075904Y0188500D03*
X0075904Y0182500D03*
X0110904Y0240000D03*
X0117596Y0240000D03*
X0123904Y0240000D03*
X0130596Y0240000D03*
X0130596Y0246000D03*
X0123904Y0246000D03*
X0117596Y0246000D03*
X0110904Y0246000D03*
X0110904Y0267500D03*
X0110904Y0273500D03*
X0117596Y0273500D03*
X0117596Y0267500D03*
X0123904Y0273300D03*
X0130596Y0273300D03*
X0143404Y0277500D03*
X0150096Y0277500D03*
X0167404Y0264500D03*
X0174096Y0264500D03*
X0174096Y0254000D03*
X0167404Y0254000D03*
X0167404Y0248000D03*
X0167404Y0242000D03*
X0174096Y0242000D03*
X0174096Y0248000D03*
X0150096Y0251500D03*
X0143404Y0251500D03*
X0082596Y0274500D03*
X0082596Y0280500D03*
X0075904Y0280500D03*
X0075904Y0274500D03*
X0110904Y0332000D03*
X0110904Y0338000D03*
X0117596Y0338000D03*
X0117596Y0332000D03*
X0123904Y0332000D03*
X0123904Y0338000D03*
X0130596Y0338000D03*
X0130596Y0332000D03*
X0143404Y0343500D03*
X0150096Y0343500D03*
X0167404Y0346000D03*
X0167404Y0340000D03*
X0174096Y0340000D03*
X0174096Y0346000D03*
X0174096Y0356500D03*
X0167404Y0356500D03*
X0150096Y0369500D03*
X0143404Y0369500D03*
X0130596Y0365300D03*
X0123904Y0365300D03*
X0117596Y0365500D03*
X0110904Y0365500D03*
X0110904Y0359500D03*
X0117596Y0359500D03*
X0082596Y0366500D03*
X0082596Y0372500D03*
X0075904Y0372500D03*
X0075904Y0366500D03*
X0167404Y0334000D03*
X0174096Y0334000D03*
X0275904Y0366500D03*
X0282596Y0366500D03*
X0282596Y0372500D03*
X0275904Y0372500D03*
X0310904Y0365500D03*
X0317596Y0365500D03*
X0317596Y0359500D03*
X0310904Y0359500D03*
X0323904Y0365300D03*
X0330596Y0365300D03*
X0343404Y0369500D03*
X0350096Y0369500D03*
X0367404Y0356500D03*
X0374096Y0356500D03*
X0374096Y0346000D03*
X0374096Y0340000D03*
X0367404Y0340000D03*
X0367404Y0346000D03*
X0367404Y0334000D03*
X0374096Y0334000D03*
X0350096Y0343500D03*
X0343404Y0343500D03*
X0330596Y0338000D03*
X0330596Y0332000D03*
X0323904Y0332000D03*
X0323904Y0338000D03*
X0317596Y0338000D03*
X0317596Y0332000D03*
X0310904Y0332000D03*
X0310904Y0338000D03*
X0282596Y0280500D03*
X0275904Y0280500D03*
X0275904Y0274500D03*
X0282596Y0274500D03*
X0310904Y0273500D03*
X0310904Y0267500D03*
X0317596Y0267500D03*
X0317596Y0273500D03*
X0323904Y0273300D03*
X0330596Y0273300D03*
X0343404Y0277500D03*
X0350096Y0277500D03*
X0367404Y0264500D03*
X0374096Y0264500D03*
X0374096Y0254000D03*
X0367404Y0254000D03*
X0367404Y0248000D03*
X0367404Y0242000D03*
X0374096Y0242000D03*
X0374096Y0248000D03*
X0350096Y0251500D03*
X0343404Y0251500D03*
X0330596Y0246000D03*
X0323904Y0246000D03*
X0323904Y0240000D03*
X0330596Y0240000D03*
X0317596Y0240000D03*
X0310904Y0240000D03*
X0310904Y0246000D03*
X0317596Y0246000D03*
X0282596Y0188500D03*
X0282596Y0182500D03*
X0275904Y0182500D03*
X0275904Y0188500D03*
X0310904Y0181500D03*
X0310904Y0175500D03*
X0317596Y0175500D03*
X0317596Y0181500D03*
X0323904Y0181300D03*
X0330596Y0181300D03*
X0343404Y0185500D03*
X0350096Y0185500D03*
X0367404Y0172500D03*
X0374096Y0172500D03*
X0374096Y0162000D03*
X0367404Y0162000D03*
X0367404Y0156000D03*
X0367404Y0150000D03*
X0374096Y0150000D03*
X0374096Y0156000D03*
X0350096Y0159500D03*
X0343404Y0159500D03*
X0330596Y0154000D03*
X0323904Y0154000D03*
X0323904Y0148000D03*
X0330596Y0148000D03*
X0317596Y0148000D03*
X0310904Y0148000D03*
X0310904Y0154000D03*
X0317596Y0154000D03*
X0343404Y0093500D03*
X0350096Y0093500D03*
X0330596Y0089300D03*
X0323904Y0089300D03*
X0317596Y0089500D03*
X0310904Y0089500D03*
X0310904Y0083500D03*
X0317596Y0083500D03*
X0317596Y0062000D03*
X0317596Y0056000D03*
X0310904Y0056000D03*
X0310904Y0062000D03*
X0323904Y0062000D03*
X0323904Y0056000D03*
X0330596Y0056000D03*
X0330596Y0062000D03*
X0343404Y0067500D03*
X0350096Y0067500D03*
X0367404Y0070000D03*
X0367404Y0064000D03*
X0374096Y0064000D03*
X0374096Y0070000D03*
X0374096Y0080500D03*
X0367404Y0080500D03*
X0367404Y0058000D03*
X0374096Y0058000D03*
X0282596Y0090500D03*
X0282596Y0096500D03*
X0275904Y0096500D03*
X0275904Y0090500D03*
X0174096Y0058000D03*
X0167404Y0058000D03*
D11*
X0148825Y0072122D02*
X0148825Y0074878D01*
X0151581Y0074878D01*
X0151581Y0072122D01*
X0148825Y0072122D01*
X0148825Y0073244D02*
X0151581Y0073244D01*
X0151581Y0074366D02*
X0148825Y0074366D01*
X0141919Y0074878D02*
X0141919Y0072122D01*
X0141919Y0074878D02*
X0144675Y0074878D01*
X0144675Y0072122D01*
X0141919Y0072122D01*
X0141919Y0073244D02*
X0144675Y0073244D01*
X0144675Y0074366D02*
X0141919Y0074366D01*
X0078128Y0077425D02*
X0075372Y0077425D01*
X0078128Y0077425D02*
X0078128Y0074669D01*
X0075372Y0074669D01*
X0075372Y0077425D01*
X0075372Y0075791D02*
X0078128Y0075791D01*
X0078128Y0076913D02*
X0075372Y0076913D01*
X0075372Y0084331D02*
X0078128Y0084331D01*
X0078128Y0081575D01*
X0075372Y0081575D01*
X0075372Y0084331D01*
X0075372Y0082697D02*
X0078128Y0082697D01*
X0078128Y0083819D02*
X0075372Y0083819D01*
X0071919Y0102122D02*
X0071919Y0104878D01*
X0074675Y0104878D01*
X0074675Y0102122D01*
X0071919Y0102122D01*
X0071919Y0103244D02*
X0074675Y0103244D01*
X0074675Y0104366D02*
X0071919Y0104366D01*
X0078825Y0104878D02*
X0078825Y0102122D01*
X0078825Y0104878D02*
X0081581Y0104878D01*
X0081581Y0102122D01*
X0078825Y0102122D01*
X0078825Y0103244D02*
X0081581Y0103244D01*
X0081581Y0104366D02*
X0078825Y0104366D01*
X0078128Y0169425D02*
X0075372Y0169425D01*
X0078128Y0169425D02*
X0078128Y0166669D01*
X0075372Y0166669D01*
X0075372Y0169425D01*
X0075372Y0167791D02*
X0078128Y0167791D01*
X0078128Y0168913D02*
X0075372Y0168913D01*
X0075372Y0176331D02*
X0078128Y0176331D01*
X0078128Y0173575D01*
X0075372Y0173575D01*
X0075372Y0176331D01*
X0075372Y0174697D02*
X0078128Y0174697D01*
X0078128Y0175819D02*
X0075372Y0175819D01*
X0071919Y0194122D02*
X0071919Y0196878D01*
X0074675Y0196878D01*
X0074675Y0194122D01*
X0071919Y0194122D01*
X0071919Y0195244D02*
X0074675Y0195244D01*
X0074675Y0196366D02*
X0071919Y0196366D01*
X0078825Y0196878D02*
X0078825Y0194122D01*
X0078825Y0196878D02*
X0081581Y0196878D01*
X0081581Y0194122D01*
X0078825Y0194122D01*
X0078825Y0195244D02*
X0081581Y0195244D01*
X0081581Y0196366D02*
X0078825Y0196366D01*
X0141919Y0166878D02*
X0141919Y0164122D01*
X0141919Y0166878D02*
X0144675Y0166878D01*
X0144675Y0164122D01*
X0141919Y0164122D01*
X0141919Y0165244D02*
X0144675Y0165244D01*
X0144675Y0166366D02*
X0141919Y0166366D01*
X0148825Y0166878D02*
X0148825Y0164122D01*
X0148825Y0166878D02*
X0151581Y0166878D01*
X0151581Y0164122D01*
X0148825Y0164122D01*
X0148825Y0165244D02*
X0151581Y0165244D01*
X0151581Y0166366D02*
X0148825Y0166366D01*
X0148825Y0256122D02*
X0148825Y0258878D01*
X0151581Y0258878D01*
X0151581Y0256122D01*
X0148825Y0256122D01*
X0148825Y0257244D02*
X0151581Y0257244D01*
X0151581Y0258366D02*
X0148825Y0258366D01*
X0141919Y0258878D02*
X0141919Y0256122D01*
X0141919Y0258878D02*
X0144675Y0258878D01*
X0144675Y0256122D01*
X0141919Y0256122D01*
X0141919Y0257244D02*
X0144675Y0257244D01*
X0144675Y0258366D02*
X0141919Y0258366D01*
X0078128Y0261425D02*
X0075372Y0261425D01*
X0078128Y0261425D02*
X0078128Y0258669D01*
X0075372Y0258669D01*
X0075372Y0261425D01*
X0075372Y0259791D02*
X0078128Y0259791D01*
X0078128Y0260913D02*
X0075372Y0260913D01*
X0075372Y0268331D02*
X0078128Y0268331D01*
X0078128Y0265575D01*
X0075372Y0265575D01*
X0075372Y0268331D01*
X0075372Y0266697D02*
X0078128Y0266697D01*
X0078128Y0267819D02*
X0075372Y0267819D01*
X0071919Y0286122D02*
X0071919Y0288878D01*
X0074675Y0288878D01*
X0074675Y0286122D01*
X0071919Y0286122D01*
X0071919Y0287244D02*
X0074675Y0287244D01*
X0074675Y0288366D02*
X0071919Y0288366D01*
X0078825Y0288878D02*
X0078825Y0286122D01*
X0078825Y0288878D02*
X0081581Y0288878D01*
X0081581Y0286122D01*
X0078825Y0286122D01*
X0078825Y0287244D02*
X0081581Y0287244D01*
X0081581Y0288366D02*
X0078825Y0288366D01*
X0141919Y0348122D02*
X0141919Y0350878D01*
X0144675Y0350878D01*
X0144675Y0348122D01*
X0141919Y0348122D01*
X0141919Y0349244D02*
X0144675Y0349244D01*
X0144675Y0350366D02*
X0141919Y0350366D01*
X0148825Y0350878D02*
X0148825Y0348122D01*
X0148825Y0350878D02*
X0151581Y0350878D01*
X0151581Y0348122D01*
X0148825Y0348122D01*
X0148825Y0349244D02*
X0151581Y0349244D01*
X0151581Y0350366D02*
X0148825Y0350366D01*
X0078128Y0353425D02*
X0075372Y0353425D01*
X0078128Y0353425D02*
X0078128Y0350669D01*
X0075372Y0350669D01*
X0075372Y0353425D01*
X0075372Y0351791D02*
X0078128Y0351791D01*
X0078128Y0352913D02*
X0075372Y0352913D01*
X0075372Y0360331D02*
X0078128Y0360331D01*
X0078128Y0357575D01*
X0075372Y0357575D01*
X0075372Y0360331D01*
X0075372Y0358697D02*
X0078128Y0358697D01*
X0078128Y0359819D02*
X0075372Y0359819D01*
X0071919Y0378122D02*
X0071919Y0380878D01*
X0074675Y0380878D01*
X0074675Y0378122D01*
X0071919Y0378122D01*
X0071919Y0379244D02*
X0074675Y0379244D01*
X0074675Y0380366D02*
X0071919Y0380366D01*
X0078825Y0380878D02*
X0078825Y0378122D01*
X0078825Y0380878D02*
X0081581Y0380878D01*
X0081581Y0378122D01*
X0078825Y0378122D01*
X0078825Y0379244D02*
X0081581Y0379244D01*
X0081581Y0380366D02*
X0078825Y0380366D01*
X0271919Y0380878D02*
X0271919Y0378122D01*
X0271919Y0380878D02*
X0274675Y0380878D01*
X0274675Y0378122D01*
X0271919Y0378122D01*
X0271919Y0379244D02*
X0274675Y0379244D01*
X0274675Y0380366D02*
X0271919Y0380366D01*
X0278825Y0380878D02*
X0278825Y0378122D01*
X0278825Y0380878D02*
X0281581Y0380878D01*
X0281581Y0378122D01*
X0278825Y0378122D01*
X0278825Y0379244D02*
X0281581Y0379244D01*
X0281581Y0380366D02*
X0278825Y0380366D01*
X0278128Y0360331D02*
X0275372Y0360331D01*
X0278128Y0360331D02*
X0278128Y0357575D01*
X0275372Y0357575D01*
X0275372Y0360331D01*
X0275372Y0358697D02*
X0278128Y0358697D01*
X0278128Y0359819D02*
X0275372Y0359819D01*
X0275372Y0353425D02*
X0278128Y0353425D01*
X0278128Y0350669D01*
X0275372Y0350669D01*
X0275372Y0353425D01*
X0275372Y0351791D02*
X0278128Y0351791D01*
X0278128Y0352913D02*
X0275372Y0352913D01*
X0341919Y0350878D02*
X0341919Y0348122D01*
X0341919Y0350878D02*
X0344675Y0350878D01*
X0344675Y0348122D01*
X0341919Y0348122D01*
X0341919Y0349244D02*
X0344675Y0349244D01*
X0344675Y0350366D02*
X0341919Y0350366D01*
X0348825Y0350878D02*
X0348825Y0348122D01*
X0348825Y0350878D02*
X0351581Y0350878D01*
X0351581Y0348122D01*
X0348825Y0348122D01*
X0348825Y0349244D02*
X0351581Y0349244D01*
X0351581Y0350366D02*
X0348825Y0350366D01*
X0278825Y0288878D02*
X0278825Y0286122D01*
X0278825Y0288878D02*
X0281581Y0288878D01*
X0281581Y0286122D01*
X0278825Y0286122D01*
X0278825Y0287244D02*
X0281581Y0287244D01*
X0281581Y0288366D02*
X0278825Y0288366D01*
X0271919Y0288878D02*
X0271919Y0286122D01*
X0271919Y0288878D02*
X0274675Y0288878D01*
X0274675Y0286122D01*
X0271919Y0286122D01*
X0271919Y0287244D02*
X0274675Y0287244D01*
X0274675Y0288366D02*
X0271919Y0288366D01*
X0275372Y0268331D02*
X0278128Y0268331D01*
X0278128Y0265575D01*
X0275372Y0265575D01*
X0275372Y0268331D01*
X0275372Y0266697D02*
X0278128Y0266697D01*
X0278128Y0267819D02*
X0275372Y0267819D01*
X0275372Y0261425D02*
X0278128Y0261425D01*
X0278128Y0258669D01*
X0275372Y0258669D01*
X0275372Y0261425D01*
X0275372Y0259791D02*
X0278128Y0259791D01*
X0278128Y0260913D02*
X0275372Y0260913D01*
X0341919Y0258878D02*
X0341919Y0256122D01*
X0341919Y0258878D02*
X0344675Y0258878D01*
X0344675Y0256122D01*
X0341919Y0256122D01*
X0341919Y0257244D02*
X0344675Y0257244D01*
X0344675Y0258366D02*
X0341919Y0258366D01*
X0348825Y0258878D02*
X0348825Y0256122D01*
X0348825Y0258878D02*
X0351581Y0258878D01*
X0351581Y0256122D01*
X0348825Y0256122D01*
X0348825Y0257244D02*
X0351581Y0257244D01*
X0351581Y0258366D02*
X0348825Y0258366D01*
X0278825Y0196878D02*
X0278825Y0194122D01*
X0278825Y0196878D02*
X0281581Y0196878D01*
X0281581Y0194122D01*
X0278825Y0194122D01*
X0278825Y0195244D02*
X0281581Y0195244D01*
X0281581Y0196366D02*
X0278825Y0196366D01*
X0271919Y0196878D02*
X0271919Y0194122D01*
X0271919Y0196878D02*
X0274675Y0196878D01*
X0274675Y0194122D01*
X0271919Y0194122D01*
X0271919Y0195244D02*
X0274675Y0195244D01*
X0274675Y0196366D02*
X0271919Y0196366D01*
X0275372Y0176331D02*
X0278128Y0176331D01*
X0278128Y0173575D01*
X0275372Y0173575D01*
X0275372Y0176331D01*
X0275372Y0174697D02*
X0278128Y0174697D01*
X0278128Y0175819D02*
X0275372Y0175819D01*
X0275372Y0169425D02*
X0278128Y0169425D01*
X0278128Y0166669D01*
X0275372Y0166669D01*
X0275372Y0169425D01*
X0275372Y0167791D02*
X0278128Y0167791D01*
X0278128Y0168913D02*
X0275372Y0168913D01*
X0341919Y0166878D02*
X0341919Y0164122D01*
X0341919Y0166878D02*
X0344675Y0166878D01*
X0344675Y0164122D01*
X0341919Y0164122D01*
X0341919Y0165244D02*
X0344675Y0165244D01*
X0344675Y0166366D02*
X0341919Y0166366D01*
X0348825Y0166878D02*
X0348825Y0164122D01*
X0348825Y0166878D02*
X0351581Y0166878D01*
X0351581Y0164122D01*
X0348825Y0164122D01*
X0348825Y0165244D02*
X0351581Y0165244D01*
X0351581Y0166366D02*
X0348825Y0166366D01*
X0278825Y0104878D02*
X0278825Y0102122D01*
X0278825Y0104878D02*
X0281581Y0104878D01*
X0281581Y0102122D01*
X0278825Y0102122D01*
X0278825Y0103244D02*
X0281581Y0103244D01*
X0281581Y0104366D02*
X0278825Y0104366D01*
X0271919Y0104878D02*
X0271919Y0102122D01*
X0271919Y0104878D02*
X0274675Y0104878D01*
X0274675Y0102122D01*
X0271919Y0102122D01*
X0271919Y0103244D02*
X0274675Y0103244D01*
X0274675Y0104366D02*
X0271919Y0104366D01*
X0275372Y0084331D02*
X0278128Y0084331D01*
X0278128Y0081575D01*
X0275372Y0081575D01*
X0275372Y0084331D01*
X0275372Y0082697D02*
X0278128Y0082697D01*
X0278128Y0083819D02*
X0275372Y0083819D01*
X0275372Y0077425D02*
X0278128Y0077425D01*
X0278128Y0074669D01*
X0275372Y0074669D01*
X0275372Y0077425D01*
X0275372Y0075791D02*
X0278128Y0075791D01*
X0278128Y0076913D02*
X0275372Y0076913D01*
X0341919Y0074878D02*
X0341919Y0072122D01*
X0341919Y0074878D02*
X0344675Y0074878D01*
X0344675Y0072122D01*
X0341919Y0072122D01*
X0341919Y0073244D02*
X0344675Y0073244D01*
X0344675Y0074366D02*
X0341919Y0074366D01*
X0348825Y0074878D02*
X0348825Y0072122D01*
X0348825Y0074878D02*
X0351581Y0074878D01*
X0351581Y0072122D01*
X0348825Y0072122D01*
X0348825Y0073244D02*
X0351581Y0073244D01*
X0351581Y0074366D02*
X0348825Y0074366D01*
D12*
X0267333Y0080683D03*
X0267333Y0103517D03*
X0267333Y0172683D03*
X0267333Y0195517D03*
X0267333Y0264683D03*
X0267333Y0287517D03*
X0267333Y0356683D03*
X0267333Y0379517D03*
X0067333Y0379517D03*
X0067333Y0356683D03*
X0067333Y0287517D03*
X0067333Y0264683D03*
X0067333Y0195517D03*
X0067333Y0172683D03*
X0067333Y0103517D03*
X0067333Y0080683D03*
D13*
X0055719Y0088311D03*
X0055719Y0095889D03*
X0055719Y0180311D03*
X0055719Y0187889D03*
X0055719Y0272311D03*
X0055719Y0279889D03*
X0055719Y0364311D03*
X0055719Y0371889D03*
X0255719Y0371889D03*
X0255719Y0364311D03*
X0255719Y0279889D03*
X0255719Y0272311D03*
X0255719Y0187889D03*
X0255719Y0180311D03*
X0255719Y0095889D03*
X0255719Y0088311D03*
D14*
X0253690Y0084294D02*
X0253401Y0084261D01*
X0253126Y0084165D01*
X0252880Y0084010D01*
X0252674Y0083804D01*
X0252519Y0083558D01*
X0252423Y0083283D01*
X0252390Y0082994D01*
X0252390Y0080094D01*
X0252420Y0079827D01*
X0252509Y0079573D01*
X0252652Y0079346D01*
X0252842Y0079155D01*
X0253070Y0079013D01*
X0253323Y0078924D01*
X0253590Y0078894D01*
X0260490Y0078894D01*
X0260528Y0078886D01*
X0260561Y0078864D01*
X0260583Y0078832D01*
X0260590Y0078794D01*
X0260590Y0076894D01*
X0263690Y0076894D01*
X0263690Y0084294D01*
X0253690Y0084294D01*
X0253671Y0084292D02*
X0263690Y0084292D01*
X0263690Y0083893D02*
X0252763Y0083893D01*
X0252497Y0083495D02*
X0263690Y0083495D01*
X0263690Y0083096D02*
X0252402Y0083096D01*
X0252390Y0082698D02*
X0263690Y0082698D01*
X0263690Y0082299D02*
X0252390Y0082299D01*
X0252390Y0081901D02*
X0263690Y0081901D01*
X0263690Y0081502D02*
X0252390Y0081502D01*
X0252390Y0081103D02*
X0263690Y0081103D01*
X0263690Y0080705D02*
X0252390Y0080705D01*
X0252390Y0080306D02*
X0263690Y0080306D01*
X0263690Y0079908D02*
X0252411Y0079908D01*
X0252549Y0079509D02*
X0263690Y0079509D01*
X0263690Y0079111D02*
X0252913Y0079111D01*
X0260590Y0078712D02*
X0263690Y0078712D01*
X0263690Y0078314D02*
X0260590Y0078314D01*
X0260590Y0077915D02*
X0263690Y0077915D01*
X0263690Y0077517D02*
X0260590Y0077517D01*
X0260590Y0077118D02*
X0263690Y0077118D01*
X0263690Y0099957D02*
X0253690Y0099957D01*
X0253401Y0099989D01*
X0253126Y0100086D01*
X0252880Y0100240D01*
X0252674Y0100446D01*
X0252519Y0100693D01*
X0252423Y0100968D01*
X0252390Y0101257D01*
X0252390Y0104157D01*
X0252420Y0104424D01*
X0252509Y0104677D01*
X0252652Y0104905D01*
X0252842Y0105095D01*
X0253070Y0105238D01*
X0253323Y0105327D01*
X0253590Y0105357D01*
X0260490Y0105357D01*
X0260528Y0105364D01*
X0260561Y0105386D01*
X0260583Y0105419D01*
X0260590Y0105457D01*
X0260590Y0107357D01*
X0263690Y0107357D01*
X0263690Y0099957D01*
X0263690Y0100232D02*
X0252893Y0100232D01*
X0252558Y0100631D02*
X0263690Y0100631D01*
X0263690Y0101029D02*
X0252416Y0101029D01*
X0252390Y0101428D02*
X0263690Y0101428D01*
X0263690Y0101826D02*
X0252390Y0101826D01*
X0252390Y0102225D02*
X0263690Y0102225D01*
X0263690Y0102623D02*
X0252390Y0102623D01*
X0252390Y0103022D02*
X0263690Y0103022D01*
X0263690Y0103420D02*
X0252390Y0103420D01*
X0252390Y0103819D02*
X0263690Y0103819D01*
X0263690Y0104217D02*
X0252397Y0104217D01*
X0252487Y0104616D02*
X0263690Y0104616D01*
X0263690Y0105014D02*
X0252761Y0105014D01*
X0260579Y0105413D02*
X0263690Y0105413D01*
X0263690Y0105811D02*
X0260590Y0105811D01*
X0260590Y0106210D02*
X0263690Y0106210D01*
X0263690Y0106608D02*
X0260590Y0106608D01*
X0260590Y0107007D02*
X0263690Y0107007D01*
X0263690Y0168894D02*
X0260590Y0168894D01*
X0260590Y0170794D01*
X0260583Y0170832D01*
X0260561Y0170864D01*
X0260528Y0170886D01*
X0260490Y0170894D01*
X0253590Y0170894D01*
X0253323Y0170924D01*
X0253070Y0171013D01*
X0252842Y0171155D01*
X0252652Y0171346D01*
X0252509Y0171573D01*
X0252420Y0171827D01*
X0252390Y0172094D01*
X0252390Y0174994D01*
X0252423Y0175283D01*
X0252519Y0175558D01*
X0252674Y0175804D01*
X0252880Y0176010D01*
X0253126Y0176165D01*
X0253401Y0176261D01*
X0253690Y0176294D01*
X0263690Y0176294D01*
X0263690Y0168894D01*
X0263690Y0169174D02*
X0260590Y0169174D01*
X0260590Y0169573D02*
X0263690Y0169573D01*
X0263690Y0169972D02*
X0260590Y0169972D01*
X0260590Y0170370D02*
X0263690Y0170370D01*
X0263690Y0170769D02*
X0260590Y0170769D01*
X0263690Y0171167D02*
X0252830Y0171167D01*
X0252514Y0171566D02*
X0263690Y0171566D01*
X0263690Y0171964D02*
X0252405Y0171964D01*
X0252390Y0172363D02*
X0263690Y0172363D01*
X0263690Y0172761D02*
X0252390Y0172761D01*
X0252390Y0173160D02*
X0263690Y0173160D01*
X0263690Y0173558D02*
X0252390Y0173558D01*
X0252390Y0173957D02*
X0263690Y0173957D01*
X0263690Y0174355D02*
X0252390Y0174355D01*
X0252390Y0174754D02*
X0263690Y0174754D01*
X0263690Y0175152D02*
X0252408Y0175152D01*
X0252516Y0175551D02*
X0263690Y0175551D01*
X0263690Y0175949D02*
X0252819Y0175949D01*
X0253690Y0191957D02*
X0253401Y0191989D01*
X0253126Y0192086D01*
X0252880Y0192240D01*
X0252674Y0192446D01*
X0252519Y0192693D01*
X0252423Y0192968D01*
X0252390Y0193257D01*
X0252390Y0196157D01*
X0252420Y0196424D01*
X0252509Y0196677D01*
X0252652Y0196905D01*
X0252842Y0197095D01*
X0253070Y0197238D01*
X0253323Y0197327D01*
X0253590Y0197357D01*
X0260490Y0197357D01*
X0260528Y0197364D01*
X0260561Y0197386D01*
X0260583Y0197419D01*
X0260590Y0197457D01*
X0260590Y0199357D01*
X0263690Y0199357D01*
X0263690Y0191957D01*
X0253690Y0191957D01*
X0252832Y0192288D02*
X0263690Y0192288D01*
X0263690Y0192687D02*
X0252523Y0192687D01*
X0252410Y0193085D02*
X0263690Y0193085D01*
X0263690Y0193484D02*
X0252390Y0193484D01*
X0252390Y0193882D02*
X0263690Y0193882D01*
X0263690Y0194281D02*
X0252390Y0194281D01*
X0252390Y0194679D02*
X0263690Y0194679D01*
X0263690Y0195078D02*
X0252390Y0195078D01*
X0252390Y0195476D02*
X0263690Y0195476D01*
X0263690Y0195875D02*
X0252390Y0195875D01*
X0252403Y0196273D02*
X0263690Y0196273D01*
X0263690Y0196672D02*
X0252507Y0196672D01*
X0252817Y0197070D02*
X0263690Y0197070D01*
X0263690Y0197469D02*
X0260590Y0197469D01*
X0260590Y0197867D02*
X0263690Y0197867D01*
X0263690Y0198266D02*
X0260590Y0198266D01*
X0260590Y0198664D02*
X0263690Y0198664D01*
X0263690Y0199063D02*
X0260590Y0199063D01*
X0260590Y0260894D02*
X0263690Y0260894D01*
X0263690Y0268294D01*
X0253690Y0268294D01*
X0253401Y0268261D01*
X0253126Y0268165D01*
X0252880Y0268010D01*
X0252674Y0267804D01*
X0252519Y0267558D01*
X0252423Y0267283D01*
X0252390Y0266994D01*
X0252390Y0264094D01*
X0252420Y0263827D01*
X0252509Y0263573D01*
X0252652Y0263346D01*
X0252842Y0263155D01*
X0253070Y0263013D01*
X0253323Y0262924D01*
X0253590Y0262894D01*
X0260490Y0262894D01*
X0260528Y0262886D01*
X0260561Y0262864D01*
X0260583Y0262832D01*
X0260590Y0262794D01*
X0260590Y0260894D01*
X0260590Y0261231D02*
X0263690Y0261231D01*
X0263690Y0261629D02*
X0260590Y0261629D01*
X0260590Y0262028D02*
X0263690Y0262028D01*
X0263690Y0262426D02*
X0260590Y0262426D01*
X0260584Y0262825D02*
X0263690Y0262825D01*
X0263690Y0263223D02*
X0252774Y0263223D01*
X0252492Y0263622D02*
X0263690Y0263622D01*
X0263690Y0264020D02*
X0252398Y0264020D01*
X0252390Y0264419D02*
X0263690Y0264419D01*
X0263690Y0264817D02*
X0252390Y0264817D01*
X0252390Y0265216D02*
X0263690Y0265216D01*
X0263690Y0265614D02*
X0252390Y0265614D01*
X0252390Y0266013D02*
X0263690Y0266013D01*
X0263690Y0266411D02*
X0252390Y0266411D01*
X0252390Y0266810D02*
X0263690Y0266810D01*
X0263690Y0267208D02*
X0252414Y0267208D01*
X0252550Y0267607D02*
X0263690Y0267607D01*
X0263690Y0268005D02*
X0252875Y0268005D01*
X0253690Y0283957D02*
X0253401Y0283989D01*
X0253126Y0284086D01*
X0252880Y0284240D01*
X0252674Y0284446D01*
X0252519Y0284693D01*
X0252423Y0284968D01*
X0252390Y0285257D01*
X0252390Y0288157D01*
X0252420Y0288424D01*
X0252509Y0288677D01*
X0252652Y0288905D01*
X0252842Y0289095D01*
X0253070Y0289238D01*
X0253323Y0289327D01*
X0253590Y0289357D01*
X0260490Y0289357D01*
X0260528Y0289364D01*
X0260561Y0289386D01*
X0260583Y0289419D01*
X0260590Y0289457D01*
X0260590Y0291357D01*
X0263690Y0291357D01*
X0263690Y0283957D01*
X0253690Y0283957D01*
X0252776Y0284344D02*
X0263690Y0284344D01*
X0263690Y0284743D02*
X0252501Y0284743D01*
X0252403Y0285141D02*
X0263690Y0285141D01*
X0263690Y0285540D02*
X0252390Y0285540D01*
X0252390Y0285938D02*
X0263690Y0285938D01*
X0263690Y0286337D02*
X0252390Y0286337D01*
X0252390Y0286735D02*
X0263690Y0286735D01*
X0263690Y0287134D02*
X0252390Y0287134D01*
X0252390Y0287532D02*
X0263690Y0287532D01*
X0263690Y0287931D02*
X0252390Y0287931D01*
X0252410Y0288329D02*
X0263690Y0288329D01*
X0263690Y0288728D02*
X0252541Y0288728D01*
X0252892Y0289126D02*
X0263690Y0289126D01*
X0263690Y0289525D02*
X0260590Y0289525D01*
X0260590Y0289923D02*
X0263690Y0289923D01*
X0263690Y0290322D02*
X0260590Y0290322D01*
X0260590Y0290720D02*
X0263690Y0290720D01*
X0263690Y0291119D02*
X0260590Y0291119D01*
X0260590Y0352894D02*
X0263690Y0352894D01*
X0263690Y0360294D01*
X0253690Y0360294D01*
X0253401Y0360261D01*
X0253126Y0360165D01*
X0252880Y0360010D01*
X0252674Y0359804D01*
X0252519Y0359558D01*
X0252423Y0359283D01*
X0252390Y0358994D01*
X0252390Y0356094D01*
X0252420Y0355827D01*
X0252509Y0355573D01*
X0252652Y0355346D01*
X0252842Y0355155D01*
X0253070Y0355013D01*
X0253323Y0354924D01*
X0253590Y0354894D01*
X0260490Y0354894D01*
X0260528Y0354886D01*
X0260561Y0354864D01*
X0260583Y0354832D01*
X0260590Y0354794D01*
X0260590Y0352894D01*
X0260590Y0353287D02*
X0263690Y0353287D01*
X0263690Y0353685D02*
X0260590Y0353685D01*
X0260590Y0354084D02*
X0263690Y0354084D01*
X0263690Y0354482D02*
X0260590Y0354482D01*
X0260536Y0354881D02*
X0263690Y0354881D01*
X0263690Y0355279D02*
X0252718Y0355279D01*
X0252472Y0355678D02*
X0263690Y0355678D01*
X0263690Y0356076D02*
X0252392Y0356076D01*
X0252390Y0356475D02*
X0263690Y0356475D01*
X0263690Y0356873D02*
X0252390Y0356873D01*
X0252390Y0357272D02*
X0263690Y0357272D01*
X0263690Y0357670D02*
X0252390Y0357670D01*
X0252390Y0358069D02*
X0263690Y0358069D01*
X0263690Y0358467D02*
X0252390Y0358467D01*
X0252390Y0358866D02*
X0263690Y0358866D01*
X0263690Y0359264D02*
X0252421Y0359264D01*
X0252585Y0359663D02*
X0263690Y0359663D01*
X0263690Y0360061D02*
X0252961Y0360061D01*
X0253690Y0375957D02*
X0253401Y0375989D01*
X0253126Y0376086D01*
X0252880Y0376240D01*
X0252674Y0376446D01*
X0252519Y0376693D01*
X0252423Y0376968D01*
X0252390Y0377257D01*
X0252390Y0380157D01*
X0252420Y0380424D01*
X0252509Y0380677D01*
X0252652Y0380905D01*
X0252842Y0381095D01*
X0253070Y0381238D01*
X0253323Y0381327D01*
X0253590Y0381357D01*
X0260490Y0381357D01*
X0260528Y0381364D01*
X0260561Y0381386D01*
X0260583Y0381419D01*
X0260590Y0381457D01*
X0260590Y0383357D01*
X0263690Y0383357D01*
X0263690Y0375957D01*
X0253690Y0375957D01*
X0253365Y0376002D02*
X0263690Y0376002D01*
X0263690Y0376400D02*
X0252720Y0376400D01*
X0252482Y0376799D02*
X0263690Y0376799D01*
X0263690Y0377197D02*
X0252397Y0377197D01*
X0252390Y0377596D02*
X0263690Y0377596D01*
X0263690Y0377994D02*
X0252390Y0377994D01*
X0252390Y0378393D02*
X0263690Y0378393D01*
X0263690Y0378791D02*
X0252390Y0378791D01*
X0252390Y0379190D02*
X0263690Y0379190D01*
X0263690Y0379588D02*
X0252390Y0379588D01*
X0252390Y0379987D02*
X0263690Y0379987D01*
X0263690Y0380385D02*
X0252416Y0380385D01*
X0252576Y0380784D02*
X0263690Y0380784D01*
X0263690Y0381183D02*
X0252981Y0381183D01*
X0260590Y0381581D02*
X0263690Y0381581D01*
X0263690Y0381980D02*
X0260590Y0381980D01*
X0260590Y0382378D02*
X0263690Y0382378D01*
X0263690Y0382777D02*
X0260590Y0382777D01*
X0260590Y0383175D02*
X0263690Y0383175D01*
X0063690Y0383175D02*
X0060590Y0383175D01*
X0060590Y0383357D02*
X0063690Y0383357D01*
X0063690Y0375957D01*
X0053690Y0375957D01*
X0053401Y0375989D01*
X0053126Y0376086D01*
X0052880Y0376240D01*
X0052674Y0376446D01*
X0052519Y0376693D01*
X0052423Y0376968D01*
X0052390Y0377257D01*
X0052390Y0380157D01*
X0052420Y0380424D01*
X0052509Y0380677D01*
X0052652Y0380905D01*
X0052842Y0381095D01*
X0053070Y0381238D01*
X0053323Y0381327D01*
X0053590Y0381357D01*
X0060490Y0381357D01*
X0060528Y0381364D01*
X0060561Y0381386D01*
X0060583Y0381419D01*
X0060590Y0381457D01*
X0060590Y0383357D01*
X0060590Y0382777D02*
X0063690Y0382777D01*
X0063690Y0382378D02*
X0060590Y0382378D01*
X0060590Y0381980D02*
X0063690Y0381980D01*
X0063690Y0381581D02*
X0060590Y0381581D01*
X0063690Y0381183D02*
X0052981Y0381183D01*
X0052576Y0380784D02*
X0063690Y0380784D01*
X0063690Y0380385D02*
X0052416Y0380385D01*
X0052390Y0379987D02*
X0063690Y0379987D01*
X0063690Y0379588D02*
X0052390Y0379588D01*
X0052390Y0379190D02*
X0063690Y0379190D01*
X0063690Y0378791D02*
X0052390Y0378791D01*
X0052390Y0378393D02*
X0063690Y0378393D01*
X0063690Y0377994D02*
X0052390Y0377994D01*
X0052390Y0377596D02*
X0063690Y0377596D01*
X0063690Y0377197D02*
X0052397Y0377197D01*
X0052482Y0376799D02*
X0063690Y0376799D01*
X0063690Y0376400D02*
X0052720Y0376400D01*
X0053365Y0376002D02*
X0063690Y0376002D01*
X0063690Y0360294D02*
X0053690Y0360294D01*
X0053401Y0360261D01*
X0053126Y0360165D01*
X0052880Y0360010D01*
X0052674Y0359804D01*
X0052519Y0359558D01*
X0052423Y0359283D01*
X0052390Y0358994D01*
X0052390Y0356094D01*
X0052420Y0355827D01*
X0052509Y0355573D01*
X0052652Y0355346D01*
X0052842Y0355155D01*
X0053070Y0355013D01*
X0053323Y0354924D01*
X0053590Y0354894D01*
X0060490Y0354894D01*
X0060528Y0354886D01*
X0060561Y0354864D01*
X0060583Y0354832D01*
X0060590Y0354794D01*
X0060590Y0352894D01*
X0063690Y0352894D01*
X0063690Y0360294D01*
X0063690Y0360061D02*
X0052961Y0360061D01*
X0052585Y0359663D02*
X0063690Y0359663D01*
X0063690Y0359264D02*
X0052421Y0359264D01*
X0052390Y0358866D02*
X0063690Y0358866D01*
X0063690Y0358467D02*
X0052390Y0358467D01*
X0052390Y0358069D02*
X0063690Y0358069D01*
X0063690Y0357670D02*
X0052390Y0357670D01*
X0052390Y0357272D02*
X0063690Y0357272D01*
X0063690Y0356873D02*
X0052390Y0356873D01*
X0052390Y0356475D02*
X0063690Y0356475D01*
X0063690Y0356076D02*
X0052392Y0356076D01*
X0052472Y0355678D02*
X0063690Y0355678D01*
X0063690Y0355279D02*
X0052718Y0355279D01*
X0060536Y0354881D02*
X0063690Y0354881D01*
X0063690Y0354482D02*
X0060590Y0354482D01*
X0060590Y0354084D02*
X0063690Y0354084D01*
X0063690Y0353685D02*
X0060590Y0353685D01*
X0060590Y0353287D02*
X0063690Y0353287D01*
X0063690Y0291357D02*
X0063690Y0283957D01*
X0053690Y0283957D01*
X0053401Y0283989D01*
X0053126Y0284086D01*
X0052880Y0284240D01*
X0052674Y0284446D01*
X0052519Y0284693D01*
X0052423Y0284968D01*
X0052390Y0285257D01*
X0052390Y0288157D01*
X0052420Y0288424D01*
X0052509Y0288677D01*
X0052652Y0288905D01*
X0052842Y0289095D01*
X0053070Y0289238D01*
X0053323Y0289327D01*
X0053590Y0289357D01*
X0060490Y0289357D01*
X0060528Y0289364D01*
X0060561Y0289386D01*
X0060583Y0289419D01*
X0060590Y0289457D01*
X0060590Y0291357D01*
X0063690Y0291357D01*
X0063690Y0291119D02*
X0060590Y0291119D01*
X0060590Y0290720D02*
X0063690Y0290720D01*
X0063690Y0290322D02*
X0060590Y0290322D01*
X0060590Y0289923D02*
X0063690Y0289923D01*
X0063690Y0289525D02*
X0060590Y0289525D01*
X0063690Y0289126D02*
X0052892Y0289126D01*
X0052541Y0288728D02*
X0063690Y0288728D01*
X0063690Y0288329D02*
X0052410Y0288329D01*
X0052390Y0287931D02*
X0063690Y0287931D01*
X0063690Y0287532D02*
X0052390Y0287532D01*
X0052390Y0287134D02*
X0063690Y0287134D01*
X0063690Y0286735D02*
X0052390Y0286735D01*
X0052390Y0286337D02*
X0063690Y0286337D01*
X0063690Y0285938D02*
X0052390Y0285938D01*
X0052390Y0285540D02*
X0063690Y0285540D01*
X0063690Y0285141D02*
X0052403Y0285141D01*
X0052501Y0284743D02*
X0063690Y0284743D01*
X0063690Y0284344D02*
X0052776Y0284344D01*
X0053690Y0268294D02*
X0053401Y0268261D01*
X0053126Y0268165D01*
X0052880Y0268010D01*
X0052674Y0267804D01*
X0052519Y0267558D01*
X0052423Y0267283D01*
X0052390Y0266994D01*
X0052390Y0264094D01*
X0052420Y0263827D01*
X0052509Y0263573D01*
X0052652Y0263346D01*
X0052842Y0263155D01*
X0053070Y0263013D01*
X0053323Y0262924D01*
X0053590Y0262894D01*
X0060490Y0262894D01*
X0060528Y0262886D01*
X0060561Y0262864D01*
X0060583Y0262832D01*
X0060590Y0262794D01*
X0060590Y0260894D01*
X0063690Y0260894D01*
X0063690Y0268294D01*
X0053690Y0268294D01*
X0052875Y0268005D02*
X0063690Y0268005D01*
X0063690Y0267607D02*
X0052550Y0267607D01*
X0052414Y0267208D02*
X0063690Y0267208D01*
X0063690Y0266810D02*
X0052390Y0266810D01*
X0052390Y0266411D02*
X0063690Y0266411D01*
X0063690Y0266013D02*
X0052390Y0266013D01*
X0052390Y0265614D02*
X0063690Y0265614D01*
X0063690Y0265216D02*
X0052390Y0265216D01*
X0052390Y0264817D02*
X0063690Y0264817D01*
X0063690Y0264419D02*
X0052390Y0264419D01*
X0052398Y0264020D02*
X0063690Y0264020D01*
X0063690Y0263622D02*
X0052492Y0263622D01*
X0052774Y0263223D02*
X0063690Y0263223D01*
X0063690Y0262825D02*
X0060584Y0262825D01*
X0060590Y0262426D02*
X0063690Y0262426D01*
X0063690Y0262028D02*
X0060590Y0262028D01*
X0060590Y0261629D02*
X0063690Y0261629D01*
X0063690Y0261231D02*
X0060590Y0261231D01*
X0060590Y0199357D02*
X0063690Y0199357D01*
X0063690Y0191957D01*
X0053690Y0191957D01*
X0053401Y0191989D01*
X0053126Y0192086D01*
X0052880Y0192240D01*
X0052674Y0192446D01*
X0052519Y0192693D01*
X0052423Y0192968D01*
X0052390Y0193257D01*
X0052390Y0196157D01*
X0052420Y0196424D01*
X0052509Y0196677D01*
X0052652Y0196905D01*
X0052842Y0197095D01*
X0053070Y0197238D01*
X0053323Y0197327D01*
X0053590Y0197357D01*
X0060490Y0197357D01*
X0060528Y0197364D01*
X0060561Y0197386D01*
X0060583Y0197419D01*
X0060590Y0197457D01*
X0060590Y0199357D01*
X0060590Y0199063D02*
X0063690Y0199063D01*
X0063690Y0198664D02*
X0060590Y0198664D01*
X0060590Y0198266D02*
X0063690Y0198266D01*
X0063690Y0197867D02*
X0060590Y0197867D01*
X0060590Y0197469D02*
X0063690Y0197469D01*
X0063690Y0197070D02*
X0052817Y0197070D01*
X0052507Y0196672D02*
X0063690Y0196672D01*
X0063690Y0196273D02*
X0052403Y0196273D01*
X0052390Y0195875D02*
X0063690Y0195875D01*
X0063690Y0195476D02*
X0052390Y0195476D01*
X0052390Y0195078D02*
X0063690Y0195078D01*
X0063690Y0194679D02*
X0052390Y0194679D01*
X0052390Y0194281D02*
X0063690Y0194281D01*
X0063690Y0193882D02*
X0052390Y0193882D01*
X0052390Y0193484D02*
X0063690Y0193484D01*
X0063690Y0193085D02*
X0052410Y0193085D01*
X0052523Y0192687D02*
X0063690Y0192687D01*
X0063690Y0192288D02*
X0052832Y0192288D01*
X0053690Y0176294D02*
X0053401Y0176261D01*
X0053126Y0176165D01*
X0052880Y0176010D01*
X0052674Y0175804D01*
X0052519Y0175558D01*
X0052423Y0175283D01*
X0052390Y0174994D01*
X0052390Y0172094D01*
X0052420Y0171827D01*
X0052509Y0171573D01*
X0052652Y0171346D01*
X0052842Y0171155D01*
X0053070Y0171013D01*
X0053323Y0170924D01*
X0053590Y0170894D01*
X0060490Y0170894D01*
X0060528Y0170886D01*
X0060561Y0170864D01*
X0060583Y0170832D01*
X0060590Y0170794D01*
X0060590Y0168894D01*
X0063690Y0168894D01*
X0063690Y0176294D01*
X0053690Y0176294D01*
X0052819Y0175949D02*
X0063690Y0175949D01*
X0063690Y0175551D02*
X0052516Y0175551D01*
X0052408Y0175152D02*
X0063690Y0175152D01*
X0063690Y0174754D02*
X0052390Y0174754D01*
X0052390Y0174355D02*
X0063690Y0174355D01*
X0063690Y0173957D02*
X0052390Y0173957D01*
X0052390Y0173558D02*
X0063690Y0173558D01*
X0063690Y0173160D02*
X0052390Y0173160D01*
X0052390Y0172761D02*
X0063690Y0172761D01*
X0063690Y0172363D02*
X0052390Y0172363D01*
X0052405Y0171964D02*
X0063690Y0171964D01*
X0063690Y0171566D02*
X0052514Y0171566D01*
X0052830Y0171167D02*
X0063690Y0171167D01*
X0063690Y0170769D02*
X0060590Y0170769D01*
X0060590Y0170370D02*
X0063690Y0170370D01*
X0063690Y0169972D02*
X0060590Y0169972D01*
X0060590Y0169573D02*
X0063690Y0169573D01*
X0063690Y0169174D02*
X0060590Y0169174D01*
X0060590Y0107357D02*
X0063690Y0107357D01*
X0063690Y0099957D01*
X0053690Y0099957D01*
X0053401Y0099989D01*
X0053126Y0100086D01*
X0052880Y0100240D01*
X0052674Y0100446D01*
X0052519Y0100693D01*
X0052423Y0100968D01*
X0052390Y0101257D01*
X0052390Y0104157D01*
X0052420Y0104424D01*
X0052509Y0104677D01*
X0052652Y0104905D01*
X0052842Y0105095D01*
X0053070Y0105238D01*
X0053323Y0105327D01*
X0053590Y0105357D01*
X0060490Y0105357D01*
X0060528Y0105364D01*
X0060561Y0105386D01*
X0060583Y0105419D01*
X0060590Y0105457D01*
X0060590Y0107357D01*
X0060590Y0107007D02*
X0063690Y0107007D01*
X0063690Y0106608D02*
X0060590Y0106608D01*
X0060590Y0106210D02*
X0063690Y0106210D01*
X0063690Y0105811D02*
X0060590Y0105811D01*
X0060579Y0105413D02*
X0063690Y0105413D01*
X0063690Y0105014D02*
X0052761Y0105014D01*
X0052487Y0104616D02*
X0063690Y0104616D01*
X0063690Y0104217D02*
X0052397Y0104217D01*
X0052390Y0103819D02*
X0063690Y0103819D01*
X0063690Y0103420D02*
X0052390Y0103420D01*
X0052390Y0103022D02*
X0063690Y0103022D01*
X0063690Y0102623D02*
X0052390Y0102623D01*
X0052390Y0102225D02*
X0063690Y0102225D01*
X0063690Y0101826D02*
X0052390Y0101826D01*
X0052390Y0101428D02*
X0063690Y0101428D01*
X0063690Y0101029D02*
X0052416Y0101029D01*
X0052558Y0100631D02*
X0063690Y0100631D01*
X0063690Y0100232D02*
X0052893Y0100232D01*
X0053690Y0084294D02*
X0053401Y0084261D01*
X0053126Y0084165D01*
X0052880Y0084010D01*
X0052674Y0083804D01*
X0052519Y0083558D01*
X0052423Y0083283D01*
X0052390Y0082994D01*
X0052390Y0080094D01*
X0052420Y0079827D01*
X0052509Y0079573D01*
X0052652Y0079346D01*
X0052842Y0079155D01*
X0053070Y0079013D01*
X0053323Y0078924D01*
X0053590Y0078894D01*
X0060490Y0078894D01*
X0060528Y0078886D01*
X0060561Y0078864D01*
X0060583Y0078832D01*
X0060590Y0078794D01*
X0060590Y0076894D01*
X0063690Y0076894D01*
X0063690Y0084294D01*
X0053690Y0084294D01*
X0053671Y0084292D02*
X0063690Y0084292D01*
X0063690Y0083893D02*
X0052763Y0083893D01*
X0052497Y0083495D02*
X0063690Y0083495D01*
X0063690Y0083096D02*
X0052402Y0083096D01*
X0052390Y0082698D02*
X0063690Y0082698D01*
X0063690Y0082299D02*
X0052390Y0082299D01*
X0052390Y0081901D02*
X0063690Y0081901D01*
X0063690Y0081502D02*
X0052390Y0081502D01*
X0052390Y0081103D02*
X0063690Y0081103D01*
X0063690Y0080705D02*
X0052390Y0080705D01*
X0052390Y0080306D02*
X0063690Y0080306D01*
X0063690Y0079908D02*
X0052411Y0079908D01*
X0052549Y0079509D02*
X0063690Y0079509D01*
X0063690Y0079111D02*
X0052913Y0079111D01*
X0060590Y0078712D02*
X0063690Y0078712D01*
X0063690Y0078314D02*
X0060590Y0078314D01*
X0060590Y0077915D02*
X0063690Y0077915D01*
X0063690Y0077517D02*
X0060590Y0077517D01*
X0060590Y0077118D02*
X0063690Y0077118D01*
D15*
X0063077Y0086490D02*
X0063077Y0087474D01*
X0069475Y0087474D01*
X0069475Y0086490D01*
X0063077Y0086490D01*
X0063077Y0086522D02*
X0069475Y0086522D01*
X0069475Y0086718D02*
X0063077Y0086718D01*
X0063077Y0086913D02*
X0069475Y0086913D01*
X0069475Y0087109D02*
X0063077Y0087109D01*
X0063077Y0087304D02*
X0069475Y0087304D01*
X0069475Y0089049D02*
X0063077Y0089049D01*
X0063077Y0090033D01*
X0069475Y0090033D01*
X0069475Y0089049D01*
X0069475Y0089062D02*
X0063077Y0089062D01*
X0063077Y0089257D02*
X0069475Y0089257D01*
X0069475Y0089453D02*
X0063077Y0089453D01*
X0063077Y0089648D02*
X0069475Y0089648D01*
X0069475Y0089844D02*
X0063077Y0089844D01*
X0063077Y0091608D02*
X0063077Y0092592D01*
X0069475Y0092592D01*
X0069475Y0091608D01*
X0063077Y0091608D01*
X0063077Y0091797D02*
X0069475Y0091797D01*
X0069475Y0091993D02*
X0063077Y0091993D01*
X0063077Y0092188D02*
X0069475Y0092188D01*
X0069475Y0092383D02*
X0063077Y0092383D01*
X0063077Y0092579D02*
X0069475Y0092579D01*
X0069475Y0094167D02*
X0063077Y0094167D01*
X0063077Y0095151D01*
X0069475Y0095151D01*
X0069475Y0094167D01*
X0069475Y0094337D02*
X0063077Y0094337D01*
X0063077Y0094532D02*
X0069475Y0094532D01*
X0069475Y0094728D02*
X0063077Y0094728D01*
X0063077Y0094923D02*
X0069475Y0094923D01*
X0069475Y0095118D02*
X0063077Y0095118D01*
X0063077Y0096726D02*
X0063077Y0097710D01*
X0069475Y0097710D01*
X0069475Y0096726D01*
X0063077Y0096726D01*
X0063077Y0096877D02*
X0069475Y0096877D01*
X0069475Y0097072D02*
X0063077Y0097072D01*
X0063077Y0097267D02*
X0069475Y0097267D01*
X0069475Y0097463D02*
X0063077Y0097463D01*
X0063077Y0097658D02*
X0069475Y0097658D01*
X0069475Y0178490D02*
X0063077Y0178490D01*
X0063077Y0179474D01*
X0069475Y0179474D01*
X0069475Y0178490D01*
X0069475Y0178538D02*
X0063077Y0178538D01*
X0063077Y0178733D02*
X0069475Y0178733D01*
X0069475Y0178929D02*
X0063077Y0178929D01*
X0063077Y0179124D02*
X0069475Y0179124D01*
X0069475Y0179319D02*
X0063077Y0179319D01*
X0063077Y0181049D02*
X0063077Y0182033D01*
X0069475Y0182033D01*
X0069475Y0181049D01*
X0063077Y0181049D01*
X0063077Y0181077D02*
X0069475Y0181077D01*
X0069475Y0181273D02*
X0063077Y0181273D01*
X0063077Y0181468D02*
X0069475Y0181468D01*
X0069475Y0181664D02*
X0063077Y0181664D01*
X0063077Y0181859D02*
X0069475Y0181859D01*
X0069475Y0183608D02*
X0063077Y0183608D01*
X0063077Y0184592D01*
X0069475Y0184592D01*
X0069475Y0183608D01*
X0069475Y0183617D02*
X0063077Y0183617D01*
X0063077Y0183813D02*
X0069475Y0183813D01*
X0069475Y0184008D02*
X0063077Y0184008D01*
X0063077Y0184203D02*
X0069475Y0184203D01*
X0069475Y0184399D02*
X0063077Y0184399D01*
X0063077Y0186167D02*
X0063077Y0187151D01*
X0069475Y0187151D01*
X0069475Y0186167D01*
X0063077Y0186167D01*
X0063077Y0186352D02*
X0069475Y0186352D01*
X0069475Y0186548D02*
X0063077Y0186548D01*
X0063077Y0186743D02*
X0069475Y0186743D01*
X0069475Y0186938D02*
X0063077Y0186938D01*
X0063077Y0187134D02*
X0069475Y0187134D01*
X0069475Y0188726D02*
X0063077Y0188726D01*
X0063077Y0189710D01*
X0069475Y0189710D01*
X0069475Y0188726D01*
X0069475Y0188892D02*
X0063077Y0188892D01*
X0063077Y0189087D02*
X0069475Y0189087D01*
X0069475Y0189283D02*
X0063077Y0189283D01*
X0063077Y0189478D02*
X0069475Y0189478D01*
X0069475Y0189673D02*
X0063077Y0189673D01*
X0063077Y0270490D02*
X0063077Y0271474D01*
X0069475Y0271474D01*
X0069475Y0270490D01*
X0063077Y0270490D01*
X0063077Y0270553D02*
X0069475Y0270553D01*
X0069475Y0270749D02*
X0063077Y0270749D01*
X0063077Y0270944D02*
X0069475Y0270944D01*
X0069475Y0271139D02*
X0063077Y0271139D01*
X0063077Y0271335D02*
X0069475Y0271335D01*
X0069475Y0273049D02*
X0063077Y0273049D01*
X0063077Y0274033D01*
X0069475Y0274033D01*
X0069475Y0273049D01*
X0069475Y0273093D02*
X0063077Y0273093D01*
X0063077Y0273288D02*
X0069475Y0273288D01*
X0069475Y0273484D02*
X0063077Y0273484D01*
X0063077Y0273679D02*
X0069475Y0273679D01*
X0069475Y0273874D02*
X0063077Y0273874D01*
X0063077Y0275608D02*
X0063077Y0276592D01*
X0069475Y0276592D01*
X0069475Y0275608D01*
X0063077Y0275608D01*
X0063077Y0275633D02*
X0069475Y0275633D01*
X0069475Y0275828D02*
X0063077Y0275828D01*
X0063077Y0276023D02*
X0069475Y0276023D01*
X0069475Y0276219D02*
X0063077Y0276219D01*
X0063077Y0276414D02*
X0069475Y0276414D01*
X0069475Y0278167D02*
X0063077Y0278167D01*
X0063077Y0279151D01*
X0069475Y0279151D01*
X0069475Y0278167D01*
X0069475Y0278172D02*
X0063077Y0278172D01*
X0063077Y0278368D02*
X0069475Y0278368D01*
X0069475Y0278563D02*
X0063077Y0278563D01*
X0063077Y0278758D02*
X0069475Y0278758D01*
X0069475Y0278954D02*
X0063077Y0278954D01*
X0063077Y0279149D02*
X0069475Y0279149D01*
X0069475Y0280726D02*
X0063077Y0280726D01*
X0063077Y0281710D01*
X0069475Y0281710D01*
X0069475Y0280726D01*
X0069475Y0280907D02*
X0063077Y0280907D01*
X0063077Y0281103D02*
X0069475Y0281103D01*
X0069475Y0281298D02*
X0063077Y0281298D01*
X0063077Y0281493D02*
X0069475Y0281493D01*
X0069475Y0281689D02*
X0063077Y0281689D01*
X0063077Y0362490D02*
X0063077Y0363474D01*
X0069475Y0363474D01*
X0069475Y0362490D01*
X0063077Y0362490D01*
X0063077Y0362569D02*
X0069475Y0362569D01*
X0069475Y0362764D02*
X0063077Y0362764D01*
X0063077Y0362959D02*
X0069475Y0362959D01*
X0069475Y0363155D02*
X0063077Y0363155D01*
X0063077Y0363350D02*
X0069475Y0363350D01*
X0069475Y0365049D02*
X0063077Y0365049D01*
X0063077Y0366033D01*
X0069475Y0366033D01*
X0069475Y0365049D01*
X0069475Y0365108D02*
X0063077Y0365108D01*
X0063077Y0365304D02*
X0069475Y0365304D01*
X0069475Y0365499D02*
X0063077Y0365499D01*
X0063077Y0365694D02*
X0069475Y0365694D01*
X0069475Y0365890D02*
X0063077Y0365890D01*
X0063077Y0367608D02*
X0063077Y0368592D01*
X0069475Y0368592D01*
X0069475Y0367608D01*
X0063077Y0367608D01*
X0063077Y0367648D02*
X0069475Y0367648D01*
X0069475Y0367843D02*
X0063077Y0367843D01*
X0063077Y0368039D02*
X0069475Y0368039D01*
X0069475Y0368234D02*
X0063077Y0368234D01*
X0063077Y0368429D02*
X0069475Y0368429D01*
X0069475Y0370167D02*
X0063077Y0370167D01*
X0063077Y0371151D01*
X0069475Y0371151D01*
X0069475Y0370167D01*
X0069475Y0370188D02*
X0063077Y0370188D01*
X0063077Y0370383D02*
X0069475Y0370383D01*
X0069475Y0370578D02*
X0063077Y0370578D01*
X0063077Y0370774D02*
X0069475Y0370774D01*
X0069475Y0370969D02*
X0063077Y0370969D01*
X0063077Y0372726D02*
X0063077Y0373710D01*
X0069475Y0373710D01*
X0069475Y0372726D01*
X0063077Y0372726D01*
X0063077Y0372727D02*
X0069475Y0372727D01*
X0069475Y0372923D02*
X0063077Y0372923D01*
X0063077Y0373118D02*
X0069475Y0373118D01*
X0069475Y0373313D02*
X0063077Y0373313D01*
X0063077Y0373509D02*
X0069475Y0373509D01*
X0069475Y0373704D02*
X0063077Y0373704D01*
X0263077Y0373704D02*
X0269475Y0373704D01*
X0269475Y0373710D02*
X0263077Y0373710D01*
X0263077Y0372726D01*
X0269475Y0372726D01*
X0269475Y0373710D01*
X0269475Y0373509D02*
X0263077Y0373509D01*
X0263077Y0373313D02*
X0269475Y0373313D01*
X0269475Y0373118D02*
X0263077Y0373118D01*
X0263077Y0372923D02*
X0269475Y0372923D01*
X0269475Y0372727D02*
X0263077Y0372727D01*
X0263077Y0371151D02*
X0269475Y0371151D01*
X0269475Y0370167D01*
X0263077Y0370167D01*
X0263077Y0371151D01*
X0263077Y0370969D02*
X0269475Y0370969D01*
X0269475Y0370774D02*
X0263077Y0370774D01*
X0263077Y0370578D02*
X0269475Y0370578D01*
X0269475Y0370383D02*
X0263077Y0370383D01*
X0263077Y0370188D02*
X0269475Y0370188D01*
X0269475Y0368592D02*
X0263077Y0368592D01*
X0263077Y0367608D01*
X0269475Y0367608D01*
X0269475Y0368592D01*
X0269475Y0368429D02*
X0263077Y0368429D01*
X0263077Y0368234D02*
X0269475Y0368234D01*
X0269475Y0368039D02*
X0263077Y0368039D01*
X0263077Y0367843D02*
X0269475Y0367843D01*
X0269475Y0367648D02*
X0263077Y0367648D01*
X0263077Y0366033D02*
X0269475Y0366033D01*
X0269475Y0365049D01*
X0263077Y0365049D01*
X0263077Y0366033D01*
X0263077Y0365890D02*
X0269475Y0365890D01*
X0269475Y0365694D02*
X0263077Y0365694D01*
X0263077Y0365499D02*
X0269475Y0365499D01*
X0269475Y0365304D02*
X0263077Y0365304D01*
X0263077Y0365108D02*
X0269475Y0365108D01*
X0269475Y0363474D02*
X0263077Y0363474D01*
X0263077Y0362490D01*
X0269475Y0362490D01*
X0269475Y0363474D01*
X0269475Y0363350D02*
X0263077Y0363350D01*
X0263077Y0363155D02*
X0269475Y0363155D01*
X0269475Y0362959D02*
X0263077Y0362959D01*
X0263077Y0362764D02*
X0269475Y0362764D01*
X0269475Y0362569D02*
X0263077Y0362569D01*
X0263077Y0281710D02*
X0269475Y0281710D01*
X0269475Y0280726D01*
X0263077Y0280726D01*
X0263077Y0281710D01*
X0263077Y0281689D02*
X0269475Y0281689D01*
X0269475Y0281493D02*
X0263077Y0281493D01*
X0263077Y0281298D02*
X0269475Y0281298D01*
X0269475Y0281103D02*
X0263077Y0281103D01*
X0263077Y0280907D02*
X0269475Y0280907D01*
X0269475Y0279151D02*
X0263077Y0279151D01*
X0263077Y0278167D01*
X0269475Y0278167D01*
X0269475Y0279151D01*
X0269475Y0279149D02*
X0263077Y0279149D01*
X0263077Y0278954D02*
X0269475Y0278954D01*
X0269475Y0278758D02*
X0263077Y0278758D01*
X0263077Y0278563D02*
X0269475Y0278563D01*
X0269475Y0278368D02*
X0263077Y0278368D01*
X0263077Y0278172D02*
X0269475Y0278172D01*
X0269475Y0276592D02*
X0263077Y0276592D01*
X0263077Y0275608D01*
X0269475Y0275608D01*
X0269475Y0276592D01*
X0269475Y0276414D02*
X0263077Y0276414D01*
X0263077Y0276219D02*
X0269475Y0276219D01*
X0269475Y0276023D02*
X0263077Y0276023D01*
X0263077Y0275828D02*
X0269475Y0275828D01*
X0269475Y0275633D02*
X0263077Y0275633D01*
X0263077Y0274033D02*
X0269475Y0274033D01*
X0269475Y0273049D01*
X0263077Y0273049D01*
X0263077Y0274033D01*
X0263077Y0273874D02*
X0269475Y0273874D01*
X0269475Y0273679D02*
X0263077Y0273679D01*
X0263077Y0273484D02*
X0269475Y0273484D01*
X0269475Y0273288D02*
X0263077Y0273288D01*
X0263077Y0273093D02*
X0269475Y0273093D01*
X0269475Y0271474D02*
X0263077Y0271474D01*
X0263077Y0270490D01*
X0269475Y0270490D01*
X0269475Y0271474D01*
X0269475Y0271335D02*
X0263077Y0271335D01*
X0263077Y0271139D02*
X0269475Y0271139D01*
X0269475Y0270944D02*
X0263077Y0270944D01*
X0263077Y0270749D02*
X0269475Y0270749D01*
X0269475Y0270553D02*
X0263077Y0270553D01*
X0263077Y0189710D02*
X0269475Y0189710D01*
X0269475Y0188726D01*
X0263077Y0188726D01*
X0263077Y0189710D01*
X0263077Y0189673D02*
X0269475Y0189673D01*
X0269475Y0189478D02*
X0263077Y0189478D01*
X0263077Y0189283D02*
X0269475Y0189283D01*
X0269475Y0189087D02*
X0263077Y0189087D01*
X0263077Y0188892D02*
X0269475Y0188892D01*
X0269475Y0187151D02*
X0263077Y0187151D01*
X0263077Y0186167D01*
X0269475Y0186167D01*
X0269475Y0187151D01*
X0269475Y0187134D02*
X0263077Y0187134D01*
X0263077Y0186938D02*
X0269475Y0186938D01*
X0269475Y0186743D02*
X0263077Y0186743D01*
X0263077Y0186548D02*
X0269475Y0186548D01*
X0269475Y0186352D02*
X0263077Y0186352D01*
X0263077Y0184592D02*
X0269475Y0184592D01*
X0269475Y0183608D01*
X0263077Y0183608D01*
X0263077Y0184592D01*
X0263077Y0184399D02*
X0269475Y0184399D01*
X0269475Y0184203D02*
X0263077Y0184203D01*
X0263077Y0184008D02*
X0269475Y0184008D01*
X0269475Y0183813D02*
X0263077Y0183813D01*
X0263077Y0183617D02*
X0269475Y0183617D01*
X0269475Y0182033D02*
X0263077Y0182033D01*
X0263077Y0181049D01*
X0269475Y0181049D01*
X0269475Y0182033D01*
X0269475Y0181859D02*
X0263077Y0181859D01*
X0263077Y0181664D02*
X0269475Y0181664D01*
X0269475Y0181468D02*
X0263077Y0181468D01*
X0263077Y0181273D02*
X0269475Y0181273D01*
X0269475Y0181077D02*
X0263077Y0181077D01*
X0263077Y0179474D02*
X0269475Y0179474D01*
X0269475Y0178490D01*
X0263077Y0178490D01*
X0263077Y0179474D01*
X0263077Y0179319D02*
X0269475Y0179319D01*
X0269475Y0179124D02*
X0263077Y0179124D01*
X0263077Y0178929D02*
X0269475Y0178929D01*
X0269475Y0178733D02*
X0263077Y0178733D01*
X0263077Y0178538D02*
X0269475Y0178538D01*
X0269475Y0097710D02*
X0263077Y0097710D01*
X0263077Y0096726D01*
X0269475Y0096726D01*
X0269475Y0097710D01*
X0269475Y0097658D02*
X0263077Y0097658D01*
X0263077Y0097463D02*
X0269475Y0097463D01*
X0269475Y0097267D02*
X0263077Y0097267D01*
X0263077Y0097072D02*
X0269475Y0097072D01*
X0269475Y0096877D02*
X0263077Y0096877D01*
X0263077Y0095151D02*
X0269475Y0095151D01*
X0269475Y0094167D01*
X0263077Y0094167D01*
X0263077Y0095151D01*
X0263077Y0095118D02*
X0269475Y0095118D01*
X0269475Y0094923D02*
X0263077Y0094923D01*
X0263077Y0094728D02*
X0269475Y0094728D01*
X0269475Y0094532D02*
X0263077Y0094532D01*
X0263077Y0094337D02*
X0269475Y0094337D01*
X0269475Y0092592D02*
X0263077Y0092592D01*
X0263077Y0091608D01*
X0269475Y0091608D01*
X0269475Y0092592D01*
X0269475Y0092579D02*
X0263077Y0092579D01*
X0263077Y0092383D02*
X0269475Y0092383D01*
X0269475Y0092188D02*
X0263077Y0092188D01*
X0263077Y0091993D02*
X0269475Y0091993D01*
X0269475Y0091797D02*
X0263077Y0091797D01*
X0263077Y0090033D02*
X0269475Y0090033D01*
X0269475Y0089049D01*
X0263077Y0089049D01*
X0263077Y0090033D01*
X0263077Y0089844D02*
X0269475Y0089844D01*
X0269475Y0089648D02*
X0263077Y0089648D01*
X0263077Y0089453D02*
X0269475Y0089453D01*
X0269475Y0089257D02*
X0263077Y0089257D01*
X0263077Y0089062D02*
X0269475Y0089062D01*
X0269475Y0087474D02*
X0263077Y0087474D01*
X0263077Y0086490D01*
X0269475Y0086490D01*
X0269475Y0087474D01*
X0269475Y0087304D02*
X0263077Y0087304D01*
X0263077Y0087109D02*
X0269475Y0087109D01*
X0269475Y0086913D02*
X0263077Y0086913D01*
X0263077Y0086718D02*
X0269475Y0086718D01*
X0269475Y0086522D02*
X0263077Y0086522D01*
D16*
X0172750Y0086079D03*
X0172750Y0095921D03*
X0172750Y0178079D03*
X0172750Y0187921D03*
X0172750Y0270079D03*
X0172750Y0279921D03*
X0172750Y0362079D03*
X0172750Y0371921D03*
X0372750Y0371921D03*
X0372750Y0362079D03*
X0372750Y0279921D03*
X0372750Y0270079D03*
X0372750Y0187921D03*
X0372750Y0178079D03*
X0372750Y0095921D03*
X0372750Y0086079D03*
D17*
X0364750Y0087654D03*
X0358750Y0086746D03*
X0358750Y0080054D03*
X0364750Y0094346D03*
X0358750Y0172054D03*
X0358750Y0178746D03*
X0364750Y0179654D03*
X0364750Y0186346D03*
X0358750Y0264054D03*
X0358750Y0270746D03*
X0364750Y0271654D03*
X0364750Y0278346D03*
X0358750Y0356054D03*
X0358750Y0362746D03*
X0364750Y0363654D03*
X0364750Y0370346D03*
X0164750Y0370346D03*
X0164750Y0363654D03*
X0158750Y0362746D03*
X0158750Y0356054D03*
X0164750Y0278346D03*
X0164750Y0271654D03*
X0158750Y0270746D03*
X0158750Y0264054D03*
X0164750Y0186346D03*
X0164750Y0179654D03*
X0158750Y0178746D03*
X0158750Y0172054D03*
X0164750Y0094346D03*
X0164750Y0087654D03*
X0158750Y0086746D03*
X0158750Y0080054D03*
D18*
X0185944Y0055193D03*
X0189093Y0055193D03*
X0192243Y0055193D03*
X0195393Y0055193D03*
X0198542Y0055193D03*
X0196967Y0058736D03*
X0193818Y0058736D03*
X0190668Y0058736D03*
X0200117Y0058736D03*
X0203267Y0058736D03*
X0206416Y0058736D03*
X0209566Y0058736D03*
X0212715Y0058736D03*
X0215865Y0058736D03*
X0219015Y0058736D03*
X0222164Y0058736D03*
X0220589Y0055193D03*
X0217440Y0055193D03*
X0211141Y0055193D03*
X0207991Y0055193D03*
X0204841Y0055193D03*
X0224920Y0055193D03*
X0209566Y0088264D03*
X0206416Y0088264D03*
X0203267Y0088264D03*
X0200117Y0088264D03*
X0196967Y0088264D03*
X0195393Y0091807D03*
X0198542Y0091807D03*
X0201692Y0091807D03*
X0204841Y0091807D03*
X0207991Y0091807D03*
X0211141Y0091807D03*
X0217440Y0091807D03*
X0220589Y0091807D03*
X0224920Y0091807D03*
X0224920Y0147193D03*
X0220589Y0147193D03*
X0217440Y0147193D03*
X0219015Y0150736D03*
X0222164Y0150736D03*
X0215865Y0150736D03*
X0212715Y0150736D03*
X0209566Y0150736D03*
X0206416Y0150736D03*
X0203267Y0150736D03*
X0200117Y0150736D03*
X0196967Y0150736D03*
X0193818Y0150736D03*
X0190668Y0150736D03*
X0189093Y0147193D03*
X0185944Y0147193D03*
X0192243Y0147193D03*
X0195393Y0147193D03*
X0198542Y0147193D03*
X0204841Y0147193D03*
X0207991Y0147193D03*
X0211141Y0147193D03*
X0209566Y0180264D03*
X0206416Y0180264D03*
X0203267Y0180264D03*
X0200117Y0180264D03*
X0196967Y0180264D03*
X0195393Y0183807D03*
X0198542Y0183807D03*
X0201692Y0183807D03*
X0204841Y0183807D03*
X0207991Y0183807D03*
X0211141Y0183807D03*
X0217440Y0183807D03*
X0220589Y0183807D03*
X0224920Y0183807D03*
X0224920Y0239193D03*
X0220589Y0239193D03*
X0217440Y0239193D03*
X0219015Y0242736D03*
X0222164Y0242736D03*
X0215865Y0242736D03*
X0212715Y0242736D03*
X0209566Y0242736D03*
X0206416Y0242736D03*
X0203267Y0242736D03*
X0200117Y0242736D03*
X0196967Y0242736D03*
X0193818Y0242736D03*
X0190668Y0242736D03*
X0189093Y0239193D03*
X0185944Y0239193D03*
X0192243Y0239193D03*
X0195393Y0239193D03*
X0198542Y0239193D03*
X0204841Y0239193D03*
X0207991Y0239193D03*
X0211141Y0239193D03*
X0209566Y0272264D03*
X0206416Y0272264D03*
X0203267Y0272264D03*
X0200117Y0272264D03*
X0196967Y0272264D03*
X0195393Y0275807D03*
X0198542Y0275807D03*
X0201692Y0275807D03*
X0204841Y0275807D03*
X0207991Y0275807D03*
X0211141Y0275807D03*
X0217440Y0275807D03*
X0220589Y0275807D03*
X0224920Y0275807D03*
X0224920Y0331193D03*
X0220589Y0331193D03*
X0217440Y0331193D03*
X0219015Y0334736D03*
X0222164Y0334736D03*
X0215865Y0334736D03*
X0212715Y0334736D03*
X0209566Y0334736D03*
X0206416Y0334736D03*
X0203267Y0334736D03*
X0200117Y0334736D03*
X0196967Y0334736D03*
X0193818Y0334736D03*
X0190668Y0334736D03*
X0189093Y0331193D03*
X0185944Y0331193D03*
X0192243Y0331193D03*
X0195393Y0331193D03*
X0198542Y0331193D03*
X0204841Y0331193D03*
X0207991Y0331193D03*
X0211141Y0331193D03*
X0209566Y0364264D03*
X0206416Y0364264D03*
X0203267Y0364264D03*
X0200117Y0364264D03*
X0196967Y0364264D03*
X0195393Y0367807D03*
X0198542Y0367807D03*
X0201692Y0367807D03*
X0204841Y0367807D03*
X0207991Y0367807D03*
X0211141Y0367807D03*
X0217440Y0367807D03*
X0220589Y0367807D03*
X0224920Y0367807D03*
X0385944Y0331193D03*
X0389093Y0331193D03*
X0392243Y0331193D03*
X0395393Y0331193D03*
X0398542Y0331193D03*
X0396967Y0334736D03*
X0393818Y0334736D03*
X0390668Y0334736D03*
X0400117Y0334736D03*
X0403267Y0334736D03*
X0406416Y0334736D03*
X0409566Y0334736D03*
X0412715Y0334736D03*
X0415865Y0334736D03*
X0419015Y0334736D03*
X0422164Y0334736D03*
X0420589Y0331193D03*
X0417440Y0331193D03*
X0411141Y0331193D03*
X0407991Y0331193D03*
X0404841Y0331193D03*
X0424920Y0331193D03*
X0409566Y0364264D03*
X0406416Y0364264D03*
X0403267Y0364264D03*
X0400117Y0364264D03*
X0396967Y0364264D03*
X0395393Y0367807D03*
X0398542Y0367807D03*
X0401692Y0367807D03*
X0404841Y0367807D03*
X0407991Y0367807D03*
X0411141Y0367807D03*
X0417440Y0367807D03*
X0420589Y0367807D03*
X0424920Y0367807D03*
X0424920Y0275807D03*
X0420589Y0275807D03*
X0417440Y0275807D03*
X0411141Y0275807D03*
X0407991Y0275807D03*
X0404841Y0275807D03*
X0401692Y0275807D03*
X0398542Y0275807D03*
X0395393Y0275807D03*
X0396967Y0272264D03*
X0400117Y0272264D03*
X0403267Y0272264D03*
X0406416Y0272264D03*
X0409566Y0272264D03*
X0409566Y0242736D03*
X0412715Y0242736D03*
X0415865Y0242736D03*
X0419015Y0242736D03*
X0422164Y0242736D03*
X0420589Y0239193D03*
X0417440Y0239193D03*
X0411141Y0239193D03*
X0407991Y0239193D03*
X0404841Y0239193D03*
X0403267Y0242736D03*
X0406416Y0242736D03*
X0400117Y0242736D03*
X0396967Y0242736D03*
X0393818Y0242736D03*
X0390668Y0242736D03*
X0389093Y0239193D03*
X0385944Y0239193D03*
X0392243Y0239193D03*
X0395393Y0239193D03*
X0398542Y0239193D03*
X0424920Y0239193D03*
X0424920Y0183807D03*
X0420589Y0183807D03*
X0417440Y0183807D03*
X0411141Y0183807D03*
X0407991Y0183807D03*
X0404841Y0183807D03*
X0401692Y0183807D03*
X0398542Y0183807D03*
X0395393Y0183807D03*
X0396967Y0180264D03*
X0400117Y0180264D03*
X0403267Y0180264D03*
X0406416Y0180264D03*
X0409566Y0180264D03*
X0409566Y0150736D03*
X0412715Y0150736D03*
X0415865Y0150736D03*
X0419015Y0150736D03*
X0422164Y0150736D03*
X0420589Y0147193D03*
X0417440Y0147193D03*
X0411141Y0147193D03*
X0407991Y0147193D03*
X0404841Y0147193D03*
X0403267Y0150736D03*
X0406416Y0150736D03*
X0400117Y0150736D03*
X0396967Y0150736D03*
X0393818Y0150736D03*
X0390668Y0150736D03*
X0389093Y0147193D03*
X0385944Y0147193D03*
X0392243Y0147193D03*
X0395393Y0147193D03*
X0398542Y0147193D03*
X0424920Y0147193D03*
X0424920Y0091807D03*
X0420589Y0091807D03*
X0417440Y0091807D03*
X0411141Y0091807D03*
X0407991Y0091807D03*
X0404841Y0091807D03*
X0401692Y0091807D03*
X0398542Y0091807D03*
X0395393Y0091807D03*
X0396967Y0088264D03*
X0400117Y0088264D03*
X0403267Y0088264D03*
X0406416Y0088264D03*
X0409566Y0088264D03*
X0409566Y0058736D03*
X0412715Y0058736D03*
X0415865Y0058736D03*
X0419015Y0058736D03*
X0422164Y0058736D03*
X0420589Y0055193D03*
X0417440Y0055193D03*
X0411141Y0055193D03*
X0407991Y0055193D03*
X0404841Y0055193D03*
X0403267Y0058736D03*
X0406416Y0058736D03*
X0400117Y0058736D03*
X0396967Y0058736D03*
X0393818Y0058736D03*
X0390668Y0058736D03*
X0389093Y0055193D03*
X0385944Y0055193D03*
X0392243Y0055193D03*
X0395393Y0055193D03*
X0398542Y0055193D03*
X0424920Y0055193D03*
D19*
X0407991Y0065626D03*
X0407991Y0068776D03*
X0407991Y0071925D03*
X0407991Y0075075D03*
X0407991Y0078224D03*
X0407991Y0081374D03*
X0385550Y0081374D03*
X0385550Y0078224D03*
X0385550Y0075075D03*
X0385550Y0071925D03*
X0385550Y0068776D03*
X0385550Y0065626D03*
X0382007Y0064051D03*
X0382007Y0060902D03*
X0382007Y0057752D03*
X0382007Y0054602D03*
X0382007Y0067201D03*
X0382007Y0070350D03*
X0382007Y0073500D03*
X0382007Y0076650D03*
X0382007Y0079799D03*
X0382007Y0082949D03*
X0382007Y0086098D03*
X0382007Y0089248D03*
X0382007Y0092398D03*
X0382007Y0146602D03*
X0382007Y0149752D03*
X0382007Y0152902D03*
X0382007Y0156051D03*
X0382007Y0159201D03*
X0382007Y0162350D03*
X0382007Y0165500D03*
X0382007Y0168650D03*
X0382007Y0171799D03*
X0382007Y0174949D03*
X0382007Y0178098D03*
X0382007Y0181248D03*
X0382007Y0184398D03*
X0385550Y0173374D03*
X0385550Y0170224D03*
X0385550Y0167075D03*
X0385550Y0163925D03*
X0385550Y0160776D03*
X0385550Y0157626D03*
X0407991Y0157626D03*
X0407991Y0160776D03*
X0407991Y0163925D03*
X0407991Y0167075D03*
X0407991Y0170224D03*
X0407991Y0173374D03*
X0382007Y0238602D03*
X0382007Y0241752D03*
X0382007Y0244902D03*
X0382007Y0248051D03*
X0382007Y0251201D03*
X0382007Y0254350D03*
X0382007Y0257500D03*
X0382007Y0260650D03*
X0382007Y0263799D03*
X0382007Y0266949D03*
X0382007Y0270098D03*
X0382007Y0273248D03*
X0382007Y0276398D03*
X0385550Y0265374D03*
X0385550Y0262224D03*
X0385550Y0259075D03*
X0385550Y0255925D03*
X0385550Y0252776D03*
X0385550Y0249626D03*
X0407991Y0249626D03*
X0407991Y0252776D03*
X0407991Y0255925D03*
X0407991Y0259075D03*
X0407991Y0262224D03*
X0407991Y0265374D03*
X0382007Y0330602D03*
X0382007Y0333752D03*
X0382007Y0336902D03*
X0382007Y0340051D03*
X0382007Y0343201D03*
X0382007Y0346350D03*
X0382007Y0349500D03*
X0382007Y0352650D03*
X0382007Y0355799D03*
X0382007Y0358949D03*
X0382007Y0362098D03*
X0382007Y0365248D03*
X0382007Y0368398D03*
X0385550Y0357374D03*
X0385550Y0354224D03*
X0385550Y0351075D03*
X0385550Y0347925D03*
X0385550Y0344776D03*
X0385550Y0341626D03*
X0407991Y0341626D03*
X0407991Y0344776D03*
X0407991Y0347925D03*
X0407991Y0351075D03*
X0407991Y0354224D03*
X0407991Y0357374D03*
X0207991Y0357374D03*
X0207991Y0354224D03*
X0207991Y0351075D03*
X0207991Y0347925D03*
X0207991Y0344776D03*
X0207991Y0341626D03*
X0185550Y0341626D03*
X0185550Y0344776D03*
X0185550Y0347925D03*
X0185550Y0351075D03*
X0185550Y0354224D03*
X0185550Y0357374D03*
X0182007Y0355799D03*
X0182007Y0352650D03*
X0182007Y0349500D03*
X0182007Y0346350D03*
X0182007Y0343201D03*
X0182007Y0340051D03*
X0182007Y0336902D03*
X0182007Y0333752D03*
X0182007Y0330602D03*
X0182007Y0358949D03*
X0182007Y0362098D03*
X0182007Y0365248D03*
X0182007Y0368398D03*
X0182007Y0276398D03*
X0182007Y0273248D03*
X0182007Y0270098D03*
X0182007Y0266949D03*
X0182007Y0263799D03*
X0182007Y0260650D03*
X0182007Y0257500D03*
X0182007Y0254350D03*
X0182007Y0251201D03*
X0182007Y0248051D03*
X0182007Y0244902D03*
X0182007Y0241752D03*
X0182007Y0238602D03*
X0185550Y0249626D03*
X0185550Y0252776D03*
X0185550Y0255925D03*
X0185550Y0259075D03*
X0185550Y0262224D03*
X0185550Y0265374D03*
X0207991Y0265374D03*
X0207991Y0262224D03*
X0207991Y0259075D03*
X0207991Y0255925D03*
X0207991Y0252776D03*
X0207991Y0249626D03*
X0182007Y0184398D03*
X0182007Y0181248D03*
X0182007Y0178098D03*
X0182007Y0174949D03*
X0182007Y0171799D03*
X0182007Y0168650D03*
X0182007Y0165500D03*
X0182007Y0162350D03*
X0182007Y0159201D03*
X0182007Y0156051D03*
X0182007Y0152902D03*
X0182007Y0149752D03*
X0182007Y0146602D03*
X0185550Y0157626D03*
X0185550Y0160776D03*
X0185550Y0163925D03*
X0185550Y0167075D03*
X0185550Y0170224D03*
X0185550Y0173374D03*
X0207991Y0173374D03*
X0207991Y0170224D03*
X0207991Y0167075D03*
X0207991Y0163925D03*
X0207991Y0160776D03*
X0207991Y0157626D03*
X0182007Y0092398D03*
X0182007Y0089248D03*
X0182007Y0086098D03*
X0182007Y0082949D03*
X0182007Y0079799D03*
X0182007Y0076650D03*
X0182007Y0073500D03*
X0182007Y0070350D03*
X0182007Y0067201D03*
X0182007Y0064051D03*
X0182007Y0060902D03*
X0182007Y0057752D03*
X0182007Y0054602D03*
X0185550Y0065626D03*
X0185550Y0068776D03*
X0185550Y0071925D03*
X0185550Y0075075D03*
X0185550Y0078224D03*
X0185550Y0081374D03*
X0207991Y0081374D03*
X0207991Y0078224D03*
X0207991Y0075075D03*
X0207991Y0071925D03*
X0207991Y0068776D03*
X0207991Y0065626D03*
D20*
X0289073Y0044500D03*
X0304427Y0044500D03*
X0304427Y0102500D03*
X0289073Y0102500D03*
X0289073Y0136500D03*
X0304427Y0136500D03*
X0304427Y0194500D03*
X0289073Y0194500D03*
X0289073Y0228500D03*
X0304427Y0228500D03*
X0304427Y0286500D03*
X0289073Y0286500D03*
X0289073Y0320500D03*
X0304427Y0320500D03*
X0304427Y0378500D03*
X0289073Y0378500D03*
X0104427Y0378500D03*
X0089073Y0378500D03*
X0089073Y0320500D03*
X0104427Y0320500D03*
X0104427Y0286500D03*
X0089073Y0286500D03*
X0089073Y0228500D03*
X0104427Y0228500D03*
X0104427Y0194500D03*
X0089073Y0194500D03*
X0089073Y0136500D03*
X0104427Y0136500D03*
X0104427Y0102500D03*
X0089073Y0102500D03*
X0089073Y0044500D03*
X0104427Y0044500D03*
D21*
X0130726Y0033531D03*
X0152774Y0033531D03*
X0152774Y0125531D03*
X0130726Y0125531D03*
X0130726Y0217531D03*
X0152774Y0217531D03*
X0152774Y0309531D03*
X0130726Y0309531D03*
X0330726Y0309531D03*
X0352774Y0309531D03*
X0352774Y0217531D03*
X0330726Y0217531D03*
X0330726Y0125531D03*
X0352774Y0125531D03*
X0352774Y0033531D03*
X0330726Y0033531D03*
D22*
X0335844Y0048000D03*
X0339781Y0048000D03*
X0343719Y0048000D03*
X0347656Y0048000D03*
X0347656Y0140000D03*
X0343719Y0140000D03*
X0339781Y0140000D03*
X0335844Y0140000D03*
X0335844Y0232000D03*
X0339781Y0232000D03*
X0343719Y0232000D03*
X0347656Y0232000D03*
X0347656Y0324000D03*
X0343719Y0324000D03*
X0339781Y0324000D03*
X0335844Y0324000D03*
X0147656Y0324000D03*
X0143719Y0324000D03*
X0139781Y0324000D03*
X0135844Y0324000D03*
X0135844Y0232000D03*
X0139781Y0232000D03*
X0143719Y0232000D03*
X0147656Y0232000D03*
X0147656Y0140000D03*
X0143719Y0140000D03*
X0139781Y0140000D03*
X0135844Y0140000D03*
X0135844Y0048000D03*
X0139781Y0048000D03*
X0143719Y0048000D03*
X0147656Y0048000D03*
D23*
X0074917Y0052163D03*
X0074917Y0060037D03*
X0074917Y0144163D03*
X0074917Y0152037D03*
X0074917Y0236163D03*
X0074917Y0244037D03*
X0074917Y0328163D03*
X0074917Y0336037D03*
X0274917Y0336037D03*
X0274917Y0328163D03*
X0274917Y0244037D03*
X0274917Y0236163D03*
X0274917Y0152037D03*
X0274917Y0144163D03*
X0274917Y0060037D03*
X0274917Y0052163D03*
D24*
X0054444Y0042714D03*
X0054444Y0069486D03*
X0054444Y0134714D03*
X0054444Y0161486D03*
X0054444Y0226714D03*
X0054444Y0253486D03*
X0054444Y0318714D03*
X0054444Y0345486D03*
X0254444Y0345486D03*
X0254444Y0318714D03*
X0254444Y0253486D03*
X0254444Y0226714D03*
X0254444Y0161486D03*
X0254444Y0134714D03*
X0254444Y0069486D03*
X0254444Y0042714D03*
D25*
X0310610Y0067781D03*
X0314350Y0067781D03*
X0318090Y0067781D03*
X0318090Y0078019D03*
X0310610Y0078019D03*
X0310610Y0159781D03*
X0314350Y0159781D03*
X0318090Y0159781D03*
X0318090Y0170019D03*
X0310610Y0170019D03*
X0310610Y0251781D03*
X0314350Y0251781D03*
X0318090Y0251781D03*
X0318090Y0262019D03*
X0310610Y0262019D03*
X0310610Y0343781D03*
X0314350Y0343781D03*
X0318090Y0343781D03*
X0318090Y0354019D03*
X0310610Y0354019D03*
X0118090Y0354019D03*
X0110610Y0354019D03*
X0110610Y0343781D03*
X0114350Y0343781D03*
X0118090Y0343781D03*
X0118090Y0262019D03*
X0110610Y0262019D03*
X0110610Y0251781D03*
X0114350Y0251781D03*
X0118090Y0251781D03*
X0118090Y0170019D03*
X0110610Y0170019D03*
X0110610Y0159781D03*
X0114350Y0159781D03*
X0118090Y0159781D03*
X0118090Y0078019D03*
X0110610Y0078019D03*
X0110610Y0067781D03*
X0114350Y0067781D03*
X0118090Y0067781D03*
D26*
X0122722Y0068500D03*
X0122722Y0076000D03*
X0131778Y0076000D03*
X0131778Y0068500D03*
X0131778Y0160500D03*
X0131778Y0168000D03*
X0122722Y0168000D03*
X0122722Y0160500D03*
X0122722Y0252500D03*
X0122722Y0260000D03*
X0131778Y0260000D03*
X0131778Y0252500D03*
X0131778Y0344500D03*
X0131778Y0352000D03*
X0122722Y0352000D03*
X0122722Y0344500D03*
X0322722Y0344500D03*
X0322722Y0352000D03*
X0331778Y0352000D03*
X0331778Y0344500D03*
X0331778Y0260000D03*
X0331778Y0252500D03*
X0322722Y0252500D03*
X0322722Y0260000D03*
X0322722Y0168000D03*
X0322722Y0160500D03*
X0331778Y0160500D03*
X0331778Y0168000D03*
X0331778Y0076000D03*
X0331778Y0068500D03*
X0322722Y0068500D03*
X0322722Y0076000D03*
D27*
X0341631Y0079760D03*
X0341631Y0083500D03*
X0341631Y0087240D03*
X0351869Y0087240D03*
X0351869Y0079760D03*
X0351869Y0171760D03*
X0351869Y0179240D03*
X0341631Y0179240D03*
X0341631Y0175500D03*
X0341631Y0171760D03*
X0341631Y0263760D03*
X0341631Y0267500D03*
X0341631Y0271240D03*
X0351869Y0271240D03*
X0351869Y0263760D03*
X0351869Y0355760D03*
X0351869Y0363240D03*
X0341631Y0363240D03*
X0341631Y0359500D03*
X0341631Y0355760D03*
X0151869Y0355760D03*
X0151869Y0363240D03*
X0141631Y0363240D03*
X0141631Y0359500D03*
X0141631Y0355760D03*
X0141631Y0271240D03*
X0141631Y0267500D03*
X0141631Y0263760D03*
X0151869Y0263760D03*
X0151869Y0271240D03*
X0151869Y0179240D03*
X0151869Y0171760D03*
X0141631Y0171760D03*
X0141631Y0175500D03*
X0141631Y0179240D03*
X0141631Y0087240D03*
X0141631Y0083500D03*
X0141631Y0079760D03*
X0151869Y0079760D03*
X0151869Y0087240D03*
D28*
X0100840Y0082258D03*
X0100840Y0070447D03*
X0100840Y0064542D03*
X0100840Y0156542D03*
X0100840Y0162447D03*
X0100840Y0174258D03*
X0100840Y0248542D03*
X0100840Y0254447D03*
X0100840Y0266258D03*
X0100840Y0340542D03*
X0100840Y0346447D03*
X0100840Y0358258D03*
X0300840Y0358258D03*
X0300840Y0346447D03*
X0300840Y0340542D03*
X0300840Y0266258D03*
X0300840Y0254447D03*
X0300840Y0248542D03*
X0300840Y0174258D03*
X0300840Y0162447D03*
X0300840Y0156542D03*
X0300840Y0082258D03*
X0300840Y0070447D03*
X0300840Y0064542D03*
D29*
X0290013Y0059030D03*
X0290013Y0087770D03*
X0290013Y0151030D03*
X0290013Y0179770D03*
X0290013Y0243030D03*
X0290013Y0271770D03*
X0290013Y0335030D03*
X0290013Y0363770D03*
X0090013Y0363770D03*
X0090013Y0335030D03*
X0090013Y0271770D03*
X0090013Y0243030D03*
X0090013Y0179770D03*
X0090013Y0151030D03*
X0090013Y0087770D03*
X0090013Y0059030D03*
D30*
X0098281Y0059030D03*
X0098281Y0087770D03*
X0098281Y0151030D03*
X0098281Y0179770D03*
X0098281Y0243030D03*
X0098281Y0271770D03*
X0098281Y0335030D03*
X0098281Y0363770D03*
X0298281Y0363770D03*
X0298281Y0335030D03*
X0298281Y0271770D03*
X0298281Y0243030D03*
X0298281Y0179770D03*
X0298281Y0151030D03*
X0298281Y0087770D03*
X0298281Y0059030D03*
M02*
